G04 Layer_Color=8421504*
%FSLAX44Y44*%
%MOMM*%
G71*
G01*
G75*
G04:AMPARAMS|DCode=10|XSize=0.635mm|YSize=0.5mm|CornerRadius=0mm|HoleSize=0mm|Usage=FLASHONLY|Rotation=225.000|XOffset=0mm|YOffset=0mm|HoleType=Round|Shape=Rectangle|*
%AMROTATEDRECTD10*
4,1,4,0.0477,0.4013,0.4013,0.0477,-0.0477,-0.4013,-0.4013,-0.0477,0.0477,0.4013,0.0*
%
%ADD10ROTATEDRECTD10*%

G04:AMPARAMS|DCode=11|XSize=0.635mm|YSize=0.5mm|CornerRadius=0mm|HoleSize=0mm|Usage=FLASHONLY|Rotation=315.000|XOffset=0mm|YOffset=0mm|HoleType=Round|Shape=Rectangle|*
%AMROTATEDRECTD11*
4,1,4,-0.4013,0.0477,-0.0477,0.4013,0.4013,-0.0477,0.0477,-0.4013,-0.4013,0.0477,0.0*
%
%ADD11ROTATEDRECTD11*%

%ADD12R,0.5000X0.6350*%
%ADD13R,1.0000X1.1000*%
%ADD14R,1.1000X1.0000*%
%ADD15R,1.1000X1.4000*%
%ADD16P,1.4142X4X270.0*%
%ADD17R,1.5000X1.1000*%
G04:AMPARAMS|DCode=18|XSize=0.32mm|YSize=1mm|CornerRadius=0mm|HoleSize=0mm|Usage=FLASHONLY|Rotation=315.000|XOffset=0mm|YOffset=0mm|HoleType=Round|Shape=Rectangle|*
%AMROTATEDRECTD18*
4,1,4,-0.4667,-0.2404,0.2404,0.4667,0.4667,0.2404,-0.2404,-0.4667,-0.4667,-0.2404,0.0*
%
%ADD18ROTATEDRECTD18*%

G04:AMPARAMS|DCode=19|XSize=0.32mm|YSize=1mm|CornerRadius=0mm|HoleSize=0mm|Usage=FLASHONLY|Rotation=225.000|XOffset=0mm|YOffset=0mm|HoleType=Round|Shape=Rectangle|*
%AMROTATEDRECTD19*
4,1,4,-0.2404,0.4667,0.4667,-0.2404,0.2404,-0.4667,-0.4667,0.2404,-0.2404,0.4667,0.0*
%
%ADD19ROTATEDRECTD19*%

G04:AMPARAMS|DCode=20|XSize=1.65mm|YSize=0.6mm|CornerRadius=0.06mm|HoleSize=0mm|Usage=FLASHONLY|Rotation=0.000|XOffset=0mm|YOffset=0mm|HoleType=Round|Shape=RoundedRectangle|*
%AMROUNDEDRECTD20*
21,1,1.6500,0.4800,0,0,0.0*
21,1,1.5300,0.6000,0,0,0.0*
1,1,0.1200,0.7650,-0.2400*
1,1,0.1200,-0.7650,-0.2400*
1,1,0.1200,-0.7650,0.2400*
1,1,0.1200,0.7650,0.2400*
%
%ADD20ROUNDEDRECTD20*%
%ADD21R,1.9000X1.7500*%
%ADD22R,1.4000X0.4000*%
%ADD23R,1.4500X1.1500*%
%ADD24R,1.0000X0.4500*%
%ADD25R,1.4000X0.6000*%
%ADD26R,2.9200X1.2700*%
%ADD27O,1.1000X2.0000*%
%ADD28R,1.1000X2.0000*%
%ADD30R,1.5000X0.8500*%
G04:AMPARAMS|DCode=31|XSize=0.6mm|YSize=1.1mm|CornerRadius=0mm|HoleSize=0mm|Usage=FLASHONLY|Rotation=45.000|XOffset=0mm|YOffset=0mm|HoleType=Round|Shape=Rectangle|*
%AMROTATEDRECTD31*
4,1,4,0.1768,-0.6010,-0.6010,0.1768,-0.1768,0.6010,0.6010,-0.1768,0.1768,-0.6010,0.0*
%
%ADD31ROTATEDRECTD31*%

%ADD32R,1.0000X1.5000*%
%ADD33R,0.9000X1.0000*%
%ADD34R,1.1000X1.8000*%
%ADD35R,1.6000X3.5000*%
%ADD36R,1.6000X1.0000*%
G04:AMPARAMS|DCode=37|XSize=1.4mm|YSize=1.2mm|CornerRadius=0mm|HoleSize=0mm|Usage=FLASHONLY|Rotation=135.000|XOffset=0mm|YOffset=0mm|HoleType=Round|Shape=Rectangle|*
%AMROTATEDRECTD37*
4,1,4,0.9192,-0.0707,0.0707,-0.9192,-0.9192,0.0707,-0.0707,0.9192,0.9192,-0.0707,0.0*
%
%ADD37ROTATEDRECTD37*%

%ADD52R,1.9000X1.1000*%
%ADD53C,0.0100*%
D10*
X230464Y52536D02*
D03*
X237535Y45465D02*
D03*
X256465Y27536D02*
D03*
X263535Y20464D02*
D03*
X172465Y-56465D02*
D03*
X179536Y-63535D02*
D03*
X140464Y54535D02*
D03*
X147535Y47464D02*
D03*
X148464Y62536D02*
D03*
X155535Y55465D02*
D03*
X132465Y46536D02*
D03*
X139536Y39464D02*
D03*
X156465Y70535D02*
D03*
X163535Y63464D02*
D03*
D11*
X143535Y27536D02*
D03*
X136465Y20464D02*
D03*
X256465Y-27536D02*
D03*
X263535Y-20464D02*
D03*
X256535Y83535D02*
D03*
X249464Y76465D02*
D03*
X287465Y39464D02*
D03*
X294536Y46536D02*
D03*
D12*
X195000Y64000D02*
D03*
X205000D02*
D03*
Y75000D02*
D03*
X195000D02*
D03*
X251000Y-107000D02*
D03*
X241000D02*
D03*
X665000Y112000D02*
D03*
X655000D02*
D03*
D13*
X330000Y-21500D02*
D03*
Y-4500D02*
D03*
X310000Y-21500D02*
D03*
Y-4500D02*
D03*
Y-55500D02*
D03*
Y-38500D02*
D03*
X330000Y-55500D02*
D03*
Y-38500D02*
D03*
X470000Y59500D02*
D03*
Y42500D02*
D03*
X486000Y59500D02*
D03*
Y42500D02*
D03*
Y-58500D02*
D03*
Y-41500D02*
D03*
X522000Y11500D02*
D03*
Y-5500D02*
D03*
Y-41500D02*
D03*
Y-24500D02*
D03*
X470000Y-58500D02*
D03*
Y-41500D02*
D03*
X55000Y26500D02*
D03*
Y43500D02*
D03*
Y-43500D02*
D03*
Y-26500D02*
D03*
X504000Y11500D02*
D03*
Y-5500D02*
D03*
Y-41500D02*
D03*
Y-24500D02*
D03*
D14*
X521500Y29000D02*
D03*
X504500D02*
D03*
X504500Y97000D02*
D03*
X521500D02*
D03*
X521500Y-59000D02*
D03*
X504500D02*
D03*
X88500Y43000D02*
D03*
X71500D02*
D03*
X504500Y59000D02*
D03*
X521500D02*
D03*
X521500Y113000D02*
D03*
X504500D02*
D03*
X521500Y81000D02*
D03*
X504500D02*
D03*
X469500D02*
D03*
X486500D02*
D03*
D15*
X143750Y125000D02*
D03*
X126250D02*
D03*
X143750Y155000D02*
D03*
X126250D02*
D03*
X256250Y125000D02*
D03*
X273750D02*
D03*
X256250Y155000D02*
D03*
X273750D02*
D03*
X565750Y-175000D02*
D03*
X548250D02*
D03*
D16*
X130425Y-50425D02*
D03*
X108858Y-42293D02*
D03*
X122293Y-28858D02*
D03*
D17*
X105000Y79500D02*
D03*
Y100500D02*
D03*
X135000Y79500D02*
D03*
Y100500D02*
D03*
D18*
X249568Y10677D02*
D03*
X246033Y14213D02*
D03*
X242497Y17748D02*
D03*
X238962Y21284D02*
D03*
X235426Y24820D02*
D03*
X231891Y28355D02*
D03*
X228355Y31890D02*
D03*
X224820Y35426D02*
D03*
X221284Y38962D02*
D03*
X217748Y42497D02*
D03*
X214213Y46033D02*
D03*
X210677Y49568D02*
D03*
X150432Y-10677D02*
D03*
X153967Y-14213D02*
D03*
X157503Y-17748D02*
D03*
X161038Y-21284D02*
D03*
X164574Y-24820D02*
D03*
X168109Y-28355D02*
D03*
X171645Y-31890D02*
D03*
X175180Y-35426D02*
D03*
X178716Y-38962D02*
D03*
X182252Y-42497D02*
D03*
X185787Y-46033D02*
D03*
X189323Y-49568D02*
D03*
D19*
Y49568D02*
D03*
X185787Y46033D02*
D03*
X182252Y42497D02*
D03*
X178716Y38962D02*
D03*
X175180Y35426D02*
D03*
X171645Y31890D02*
D03*
X168109Y28355D02*
D03*
X164574Y24820D02*
D03*
X161038Y21284D02*
D03*
X157503Y17748D02*
D03*
X153967Y14213D02*
D03*
X150432Y10677D02*
D03*
X210677Y-49568D02*
D03*
X214213Y-46033D02*
D03*
X217748Y-42497D02*
D03*
X221284Y-38962D02*
D03*
X224820Y-35426D02*
D03*
X228355Y-31890D02*
D03*
X231891Y-28355D02*
D03*
X235426Y-24820D02*
D03*
X238962Y-21284D02*
D03*
X242497Y-17748D02*
D03*
X246033Y-14213D02*
D03*
X249568Y-10677D02*
D03*
D20*
X448750Y57150D02*
D03*
Y-57150D02*
D03*
X351250D02*
D03*
Y-44450D02*
D03*
Y19050D02*
D03*
Y31750D02*
D03*
Y44450D02*
D03*
Y57150D02*
D03*
Y-31750D02*
D03*
Y-19050D02*
D03*
Y-6350D02*
D03*
Y6350D02*
D03*
X448750D02*
D03*
Y19050D02*
D03*
Y31750D02*
D03*
Y44450D02*
D03*
Y-44450D02*
D03*
Y-31750D02*
D03*
Y-19050D02*
D03*
Y-6350D02*
D03*
D21*
X12500Y-11250D02*
D03*
Y11250D02*
D03*
D22*
X39000Y0D02*
D03*
Y6500D02*
D03*
Y13000D02*
D03*
Y-6500D02*
D03*
Y-13000D02*
D03*
D23*
X34800Y23500D02*
D03*
Y-23500D02*
D03*
D24*
X200000Y-149500D02*
D03*
Y-100500D02*
D03*
D25*
X224000Y-143500D02*
D03*
Y-106500D02*
D03*
X176000D02*
D03*
Y-143500D02*
D03*
D26*
X651000Y-60000D02*
D03*
Y-30000D02*
D03*
Y0D02*
D03*
Y60000D02*
D03*
Y30000D02*
D03*
D27*
X544300Y-149000D02*
D03*
X569700D02*
D03*
X544300Y-61000D02*
D03*
D28*
X569700D02*
D03*
D30*
X592500Y-2500D02*
D03*
X541500D02*
D03*
Y-27500D02*
D03*
X592500D02*
D03*
D31*
X85990Y1081D02*
D03*
X78918Y-5990D02*
D03*
X105082Y-18010D02*
D03*
X98010Y-25082D02*
D03*
D32*
X50000Y-107500D02*
D03*
Y-72500D02*
D03*
Y72500D02*
D03*
Y107500D02*
D03*
X687000Y152500D02*
D03*
Y117500D02*
D03*
D33*
X55500Y-90000D02*
D03*
Y90000D02*
D03*
X681500Y135000D02*
D03*
D34*
X386500Y90000D02*
D03*
X413500D02*
D03*
D35*
X230000Y140000D02*
D03*
D36*
X170000Y117000D02*
D03*
Y140000D02*
D03*
Y163000D02*
D03*
D37*
X273768Y48211D02*
D03*
X285789Y60232D02*
D03*
X258211Y63768D02*
D03*
X270232Y75789D02*
D03*
D52*
X12500Y-35500D02*
D03*
X12500Y35500D02*
D03*
D53*
X104300Y-131350D02*
D03*
X103500Y-118650D02*
D03*
X117000Y-131350D02*
D03*
Y-118650D02*
D03*
X129700Y-131350D02*
D03*
Y-118650D02*
D03*
M02*
