G04 Layer_Color=65535*
%FSLAX44Y44*%
%MOMM*%
G71*
G01*
G75*
%ADD38C,0.2500*%
%ADD42C,0.2000*%
%ADD48C,0.5000*%
%ADD49C,0.1000*%
%ADD50C,0.2540*%
%ADD51C,0.1500*%
G36*
X413929Y-84000D02*
X410514D01*
Y-81973D01*
X410487Y-82029D01*
X410376Y-82168D01*
X410181Y-82390D01*
X409931Y-82640D01*
X409654Y-82917D01*
X409293Y-83223D01*
X408904Y-83500D01*
X408488Y-83750D01*
X408432Y-83778D01*
X408293Y-83833D01*
X408044Y-83917D01*
X407766Y-84028D01*
X407405Y-84139D01*
X406988Y-84222D01*
X406572Y-84278D01*
X406128Y-84305D01*
X405906D01*
X405739Y-84278D01*
X405517Y-84250D01*
X405295Y-84194D01*
X405017Y-84139D01*
X404712Y-84056D01*
X404407Y-83972D01*
X404073Y-83833D01*
X403740Y-83695D01*
X403379Y-83500D01*
X403046Y-83278D01*
X402685Y-83028D01*
X402352Y-82723D01*
X402019Y-82390D01*
X401991Y-82362D01*
X401936Y-82306D01*
X401852Y-82196D01*
X401769Y-82029D01*
X401630Y-81835D01*
X401492Y-81585D01*
X401325Y-81307D01*
X401186Y-80974D01*
X401020Y-80613D01*
X400853Y-80224D01*
X400714Y-79780D01*
X400603Y-79308D01*
X400492Y-78781D01*
X400409Y-78225D01*
X400353Y-77642D01*
X400326Y-77004D01*
Y-76976D01*
Y-76837D01*
Y-76671D01*
X400353Y-76421D01*
X400381Y-76115D01*
X400409Y-75782D01*
X400464Y-75394D01*
X400520Y-75005D01*
X400714Y-74117D01*
X400853Y-73672D01*
X401020Y-73228D01*
X401214Y-72784D01*
X401436Y-72368D01*
X401686Y-71979D01*
X401964Y-71618D01*
X401991Y-71590D01*
X402047Y-71535D01*
X402130Y-71452D01*
X402269Y-71313D01*
X402435Y-71174D01*
X402630Y-71035D01*
X402852Y-70869D01*
X403130Y-70674D01*
X403407Y-70508D01*
X403740Y-70341D01*
X404434Y-70036D01*
X404851Y-69925D01*
X405267Y-69841D01*
X405712Y-69786D01*
X406183Y-69758D01*
X406405D01*
X406572Y-69786D01*
X406766Y-69813D01*
X407016Y-69869D01*
X407266Y-69925D01*
X407571Y-70008D01*
X407877Y-70091D01*
X408210Y-70230D01*
X408543Y-70396D01*
X408876Y-70563D01*
X409237Y-70813D01*
X409570Y-71063D01*
X409903Y-71368D01*
X410237Y-71701D01*
Y-64789D01*
X413929D01*
Y-84000D01*
D02*
G37*
G36*
X449826Y-69786D02*
X450131Y-69813D01*
X450464Y-69869D01*
X450825Y-69952D01*
X451214Y-70063D01*
X451602Y-70202D01*
X451658Y-70230D01*
X451769Y-70286D01*
X451963Y-70369D01*
X452185Y-70508D01*
X452435Y-70674D01*
X452685Y-70869D01*
X452935Y-71091D01*
X453157Y-71340D01*
X453185Y-71368D01*
X453240Y-71452D01*
X453324Y-71590D01*
X453435Y-71785D01*
X453573Y-72007D01*
X453685Y-72284D01*
X453796Y-72562D01*
X453879Y-72895D01*
Y-72923D01*
X453907Y-73062D01*
X453962Y-73256D01*
X453990Y-73534D01*
X454045Y-73867D01*
X454073Y-74311D01*
X454101Y-74783D01*
Y-75366D01*
Y-84000D01*
X450409D01*
Y-76921D01*
Y-76893D01*
Y-76810D01*
Y-76699D01*
Y-76560D01*
Y-76365D01*
Y-76171D01*
X450381Y-75699D01*
X450353Y-75227D01*
X450298Y-74727D01*
X450242Y-74311D01*
X450214Y-74144D01*
X450159Y-74006D01*
Y-73978D01*
X450103Y-73895D01*
X450048Y-73783D01*
X449964Y-73617D01*
X449715Y-73284D01*
X449576Y-73117D01*
X449381Y-72978D01*
X449354Y-72951D01*
X449298Y-72923D01*
X449187Y-72867D01*
X449021Y-72784D01*
X448826Y-72701D01*
X448632Y-72645D01*
X448382Y-72618D01*
X448104Y-72590D01*
X447938D01*
X447771Y-72618D01*
X447549Y-72645D01*
X447271Y-72729D01*
X446994Y-72812D01*
X446688Y-72951D01*
X446383Y-73117D01*
X446355Y-73145D01*
X446272Y-73200D01*
X446133Y-73339D01*
X445967Y-73478D01*
X445800Y-73700D01*
X445634Y-73922D01*
X445467Y-74228D01*
X445356Y-74533D01*
Y-74561D01*
X445300Y-74700D01*
X445273Y-74922D01*
X445217Y-75255D01*
X445189Y-75449D01*
X445162Y-75699D01*
X445134Y-75949D01*
Y-76254D01*
X445106Y-76560D01*
X445078Y-76921D01*
Y-77309D01*
Y-77726D01*
Y-84000D01*
X441386D01*
Y-70063D01*
X444801D01*
Y-72118D01*
X444828Y-72090D01*
X444884Y-72007D01*
X444995Y-71896D01*
X445134Y-71757D01*
X445300Y-71562D01*
X445522Y-71368D01*
X445772Y-71146D01*
X446050Y-70924D01*
X446355Y-70730D01*
X446716Y-70508D01*
X447077Y-70313D01*
X447494Y-70119D01*
X447938Y-69980D01*
X448382Y-69869D01*
X448882Y-69786D01*
X449381Y-69758D01*
X449576D01*
X449826Y-69786D01*
D02*
G37*
G36*
X462207Y-73756D02*
X458515D01*
Y-70063D01*
X462207D01*
Y-73756D01*
D02*
G37*
G36*
X383190Y-162786D02*
X383440Y-162813D01*
X383745Y-162869D01*
X384078Y-162925D01*
X384439Y-163008D01*
X384828Y-163119D01*
X385216Y-163258D01*
X385633Y-163424D01*
X386049Y-163646D01*
X386438Y-163869D01*
X386827Y-164146D01*
X387215Y-164479D01*
X387548Y-164840D01*
X387576Y-164868D01*
X387632Y-164923D01*
X387715Y-165062D01*
X387826Y-165229D01*
X387965Y-165451D01*
X388104Y-165701D01*
X388270Y-166034D01*
X388437Y-166395D01*
X388604Y-166811D01*
X388770Y-167283D01*
X388909Y-167783D01*
X389048Y-168366D01*
X389159Y-168977D01*
X389242Y-169643D01*
X389297Y-170337D01*
Y-171114D01*
X380080D01*
Y-171142D01*
Y-171198D01*
Y-171281D01*
X380108Y-171392D01*
X380136Y-171670D01*
X380191Y-172058D01*
X380303Y-172447D01*
X380469Y-172891D01*
X380663Y-173308D01*
X380941Y-173668D01*
X380969Y-173696D01*
X381108Y-173807D01*
X381274Y-173946D01*
X381524Y-174113D01*
X381829Y-174279D01*
X382218Y-174418D01*
X382635Y-174529D01*
X383079Y-174557D01*
X383218D01*
X383384Y-174529D01*
X383578Y-174501D01*
X383801Y-174446D01*
X384050Y-174363D01*
X384300Y-174251D01*
X384522Y-174085D01*
X384550Y-174057D01*
X384633Y-174002D01*
X384744Y-173891D01*
X384856Y-173724D01*
X385022Y-173502D01*
X385161Y-173252D01*
X385300Y-172919D01*
X385439Y-172558D01*
X389103Y-173169D01*
Y-173197D01*
X389075Y-173252D01*
X389020Y-173363D01*
X388964Y-173502D01*
X388881Y-173668D01*
X388798Y-173863D01*
X388548Y-174307D01*
X388243Y-174807D01*
X387854Y-175334D01*
X387382Y-175806D01*
X386855Y-176250D01*
X386827D01*
X386799Y-176306D01*
X386688Y-176334D01*
X386577Y-176417D01*
X386438Y-176500D01*
X386244Y-176584D01*
X386049Y-176667D01*
X385799Y-176778D01*
X385244Y-176972D01*
X384606Y-177139D01*
X383856Y-177250D01*
X383051Y-177305D01*
X382884D01*
X382718Y-177278D01*
X382468D01*
X382163Y-177222D01*
X381802Y-177167D01*
X381413Y-177111D01*
X381024Y-177000D01*
X380580Y-176889D01*
X380136Y-176722D01*
X379692Y-176528D01*
X379248Y-176306D01*
X378803Y-176028D01*
X378387Y-175723D01*
X378026Y-175362D01*
X377665Y-174946D01*
X377637Y-174918D01*
X377610Y-174862D01*
X377554Y-174751D01*
X377443Y-174613D01*
X377360Y-174418D01*
X377249Y-174196D01*
X377110Y-173946D01*
X376999Y-173641D01*
X376860Y-173308D01*
X376749Y-172947D01*
X376610Y-172558D01*
X376527Y-172114D01*
X376444Y-171670D01*
X376360Y-171198D01*
X376333Y-170670D01*
X376305Y-170143D01*
Y-170115D01*
Y-170004D01*
Y-169810D01*
X376333Y-169560D01*
X376360Y-169282D01*
X376388Y-168949D01*
X376444Y-168588D01*
X376527Y-168172D01*
X376749Y-167311D01*
X376888Y-166867D01*
X377054Y-166395D01*
X377276Y-165951D01*
X377526Y-165534D01*
X377804Y-165118D01*
X378109Y-164729D01*
X378137Y-164701D01*
X378193Y-164646D01*
X378304Y-164535D01*
X378442Y-164424D01*
X378609Y-164285D01*
X378831Y-164118D01*
X379081Y-163924D01*
X379359Y-163730D01*
X379664Y-163563D01*
X380025Y-163369D01*
X380386Y-163202D01*
X380802Y-163063D01*
X381219Y-162952D01*
X381691Y-162841D01*
X382163Y-162786D01*
X382662Y-162758D01*
X382968D01*
X383190Y-162786D01*
D02*
G37*
G36*
X295961Y-177000D02*
X292269D01*
Y-163063D01*
X295961D01*
Y-177000D01*
D02*
G37*
G36*
X279887Y-173752D02*
X289548D01*
Y-177000D01*
X276000D01*
Y-157927D01*
X279887D01*
Y-173752D01*
D02*
G37*
G36*
X519974Y-163063D02*
X522501D01*
Y-166006D01*
X519974D01*
Y-171642D01*
Y-171670D01*
Y-171725D01*
Y-171808D01*
Y-171919D01*
Y-172197D01*
Y-172530D01*
X520002Y-172863D01*
Y-173197D01*
Y-173446D01*
X520030Y-173557D01*
Y-173613D01*
X520057Y-173668D01*
X520113Y-173780D01*
X520196Y-173918D01*
X520363Y-174085D01*
X520418Y-174113D01*
X520530Y-174168D01*
X520724Y-174224D01*
X520974Y-174251D01*
X521085D01*
X521196Y-174224D01*
X521362Y-174196D01*
X521584Y-174168D01*
X521834Y-174113D01*
X522140Y-174029D01*
X522473Y-173918D01*
X522806Y-176778D01*
X522778D01*
X522750Y-176806D01*
X522584Y-176861D01*
X522306Y-176945D01*
X521945Y-177028D01*
X521529Y-177139D01*
X521029Y-177222D01*
X520474Y-177278D01*
X519891Y-177305D01*
X519724D01*
X519530Y-177278D01*
X519280Y-177250D01*
X519002Y-177222D01*
X518697Y-177167D01*
X518392Y-177083D01*
X518086Y-176972D01*
X518059Y-176945D01*
X517948Y-176917D01*
X517809Y-176833D01*
X517642Y-176750D01*
X517253Y-176472D01*
X517059Y-176306D01*
X516893Y-176112D01*
X516865Y-176084D01*
X516837Y-176001D01*
X516782Y-175889D01*
X516698Y-175723D01*
X516615Y-175529D01*
X516532Y-175279D01*
X516448Y-175001D01*
X516393Y-174696D01*
Y-174668D01*
X516365Y-174557D01*
Y-174390D01*
X516337Y-174113D01*
X516310Y-173752D01*
Y-173308D01*
X516282Y-173058D01*
Y-172752D01*
Y-172447D01*
Y-172086D01*
Y-166006D01*
X514588D01*
Y-163063D01*
X516282D01*
Y-160287D01*
X519974Y-158122D01*
Y-163063D01*
D02*
G37*
G36*
X431863Y-69786D02*
X432141Y-69813D01*
X432447Y-69869D01*
X432807Y-69925D01*
X433168Y-70008D01*
X433585Y-70119D01*
X434001Y-70258D01*
X434418Y-70424D01*
X434862Y-70619D01*
X435306Y-70869D01*
X435722Y-71146D01*
X436139Y-71452D01*
X436527Y-71812D01*
X436555Y-71840D01*
X436611Y-71896D01*
X436722Y-72035D01*
X436833Y-72173D01*
X437000Y-72395D01*
X437166Y-72618D01*
X437360Y-72923D01*
X437555Y-73228D01*
X437721Y-73589D01*
X437916Y-73978D01*
X438082Y-74422D01*
X438249Y-74866D01*
X438360Y-75366D01*
X438471Y-75866D01*
X438526Y-76421D01*
X438554Y-77004D01*
Y-77032D01*
Y-77143D01*
Y-77309D01*
X438526Y-77531D01*
X438499Y-77809D01*
X438443Y-78114D01*
X438388Y-78475D01*
X438304Y-78836D01*
X438193Y-79253D01*
X438054Y-79669D01*
X437888Y-80113D01*
X437693Y-80557D01*
X437444Y-81002D01*
X437166Y-81418D01*
X436861Y-81835D01*
X436500Y-82251D01*
X436472Y-82279D01*
X436416Y-82334D01*
X436305Y-82445D01*
X436139Y-82584D01*
X435945Y-82723D01*
X435695Y-82889D01*
X435417Y-83084D01*
X435112Y-83278D01*
X434751Y-83472D01*
X434362Y-83667D01*
X433946Y-83833D01*
X433474Y-83972D01*
X433002Y-84111D01*
X432474Y-84222D01*
X431947Y-84278D01*
X431364Y-84305D01*
X431169D01*
X431031Y-84278D01*
X430864D01*
X430670Y-84250D01*
X430198Y-84194D01*
X429615Y-84083D01*
X429004Y-83945D01*
X428365Y-83722D01*
X427699Y-83445D01*
X427671D01*
X427616Y-83417D01*
X427533Y-83362D01*
X427421Y-83278D01*
X427116Y-83084D01*
X426727Y-82806D01*
X426311Y-82445D01*
X425867Y-82001D01*
X425450Y-81501D01*
X425062Y-80918D01*
Y-80891D01*
X425034Y-80835D01*
X424978Y-80752D01*
X424923Y-80613D01*
X424867Y-80446D01*
X424784Y-80252D01*
X424701Y-80030D01*
X424618Y-79780D01*
X424534Y-79503D01*
X424451Y-79197D01*
X424312Y-78503D01*
X424201Y-77698D01*
X424173Y-76837D01*
Y-76810D01*
Y-76754D01*
Y-76643D01*
X424201Y-76532D01*
Y-76365D01*
X424229Y-76171D01*
X424284Y-75699D01*
X424395Y-75172D01*
X424562Y-74589D01*
X424756Y-73950D01*
X425062Y-73312D01*
Y-73284D01*
X425117Y-73228D01*
X425145Y-73145D01*
X425228Y-73034D01*
X425450Y-72729D01*
X425728Y-72340D01*
X426089Y-71923D01*
X426533Y-71479D01*
X427033Y-71063D01*
X427616Y-70674D01*
X427644D01*
X427699Y-70646D01*
X427782Y-70591D01*
X427921Y-70535D01*
X428060Y-70452D01*
X428254Y-70396D01*
X428476Y-70313D01*
X428699Y-70202D01*
X429254Y-70036D01*
X429892Y-69897D01*
X430586Y-69786D01*
X431336Y-69758D01*
X431641D01*
X431863Y-69786D01*
D02*
G37*
G36*
X392025D02*
X392275Y-69813D01*
X392580Y-69869D01*
X392913Y-69925D01*
X393274Y-70008D01*
X393663Y-70119D01*
X394051Y-70258D01*
X394468Y-70424D01*
X394884Y-70646D01*
X395273Y-70869D01*
X395662Y-71146D01*
X396050Y-71479D01*
X396383Y-71840D01*
X396411Y-71868D01*
X396467Y-71923D01*
X396550Y-72062D01*
X396661Y-72229D01*
X396800Y-72451D01*
X396939Y-72701D01*
X397105Y-73034D01*
X397272Y-73395D01*
X397438Y-73811D01*
X397605Y-74283D01*
X397744Y-74783D01*
X397882Y-75366D01*
X397994Y-75977D01*
X398077Y-76643D01*
X398132Y-77337D01*
Y-78114D01*
X388915D01*
Y-78142D01*
Y-78198D01*
Y-78281D01*
X388943Y-78392D01*
X388971Y-78670D01*
X389026Y-79058D01*
X389137Y-79447D01*
X389304Y-79891D01*
X389498Y-80308D01*
X389776Y-80668D01*
X389804Y-80696D01*
X389943Y-80807D01*
X390109Y-80946D01*
X390359Y-81113D01*
X390664Y-81279D01*
X391053Y-81418D01*
X391469Y-81529D01*
X391914Y-81557D01*
X392052D01*
X392219Y-81529D01*
X392413Y-81501D01*
X392635Y-81446D01*
X392885Y-81363D01*
X393135Y-81252D01*
X393357Y-81085D01*
X393385Y-81057D01*
X393468Y-81002D01*
X393579Y-80891D01*
X393690Y-80724D01*
X393857Y-80502D01*
X393996Y-80252D01*
X394135Y-79919D01*
X394273Y-79558D01*
X397938Y-80169D01*
Y-80197D01*
X397910Y-80252D01*
X397855Y-80363D01*
X397799Y-80502D01*
X397716Y-80668D01*
X397633Y-80863D01*
X397383Y-81307D01*
X397077Y-81807D01*
X396689Y-82334D01*
X396217Y-82806D01*
X395689Y-83250D01*
X395662D01*
X395634Y-83306D01*
X395523Y-83334D01*
X395412Y-83417D01*
X395273Y-83500D01*
X395079Y-83584D01*
X394884Y-83667D01*
X394634Y-83778D01*
X394079Y-83972D01*
X393441Y-84139D01*
X392691Y-84250D01*
X391886Y-84305D01*
X391719D01*
X391553Y-84278D01*
X391303D01*
X390998Y-84222D01*
X390637Y-84167D01*
X390248Y-84111D01*
X389859Y-84000D01*
X389415Y-83889D01*
X388971Y-83722D01*
X388527Y-83528D01*
X388083Y-83306D01*
X387638Y-83028D01*
X387222Y-82723D01*
X386861Y-82362D01*
X386500Y-81946D01*
X386472Y-81918D01*
X386445Y-81862D01*
X386389Y-81751D01*
X386278Y-81613D01*
X386195Y-81418D01*
X386084Y-81196D01*
X385945Y-80946D01*
X385834Y-80641D01*
X385695Y-80308D01*
X385584Y-79947D01*
X385445Y-79558D01*
X385362Y-79114D01*
X385279Y-78670D01*
X385195Y-78198D01*
X385167Y-77670D01*
X385140Y-77143D01*
Y-77115D01*
Y-77004D01*
Y-76810D01*
X385167Y-76560D01*
X385195Y-76282D01*
X385223Y-75949D01*
X385279Y-75588D01*
X385362Y-75172D01*
X385584Y-74311D01*
X385723Y-73867D01*
X385889Y-73395D01*
X386111Y-72951D01*
X386361Y-72534D01*
X386639Y-72118D01*
X386944Y-71729D01*
X386972Y-71701D01*
X387028Y-71646D01*
X387138Y-71535D01*
X387277Y-71424D01*
X387444Y-71285D01*
X387666Y-71118D01*
X387916Y-70924D01*
X388194Y-70730D01*
X388499Y-70563D01*
X388860Y-70369D01*
X389221Y-70202D01*
X389637Y-70063D01*
X390054Y-69952D01*
X390526Y-69841D01*
X390998Y-69786D01*
X391497Y-69758D01*
X391803D01*
X392025Y-69786D01*
D02*
G37*
G36*
X669492Y-133890D02*
X660530D01*
Y-131612D01*
X669492D01*
Y-133890D01*
D02*
G37*
G36*
X345939Y-64816D02*
X346495Y-64844D01*
X347050Y-64872D01*
X347577Y-64927D01*
X348049Y-64983D01*
X348105D01*
X348244Y-65011D01*
X348438Y-65066D01*
X348716Y-65149D01*
X349021Y-65261D01*
X349354Y-65399D01*
X349715Y-65566D01*
X350048Y-65788D01*
X350076Y-65816D01*
X350187Y-65899D01*
X350354Y-66038D01*
X350576Y-66204D01*
X350798Y-66454D01*
X351048Y-66732D01*
X351297Y-67037D01*
X351520Y-67398D01*
X351547Y-67454D01*
X351603Y-67565D01*
X351714Y-67787D01*
X351825Y-68064D01*
X351936Y-68398D01*
X352047Y-68759D01*
X352103Y-69203D01*
X352130Y-69647D01*
Y-69675D01*
Y-69703D01*
Y-69869D01*
X352103Y-70119D01*
X352047Y-70452D01*
X351936Y-70841D01*
X351825Y-71257D01*
X351631Y-71674D01*
X351381Y-72118D01*
X351353Y-72173D01*
X351242Y-72312D01*
X351075Y-72506D01*
X350881Y-72756D01*
X350603Y-73006D01*
X350270Y-73312D01*
X349882Y-73561D01*
X349437Y-73811D01*
X349465D01*
X349521Y-73839D01*
X349604Y-73867D01*
X349715Y-73895D01*
X350048Y-74033D01*
X350437Y-74228D01*
X350853Y-74450D01*
X351325Y-74755D01*
X351742Y-75116D01*
X352130Y-75560D01*
X352158Y-75616D01*
X352269Y-75782D01*
X352436Y-76032D01*
X352602Y-76365D01*
X352769Y-76810D01*
X352935Y-77282D01*
X353047Y-77837D01*
X353074Y-78448D01*
Y-78475D01*
Y-78503D01*
Y-78670D01*
X353047Y-78920D01*
X352991Y-79253D01*
X352935Y-79641D01*
X352825Y-80085D01*
X352658Y-80530D01*
X352464Y-81002D01*
X352436Y-81057D01*
X352352Y-81196D01*
X352214Y-81418D01*
X352019Y-81696D01*
X351797Y-82029D01*
X351492Y-82334D01*
X351186Y-82667D01*
X350798Y-82973D01*
X350742Y-83001D01*
X350603Y-83084D01*
X350381Y-83223D01*
X350076Y-83362D01*
X349687Y-83528D01*
X349243Y-83667D01*
X348743Y-83806D01*
X348188Y-83889D01*
X348077D01*
X347966Y-83917D01*
X347688D01*
X347494Y-83945D01*
X346967D01*
X346633Y-83972D01*
X345801D01*
X345329Y-84000D01*
X337000D01*
Y-64789D01*
X345440D01*
X345939Y-64816D01*
D02*
G37*
G36*
X377033Y-69786D02*
X377311Y-69813D01*
X377616Y-69841D01*
X377949Y-69869D01*
X378643Y-69980D01*
X379337Y-70147D01*
X380004Y-70396D01*
X380309Y-70535D01*
X380587Y-70702D01*
X380614D01*
X380642Y-70757D01*
X380809Y-70869D01*
X381059Y-71091D01*
X381336Y-71396D01*
X381669Y-71757D01*
X381975Y-72229D01*
X382280Y-72784D01*
X382502Y-73423D01*
X379032Y-74061D01*
Y-74033D01*
X378977Y-73922D01*
X378921Y-73783D01*
X378838Y-73617D01*
X378727Y-73395D01*
X378560Y-73200D01*
X378394Y-73006D01*
X378171Y-72840D01*
X378144Y-72812D01*
X378060Y-72756D01*
X377921Y-72701D01*
X377727Y-72618D01*
X377477Y-72534D01*
X377172Y-72451D01*
X376811Y-72423D01*
X376395Y-72395D01*
X376145D01*
X375895Y-72423D01*
X375589Y-72451D01*
X375229Y-72506D01*
X374895Y-72562D01*
X374590Y-72673D01*
X374312Y-72812D01*
X374285D01*
X374257Y-72867D01*
X374118Y-73006D01*
X373951Y-73256D01*
X373924Y-73395D01*
X373896Y-73561D01*
Y-73589D01*
Y-73617D01*
X373951Y-73783D01*
X374062Y-74006D01*
X374146Y-74117D01*
X374257Y-74228D01*
X374285Y-74255D01*
X374396Y-74283D01*
X374451Y-74339D01*
X374562Y-74366D01*
X374701Y-74422D01*
X374868Y-74505D01*
X375090Y-74561D01*
X375312Y-74644D01*
X375589Y-74727D01*
X375923Y-74811D01*
X376283Y-74922D01*
X376700Y-75033D01*
X377172Y-75144D01*
X377699Y-75283D01*
X377727D01*
X377838Y-75310D01*
X377977Y-75338D01*
X378171Y-75394D01*
X378421Y-75477D01*
X378699Y-75532D01*
X379310Y-75727D01*
X380004Y-75977D01*
X380670Y-76254D01*
X381003Y-76421D01*
X381309Y-76560D01*
X381558Y-76754D01*
X381808Y-76921D01*
X381864Y-76976D01*
X382002Y-77087D01*
X382169Y-77309D01*
X382391Y-77615D01*
X382613Y-78003D01*
X382780Y-78475D01*
X382919Y-79031D01*
X382974Y-79641D01*
Y-79669D01*
Y-79725D01*
Y-79836D01*
X382947Y-79974D01*
X382919Y-80113D01*
X382891Y-80308D01*
X382780Y-80780D01*
X382585Y-81279D01*
X382447Y-81557D01*
X382308Y-81835D01*
X382114Y-82112D01*
X381892Y-82390D01*
X381642Y-82667D01*
X381364Y-82945D01*
X381336Y-82973D01*
X381281Y-83001D01*
X381197Y-83056D01*
X381059Y-83167D01*
X380892Y-83250D01*
X380698Y-83362D01*
X380448Y-83500D01*
X380170Y-83611D01*
X379865Y-83750D01*
X379504Y-83861D01*
X379115Y-84000D01*
X378699Y-84083D01*
X378227Y-84167D01*
X377727Y-84250D01*
X377200Y-84278D01*
X376644Y-84305D01*
X376367D01*
X376172Y-84278D01*
X375923D01*
X375645Y-84250D01*
X375340Y-84222D01*
X375006Y-84167D01*
X374285Y-84028D01*
X373535Y-83833D01*
X372785Y-83556D01*
X372452Y-83362D01*
X372119Y-83167D01*
X372091Y-83139D01*
X372036Y-83112D01*
X371953Y-83056D01*
X371869Y-82945D01*
X371564Y-82695D01*
X371231Y-82334D01*
X370870Y-81890D01*
X370537Y-81363D01*
X370231Y-80724D01*
X369981Y-80030D01*
X373674Y-79475D01*
Y-79530D01*
X373729Y-79641D01*
X373785Y-79836D01*
X373868Y-80085D01*
X374007Y-80363D01*
X374174Y-80613D01*
X374368Y-80891D01*
X374618Y-81113D01*
X374646Y-81140D01*
X374757Y-81196D01*
X374923Y-81279D01*
X375145Y-81363D01*
X375423Y-81474D01*
X375784Y-81557D01*
X376172Y-81613D01*
X376644Y-81640D01*
X376866D01*
X377144Y-81613D01*
X377449Y-81585D01*
X377783Y-81529D01*
X378144Y-81418D01*
X378477Y-81307D01*
X378782Y-81140D01*
X378810Y-81113D01*
X378865Y-81057D01*
X378949Y-80974D01*
X379032Y-80863D01*
X379115Y-80724D01*
X379199Y-80557D01*
X379254Y-80363D01*
X379282Y-80141D01*
Y-80113D01*
Y-80058D01*
X379254Y-79891D01*
X379171Y-79669D01*
X379004Y-79447D01*
X378949Y-79391D01*
X378865Y-79364D01*
X378754Y-79280D01*
X378588Y-79225D01*
X378366Y-79142D01*
X378116Y-79058D01*
X377783Y-78975D01*
X377727D01*
X377588Y-78920D01*
X377366Y-78864D01*
X377061Y-78808D01*
X376700Y-78725D01*
X376311Y-78614D01*
X375867Y-78503D01*
X375395Y-78364D01*
X374423Y-78087D01*
X373951Y-77948D01*
X373507Y-77781D01*
X373091Y-77642D01*
X372702Y-77476D01*
X372369Y-77309D01*
X372119Y-77171D01*
X372091Y-77143D01*
X372036Y-77115D01*
X371980Y-77059D01*
X371869Y-76948D01*
X371592Y-76699D01*
X371314Y-76338D01*
X371009Y-75893D01*
X370731Y-75366D01*
X370620Y-75061D01*
X370564Y-74727D01*
X370509Y-74394D01*
X370481Y-74033D01*
Y-74006D01*
Y-73950D01*
Y-73867D01*
X370509Y-73728D01*
X370537Y-73589D01*
X370564Y-73395D01*
X370648Y-72978D01*
X370814Y-72506D01*
X371092Y-72007D01*
X371231Y-71729D01*
X371425Y-71479D01*
X371647Y-71229D01*
X371897Y-71007D01*
X371925Y-70979D01*
X371953Y-70952D01*
X372036Y-70896D01*
X372175Y-70813D01*
X372313Y-70730D01*
X372508Y-70619D01*
X372730Y-70508D01*
X372980Y-70369D01*
X373285Y-70258D01*
X373618Y-70147D01*
X373979Y-70036D01*
X374368Y-69952D01*
X374812Y-69869D01*
X375284Y-69813D01*
X375784Y-69758D01*
X376811D01*
X377033Y-69786D01*
D02*
G37*
G36*
X462207Y-84000D02*
X458515D01*
Y-80308D01*
X462207D01*
Y-84000D01*
D02*
G37*
G36*
X362375Y-69786D02*
X362597D01*
X363152Y-69841D01*
X363735Y-69897D01*
X364346Y-70008D01*
X364929Y-70174D01*
X365179Y-70258D01*
X365429Y-70369D01*
X365456D01*
X365484Y-70396D01*
X365623Y-70480D01*
X365845Y-70591D01*
X366095Y-70757D01*
X366400Y-70979D01*
X366678Y-71229D01*
X366928Y-71535D01*
X367150Y-71840D01*
X367178Y-71896D01*
X367233Y-72007D01*
X367316Y-72257D01*
X367344Y-72395D01*
X367400Y-72590D01*
X367455Y-72784D01*
X367483Y-73034D01*
X367538Y-73312D01*
X367566Y-73617D01*
X367594Y-73950D01*
X367622Y-74311D01*
X367649Y-74700D01*
Y-75144D01*
X367594Y-79447D01*
Y-79475D01*
Y-79530D01*
Y-79614D01*
Y-79752D01*
Y-80085D01*
X367622Y-80474D01*
Y-80918D01*
X367677Y-81363D01*
X367705Y-81807D01*
X367761Y-82168D01*
Y-82196D01*
X367788Y-82306D01*
X367844Y-82501D01*
X367899Y-82723D01*
X368010Y-83001D01*
X368121Y-83306D01*
X368260Y-83639D01*
X368427Y-84000D01*
X364790D01*
Y-83972D01*
X364762Y-83945D01*
X364734Y-83833D01*
X364679Y-83722D01*
X364623Y-83584D01*
X364568Y-83389D01*
X364512Y-83167D01*
X364429Y-82917D01*
Y-82889D01*
X364401Y-82862D01*
X364374Y-82751D01*
X364318Y-82612D01*
X364290Y-82501D01*
X364235Y-82529D01*
X364124Y-82640D01*
X363929Y-82806D01*
X363680Y-83001D01*
X363374Y-83223D01*
X363041Y-83472D01*
X362652Y-83667D01*
X362264Y-83861D01*
X362208Y-83889D01*
X362069Y-83917D01*
X361847Y-84000D01*
X361570Y-84083D01*
X361236Y-84167D01*
X360848Y-84222D01*
X360404Y-84278D01*
X359959Y-84305D01*
X359765D01*
X359598Y-84278D01*
X359432D01*
X359210Y-84250D01*
X358738Y-84167D01*
X358183Y-84028D01*
X357627Y-83833D01*
X357072Y-83556D01*
X356572Y-83167D01*
Y-83139D01*
X356517Y-83112D01*
X356378Y-82945D01*
X356184Y-82695D01*
X355962Y-82362D01*
X355740Y-81946D01*
X355545Y-81446D01*
X355406Y-80863D01*
X355379Y-80557D01*
X355351Y-80224D01*
Y-80169D01*
Y-80030D01*
X355379Y-79808D01*
X355434Y-79530D01*
X355490Y-79197D01*
X355573Y-78864D01*
X355712Y-78503D01*
X355906Y-78142D01*
X355934Y-78087D01*
X356017Y-77976D01*
X356128Y-77809D01*
X356323Y-77615D01*
X356517Y-77393D01*
X356795Y-77143D01*
X357100Y-76921D01*
X357461Y-76726D01*
X357516Y-76699D01*
X357655Y-76643D01*
X357877Y-76560D01*
X358210Y-76421D01*
X358627Y-76282D01*
X359127Y-76143D01*
X359737Y-76005D01*
X360404Y-75866D01*
X360431D01*
X360515Y-75838D01*
X360653Y-75810D01*
X360820Y-75782D01*
X361042Y-75755D01*
X361292Y-75699D01*
X361847Y-75560D01*
X362430Y-75422D01*
X363041Y-75283D01*
X363568Y-75116D01*
X363818Y-75033D01*
X364013Y-74949D01*
Y-74589D01*
Y-74533D01*
Y-74422D01*
X363985Y-74228D01*
X363957Y-73978D01*
X363874Y-73728D01*
X363791Y-73478D01*
X363652Y-73256D01*
X363457Y-73062D01*
X363430Y-73034D01*
X363346Y-72978D01*
X363208Y-72923D01*
X363013Y-72812D01*
X362736Y-72729D01*
X362402Y-72673D01*
X361986Y-72618D01*
X361486Y-72590D01*
X361320D01*
X361153Y-72618D01*
X360931Y-72645D01*
X360681Y-72701D01*
X360404Y-72756D01*
X360154Y-72867D01*
X359932Y-73006D01*
X359904Y-73034D01*
X359848Y-73089D01*
X359737Y-73173D01*
X359626Y-73312D01*
X359460Y-73506D01*
X359321Y-73756D01*
X359182Y-74033D01*
X359043Y-74366D01*
X355740Y-73756D01*
Y-73728D01*
X355767Y-73672D01*
X355795Y-73561D01*
X355850Y-73423D01*
X355906Y-73256D01*
X355989Y-73062D01*
X356184Y-72618D01*
X356461Y-72146D01*
X356795Y-71646D01*
X357183Y-71174D01*
X357655Y-70757D01*
X357683D01*
X357711Y-70702D01*
X357794Y-70674D01*
X357905Y-70591D01*
X358072Y-70535D01*
X358238Y-70452D01*
X358460Y-70341D01*
X358682Y-70258D01*
X358960Y-70174D01*
X359265Y-70063D01*
X359598Y-69980D01*
X359987Y-69925D01*
X360376Y-69841D01*
X360820Y-69813D01*
X361264Y-69758D01*
X362180D01*
X362375Y-69786D01*
D02*
G37*
G36*
X507481Y-162786D02*
X507703D01*
X507953Y-162813D01*
X508231Y-162841D01*
X508536Y-162897D01*
X509175Y-163036D01*
X509841Y-163230D01*
X510507Y-163508D01*
X511118Y-163869D01*
X511146D01*
X511174Y-163924D01*
X511257Y-163979D01*
X511368Y-164063D01*
X511618Y-164313D01*
X511951Y-164674D01*
X512312Y-165145D01*
X512673Y-165701D01*
X513006Y-166367D01*
X513284Y-167144D01*
X509647Y-167811D01*
Y-167755D01*
X509619Y-167644D01*
X509563Y-167450D01*
X509480Y-167200D01*
X509341Y-166950D01*
X509202Y-166672D01*
X509008Y-166423D01*
X508786Y-166201D01*
X508758Y-166173D01*
X508675Y-166117D01*
X508536Y-166034D01*
X508342Y-165923D01*
X508092Y-165812D01*
X507814Y-165728D01*
X507481Y-165673D01*
X507120Y-165645D01*
X507065D01*
X506898Y-165673D01*
X506648Y-165701D01*
X506315Y-165756D01*
X505982Y-165895D01*
X505621Y-166062D01*
X505260Y-166284D01*
X504927Y-166617D01*
X504899Y-166672D01*
X504816Y-166811D01*
X504677Y-167033D01*
X504538Y-167367D01*
X504372Y-167811D01*
X504316Y-168061D01*
X504261Y-168338D01*
X504205Y-168671D01*
X504150Y-169004D01*
X504122Y-169393D01*
Y-169782D01*
Y-169810D01*
Y-169893D01*
Y-170032D01*
X504150Y-170198D01*
Y-170393D01*
X504178Y-170615D01*
X504233Y-171170D01*
X504316Y-171753D01*
X504483Y-172336D01*
X504677Y-172863D01*
X504816Y-173085D01*
X504955Y-173308D01*
X504983Y-173363D01*
X505121Y-173474D01*
X505288Y-173613D01*
X505538Y-173807D01*
X505871Y-174002D01*
X506232Y-174140D01*
X506676Y-174251D01*
X507176Y-174307D01*
X507342D01*
X507537Y-174279D01*
X507787Y-174224D01*
X508064Y-174168D01*
X508342Y-174057D01*
X508619Y-173918D01*
X508897Y-173724D01*
X508925Y-173696D01*
X509008Y-173613D01*
X509119Y-173474D01*
X509286Y-173252D01*
X509452Y-172974D01*
X509591Y-172614D01*
X509758Y-172169D01*
X509869Y-171670D01*
X513478Y-172280D01*
Y-172308D01*
X513450Y-172391D01*
X513422Y-172530D01*
X513367Y-172697D01*
X513284Y-172891D01*
X513200Y-173141D01*
X512978Y-173696D01*
X512701Y-174307D01*
X512312Y-174918D01*
X511840Y-175529D01*
X511562Y-175806D01*
X511285Y-176056D01*
X511257D01*
X511201Y-176112D01*
X511118Y-176167D01*
X511007Y-176250D01*
X510840Y-176334D01*
X510646Y-176445D01*
X510424Y-176556D01*
X510146Y-176667D01*
X509869Y-176806D01*
X509536Y-176917D01*
X509202Y-177028D01*
X508814Y-177111D01*
X508397Y-177194D01*
X507953Y-177250D01*
X507509Y-177278D01*
X507009Y-177305D01*
X506704D01*
X506510Y-177278D01*
X506260Y-177250D01*
X505954Y-177194D01*
X505621Y-177139D01*
X505260Y-177055D01*
X504872Y-176972D01*
X504483Y-176833D01*
X504067Y-176695D01*
X503678Y-176500D01*
X503261Y-176278D01*
X502873Y-176028D01*
X502512Y-175723D01*
X502151Y-175390D01*
X502123Y-175362D01*
X502068Y-175306D01*
X501984Y-175196D01*
X501873Y-175029D01*
X501735Y-174834D01*
X501568Y-174613D01*
X501429Y-174335D01*
X501263Y-174002D01*
X501068Y-173641D01*
X500929Y-173252D01*
X500763Y-172808D01*
X500624Y-172336D01*
X500513Y-171808D01*
X500430Y-171281D01*
X500374Y-170670D01*
X500346Y-170060D01*
Y-170032D01*
Y-169921D01*
Y-169726D01*
X500374Y-169504D01*
X500402Y-169199D01*
X500430Y-168866D01*
X500485Y-168505D01*
X500568Y-168088D01*
X500790Y-167228D01*
X500929Y-166784D01*
X501096Y-166339D01*
X501318Y-165895D01*
X501568Y-165479D01*
X501846Y-165090D01*
X502151Y-164701D01*
X502179Y-164674D01*
X502234Y-164618D01*
X502345Y-164535D01*
X502484Y-164396D01*
X502678Y-164257D01*
X502901Y-164091D01*
X503150Y-163896D01*
X503456Y-163730D01*
X503789Y-163535D01*
X504150Y-163369D01*
X504566Y-163202D01*
X505010Y-163063D01*
X505455Y-162925D01*
X505982Y-162841D01*
X506510Y-162786D01*
X507065Y-162758D01*
X507315D01*
X507481Y-162786D01*
D02*
G37*
G36*
X465755Y-177000D02*
X461868D01*
X454067Y-164340D01*
Y-177000D01*
X450485D01*
Y-157789D01*
X454233D01*
X462173Y-170726D01*
Y-157789D01*
X465755D01*
Y-177000D01*
D02*
G37*
G36*
X409564Y-171864D02*
X402318D01*
Y-168172D01*
X409564D01*
Y-171864D01*
D02*
G37*
G36*
X308149Y-162786D02*
X308454Y-162813D01*
X308787Y-162869D01*
X309148Y-162952D01*
X309537Y-163063D01*
X309925Y-163202D01*
X309981Y-163230D01*
X310092Y-163286D01*
X310286Y-163369D01*
X310508Y-163508D01*
X310758Y-163674D01*
X311008Y-163869D01*
X311258Y-164091D01*
X311480Y-164340D01*
X311508Y-164368D01*
X311563Y-164452D01*
X311647Y-164590D01*
X311758Y-164785D01*
X311896Y-165007D01*
X312008Y-165284D01*
X312119Y-165562D01*
X312202Y-165895D01*
Y-165923D01*
X312230Y-166062D01*
X312285Y-166256D01*
X312313Y-166534D01*
X312369Y-166867D01*
X312396Y-167311D01*
X312424Y-167783D01*
Y-168366D01*
Y-177000D01*
X308732D01*
Y-169921D01*
Y-169893D01*
Y-169810D01*
Y-169699D01*
Y-169560D01*
Y-169365D01*
Y-169171D01*
X308704Y-168699D01*
X308676Y-168227D01*
X308621Y-167727D01*
X308565Y-167311D01*
X308537Y-167144D01*
X308482Y-167006D01*
Y-166978D01*
X308426Y-166895D01*
X308371Y-166784D01*
X308287Y-166617D01*
X308038Y-166284D01*
X307899Y-166117D01*
X307704Y-165978D01*
X307677Y-165951D01*
X307621Y-165923D01*
X307510Y-165867D01*
X307344Y-165784D01*
X307149Y-165701D01*
X306955Y-165645D01*
X306705Y-165618D01*
X306427Y-165590D01*
X306261D01*
X306094Y-165618D01*
X305872Y-165645D01*
X305595Y-165728D01*
X305317Y-165812D01*
X305012Y-165951D01*
X304706Y-166117D01*
X304678Y-166145D01*
X304595Y-166201D01*
X304456Y-166339D01*
X304290Y-166478D01*
X304123Y-166700D01*
X303957Y-166922D01*
X303790Y-167228D01*
X303679Y-167533D01*
Y-167561D01*
X303623Y-167700D01*
X303596Y-167922D01*
X303540Y-168255D01*
X303512Y-168449D01*
X303485Y-168699D01*
X303457Y-168949D01*
Y-169254D01*
X303429Y-169560D01*
X303401Y-169921D01*
Y-170309D01*
Y-170726D01*
Y-177000D01*
X299709D01*
Y-163063D01*
X303124D01*
Y-165118D01*
X303151Y-165090D01*
X303207Y-165007D01*
X303318Y-164896D01*
X303457Y-164757D01*
X303623Y-164562D01*
X303846Y-164368D01*
X304095Y-164146D01*
X304373Y-163924D01*
X304678Y-163730D01*
X305039Y-163508D01*
X305400Y-163313D01*
X305817Y-163119D01*
X306261Y-162980D01*
X306705Y-162869D01*
X307205Y-162786D01*
X307704Y-162758D01*
X307899D01*
X308149Y-162786D01*
D02*
G37*
G36*
X295961Y-161203D02*
X292269D01*
Y-157789D01*
X295961D01*
Y-161203D01*
D02*
G37*
G36*
X420586Y-157455D02*
X420891Y-157483D01*
X421224Y-157539D01*
X421613Y-157594D01*
X422029Y-157677D01*
X422473Y-157789D01*
X422945Y-157927D01*
X423417Y-158094D01*
X423917Y-158316D01*
X424389Y-158538D01*
X424833Y-158816D01*
X425305Y-159149D01*
X425722Y-159510D01*
X425749D01*
X425777Y-159565D01*
X425860Y-159649D01*
X425944Y-159732D01*
X426055Y-159871D01*
X426166Y-160037D01*
X426471Y-160426D01*
X426777Y-160926D01*
X427110Y-161537D01*
X427415Y-162230D01*
X427693Y-163036D01*
X423862Y-163952D01*
Y-163924D01*
X423834Y-163896D01*
Y-163813D01*
X423778Y-163702D01*
X423695Y-163452D01*
X423556Y-163119D01*
X423362Y-162730D01*
X423112Y-162342D01*
X422779Y-161953D01*
X422418Y-161620D01*
X422362Y-161592D01*
X422224Y-161481D01*
X422001Y-161342D01*
X421696Y-161175D01*
X421307Y-161009D01*
X420863Y-160870D01*
X420363Y-160759D01*
X419808Y-160731D01*
X419614D01*
X419447Y-160759D01*
X419281Y-160787D01*
X419059Y-160815D01*
X418587Y-160926D01*
X418031Y-161120D01*
X417448Y-161398D01*
X417143Y-161564D01*
X416865Y-161759D01*
X416588Y-162008D01*
X416338Y-162286D01*
Y-162314D01*
X416282Y-162369D01*
X416227Y-162453D01*
X416144Y-162591D01*
X416032Y-162758D01*
X415922Y-162952D01*
X415810Y-163202D01*
X415699Y-163480D01*
X415561Y-163813D01*
X415449Y-164174D01*
X415339Y-164590D01*
X415227Y-165035D01*
X415144Y-165534D01*
X415089Y-166062D01*
X415061Y-166645D01*
X415033Y-167283D01*
Y-167311D01*
Y-167450D01*
Y-167644D01*
X415061Y-167866D01*
Y-168172D01*
X415116Y-168533D01*
X415144Y-168893D01*
X415200Y-169310D01*
X415366Y-170170D01*
X415588Y-171031D01*
X415727Y-171448D01*
X415922Y-171836D01*
X416116Y-172197D01*
X416338Y-172502D01*
X416366Y-172530D01*
X416394Y-172558D01*
X416477Y-172641D01*
X416588Y-172752D01*
X416865Y-172974D01*
X417254Y-173252D01*
X417726Y-173557D01*
X418309Y-173780D01*
X418975Y-173974D01*
X419336Y-174002D01*
X419725Y-174029D01*
X419864D01*
X419975Y-174002D01*
X420280Y-173974D01*
X420641Y-173918D01*
X421030Y-173780D01*
X421474Y-173613D01*
X421918Y-173391D01*
X422362Y-173058D01*
X422418Y-173002D01*
X422557Y-172863D01*
X422751Y-172641D01*
X422973Y-172308D01*
X423251Y-171864D01*
X423501Y-171336D01*
X423750Y-170698D01*
X423973Y-169948D01*
X427748Y-171114D01*
Y-171142D01*
X427720Y-171253D01*
X427665Y-171420D01*
X427582Y-171642D01*
X427471Y-171892D01*
X427360Y-172197D01*
X427221Y-172530D01*
X427054Y-172891D01*
X426665Y-173641D01*
X426166Y-174418D01*
X425555Y-175168D01*
X425222Y-175501D01*
X424861Y-175806D01*
X424833Y-175834D01*
X424778Y-175862D01*
X424667Y-175945D01*
X424500Y-176056D01*
X424306Y-176167D01*
X424056Y-176278D01*
X423778Y-176417D01*
X423473Y-176556D01*
X423112Y-176722D01*
X422723Y-176861D01*
X422307Y-176972D01*
X421863Y-177083D01*
X421391Y-177194D01*
X420863Y-177278D01*
X420336Y-177305D01*
X419753Y-177333D01*
X419586D01*
X419392Y-177305D01*
X419114Y-177278D01*
X418809Y-177250D01*
X418420Y-177194D01*
X418004Y-177111D01*
X417532Y-177000D01*
X417060Y-176861D01*
X416560Y-176695D01*
X416032Y-176472D01*
X415505Y-176223D01*
X414978Y-175945D01*
X414450Y-175584D01*
X413950Y-175196D01*
X413478Y-174723D01*
X413451Y-174696D01*
X413367Y-174613D01*
X413256Y-174446D01*
X413090Y-174251D01*
X412923Y-173974D01*
X412701Y-173668D01*
X412479Y-173280D01*
X412257Y-172836D01*
X412035Y-172364D01*
X411813Y-171836D01*
X411591Y-171225D01*
X411424Y-170587D01*
X411257Y-169921D01*
X411146Y-169171D01*
X411063Y-168394D01*
X411035Y-167561D01*
Y-167533D01*
Y-167505D01*
Y-167339D01*
X411063Y-167089D01*
Y-166756D01*
X411119Y-166367D01*
X411174Y-165895D01*
X411230Y-165395D01*
X411341Y-164812D01*
X411479Y-164229D01*
X411646Y-163619D01*
X411841Y-163008D01*
X412090Y-162369D01*
X412368Y-161759D01*
X412701Y-161175D01*
X413062Y-160620D01*
X413506Y-160093D01*
X413534Y-160065D01*
X413617Y-159982D01*
X413756Y-159843D01*
X413950Y-159676D01*
X414200Y-159482D01*
X414506Y-159260D01*
X414839Y-159010D01*
X415255Y-158760D01*
X415699Y-158510D01*
X416171Y-158260D01*
X416727Y-158038D01*
X417282Y-157844D01*
X417920Y-157677D01*
X418559Y-157539D01*
X419281Y-157455D01*
X420003Y-157428D01*
X420336D01*
X420586Y-157455D01*
D02*
G37*
G36*
X399181Y-162786D02*
X399486Y-162841D01*
X399875Y-162925D01*
X400291Y-163063D01*
X400708Y-163230D01*
X401152Y-163480D01*
X399986Y-166672D01*
X399958Y-166645D01*
X399819Y-166589D01*
X399653Y-166478D01*
X399431Y-166367D01*
X399153Y-166256D01*
X398876Y-166145D01*
X398570Y-166089D01*
X398265Y-166062D01*
X398154D01*
X397987Y-166089D01*
X397821Y-166117D01*
X397626Y-166173D01*
X397404Y-166256D01*
X397182Y-166367D01*
X396960Y-166506D01*
X396932Y-166534D01*
X396877Y-166589D01*
X396766Y-166700D01*
X396655Y-166867D01*
X396516Y-167061D01*
X396377Y-167339D01*
X396238Y-167672D01*
X396127Y-168061D01*
Y-168116D01*
X396099Y-168199D01*
X396072Y-168283D01*
Y-168421D01*
X396044Y-168588D01*
X396016Y-168810D01*
X395988Y-169060D01*
X395961Y-169338D01*
X395933Y-169699D01*
X395905Y-170060D01*
Y-170504D01*
X395877Y-170976D01*
X395849Y-171503D01*
Y-172086D01*
Y-172725D01*
Y-177000D01*
X392157D01*
Y-163063D01*
X395572D01*
Y-165035D01*
X395600Y-165007D01*
X395711Y-164840D01*
X395877Y-164590D01*
X396099Y-164285D01*
X396321Y-163979D01*
X396599Y-163674D01*
X396849Y-163396D01*
X397127Y-163202D01*
X397154Y-163174D01*
X397238Y-163119D01*
X397404Y-163063D01*
X397598Y-162980D01*
X397821Y-162897D01*
X398098Y-162813D01*
X398376Y-162786D01*
X398709Y-162758D01*
X398931D01*
X399181Y-162786D01*
D02*
G37*
G36*
X353540D02*
X353762D01*
X354317Y-162841D01*
X354900Y-162897D01*
X355511Y-163008D01*
X356094Y-163174D01*
X356344Y-163258D01*
X356594Y-163369D01*
X356621D01*
X356649Y-163396D01*
X356788Y-163480D01*
X357010Y-163591D01*
X357260Y-163757D01*
X357565Y-163979D01*
X357843Y-164229D01*
X358093Y-164535D01*
X358315Y-164840D01*
X358343Y-164896D01*
X358398Y-165007D01*
X358481Y-165257D01*
X358509Y-165395D01*
X358565Y-165590D01*
X358620Y-165784D01*
X358648Y-166034D01*
X358704Y-166312D01*
X358731Y-166617D01*
X358759Y-166950D01*
X358787Y-167311D01*
X358815Y-167700D01*
Y-168144D01*
X358759Y-172447D01*
Y-172475D01*
Y-172530D01*
Y-172614D01*
Y-172752D01*
Y-173085D01*
X358787Y-173474D01*
Y-173918D01*
X358842Y-174363D01*
X358870Y-174807D01*
X358926Y-175168D01*
Y-175196D01*
X358954Y-175306D01*
X359009Y-175501D01*
X359064Y-175723D01*
X359176Y-176001D01*
X359287Y-176306D01*
X359425Y-176639D01*
X359592Y-177000D01*
X355955D01*
Y-176972D01*
X355927Y-176945D01*
X355900Y-176833D01*
X355844Y-176722D01*
X355789Y-176584D01*
X355733Y-176389D01*
X355677Y-176167D01*
X355594Y-175917D01*
Y-175889D01*
X355566Y-175862D01*
X355539Y-175751D01*
X355483Y-175612D01*
X355455Y-175501D01*
X355400Y-175529D01*
X355289Y-175640D01*
X355094Y-175806D01*
X354845Y-176001D01*
X354539Y-176223D01*
X354206Y-176472D01*
X353817Y-176667D01*
X353429Y-176861D01*
X353373Y-176889D01*
X353234Y-176917D01*
X353012Y-177000D01*
X352735Y-177083D01*
X352402Y-177167D01*
X352013Y-177222D01*
X351569Y-177278D01*
X351124Y-177305D01*
X350930D01*
X350764Y-177278D01*
X350597D01*
X350375Y-177250D01*
X349903Y-177167D01*
X349348Y-177028D01*
X348792Y-176833D01*
X348237Y-176556D01*
X347738Y-176167D01*
Y-176139D01*
X347682Y-176112D01*
X347543Y-175945D01*
X347349Y-175695D01*
X347127Y-175362D01*
X346905Y-174946D01*
X346710Y-174446D01*
X346572Y-173863D01*
X346544Y-173557D01*
X346516Y-173224D01*
Y-173169D01*
Y-173030D01*
X346544Y-172808D01*
X346599Y-172530D01*
X346655Y-172197D01*
X346738Y-171864D01*
X346877Y-171503D01*
X347071Y-171142D01*
X347099Y-171087D01*
X347182Y-170976D01*
X347293Y-170809D01*
X347488Y-170615D01*
X347682Y-170393D01*
X347960Y-170143D01*
X348265Y-169921D01*
X348626Y-169726D01*
X348681Y-169699D01*
X348820Y-169643D01*
X349042Y-169560D01*
X349375Y-169421D01*
X349792Y-169282D01*
X350292Y-169143D01*
X350902Y-169004D01*
X351569Y-168866D01*
X351596D01*
X351680Y-168838D01*
X351819Y-168810D01*
X351985Y-168782D01*
X352207Y-168755D01*
X352457Y-168699D01*
X353012Y-168560D01*
X353595Y-168421D01*
X354206Y-168283D01*
X354734Y-168116D01*
X354983Y-168033D01*
X355178Y-167950D01*
Y-167589D01*
Y-167533D01*
Y-167422D01*
X355150Y-167228D01*
X355122Y-166978D01*
X355039Y-166728D01*
X354956Y-166478D01*
X354817Y-166256D01*
X354623Y-166062D01*
X354595Y-166034D01*
X354511Y-165978D01*
X354373Y-165923D01*
X354178Y-165812D01*
X353901Y-165728D01*
X353568Y-165673D01*
X353151Y-165618D01*
X352651Y-165590D01*
X352485D01*
X352318Y-165618D01*
X352096Y-165645D01*
X351846Y-165701D01*
X351569Y-165756D01*
X351319Y-165867D01*
X351097Y-166006D01*
X351069Y-166034D01*
X351013Y-166089D01*
X350902Y-166173D01*
X350791Y-166312D01*
X350625Y-166506D01*
X350486Y-166756D01*
X350347Y-167033D01*
X350208Y-167367D01*
X346905Y-166756D01*
Y-166728D01*
X346932Y-166672D01*
X346960Y-166561D01*
X347016Y-166423D01*
X347071Y-166256D01*
X347155Y-166062D01*
X347349Y-165618D01*
X347626Y-165145D01*
X347960Y-164646D01*
X348348Y-164174D01*
X348820Y-163757D01*
X348848D01*
X348876Y-163702D01*
X348959Y-163674D01*
X349070Y-163591D01*
X349237Y-163535D01*
X349403Y-163452D01*
X349625Y-163341D01*
X349847Y-163258D01*
X350125Y-163174D01*
X350430Y-163063D01*
X350764Y-162980D01*
X351152Y-162925D01*
X351541Y-162841D01*
X351985Y-162813D01*
X352429Y-162758D01*
X353345D01*
X353540Y-162786D01*
D02*
G37*
G36*
X335106Y-173752D02*
X344767D01*
Y-177000D01*
X331219D01*
Y-157927D01*
X335106D01*
Y-173752D01*
D02*
G37*
G36*
X319725Y-167977D02*
X324029Y-163063D01*
X328554D01*
X323779Y-168172D01*
X328887Y-177000D01*
X324917D01*
X321391Y-170753D01*
X319725Y-172558D01*
Y-177000D01*
X316033D01*
Y-157789D01*
X319725D01*
Y-167977D01*
D02*
G37*
G36*
X448403Y-177000D02*
X444211D01*
X442545Y-172641D01*
X434828D01*
X433245Y-177000D01*
X429136D01*
X436577Y-157789D01*
X440685D01*
X448403Y-177000D01*
D02*
G37*
G36*
X370086Y-176500D02*
X369198Y-178888D01*
X369170Y-178943D01*
X369114Y-179082D01*
X369003Y-179304D01*
X368892Y-179582D01*
X368754Y-179887D01*
X368587Y-180193D01*
X368420Y-180470D01*
X368254Y-180748D01*
X368226Y-180776D01*
X368171Y-180859D01*
X368087Y-180970D01*
X367976Y-181137D01*
X367671Y-181470D01*
X367254Y-181803D01*
X367227Y-181831D01*
X367143Y-181858D01*
X367032Y-181942D01*
X366866Y-182025D01*
X366671Y-182108D01*
X366449Y-182219D01*
X366172Y-182330D01*
X365866Y-182414D01*
X365839D01*
X365727Y-182441D01*
X365561Y-182497D01*
X365311Y-182525D01*
X365033Y-182580D01*
X364728Y-182636D01*
X364367Y-182663D01*
X363812D01*
X363590Y-182636D01*
X363340D01*
X363007Y-182608D01*
X362674Y-182552D01*
X361924Y-182414D01*
X361591Y-179526D01*
X361619D01*
X361730Y-179554D01*
X361896Y-179582D01*
X362118Y-179610D01*
X362340Y-179665D01*
X362618Y-179693D01*
X363146Y-179721D01*
X363368D01*
X363590Y-179665D01*
X363867Y-179610D01*
X364173Y-179526D01*
X364478Y-179388D01*
X364784Y-179193D01*
X365033Y-178943D01*
X365061Y-178916D01*
X365144Y-178804D01*
X365256Y-178638D01*
X365394Y-178416D01*
X365533Y-178138D01*
X365700Y-177805D01*
X365839Y-177444D01*
X365977Y-177028D01*
X360703Y-163063D01*
X364617D01*
X367921Y-172974D01*
X371197Y-163063D01*
X375000D01*
X370086Y-176500D01*
D02*
G37*
G36*
X492267Y-162786D02*
X492490D01*
X493045Y-162841D01*
X493628Y-162897D01*
X494239Y-163008D01*
X494822Y-163174D01*
X495071Y-163258D01*
X495321Y-163369D01*
X495349D01*
X495377Y-163396D01*
X495516Y-163480D01*
X495738Y-163591D01*
X495988Y-163757D01*
X496293Y-163979D01*
X496571Y-164229D01*
X496820Y-164535D01*
X497043Y-164840D01*
X497070Y-164896D01*
X497126Y-165007D01*
X497209Y-165257D01*
X497237Y-165395D01*
X497293Y-165590D01*
X497348Y-165784D01*
X497376Y-166034D01*
X497431Y-166312D01*
X497459Y-166617D01*
X497487Y-166950D01*
X497515Y-167311D01*
X497542Y-167700D01*
Y-168144D01*
X497487Y-172447D01*
Y-172475D01*
Y-172530D01*
Y-172614D01*
Y-172752D01*
Y-173085D01*
X497515Y-173474D01*
Y-173918D01*
X497570Y-174363D01*
X497598Y-174807D01*
X497653Y-175168D01*
Y-175196D01*
X497681Y-175306D01*
X497737Y-175501D01*
X497792Y-175723D01*
X497903Y-176001D01*
X498014Y-176306D01*
X498153Y-176639D01*
X498320Y-177000D01*
X494683D01*
Y-176972D01*
X494655Y-176945D01*
X494627Y-176833D01*
X494572Y-176722D01*
X494516Y-176584D01*
X494461Y-176389D01*
X494405Y-176167D01*
X494322Y-175917D01*
Y-175889D01*
X494294Y-175862D01*
X494266Y-175751D01*
X494211Y-175612D01*
X494183Y-175501D01*
X494128Y-175529D01*
X494017Y-175640D01*
X493822Y-175806D01*
X493572Y-176001D01*
X493267Y-176223D01*
X492934Y-176472D01*
X492545Y-176667D01*
X492156Y-176861D01*
X492101Y-176889D01*
X491962Y-176917D01*
X491740Y-177000D01*
X491462Y-177083D01*
X491129Y-177167D01*
X490741Y-177222D01*
X490296Y-177278D01*
X489852Y-177305D01*
X489658D01*
X489491Y-177278D01*
X489325D01*
X489103Y-177250D01*
X488631Y-177167D01*
X488075Y-177028D01*
X487520Y-176833D01*
X486965Y-176556D01*
X486465Y-176167D01*
Y-176139D01*
X486410Y-176112D01*
X486271Y-175945D01*
X486077Y-175695D01*
X485854Y-175362D01*
X485632Y-174946D01*
X485438Y-174446D01*
X485299Y-173863D01*
X485271Y-173557D01*
X485244Y-173224D01*
Y-173169D01*
Y-173030D01*
X485271Y-172808D01*
X485327Y-172530D01*
X485382Y-172197D01*
X485466Y-171864D01*
X485605Y-171503D01*
X485799Y-171142D01*
X485827Y-171087D01*
X485910Y-170976D01*
X486021Y-170809D01*
X486215Y-170615D01*
X486410Y-170393D01*
X486687Y-170143D01*
X486993Y-169921D01*
X487354Y-169726D01*
X487409Y-169699D01*
X487548Y-169643D01*
X487770Y-169560D01*
X488103Y-169421D01*
X488520Y-169282D01*
X489019Y-169143D01*
X489630Y-169004D01*
X490296Y-168866D01*
X490324D01*
X490407Y-168838D01*
X490546Y-168810D01*
X490713Y-168782D01*
X490935Y-168755D01*
X491185Y-168699D01*
X491740Y-168560D01*
X492323Y-168421D01*
X492934Y-168283D01*
X493461Y-168116D01*
X493711Y-168033D01*
X493905Y-167950D01*
Y-167589D01*
Y-167533D01*
Y-167422D01*
X493878Y-167228D01*
X493850Y-166978D01*
X493767Y-166728D01*
X493683Y-166478D01*
X493545Y-166256D01*
X493350Y-166062D01*
X493322Y-166034D01*
X493239Y-165978D01*
X493100Y-165923D01*
X492906Y-165812D01*
X492629Y-165728D01*
X492295Y-165673D01*
X491879Y-165618D01*
X491379Y-165590D01*
X491213D01*
X491046Y-165618D01*
X490824Y-165645D01*
X490574Y-165701D01*
X490296Y-165756D01*
X490047Y-165867D01*
X489824Y-166006D01*
X489797Y-166034D01*
X489741Y-166089D01*
X489630Y-166173D01*
X489519Y-166312D01*
X489352Y-166506D01*
X489214Y-166756D01*
X489075Y-167033D01*
X488936Y-167367D01*
X485632Y-166756D01*
Y-166728D01*
X485660Y-166672D01*
X485688Y-166561D01*
X485743Y-166423D01*
X485799Y-166256D01*
X485882Y-166062D01*
X486077Y-165618D01*
X486354Y-165145D01*
X486687Y-164646D01*
X487076Y-164174D01*
X487548Y-163757D01*
X487576D01*
X487603Y-163702D01*
X487687Y-163674D01*
X487798Y-163591D01*
X487964Y-163535D01*
X488131Y-163452D01*
X488353Y-163341D01*
X488575Y-163258D01*
X488853Y-163174D01*
X489158Y-163063D01*
X489491Y-162980D01*
X489880Y-162925D01*
X490269Y-162841D01*
X490713Y-162813D01*
X491157Y-162758D01*
X492073D01*
X492267Y-162786D01*
D02*
G37*
G36*
X483745Y-161037D02*
X478081D01*
Y-177000D01*
X474194D01*
Y-161037D01*
X468503D01*
Y-157789D01*
X483745D01*
Y-161037D01*
D02*
G37*
G36*
X653383Y-141000D02*
X650790D01*
X645587Y-132556D01*
Y-141000D01*
X643199D01*
Y-128187D01*
X645698D01*
X650994Y-136815D01*
Y-128187D01*
X653383D01*
Y-141000D01*
D02*
G37*
G36*
X700378Y-149131D02*
X700526Y-149150D01*
X700711Y-149186D01*
X700896Y-149224D01*
X701119Y-149279D01*
X701359Y-149353D01*
X701581Y-149446D01*
X701822Y-149538D01*
X702063Y-149668D01*
X702304Y-149835D01*
X702544Y-150001D01*
X702767Y-150205D01*
X702970Y-150446D01*
X702989Y-150464D01*
X703026Y-150520D01*
X703081Y-150612D01*
X703174Y-150742D01*
X703267Y-150927D01*
X703378Y-151149D01*
X703489Y-151390D01*
X703600Y-151705D01*
X703711Y-152038D01*
X703841Y-152427D01*
X703933Y-152853D01*
X704026Y-153334D01*
X704118Y-153853D01*
X704174Y-154408D01*
X704211Y-155019D01*
X704229Y-155686D01*
Y-155704D01*
Y-155723D01*
Y-155778D01*
Y-155852D01*
Y-156038D01*
X704211Y-156278D01*
X704192Y-156575D01*
X704155Y-156926D01*
X704118Y-157297D01*
X704081Y-157704D01*
X704007Y-158130D01*
X703915Y-158574D01*
X703822Y-159000D01*
X703692Y-159426D01*
X703563Y-159852D01*
X703378Y-160241D01*
X703193Y-160611D01*
X702970Y-160926D01*
X702952Y-160945D01*
X702915Y-160982D01*
X702859Y-161056D01*
X702785Y-161130D01*
X702674Y-161222D01*
X702544Y-161333D01*
X702378Y-161463D01*
X702211Y-161574D01*
X702007Y-161704D01*
X701804Y-161833D01*
X701563Y-161945D01*
X701304Y-162037D01*
X701026Y-162111D01*
X700711Y-162185D01*
X700396Y-162222D01*
X700063Y-162241D01*
X699989D01*
X699878Y-162222D01*
X699748D01*
X699600Y-162204D01*
X699415Y-162167D01*
X699211Y-162130D01*
X698989Y-162056D01*
X698748Y-161982D01*
X698508Y-161889D01*
X698249Y-161778D01*
X698008Y-161630D01*
X697749Y-161481D01*
X697508Y-161278D01*
X697267Y-161074D01*
X697045Y-160815D01*
X697026Y-160796D01*
X696989Y-160741D01*
X696934Y-160648D01*
X696878Y-160537D01*
X696786Y-160371D01*
X696693Y-160167D01*
X696582Y-159908D01*
X696489Y-159630D01*
X696378Y-159297D01*
X696267Y-158926D01*
X696175Y-158500D01*
X696101Y-158038D01*
X696027Y-157519D01*
X695971Y-156945D01*
X695934Y-156334D01*
X695915Y-155667D01*
Y-155649D01*
Y-155630D01*
Y-155575D01*
Y-155501D01*
Y-155316D01*
X695934Y-155075D01*
X695953Y-154778D01*
X695990Y-154427D01*
X696027Y-154056D01*
X696064Y-153649D01*
X696138Y-153223D01*
X696212Y-152797D01*
X696323Y-152353D01*
X696434Y-151927D01*
X696582Y-151520D01*
X696749Y-151131D01*
X696934Y-150760D01*
X697156Y-150446D01*
X697175Y-150427D01*
X697212Y-150390D01*
X697267Y-150316D01*
X697360Y-150242D01*
X697452Y-150131D01*
X697582Y-150020D01*
X697749Y-149909D01*
X697915Y-149779D01*
X698119Y-149649D01*
X698323Y-149538D01*
X698563Y-149427D01*
X698823Y-149316D01*
X699100Y-149242D01*
X699415Y-149168D01*
X699730Y-149131D01*
X700063Y-149113D01*
X700248D01*
X700378Y-149131D01*
D02*
G37*
G36*
X636199Y-148964D02*
X636385D01*
X636625Y-149001D01*
X636903Y-149038D01*
X637218Y-149094D01*
X637551Y-149168D01*
X637903Y-149261D01*
X638273Y-149372D01*
X638644Y-149520D01*
X639033Y-149686D01*
X639403Y-149890D01*
X639773Y-150131D01*
X640125Y-150409D01*
X640458Y-150723D01*
X640477Y-150742D01*
X640532Y-150798D01*
X640625Y-150909D01*
X640717Y-151038D01*
X640847Y-151223D01*
X640995Y-151446D01*
X641143Y-151705D01*
X641310Y-152001D01*
X641477Y-152316D01*
X641625Y-152686D01*
X641773Y-153094D01*
X641902Y-153519D01*
X642014Y-154001D01*
X642088Y-154501D01*
X642143Y-155038D01*
X642162Y-155612D01*
Y-155649D01*
Y-155741D01*
X642143Y-155908D01*
Y-156130D01*
X642106Y-156390D01*
X642069Y-156686D01*
X642014Y-157038D01*
X641958Y-157389D01*
X641865Y-157778D01*
X641754Y-158186D01*
X641606Y-158593D01*
X641440Y-159000D01*
X641254Y-159389D01*
X641014Y-159778D01*
X640754Y-160148D01*
X640458Y-160500D01*
X640440Y-160519D01*
X640384Y-160574D01*
X640292Y-160667D01*
X640143Y-160778D01*
X639977Y-160907D01*
X639773Y-161056D01*
X639532Y-161204D01*
X639273Y-161370D01*
X638958Y-161537D01*
X638625Y-161685D01*
X638255Y-161833D01*
X637847Y-161963D01*
X637421Y-162074D01*
X636959Y-162167D01*
X636477Y-162222D01*
X635959Y-162241D01*
X635829D01*
X635681Y-162222D01*
X635496Y-162204D01*
X635255Y-162185D01*
X634977Y-162148D01*
X634663Y-162093D01*
X634329Y-162019D01*
X633959Y-161926D01*
X633607Y-161815D01*
X633218Y-161667D01*
X632848Y-161500D01*
X632459Y-161315D01*
X632107Y-161074D01*
X631755Y-160815D01*
X631422Y-160500D01*
X631404Y-160482D01*
X631348Y-160426D01*
X631274Y-160315D01*
X631163Y-160185D01*
X631033Y-160000D01*
X630885Y-159778D01*
X630737Y-159537D01*
X630589Y-159241D01*
X630422Y-158926D01*
X630274Y-158556D01*
X630126Y-158167D01*
X629996Y-157741D01*
X629885Y-157278D01*
X629811Y-156778D01*
X629756Y-156241D01*
X629737Y-155686D01*
Y-155667D01*
Y-155593D01*
Y-155501D01*
X629756Y-155352D01*
Y-155186D01*
X629774Y-155001D01*
X629793Y-154778D01*
X629811Y-154538D01*
X629885Y-154019D01*
X629978Y-153464D01*
X630126Y-152908D01*
X630311Y-152390D01*
Y-152371D01*
X630330Y-152353D01*
X630367Y-152297D01*
X630385Y-152223D01*
X630496Y-152038D01*
X630626Y-151797D01*
X630793Y-151520D01*
X630996Y-151242D01*
X631237Y-150927D01*
X631496Y-150631D01*
X631515Y-150612D01*
X631533Y-150594D01*
X631626Y-150501D01*
X631792Y-150353D01*
X631996Y-150186D01*
X632237Y-150001D01*
X632515Y-149798D01*
X632829Y-149612D01*
X633163Y-149464D01*
X633181D01*
X633218Y-149446D01*
X633292Y-149409D01*
X633385Y-149390D01*
X633496Y-149335D01*
X633626Y-149298D01*
X633792Y-149261D01*
X633959Y-149205D01*
X634366Y-149113D01*
X634829Y-149020D01*
X635366Y-148964D01*
X635922Y-148946D01*
X636051D01*
X636199Y-148964D01*
D02*
G37*
G36*
X69407Y-71518D02*
X69388D01*
X69351Y-71537D01*
X69277D01*
X69203Y-71555D01*
X68981Y-71629D01*
X68703Y-71722D01*
X68389Y-71833D01*
X68074Y-72000D01*
X67796Y-72185D01*
X67537Y-72426D01*
X67518Y-72463D01*
X67444Y-72555D01*
X67352Y-72703D01*
X67241Y-72926D01*
X67129Y-73203D01*
X67037Y-73518D01*
X66963Y-73888D01*
X66944Y-74314D01*
Y-74333D01*
Y-74370D01*
Y-74425D01*
Y-74518D01*
X66981Y-74740D01*
X67018Y-75018D01*
X67074Y-75314D01*
X67166Y-75629D01*
X67296Y-75925D01*
X67463Y-76184D01*
X67481Y-76221D01*
X67555Y-76295D01*
X67666Y-76388D01*
X67814Y-76518D01*
X68000Y-76629D01*
X68222Y-76740D01*
X68444Y-76814D01*
X68703Y-76832D01*
X68777D01*
X68870Y-76814D01*
X68981Y-76796D01*
X69092Y-76758D01*
X69222Y-76721D01*
X69351Y-76647D01*
X69481Y-76555D01*
X69500Y-76536D01*
X69537Y-76499D01*
X69592Y-76444D01*
X69666Y-76351D01*
X69759Y-76221D01*
X69851Y-76055D01*
X69944Y-75870D01*
X70037Y-75629D01*
Y-75610D01*
X70073Y-75536D01*
X70111Y-75407D01*
X70148Y-75314D01*
X70166Y-75203D01*
X70203Y-75073D01*
X70259Y-74925D01*
X70296Y-74759D01*
X70351Y-74573D01*
X70407Y-74351D01*
X70462Y-74111D01*
X70536Y-73851D01*
X70610Y-73555D01*
Y-73537D01*
X70629Y-73463D01*
X70666Y-73351D01*
X70703Y-73222D01*
X70759Y-73055D01*
X70814Y-72851D01*
X70888Y-72648D01*
X70962Y-72407D01*
X71147Y-71926D01*
X71370Y-71463D01*
X71481Y-71222D01*
X71610Y-71018D01*
X71740Y-70815D01*
X71870Y-70648D01*
X71888Y-70629D01*
X71925Y-70592D01*
X71981Y-70537D01*
X72055Y-70463D01*
X72166Y-70370D01*
X72295Y-70278D01*
X72425Y-70167D01*
X72592Y-70074D01*
X72981Y-69852D01*
X73425Y-69667D01*
X73666Y-69592D01*
X73906Y-69537D01*
X74184Y-69500D01*
X74462Y-69481D01*
X74629D01*
X74814Y-69518D01*
X75054Y-69556D01*
X75332Y-69611D01*
X75647Y-69704D01*
X75980Y-69833D01*
X76295Y-70018D01*
X76314D01*
X76332Y-70037D01*
X76443Y-70129D01*
X76591Y-70241D01*
X76777Y-70426D01*
X76980Y-70648D01*
X77202Y-70926D01*
X77406Y-71241D01*
X77591Y-71611D01*
Y-71629D01*
X77610Y-71666D01*
X77628Y-71722D01*
X77665Y-71796D01*
X77702Y-71907D01*
X77739Y-72018D01*
X77776Y-72166D01*
X77832Y-72333D01*
X77906Y-72703D01*
X77980Y-73129D01*
X78036Y-73611D01*
X78054Y-74148D01*
Y-74185D01*
Y-74259D01*
Y-74370D01*
X78036Y-74536D01*
X78017Y-74740D01*
X77999Y-74981D01*
X77962Y-75222D01*
X77925Y-75499D01*
X77795Y-76092D01*
X77702Y-76388D01*
X77610Y-76684D01*
X77480Y-76981D01*
X77332Y-77258D01*
X77165Y-77518D01*
X76980Y-77758D01*
X76962Y-77777D01*
X76925Y-77814D01*
X76869Y-77869D01*
X76795Y-77944D01*
X76684Y-78036D01*
X76554Y-78147D01*
X76406Y-78258D01*
X76240Y-78388D01*
X76036Y-78499D01*
X75832Y-78610D01*
X75592Y-78721D01*
X75332Y-78814D01*
X75073Y-78906D01*
X74777Y-78980D01*
X74481Y-79036D01*
X74147Y-79054D01*
X74055Y-76462D01*
X74092D01*
X74221Y-76425D01*
X74388Y-76388D01*
X74592Y-76314D01*
X74832Y-76221D01*
X75054Y-76092D01*
X75277Y-75925D01*
X75462Y-75740D01*
X75480Y-75722D01*
X75536Y-75647D01*
X75610Y-75518D01*
X75684Y-75333D01*
X75758Y-75111D01*
X75832Y-74833D01*
X75888Y-74499D01*
X75906Y-74111D01*
Y-74092D01*
Y-74055D01*
Y-74000D01*
Y-73925D01*
X75888Y-73722D01*
X75851Y-73481D01*
X75795Y-73203D01*
X75703Y-72907D01*
X75592Y-72629D01*
X75425Y-72370D01*
X75406Y-72351D01*
X75369Y-72315D01*
X75314Y-72240D01*
X75221Y-72166D01*
X75110Y-72092D01*
X74962Y-72018D01*
X74814Y-71981D01*
X74629Y-71963D01*
X74555D01*
X74462Y-71981D01*
X74369Y-72018D01*
X74240Y-72055D01*
X74110Y-72111D01*
X73980Y-72203D01*
X73851Y-72333D01*
X73832Y-72351D01*
X73777Y-72444D01*
X73740Y-72500D01*
X73703Y-72592D01*
X73647Y-72685D01*
X73592Y-72814D01*
X73536Y-72962D01*
X73462Y-73129D01*
X73388Y-73333D01*
X73314Y-73537D01*
X73240Y-73796D01*
X73166Y-74074D01*
X73092Y-74370D01*
X72999Y-74703D01*
Y-74722D01*
X72981Y-74796D01*
X72962Y-74888D01*
X72925Y-75018D01*
X72888Y-75166D01*
X72832Y-75351D01*
X72777Y-75555D01*
X72721Y-75759D01*
X72573Y-76203D01*
X72425Y-76666D01*
X72259Y-77110D01*
X72166Y-77295D01*
X72073Y-77481D01*
Y-77499D01*
X72055Y-77518D01*
X71981Y-77629D01*
X71870Y-77795D01*
X71722Y-77999D01*
X71536Y-78221D01*
X71314Y-78462D01*
X71055Y-78703D01*
X70759Y-78906D01*
X70722Y-78925D01*
X70610Y-78980D01*
X70444Y-79073D01*
X70203Y-79166D01*
X69907Y-79258D01*
X69555Y-79351D01*
X69166Y-79406D01*
X68722Y-79425D01*
X68537D01*
X68444Y-79406D01*
X68314Y-79388D01*
X68055Y-79351D01*
X67722Y-79277D01*
X67370Y-79166D01*
X67018Y-78999D01*
X66648Y-78795D01*
X66630D01*
X66611Y-78758D01*
X66500Y-78684D01*
X66315Y-78536D01*
X66111Y-78351D01*
X65870Y-78110D01*
X65648Y-77795D01*
X65426Y-77462D01*
X65222Y-77055D01*
Y-77036D01*
X65204Y-76999D01*
X65185Y-76944D01*
X65148Y-76851D01*
X65111Y-76740D01*
X65074Y-76610D01*
X65037Y-76462D01*
X65000Y-76295D01*
X64944Y-76092D01*
X64907Y-75888D01*
X64833Y-75407D01*
X64778Y-74870D01*
X64759Y-74277D01*
Y-74259D01*
Y-74166D01*
Y-74036D01*
X64778Y-73870D01*
X64796Y-73666D01*
X64815Y-73444D01*
X64852Y-73185D01*
X64907Y-72907D01*
X65037Y-72296D01*
X65130Y-71981D01*
X65222Y-71685D01*
X65352Y-71370D01*
X65500Y-71074D01*
X65667Y-70796D01*
X65870Y-70537D01*
X65889Y-70518D01*
X65926Y-70481D01*
X65981Y-70407D01*
X66074Y-70333D01*
X66204Y-70222D01*
X66352Y-70111D01*
X66518Y-69981D01*
X66704Y-69852D01*
X66926Y-69722D01*
X67166Y-69592D01*
X67444Y-69463D01*
X67741Y-69333D01*
X68055Y-69241D01*
X68407Y-69130D01*
X68777Y-69056D01*
X69166Y-69000D01*
X69407Y-71518D01*
D02*
G37*
G36*
X600629Y-162000D02*
X598166D01*
Y-152723D01*
X598148Y-152742D01*
X598111Y-152779D01*
X598037Y-152834D01*
X597926Y-152927D01*
X597796Y-153038D01*
X597648Y-153149D01*
X597463Y-153279D01*
X597259Y-153427D01*
X597037Y-153575D01*
X596796Y-153723D01*
X596537Y-153890D01*
X596259Y-154038D01*
X595667Y-154316D01*
X595000Y-154575D01*
Y-152353D01*
X595019D01*
X595037Y-152334D01*
X595093Y-152316D01*
X595167Y-152297D01*
X595352Y-152205D01*
X595611Y-152094D01*
X595926Y-151945D01*
X596278Y-151742D01*
X596666Y-151483D01*
X597074Y-151186D01*
X597092Y-151168D01*
X597129Y-151149D01*
X597185Y-151094D01*
X597259Y-151020D01*
X597463Y-150835D01*
X597685Y-150594D01*
X597944Y-150297D01*
X598203Y-149927D01*
X598444Y-149538D01*
X598629Y-149113D01*
X600629D01*
Y-162000D01*
D02*
G37*
G36*
X663937Y-151353D02*
X657734D01*
Y-154390D01*
X663085D01*
Y-156556D01*
X657734D01*
Y-162000D01*
X655142D01*
Y-149186D01*
X663937D01*
Y-151353D01*
D02*
G37*
G36*
X652994D02*
X646791D01*
Y-154390D01*
X652142D01*
Y-156556D01*
X646791D01*
Y-162000D01*
X644199D01*
Y-149186D01*
X652994D01*
Y-151353D01*
D02*
G37*
G36*
X619312Y-149131D02*
X619479Y-149150D01*
X619664Y-149168D01*
X619868Y-149205D01*
X620090Y-149242D01*
X620571Y-149372D01*
X621053Y-149557D01*
X621312Y-149668D01*
X621534Y-149798D01*
X621775Y-149964D01*
X621979Y-150149D01*
X621997Y-150168D01*
X622034Y-150186D01*
X622071Y-150260D01*
X622145Y-150335D01*
X622238Y-150427D01*
X622331Y-150557D01*
X622423Y-150686D01*
X622534Y-150853D01*
X622719Y-151223D01*
X622905Y-151649D01*
X622979Y-151890D01*
X623016Y-152149D01*
X623053Y-152427D01*
X623071Y-152705D01*
Y-152742D01*
Y-152853D01*
X623053Y-153020D01*
X623034Y-153223D01*
X622997Y-153482D01*
X622942Y-153760D01*
X622868Y-154056D01*
X622756Y-154353D01*
X622738Y-154390D01*
X622701Y-154482D01*
X622627Y-154649D01*
X622516Y-154853D01*
X622386Y-155093D01*
X622219Y-155371D01*
X622016Y-155667D01*
X621775Y-155982D01*
X621757Y-156001D01*
X621682Y-156093D01*
X621571Y-156223D01*
X621405Y-156408D01*
X621183Y-156630D01*
X620905Y-156926D01*
X620571Y-157241D01*
X620164Y-157630D01*
X620145Y-157649D01*
X620108Y-157667D01*
X620053Y-157723D01*
X619979Y-157797D01*
X619775Y-157982D01*
X619534Y-158204D01*
X619294Y-158445D01*
X619053Y-158686D01*
X618831Y-158889D01*
X618757Y-158982D01*
X618683Y-159056D01*
X618664Y-159074D01*
X618627Y-159111D01*
X618572Y-159185D01*
X618498Y-159278D01*
X618331Y-159482D01*
X618183Y-159722D01*
X623071D01*
Y-162000D01*
X614461D01*
Y-161982D01*
Y-161945D01*
X614479Y-161870D01*
X614498Y-161778D01*
X614516Y-161667D01*
X614535Y-161537D01*
X614609Y-161204D01*
X614720Y-160833D01*
X614868Y-160426D01*
X615053Y-159982D01*
X615294Y-159556D01*
Y-159537D01*
X615331Y-159500D01*
X615368Y-159426D01*
X615442Y-159352D01*
X615516Y-159222D01*
X615628Y-159093D01*
X615757Y-158926D01*
X615905Y-158741D01*
X616072Y-158519D01*
X616276Y-158297D01*
X616498Y-158038D01*
X616757Y-157760D01*
X617035Y-157482D01*
X617350Y-157167D01*
X617683Y-156834D01*
X618053Y-156482D01*
X618072Y-156463D01*
X618127Y-156408D01*
X618201Y-156334D01*
X618312Y-156223D01*
X618461Y-156112D01*
X618609Y-155964D01*
X618942Y-155630D01*
X619275Y-155279D01*
X619608Y-154927D01*
X619757Y-154778D01*
X619905Y-154612D01*
X620016Y-154482D01*
X620090Y-154371D01*
X620108Y-154334D01*
X620164Y-154242D01*
X620257Y-154093D01*
X620349Y-153890D01*
X620442Y-153667D01*
X620534Y-153408D01*
X620590Y-153149D01*
X620608Y-152871D01*
Y-152853D01*
Y-152834D01*
Y-152742D01*
X620590Y-152575D01*
X620553Y-152390D01*
X620497Y-152186D01*
X620423Y-151982D01*
X620312Y-151779D01*
X620164Y-151594D01*
X620145Y-151575D01*
X620090Y-151520D01*
X619979Y-151446D01*
X619849Y-151371D01*
X619664Y-151297D01*
X619460Y-151223D01*
X619220Y-151168D01*
X618942Y-151149D01*
X618812D01*
X618664Y-151168D01*
X618498Y-151205D01*
X618294Y-151260D01*
X618090Y-151353D01*
X617887Y-151464D01*
X617701Y-151612D01*
X617683Y-151631D01*
X617627Y-151705D01*
X617553Y-151816D01*
X617479Y-151982D01*
X617387Y-152186D01*
X617313Y-152464D01*
X617238Y-152779D01*
X617201Y-153149D01*
X614757Y-152908D01*
Y-152890D01*
X614776Y-152816D01*
Y-152723D01*
X614813Y-152575D01*
X614831Y-152408D01*
X614887Y-152223D01*
X614942Y-152020D01*
X614998Y-151779D01*
X615183Y-151316D01*
X615405Y-150835D01*
X615553Y-150594D01*
X615720Y-150372D01*
X615905Y-150186D01*
X616109Y-150001D01*
X616127Y-149983D01*
X616165Y-149964D01*
X616220Y-149927D01*
X616313Y-149853D01*
X616424Y-149798D01*
X616572Y-149724D01*
X616720Y-149631D01*
X616905Y-149557D01*
X617109Y-149464D01*
X617331Y-149390D01*
X617812Y-149242D01*
X618386Y-149150D01*
X618683Y-149131D01*
X618997Y-149113D01*
X619183D01*
X619312Y-149131D01*
D02*
G37*
G36*
X77814Y96428D02*
Y93687D01*
X65000Y88540D01*
Y91336D01*
X67907Y92447D01*
Y97594D01*
X65000Y98650D01*
Y101390D01*
X77814Y96428D01*
D02*
G37*
G36*
Y77892D02*
X75647D01*
Y81670D01*
X65000D01*
Y84262D01*
X75647D01*
Y88058D01*
X77814D01*
Y77892D01*
D02*
G37*
G36*
Y72560D02*
Y69819D01*
X65000Y64672D01*
Y67468D01*
X67907Y68579D01*
Y73726D01*
X65000Y74782D01*
Y77522D01*
X77814Y72560D01*
D02*
G37*
G36*
Y108297D02*
Y108278D01*
Y108223D01*
Y108149D01*
Y108038D01*
Y107889D01*
X77795Y107741D01*
X77776Y107389D01*
X77758Y107001D01*
X77702Y106593D01*
X77647Y106204D01*
X77554Y105853D01*
Y105834D01*
X77536Y105797D01*
X77517Y105742D01*
X77499Y105667D01*
X77406Y105445D01*
X77277Y105186D01*
X77110Y104890D01*
X76906Y104556D01*
X76666Y104242D01*
X76369Y103927D01*
Y103908D01*
X76332Y103890D01*
X76221Y103797D01*
X76036Y103649D01*
X75795Y103483D01*
X75499Y103279D01*
X75147Y103075D01*
X74740Y102871D01*
X74295Y102705D01*
X74277D01*
X74240Y102686D01*
X74166Y102668D01*
X74073Y102631D01*
X73962Y102612D01*
X73814Y102575D01*
X73647Y102538D01*
X73462Y102483D01*
X73258Y102445D01*
X73018Y102409D01*
X72777Y102372D01*
X72499Y102353D01*
X71925Y102297D01*
X71277Y102279D01*
X71018D01*
X70870Y102297D01*
X70722D01*
X70536Y102316D01*
X70333Y102334D01*
X69907Y102372D01*
X69462Y102445D01*
X69000Y102557D01*
X68555Y102686D01*
X68537D01*
X68500Y102705D01*
X68426Y102742D01*
X68314Y102779D01*
X68203Y102816D01*
X68074Y102890D01*
X67741Y103038D01*
X67389Y103223D01*
X67000Y103464D01*
X66630Y103742D01*
X66278Y104057D01*
X66241Y104094D01*
X66167Y104186D01*
X66055Y104334D01*
X65907Y104538D01*
X65741Y104797D01*
X65574Y105093D01*
X65407Y105464D01*
X65259Y105871D01*
Y105890D01*
X65241Y105908D01*
Y105964D01*
X65222Y106019D01*
X65185Y106223D01*
X65130Y106482D01*
X65074Y106797D01*
X65037Y107186D01*
X65019Y107649D01*
X65000Y108149D01*
Y113000D01*
X77814D01*
Y108297D01*
D02*
G37*
G36*
Y-90887D02*
X75647D01*
Y-87109D01*
X65000D01*
Y-84517D01*
X75647D01*
Y-80721D01*
X77814D01*
Y-90887D01*
D02*
G37*
G36*
Y-96219D02*
Y-98960D01*
X65000Y-104108D01*
Y-101312D01*
X67907Y-100201D01*
Y-95053D01*
X65000Y-93997D01*
Y-91257D01*
X77814Y-96219D01*
D02*
G37*
G36*
Y-114754D02*
X75647D01*
Y-110977D01*
X65000D01*
Y-108385D01*
X75647D01*
Y-104589D01*
X77814D01*
Y-114754D01*
D02*
G37*
G36*
X682269Y-141000D02*
X679806D01*
Y-131723D01*
X679787Y-131742D01*
X679750Y-131779D01*
X679676Y-131834D01*
X679565Y-131927D01*
X679436Y-132038D01*
X679287Y-132149D01*
X679102Y-132279D01*
X678899Y-132427D01*
X678676Y-132575D01*
X678436Y-132723D01*
X678176Y-132890D01*
X677899Y-133038D01*
X677306Y-133316D01*
X676640Y-133575D01*
Y-131353D01*
X676658D01*
X676677Y-131334D01*
X676732Y-131316D01*
X676806Y-131297D01*
X676991Y-131205D01*
X677251Y-131094D01*
X677565Y-130946D01*
X677917Y-130742D01*
X678306Y-130483D01*
X678713Y-130186D01*
X678732Y-130168D01*
X678769Y-130149D01*
X678824Y-130094D01*
X678899Y-130020D01*
X679102Y-129834D01*
X679324Y-129594D01*
X679584Y-129298D01*
X679843Y-128927D01*
X680084Y-128538D01*
X680269Y-128112D01*
X682269D01*
Y-141000D01*
D02*
G37*
G36*
X618312Y-128131D02*
X618479Y-128149D01*
X618664Y-128168D01*
X618868Y-128205D01*
X619090Y-128242D01*
X619571Y-128372D01*
X620053Y-128557D01*
X620312Y-128668D01*
X620534Y-128798D01*
X620775Y-128964D01*
X620979Y-129149D01*
X620997Y-129168D01*
X621034Y-129186D01*
X621071Y-129261D01*
X621145Y-129334D01*
X621238Y-129427D01*
X621330Y-129557D01*
X621423Y-129686D01*
X621534Y-129853D01*
X621719Y-130223D01*
X621904Y-130649D01*
X621979Y-130890D01*
X622016Y-131149D01*
X622053Y-131427D01*
X622071Y-131705D01*
Y-131742D01*
Y-131853D01*
X622053Y-132019D01*
X622034Y-132223D01*
X621997Y-132482D01*
X621941Y-132760D01*
X621867Y-133056D01*
X621756Y-133353D01*
X621738Y-133390D01*
X621701Y-133482D01*
X621627Y-133649D01*
X621516Y-133853D01*
X621386Y-134093D01*
X621219Y-134371D01*
X621016Y-134667D01*
X620775Y-134982D01*
X620756Y-135001D01*
X620682Y-135093D01*
X620571Y-135223D01*
X620405Y-135408D01*
X620182Y-135630D01*
X619905Y-135926D01*
X619571Y-136241D01*
X619164Y-136630D01*
X619146Y-136649D01*
X619109Y-136667D01*
X619053Y-136723D01*
X618979Y-136797D01*
X618775Y-136982D01*
X618535Y-137204D01*
X618294Y-137445D01*
X618053Y-137685D01*
X617831Y-137889D01*
X617757Y-137982D01*
X617683Y-138056D01*
X617664Y-138074D01*
X617627Y-138111D01*
X617572Y-138186D01*
X617497Y-138278D01*
X617331Y-138482D01*
X617183Y-138722D01*
X622071D01*
Y-141000D01*
X613461D01*
Y-140982D01*
Y-140944D01*
X613479Y-140870D01*
X613498Y-140778D01*
X613517Y-140667D01*
X613535Y-140537D01*
X613609Y-140204D01*
X613720Y-139833D01*
X613868Y-139426D01*
X614053Y-138982D01*
X614294Y-138556D01*
Y-138537D01*
X614331Y-138500D01*
X614368Y-138426D01*
X614442Y-138352D01*
X614516Y-138223D01*
X614627Y-138093D01*
X614757Y-137926D01*
X614905Y-137741D01*
X615072Y-137519D01*
X615276Y-137297D01*
X615498Y-137037D01*
X615757Y-136760D01*
X616035Y-136482D01*
X616349Y-136167D01*
X616683Y-135834D01*
X617053Y-135482D01*
X617072Y-135463D01*
X617127Y-135408D01*
X617201Y-135334D01*
X617312Y-135223D01*
X617461Y-135112D01*
X617609Y-134964D01*
X617942Y-134630D01*
X618275Y-134278D01*
X618609Y-133927D01*
X618757Y-133778D01*
X618905Y-133612D01*
X619016Y-133482D01*
X619090Y-133371D01*
X619109Y-133334D01*
X619164Y-133242D01*
X619257Y-133093D01*
X619349Y-132890D01*
X619442Y-132668D01*
X619534Y-132408D01*
X619590Y-132149D01*
X619608Y-131871D01*
Y-131853D01*
Y-131834D01*
Y-131742D01*
X619590Y-131575D01*
X619553Y-131390D01*
X619497Y-131186D01*
X619423Y-130983D01*
X619312Y-130779D01*
X619164Y-130594D01*
X619146Y-130575D01*
X619090Y-130520D01*
X618979Y-130445D01*
X618849Y-130372D01*
X618664Y-130297D01*
X618460Y-130223D01*
X618220Y-130168D01*
X617942Y-130149D01*
X617812D01*
X617664Y-130168D01*
X617497Y-130205D01*
X617294Y-130260D01*
X617090Y-130353D01*
X616886Y-130464D01*
X616701Y-130612D01*
X616683Y-130631D01*
X616627Y-130705D01*
X616553Y-130816D01*
X616479Y-130983D01*
X616386Y-131186D01*
X616312Y-131464D01*
X616238Y-131779D01*
X616201Y-132149D01*
X613757Y-131908D01*
Y-131890D01*
X613776Y-131816D01*
Y-131723D01*
X613813Y-131575D01*
X613831Y-131408D01*
X613887Y-131223D01*
X613942Y-131020D01*
X613998Y-130779D01*
X614183Y-130316D01*
X614405Y-129834D01*
X614553Y-129594D01*
X614720Y-129372D01*
X614905Y-129186D01*
X615109Y-129001D01*
X615127Y-128983D01*
X615164Y-128964D01*
X615220Y-128927D01*
X615313Y-128853D01*
X615424Y-128798D01*
X615572Y-128723D01*
X615720Y-128631D01*
X615905Y-128557D01*
X616109Y-128464D01*
X616331Y-128390D01*
X616812Y-128242D01*
X617386Y-128149D01*
X617683Y-128131D01*
X617998Y-128112D01*
X618183D01*
X618312Y-128131D01*
D02*
G37*
G36*
X599629Y-141000D02*
X597166D01*
Y-131723D01*
X597148Y-131742D01*
X597111Y-131779D01*
X597037Y-131834D01*
X596926Y-131927D01*
X596796Y-132038D01*
X596648Y-132149D01*
X596463Y-132279D01*
X596259Y-132427D01*
X596037Y-132575D01*
X595796Y-132723D01*
X595537Y-132890D01*
X595259Y-133038D01*
X594667Y-133316D01*
X594000Y-133575D01*
Y-131353D01*
X594019D01*
X594037Y-131334D01*
X594093Y-131316D01*
X594167Y-131297D01*
X594352Y-131205D01*
X594611Y-131094D01*
X594926Y-130946D01*
X595278Y-130742D01*
X595667Y-130483D01*
X596074Y-130186D01*
X596092Y-130168D01*
X596129Y-130149D01*
X596185Y-130094D01*
X596259Y-130020D01*
X596463Y-129834D01*
X596685Y-129594D01*
X596944Y-129298D01*
X597203Y-128927D01*
X597444Y-128538D01*
X597629Y-128112D01*
X599629D01*
Y-141000D01*
D02*
G37*
G36*
X690490Y-128131D02*
X690657Y-128149D01*
X690842Y-128168D01*
X691046Y-128205D01*
X691268Y-128242D01*
X691749Y-128372D01*
X692231Y-128557D01*
X692490Y-128668D01*
X692712Y-128798D01*
X692953Y-128964D01*
X693156Y-129149D01*
X693175Y-129168D01*
X693212Y-129186D01*
X693249Y-129261D01*
X693323Y-129334D01*
X693416Y-129427D01*
X693508Y-129557D01*
X693601Y-129686D01*
X693712Y-129853D01*
X693897Y-130223D01*
X694082Y-130649D01*
X694156Y-130890D01*
X694193Y-131149D01*
X694230Y-131427D01*
X694249Y-131705D01*
Y-131742D01*
Y-131853D01*
X694230Y-132019D01*
X694212Y-132223D01*
X694175Y-132482D01*
X694119Y-132760D01*
X694045Y-133056D01*
X693934Y-133353D01*
X693916Y-133390D01*
X693878Y-133482D01*
X693804Y-133649D01*
X693693Y-133853D01*
X693564Y-134093D01*
X693397Y-134371D01*
X693193Y-134667D01*
X692953Y-134982D01*
X692934Y-135001D01*
X692860Y-135093D01*
X692749Y-135223D01*
X692582Y-135408D01*
X692360Y-135630D01*
X692082Y-135926D01*
X691749Y-136241D01*
X691342Y-136630D01*
X691323Y-136649D01*
X691286Y-136667D01*
X691231Y-136723D01*
X691157Y-136797D01*
X690953Y-136982D01*
X690712Y-137204D01*
X690471Y-137445D01*
X690231Y-137685D01*
X690009Y-137889D01*
X689934Y-137982D01*
X689860Y-138056D01*
X689842Y-138074D01*
X689805Y-138111D01*
X689749Y-138186D01*
X689675Y-138278D01*
X689509Y-138482D01*
X689361Y-138722D01*
X694249D01*
Y-141000D01*
X685639D01*
Y-140982D01*
Y-140944D01*
X685657Y-140870D01*
X685676Y-140778D01*
X685694Y-140667D01*
X685713Y-140537D01*
X685787Y-140204D01*
X685898Y-139833D01*
X686046Y-139426D01*
X686231Y-138982D01*
X686472Y-138556D01*
Y-138537D01*
X686509Y-138500D01*
X686546Y-138426D01*
X686620Y-138352D01*
X686694Y-138223D01*
X686805Y-138093D01*
X686935Y-137926D01*
X687083Y-137741D01*
X687250Y-137519D01*
X687453Y-137297D01*
X687675Y-137037D01*
X687935Y-136760D01*
X688212Y-136482D01*
X688527Y-136167D01*
X688860Y-135834D01*
X689231Y-135482D01*
X689249Y-135463D01*
X689305Y-135408D01*
X689379Y-135334D01*
X689490Y-135223D01*
X689638Y-135112D01*
X689786Y-134964D01*
X690120Y-134630D01*
X690453Y-134278D01*
X690786Y-133927D01*
X690934Y-133778D01*
X691083Y-133612D01*
X691194Y-133482D01*
X691268Y-133371D01*
X691286Y-133334D01*
X691342Y-133242D01*
X691434Y-133093D01*
X691527Y-132890D01*
X691619Y-132668D01*
X691712Y-132408D01*
X691768Y-132149D01*
X691786Y-131871D01*
Y-131853D01*
Y-131834D01*
Y-131742D01*
X691768Y-131575D01*
X691731Y-131390D01*
X691675Y-131186D01*
X691601Y-130983D01*
X691490Y-130779D01*
X691342Y-130594D01*
X691323Y-130575D01*
X691268Y-130520D01*
X691157Y-130445D01*
X691027Y-130372D01*
X690842Y-130297D01*
X690638Y-130223D01*
X690397Y-130168D01*
X690120Y-130149D01*
X689990D01*
X689842Y-130168D01*
X689675Y-130205D01*
X689472Y-130260D01*
X689268Y-130353D01*
X689064Y-130464D01*
X688879Y-130612D01*
X688860Y-130631D01*
X688805Y-130705D01*
X688731Y-130816D01*
X688657Y-130983D01*
X688564Y-131186D01*
X688490Y-131464D01*
X688416Y-131779D01*
X688379Y-132149D01*
X685935Y-131908D01*
Y-131890D01*
X685953Y-131816D01*
Y-131723D01*
X685990Y-131575D01*
X686009Y-131408D01*
X686065Y-131223D01*
X686120Y-131020D01*
X686176Y-130779D01*
X686361Y-130316D01*
X686583Y-129834D01*
X686731Y-129594D01*
X686898Y-129372D01*
X687083Y-129186D01*
X687287Y-129001D01*
X687305Y-128983D01*
X687342Y-128964D01*
X687398Y-128927D01*
X687490Y-128853D01*
X687601Y-128798D01*
X687749Y-128723D01*
X687898Y-128631D01*
X688083Y-128557D01*
X688287Y-128464D01*
X688509Y-128390D01*
X688990Y-128242D01*
X689564Y-128149D01*
X689860Y-128131D01*
X690175Y-128112D01*
X690360D01*
X690490Y-128131D01*
D02*
G37*
G36*
X669492Y-137778D02*
X660530D01*
Y-135501D01*
X669492D01*
Y-137778D01*
D02*
G37*
G36*
X608887Y-133538D02*
X612257D01*
Y-135834D01*
X608887D01*
Y-139148D01*
X606647D01*
Y-135834D01*
X603295D01*
Y-133538D01*
X606647D01*
Y-130223D01*
X608887D01*
Y-133538D01*
D02*
G37*
G36*
X712377Y-128205D02*
X712580D01*
X712784Y-128223D01*
X713025D01*
X713506Y-128279D01*
X714006Y-128335D01*
X714469Y-128427D01*
X714673Y-128483D01*
X714858Y-128538D01*
X714876D01*
X714895Y-128557D01*
X715006Y-128612D01*
X715173Y-128705D01*
X715395Y-128816D01*
X715636Y-129001D01*
X715876Y-129205D01*
X716117Y-129464D01*
X716339Y-129779D01*
Y-129797D01*
X716358Y-129816D01*
X716395Y-129872D01*
X716432Y-129927D01*
X716524Y-130112D01*
X716635Y-130353D01*
X716728Y-130649D01*
X716821Y-130983D01*
X716895Y-131371D01*
X716913Y-131779D01*
Y-131797D01*
Y-131834D01*
Y-131927D01*
X716895Y-132019D01*
Y-132149D01*
X716876Y-132279D01*
X716802Y-132612D01*
X716710Y-133001D01*
X716561Y-133390D01*
X716339Y-133797D01*
X716209Y-133982D01*
X716061Y-134167D01*
X716043Y-134186D01*
X716024Y-134204D01*
X715969Y-134260D01*
X715895Y-134316D01*
X715821Y-134390D01*
X715710Y-134482D01*
X715580Y-134575D01*
X715432Y-134667D01*
X715265Y-134778D01*
X715061Y-134871D01*
X714858Y-134964D01*
X714636Y-135056D01*
X714376Y-135149D01*
X714117Y-135223D01*
X713839Y-135297D01*
X713525Y-135352D01*
X713543D01*
X713562Y-135371D01*
X713673Y-135445D01*
X713821Y-135538D01*
X714006Y-135667D01*
X714228Y-135834D01*
X714451Y-136000D01*
X714691Y-136204D01*
X714895Y-136426D01*
X714913Y-136445D01*
X715006Y-136538D01*
X715117Y-136686D01*
X715284Y-136908D01*
X715506Y-137186D01*
X715617Y-137371D01*
X715747Y-137556D01*
X715895Y-137760D01*
X716043Y-137982D01*
X716209Y-138241D01*
X716376Y-138500D01*
X717950Y-141000D01*
X714839D01*
X712988Y-138223D01*
X712969Y-138204D01*
X712951Y-138148D01*
X712895Y-138074D01*
X712821Y-137982D01*
X712747Y-137871D01*
X712654Y-137723D01*
X712451Y-137426D01*
X712210Y-137093D01*
X711988Y-136797D01*
X711784Y-136519D01*
X711692Y-136426D01*
X711617Y-136334D01*
X711599Y-136315D01*
X711562Y-136278D01*
X711488Y-136204D01*
X711395Y-136112D01*
X711266Y-136038D01*
X711136Y-135945D01*
X710988Y-135871D01*
X710840Y-135797D01*
X710821D01*
X710766Y-135778D01*
X710673Y-135741D01*
X710525Y-135723D01*
X710340Y-135686D01*
X710118Y-135667D01*
X709858Y-135649D01*
X709025D01*
Y-141000D01*
X706433D01*
Y-128187D01*
X712210D01*
X712377Y-128205D01*
D02*
G37*
G36*
X679454Y-158778D02*
X670492D01*
Y-156501D01*
X679454D01*
Y-158778D01*
D02*
G37*
G36*
X609887Y-154538D02*
X613257D01*
Y-156834D01*
X609887D01*
Y-160148D01*
X607647D01*
Y-156834D01*
X604295D01*
Y-154538D01*
X607647D01*
Y-151223D01*
X609887D01*
Y-154538D01*
D02*
G37*
G36*
X690490Y-149131D02*
X690657Y-149150D01*
X690842Y-149168D01*
X691046Y-149205D01*
X691268Y-149242D01*
X691749Y-149372D01*
X692231Y-149557D01*
X692490Y-149668D01*
X692712Y-149798D01*
X692953Y-149964D01*
X693157Y-150149D01*
X693175Y-150168D01*
X693212Y-150186D01*
X693249Y-150260D01*
X693323Y-150335D01*
X693416Y-150427D01*
X693508Y-150557D01*
X693601Y-150686D01*
X693712Y-150853D01*
X693897Y-151223D01*
X694082Y-151649D01*
X694156Y-151890D01*
X694193Y-152149D01*
X694230Y-152427D01*
X694249Y-152705D01*
Y-152742D01*
Y-152853D01*
X694230Y-153020D01*
X694212Y-153223D01*
X694175Y-153482D01*
X694119Y-153760D01*
X694045Y-154056D01*
X693934Y-154353D01*
X693916Y-154390D01*
X693879Y-154482D01*
X693805Y-154649D01*
X693693Y-154853D01*
X693564Y-155093D01*
X693397Y-155371D01*
X693194Y-155667D01*
X692953Y-155982D01*
X692934Y-156001D01*
X692860Y-156093D01*
X692749Y-156223D01*
X692582Y-156408D01*
X692360Y-156630D01*
X692083Y-156926D01*
X691749Y-157241D01*
X691342Y-157630D01*
X691323Y-157649D01*
X691286Y-157667D01*
X691231Y-157723D01*
X691157Y-157797D01*
X690953Y-157982D01*
X690712Y-158204D01*
X690472Y-158445D01*
X690231Y-158686D01*
X690009Y-158889D01*
X689935Y-158982D01*
X689861Y-159056D01*
X689842Y-159074D01*
X689805Y-159111D01*
X689749Y-159185D01*
X689675Y-159278D01*
X689509Y-159482D01*
X689361Y-159722D01*
X694249D01*
Y-162000D01*
X685639D01*
Y-161982D01*
Y-161945D01*
X685657Y-161870D01*
X685676Y-161778D01*
X685694Y-161667D01*
X685713Y-161537D01*
X685787Y-161204D01*
X685898Y-160833D01*
X686046Y-160426D01*
X686231Y-159982D01*
X686472Y-159556D01*
Y-159537D01*
X686509Y-159500D01*
X686546Y-159426D01*
X686620Y-159352D01*
X686694Y-159222D01*
X686805Y-159093D01*
X686935Y-158926D01*
X687083Y-158741D01*
X687250Y-158519D01*
X687453Y-158297D01*
X687676Y-158038D01*
X687935Y-157760D01*
X688213Y-157482D01*
X688527Y-157167D01*
X688861Y-156834D01*
X689231Y-156482D01*
X689249Y-156463D01*
X689305Y-156408D01*
X689379Y-156334D01*
X689490Y-156223D01*
X689638Y-156112D01*
X689787Y-155964D01*
X690120Y-155630D01*
X690453Y-155279D01*
X690786Y-154927D01*
X690935Y-154778D01*
X691083Y-154612D01*
X691194Y-154482D01*
X691268Y-154371D01*
X691286Y-154334D01*
X691342Y-154242D01*
X691434Y-154093D01*
X691527Y-153890D01*
X691620Y-153667D01*
X691712Y-153408D01*
X691768Y-153149D01*
X691786Y-152871D01*
Y-152853D01*
Y-152834D01*
Y-152742D01*
X691768Y-152575D01*
X691731Y-152390D01*
X691675Y-152186D01*
X691601Y-151982D01*
X691490Y-151779D01*
X691342Y-151594D01*
X691323Y-151575D01*
X691268Y-151520D01*
X691157Y-151446D01*
X691027Y-151371D01*
X690842Y-151297D01*
X690638Y-151223D01*
X690397Y-151168D01*
X690120Y-151149D01*
X689990D01*
X689842Y-151168D01*
X689675Y-151205D01*
X689472Y-151260D01*
X689268Y-151353D01*
X689064Y-151464D01*
X688879Y-151612D01*
X688861Y-151631D01*
X688805Y-151705D01*
X688731Y-151816D01*
X688657Y-151982D01*
X688564Y-152186D01*
X688490Y-152464D01*
X688416Y-152779D01*
X688379Y-153149D01*
X685935Y-152908D01*
Y-152890D01*
X685954Y-152816D01*
Y-152723D01*
X685991Y-152575D01*
X686009Y-152408D01*
X686065Y-152223D01*
X686120Y-152020D01*
X686176Y-151779D01*
X686361Y-151316D01*
X686583Y-150835D01*
X686731Y-150594D01*
X686898Y-150372D01*
X687083Y-150186D01*
X687287Y-150001D01*
X687305Y-149983D01*
X687342Y-149964D01*
X687398Y-149927D01*
X687490Y-149853D01*
X687601Y-149798D01*
X687750Y-149724D01*
X687898Y-149631D01*
X688083Y-149557D01*
X688287Y-149464D01*
X688509Y-149390D01*
X688990Y-149242D01*
X689564Y-149150D01*
X689861Y-149131D01*
X690175Y-149113D01*
X690360D01*
X690490Y-149131D01*
D02*
G37*
G36*
X679454Y-154890D02*
X670492D01*
Y-152612D01*
X679454D01*
Y-154890D01*
D02*
G37*
G36*
X700378Y-128131D02*
X700526Y-128149D01*
X700711Y-128187D01*
X700896Y-128223D01*
X701118Y-128279D01*
X701359Y-128353D01*
X701581Y-128446D01*
X701822Y-128538D01*
X702063Y-128668D01*
X702304Y-128835D01*
X702544Y-129001D01*
X702766Y-129205D01*
X702970Y-129446D01*
X702989Y-129464D01*
X703026Y-129520D01*
X703081Y-129612D01*
X703174Y-129742D01*
X703266Y-129927D01*
X703378Y-130149D01*
X703489Y-130390D01*
X703600Y-130705D01*
X703711Y-131038D01*
X703840Y-131427D01*
X703933Y-131853D01*
X704026Y-132334D01*
X704118Y-132853D01*
X704174Y-133408D01*
X704211Y-134019D01*
X704229Y-134686D01*
Y-134704D01*
Y-134723D01*
Y-134778D01*
Y-134853D01*
Y-135038D01*
X704211Y-135278D01*
X704192Y-135575D01*
X704155Y-135926D01*
X704118Y-136297D01*
X704081Y-136704D01*
X704007Y-137130D01*
X703914Y-137574D01*
X703822Y-138000D01*
X703692Y-138426D01*
X703563Y-138852D01*
X703378Y-139241D01*
X703192Y-139611D01*
X702970Y-139926D01*
X702952Y-139945D01*
X702915Y-139982D01*
X702859Y-140056D01*
X702785Y-140130D01*
X702674Y-140222D01*
X702544Y-140333D01*
X702378Y-140463D01*
X702211Y-140574D01*
X702007Y-140704D01*
X701804Y-140833D01*
X701563Y-140944D01*
X701304Y-141037D01*
X701026Y-141111D01*
X700711Y-141185D01*
X700396Y-141222D01*
X700063Y-141241D01*
X699989D01*
X699878Y-141222D01*
X699748D01*
X699600Y-141204D01*
X699415Y-141167D01*
X699211Y-141130D01*
X698989Y-141055D01*
X698748Y-140982D01*
X698508Y-140889D01*
X698248Y-140778D01*
X698008Y-140630D01*
X697748Y-140482D01*
X697508Y-140278D01*
X697267Y-140074D01*
X697045Y-139815D01*
X697026Y-139796D01*
X696989Y-139741D01*
X696934Y-139648D01*
X696878Y-139537D01*
X696786Y-139370D01*
X696693Y-139167D01*
X696582Y-138908D01*
X696489Y-138630D01*
X696378Y-138297D01*
X696267Y-137926D01*
X696175Y-137500D01*
X696100Y-137037D01*
X696026Y-136519D01*
X695971Y-135945D01*
X695934Y-135334D01*
X695915Y-134667D01*
Y-134649D01*
Y-134630D01*
Y-134575D01*
Y-134501D01*
Y-134316D01*
X695934Y-134075D01*
X695952Y-133778D01*
X695989Y-133427D01*
X696026Y-133056D01*
X696064Y-132649D01*
X696137Y-132223D01*
X696212Y-131797D01*
X696323Y-131353D01*
X696434Y-130927D01*
X696582Y-130520D01*
X696749Y-130131D01*
X696934Y-129760D01*
X697156Y-129446D01*
X697175Y-129427D01*
X697212Y-129390D01*
X697267Y-129316D01*
X697360Y-129242D01*
X697452Y-129131D01*
X697582Y-129020D01*
X697748Y-128909D01*
X697915Y-128779D01*
X698119Y-128649D01*
X698323Y-128538D01*
X698563Y-128427D01*
X698822Y-128316D01*
X699100Y-128242D01*
X699415Y-128168D01*
X699730Y-128131D01*
X700063Y-128112D01*
X700248D01*
X700378Y-128131D01*
D02*
G37*
G36*
X635199Y-127964D02*
X635385D01*
X635625Y-128001D01*
X635903Y-128038D01*
X636218Y-128094D01*
X636551Y-128168D01*
X636903Y-128261D01*
X637273Y-128372D01*
X637644Y-128520D01*
X638032Y-128687D01*
X638403Y-128890D01*
X638773Y-129131D01*
X639125Y-129409D01*
X639458Y-129723D01*
X639477Y-129742D01*
X639532Y-129797D01*
X639625Y-129909D01*
X639717Y-130038D01*
X639847Y-130223D01*
X639995Y-130445D01*
X640143Y-130705D01*
X640310Y-131001D01*
X640477Y-131316D01*
X640625Y-131686D01*
X640773Y-132093D01*
X640902Y-132519D01*
X641014Y-133001D01*
X641088Y-133501D01*
X641143Y-134038D01*
X641162Y-134612D01*
Y-134649D01*
Y-134741D01*
X641143Y-134908D01*
Y-135130D01*
X641106Y-135389D01*
X641069Y-135686D01*
X641014Y-136038D01*
X640958Y-136389D01*
X640865Y-136778D01*
X640754Y-137186D01*
X640606Y-137593D01*
X640440Y-138000D01*
X640254Y-138389D01*
X640014Y-138778D01*
X639754Y-139148D01*
X639458Y-139500D01*
X639440Y-139519D01*
X639384Y-139574D01*
X639292Y-139667D01*
X639143Y-139778D01*
X638977Y-139908D01*
X638773Y-140056D01*
X638532Y-140204D01*
X638273Y-140370D01*
X637958Y-140537D01*
X637625Y-140685D01*
X637255Y-140833D01*
X636847Y-140963D01*
X636422Y-141074D01*
X635959Y-141167D01*
X635477Y-141222D01*
X634959Y-141241D01*
X634829D01*
X634681Y-141222D01*
X634496Y-141204D01*
X634255Y-141185D01*
X633977Y-141148D01*
X633662Y-141093D01*
X633329Y-141018D01*
X632959Y-140926D01*
X632607Y-140815D01*
X632218Y-140667D01*
X631848Y-140500D01*
X631459Y-140315D01*
X631107Y-140074D01*
X630755Y-139815D01*
X630422Y-139500D01*
X630404Y-139482D01*
X630348Y-139426D01*
X630274Y-139315D01*
X630163Y-139185D01*
X630033Y-139000D01*
X629885Y-138778D01*
X629737Y-138537D01*
X629589Y-138241D01*
X629422Y-137926D01*
X629274Y-137556D01*
X629126Y-137167D01*
X628996Y-136741D01*
X628885Y-136278D01*
X628811Y-135778D01*
X628756Y-135241D01*
X628737Y-134686D01*
Y-134667D01*
Y-134593D01*
Y-134501D01*
X628756Y-134353D01*
Y-134186D01*
X628774Y-134001D01*
X628793Y-133778D01*
X628811Y-133538D01*
X628885Y-133019D01*
X628978Y-132464D01*
X629126Y-131908D01*
X629311Y-131390D01*
Y-131371D01*
X629330Y-131353D01*
X629367Y-131297D01*
X629385Y-131223D01*
X629496Y-131038D01*
X629626Y-130797D01*
X629793Y-130520D01*
X629996Y-130242D01*
X630237Y-129927D01*
X630496Y-129631D01*
X630515Y-129612D01*
X630533Y-129594D01*
X630626Y-129501D01*
X630793Y-129353D01*
X630996Y-129186D01*
X631237Y-129001D01*
X631515Y-128798D01*
X631829Y-128612D01*
X632163Y-128464D01*
X632181D01*
X632218Y-128446D01*
X632292Y-128409D01*
X632385Y-128390D01*
X632496Y-128335D01*
X632626Y-128298D01*
X632792Y-128261D01*
X632959Y-128205D01*
X633366Y-128112D01*
X633829Y-128020D01*
X634366Y-127964D01*
X634922Y-127946D01*
X635051D01*
X635199Y-127964D01*
D02*
G37*
G36*
X712914Y-154186D02*
X718006Y-162000D01*
X714654D01*
X711118Y-155982D01*
X709025Y-158130D01*
Y-162000D01*
X706433D01*
Y-149186D01*
X709025D01*
Y-154890D01*
X714284Y-149186D01*
X717765D01*
X712914Y-154186D01*
D02*
G37*
G36*
X369514Y140545D02*
X369819Y140517D01*
X370152Y140461D01*
X370541Y140406D01*
X370957Y140323D01*
X371402Y140211D01*
X371874Y140073D01*
X372346Y139906D01*
X372845Y139684D01*
X373317Y139462D01*
X373761Y139184D01*
X374233Y138851D01*
X374650Y138490D01*
X374678D01*
X374705Y138435D01*
X374789Y138351D01*
X374872Y138268D01*
X374983Y138129D01*
X375094Y137963D01*
X375399Y137574D01*
X375705Y137074D01*
X376038Y136464D01*
X376343Y135770D01*
X376621Y134964D01*
X372790Y134048D01*
Y134076D01*
X372762Y134104D01*
Y134187D01*
X372706Y134298D01*
X372623Y134548D01*
X372484Y134881D01*
X372290Y135270D01*
X372040Y135659D01*
X371707Y136047D01*
X371346Y136380D01*
X371291Y136408D01*
X371152Y136519D01*
X370930Y136658D01*
X370624Y136825D01*
X370236Y136991D01*
X369791Y137130D01*
X369292Y137241D01*
X368736Y137269D01*
X368542D01*
X368376Y137241D01*
X368209Y137213D01*
X367987Y137185D01*
X367515Y137074D01*
X366960Y136880D01*
X366377Y136602D01*
X366071Y136436D01*
X365794Y136242D01*
X365516Y135992D01*
X365266Y135714D01*
Y135686D01*
X365211Y135631D01*
X365155Y135547D01*
X365072Y135409D01*
X364961Y135242D01*
X364850Y135048D01*
X364739Y134798D01*
X364628Y134520D01*
X364489Y134187D01*
X364378Y133826D01*
X364267Y133410D01*
X364156Y132965D01*
X364072Y132466D01*
X364017Y131938D01*
X363989Y131355D01*
X363961Y130717D01*
Y130689D01*
Y130550D01*
Y130356D01*
X363989Y130134D01*
Y129828D01*
X364045Y129467D01*
X364072Y129107D01*
X364128Y128690D01*
X364294Y127830D01*
X364516Y126969D01*
X364655Y126552D01*
X364850Y126164D01*
X365044Y125803D01*
X365266Y125498D01*
X365294Y125470D01*
X365322Y125442D01*
X365405Y125359D01*
X365516Y125248D01*
X365794Y125026D01*
X366182Y124748D01*
X366654Y124443D01*
X367237Y124220D01*
X367904Y124026D01*
X368264Y123998D01*
X368653Y123971D01*
X368792D01*
X368903Y123998D01*
X369208Y124026D01*
X369569Y124082D01*
X369958Y124220D01*
X370402Y124387D01*
X370846Y124609D01*
X371291Y124942D01*
X371346Y124998D01*
X371485Y125137D01*
X371679Y125359D01*
X371901Y125692D01*
X372179Y126136D01*
X372429Y126664D01*
X372679Y127302D01*
X372901Y128052D01*
X376676Y126886D01*
Y126858D01*
X376649Y126747D01*
X376593Y126580D01*
X376510Y126358D01*
X376399Y126108D01*
X376288Y125803D01*
X376149Y125470D01*
X375982Y125109D01*
X375594Y124359D01*
X375094Y123582D01*
X374483Y122832D01*
X374150Y122499D01*
X373789Y122194D01*
X373761Y122166D01*
X373706Y122138D01*
X373595Y122055D01*
X373428Y121944D01*
X373234Y121833D01*
X372984Y121722D01*
X372706Y121583D01*
X372401Y121444D01*
X372040Y121278D01*
X371651Y121139D01*
X371235Y121028D01*
X370791Y120917D01*
X370319Y120806D01*
X369791Y120722D01*
X369264Y120695D01*
X368681Y120667D01*
X368514D01*
X368320Y120695D01*
X368042Y120722D01*
X367737Y120750D01*
X367348Y120806D01*
X366932Y120889D01*
X366460Y121000D01*
X365988Y121139D01*
X365488Y121305D01*
X364961Y121528D01*
X364433Y121777D01*
X363906Y122055D01*
X363378Y122416D01*
X362879Y122805D01*
X362407Y123277D01*
X362379Y123304D01*
X362296Y123388D01*
X362184Y123554D01*
X362018Y123749D01*
X361851Y124026D01*
X361629Y124332D01*
X361407Y124720D01*
X361185Y125164D01*
X360963Y125636D01*
X360741Y126164D01*
X360519Y126775D01*
X360352Y127413D01*
X360186Y128079D01*
X360075Y128829D01*
X359991Y129606D01*
X359963Y130439D01*
Y130467D01*
Y130495D01*
Y130661D01*
X359991Y130911D01*
Y131244D01*
X360047Y131633D01*
X360102Y132105D01*
X360158Y132605D01*
X360269Y133188D01*
X360408Y133771D01*
X360574Y134381D01*
X360769Y134992D01*
X361018Y135631D01*
X361296Y136242D01*
X361629Y136825D01*
X361990Y137380D01*
X362434Y137907D01*
X362462Y137935D01*
X362545Y138018D01*
X362684Y138157D01*
X362879Y138324D01*
X363128Y138518D01*
X363434Y138740D01*
X363767Y138990D01*
X364183Y139240D01*
X364628Y139490D01*
X365099Y139740D01*
X365655Y139962D01*
X366210Y140156D01*
X366849Y140323D01*
X367487Y140461D01*
X368209Y140545D01*
X368931Y140572D01*
X369264D01*
X369514Y140545D01*
D02*
G37*
G36*
X442084Y135214D02*
X442389Y135187D01*
X442723Y135131D01*
X443084Y135048D01*
X443472Y134937D01*
X443861Y134798D01*
X443916Y134770D01*
X444027Y134714D01*
X444222Y134631D01*
X444444Y134492D01*
X444694Y134326D01*
X444944Y134131D01*
X445193Y133909D01*
X445416Y133660D01*
X445443Y133632D01*
X445499Y133548D01*
X445582Y133410D01*
X445693Y133215D01*
X445832Y132993D01*
X445943Y132716D01*
X446054Y132438D01*
X446137Y132105D01*
Y132077D01*
X446165Y131938D01*
X446221Y131744D01*
X446249Y131466D01*
X446304Y131133D01*
X446332Y130689D01*
X446359Y130217D01*
Y129634D01*
Y121000D01*
X442667D01*
Y128079D01*
Y128107D01*
Y128190D01*
Y128301D01*
Y128440D01*
Y128635D01*
Y128829D01*
X442639Y129301D01*
X442612Y129773D01*
X442556Y130273D01*
X442501Y130689D01*
X442473Y130856D01*
X442417Y130994D01*
Y131022D01*
X442362Y131105D01*
X442306Y131216D01*
X442223Y131383D01*
X441973Y131716D01*
X441834Y131883D01*
X441640Y132022D01*
X441612Y132049D01*
X441557Y132077D01*
X441446Y132133D01*
X441279Y132216D01*
X441085Y132299D01*
X440890Y132355D01*
X440640Y132382D01*
X440363Y132410D01*
X440196D01*
X440030Y132382D01*
X439808Y132355D01*
X439530Y132271D01*
X439252Y132188D01*
X438947Y132049D01*
X438642Y131883D01*
X438614Y131855D01*
X438531Y131799D01*
X438392Y131661D01*
X438225Y131522D01*
X438059Y131300D01*
X437892Y131078D01*
X437725Y130772D01*
X437614Y130467D01*
Y130439D01*
X437559Y130300D01*
X437531Y130078D01*
X437476Y129745D01*
X437448Y129551D01*
X437420Y129301D01*
X437392Y129051D01*
Y128746D01*
X437365Y128440D01*
X437337Y128079D01*
Y127691D01*
Y127274D01*
Y121000D01*
X433644D01*
Y134937D01*
X437059D01*
Y132882D01*
X437087Y132910D01*
X437142Y132993D01*
X437253Y133104D01*
X437392Y133243D01*
X437559Y133438D01*
X437781Y133632D01*
X438031Y133854D01*
X438308Y134076D01*
X438614Y134270D01*
X438975Y134492D01*
X439336Y134687D01*
X439752Y134881D01*
X440196Y135020D01*
X440640Y135131D01*
X441140Y135214D01*
X441640Y135242D01*
X441834D01*
X442084Y135214D01*
D02*
G37*
G36*
X321707Y140545D02*
X322013Y140517D01*
X322374Y140489D01*
X322734Y140434D01*
X323151Y140378D01*
X324039Y140184D01*
X324483Y140045D01*
X324928Y139906D01*
X325372Y139712D01*
X325788Y139490D01*
X326177Y139240D01*
X326538Y138962D01*
X326566Y138934D01*
X326621Y138879D01*
X326704Y138796D01*
X326815Y138685D01*
X326954Y138518D01*
X327121Y138324D01*
X327287Y138102D01*
X327482Y137852D01*
X327648Y137546D01*
X327815Y137241D01*
X327981Y136880D01*
X328120Y136491D01*
X328259Y136103D01*
X328370Y135659D01*
X328453Y135214D01*
X328481Y134714D01*
X324594Y134576D01*
Y134604D01*
Y134631D01*
X324539Y134826D01*
X324483Y135075D01*
X324372Y135381D01*
X324234Y135742D01*
X324039Y136075D01*
X323789Y136408D01*
X323512Y136686D01*
X323484Y136713D01*
X323373Y136797D01*
X323179Y136908D01*
X322901Y137019D01*
X322568Y137130D01*
X322151Y137241D01*
X321652Y137324D01*
X321069Y137352D01*
X320791D01*
X320486Y137324D01*
X320125Y137269D01*
X319708Y137185D01*
X319264Y137047D01*
X318848Y136880D01*
X318459Y136630D01*
X318431Y136602D01*
X318376Y136547D01*
X318265Y136464D01*
X318154Y136325D01*
X318043Y136158D01*
X317932Y135936D01*
X317876Y135714D01*
X317848Y135436D01*
Y135409D01*
Y135325D01*
X317876Y135187D01*
X317932Y135048D01*
X317987Y134853D01*
X318070Y134659D01*
X318209Y134465D01*
X318403Y134270D01*
X318431Y134243D01*
X318570Y134159D01*
X318653Y134104D01*
X318792Y134048D01*
X318931Y133965D01*
X319125Y133882D01*
X319347Y133798D01*
X319597Y133687D01*
X319903Y133576D01*
X320208Y133465D01*
X320597Y133354D01*
X321013Y133243D01*
X321457Y133132D01*
X321957Y132993D01*
X321985D01*
X322096Y132965D01*
X322235Y132938D01*
X322429Y132882D01*
X322651Y132827D01*
X322929Y132743D01*
X323234Y132660D01*
X323540Y132577D01*
X324206Y132355D01*
X324900Y132133D01*
X325566Y131883D01*
X325844Y131744D01*
X326121Y131605D01*
X326149D01*
X326177Y131577D01*
X326343Y131466D01*
X326593Y131300D01*
X326899Y131078D01*
X327232Y130800D01*
X327593Y130467D01*
X327954Y130078D01*
X328259Y129634D01*
X328287Y129579D01*
X328370Y129412D01*
X328509Y129162D01*
X328648Y128801D01*
X328787Y128357D01*
X328925Y127830D01*
X329009Y127247D01*
X329036Y126580D01*
Y126552D01*
Y126497D01*
Y126414D01*
Y126303D01*
X329009Y126164D01*
X328981Y125969D01*
X328925Y125581D01*
X328814Y125081D01*
X328648Y124554D01*
X328398Y124026D01*
X328092Y123471D01*
Y123443D01*
X328037Y123415D01*
X327926Y123249D01*
X327704Y122971D01*
X327426Y122666D01*
X327065Y122305D01*
X326593Y121972D01*
X326094Y121638D01*
X325483Y121333D01*
X325455D01*
X325400Y121305D01*
X325316Y121278D01*
X325177Y121222D01*
X325011Y121167D01*
X324817Y121111D01*
X324594Y121055D01*
X324345Y121000D01*
X324039Y120917D01*
X323734Y120861D01*
X323012Y120750D01*
X322207Y120667D01*
X321319Y120639D01*
X320958D01*
X320708Y120667D01*
X320402Y120695D01*
X320069Y120722D01*
X319681Y120778D01*
X319264Y120861D01*
X318348Y121055D01*
X317876Y121194D01*
X317432Y121333D01*
X316960Y121528D01*
X316516Y121750D01*
X316099Y122000D01*
X315711Y122305D01*
X315683Y122333D01*
X315627Y122388D01*
X315516Y122471D01*
X315405Y122610D01*
X315239Y122805D01*
X315072Y123027D01*
X314878Y123277D01*
X314683Y123554D01*
X314489Y123887D01*
X314295Y124248D01*
X314100Y124665D01*
X313906Y125109D01*
X313767Y125581D01*
X313601Y126108D01*
X313490Y126664D01*
X313406Y127247D01*
X317182Y127607D01*
Y127580D01*
X317210Y127524D01*
Y127413D01*
X317237Y127302D01*
X317349Y126969D01*
X317487Y126552D01*
X317654Y126081D01*
X317904Y125609D01*
X318181Y125192D01*
X318542Y124803D01*
X318598Y124776D01*
X318737Y124665D01*
X318959Y124526D01*
X319292Y124359D01*
X319708Y124193D01*
X320180Y124054D01*
X320736Y123943D01*
X321374Y123915D01*
X321679D01*
X322013Y123971D01*
X322429Y124026D01*
X322873Y124109D01*
X323345Y124248D01*
X323789Y124443D01*
X324178Y124692D01*
X324234Y124720D01*
X324345Y124831D01*
X324483Y124998D01*
X324678Y125220D01*
X324844Y125498D01*
X325011Y125831D01*
X325122Y126164D01*
X325150Y126552D01*
Y126580D01*
Y126664D01*
X325122Y126802D01*
X325094Y126969D01*
X325039Y127135D01*
X324983Y127330D01*
X324872Y127524D01*
X324733Y127718D01*
X324706Y127746D01*
X324650Y127802D01*
X324567Y127885D01*
X324428Y127996D01*
X324234Y128135D01*
X323984Y128274D01*
X323706Y128413D01*
X323345Y128551D01*
X323317D01*
X323206Y128607D01*
X323012Y128662D01*
X322873Y128718D01*
X322707Y128746D01*
X322512Y128801D01*
X322290Y128884D01*
X322040Y128940D01*
X321763Y129023D01*
X321430Y129107D01*
X321069Y129190D01*
X320680Y129301D01*
X320236Y129412D01*
X320208D01*
X320097Y129440D01*
X319930Y129495D01*
X319736Y129551D01*
X319486Y129634D01*
X319181Y129717D01*
X318876Y129828D01*
X318515Y129939D01*
X317793Y130217D01*
X317099Y130550D01*
X316738Y130717D01*
X316432Y130911D01*
X316127Y131105D01*
X315877Y131300D01*
X315849Y131328D01*
X315794Y131383D01*
X315711Y131466D01*
X315599Y131577D01*
X315461Y131744D01*
X315322Y131938D01*
X315155Y132133D01*
X315016Y132382D01*
X314683Y132965D01*
X314406Y133632D01*
X314295Y133993D01*
X314211Y134354D01*
X314156Y134770D01*
X314128Y135187D01*
Y135214D01*
Y135242D01*
Y135325D01*
Y135436D01*
X314184Y135714D01*
X314239Y136075D01*
X314322Y136491D01*
X314461Y136963D01*
X314656Y137463D01*
X314933Y137935D01*
Y137963D01*
X314961Y137991D01*
X315100Y138157D01*
X315266Y138379D01*
X315544Y138657D01*
X315877Y138962D01*
X316294Y139295D01*
X316766Y139601D01*
X317321Y139878D01*
X317349D01*
X317404Y139906D01*
X317487Y139934D01*
X317598Y139989D01*
X317765Y140045D01*
X317932Y140100D01*
X318154Y140156D01*
X318403Y140239D01*
X318959Y140350D01*
X319597Y140461D01*
X320319Y140545D01*
X321124Y140572D01*
X321457D01*
X321707Y140545D01*
D02*
G37*
G36*
X354378Y167695D02*
X354794Y167649D01*
X355303Y167556D01*
X355858Y167463D01*
X356460Y167325D01*
X357108Y167139D01*
X357756Y166908D01*
X358450Y166630D01*
X359144Y166260D01*
X359792Y165890D01*
X360440Y165427D01*
X361088Y164872D01*
X361643Y164270D01*
X361690Y164224D01*
X361782Y164131D01*
X361921Y163900D01*
X362106Y163622D01*
X362338Y163252D01*
X362569Y162836D01*
X362847Y162280D01*
X363124Y161679D01*
X363402Y160984D01*
X363680Y160198D01*
X363911Y159365D01*
X364142Y158393D01*
X364328Y157375D01*
X364466Y156264D01*
X364559Y155107D01*
Y153811D01*
X349194D01*
Y153765D01*
Y153672D01*
Y153533D01*
X349241Y153348D01*
X349287Y152886D01*
X349380Y152238D01*
X349565Y151590D01*
X349842Y150849D01*
X350166Y150155D01*
X350629Y149553D01*
X350675Y149507D01*
X350907Y149322D01*
X351184Y149091D01*
X351601Y148813D01*
X352110Y148535D01*
X352758Y148304D01*
X353452Y148119D01*
X354193Y148073D01*
X354424D01*
X354702Y148119D01*
X355025Y148165D01*
X355396Y148258D01*
X355812Y148397D01*
X356229Y148582D01*
X356599Y148859D01*
X356645Y148905D01*
X356784Y148998D01*
X356969Y149183D01*
X357154Y149461D01*
X357432Y149831D01*
X357663Y150248D01*
X357895Y150803D01*
X358126Y151405D01*
X364235Y150386D01*
Y150340D01*
X364189Y150248D01*
X364096Y150063D01*
X364004Y149831D01*
X363865Y149553D01*
X363726Y149229D01*
X363309Y148489D01*
X362800Y147656D01*
X362152Y146777D01*
X361366Y145990D01*
X360486Y145250D01*
X360440D01*
X360394Y145157D01*
X360209Y145111D01*
X360024Y144972D01*
X359792Y144833D01*
X359468Y144694D01*
X359144Y144555D01*
X358728Y144370D01*
X357802Y144046D01*
X356738Y143769D01*
X355488Y143583D01*
X354146Y143491D01*
X353868D01*
X353591Y143537D01*
X353174D01*
X352665Y143630D01*
X352064Y143722D01*
X351416Y143815D01*
X350768Y144000D01*
X350027Y144185D01*
X349287Y144463D01*
X348546Y144787D01*
X347806Y145157D01*
X347066Y145620D01*
X346371Y146129D01*
X345770Y146730D01*
X345168Y147425D01*
X345122Y147471D01*
X345076Y147563D01*
X344983Y147749D01*
X344798Y147980D01*
X344659Y148304D01*
X344474Y148674D01*
X344243Y149091D01*
X344057Y149600D01*
X343826Y150155D01*
X343641Y150757D01*
X343410Y151405D01*
X343271Y152145D01*
X343132Y152886D01*
X342993Y153672D01*
X342947Y154552D01*
X342901Y155431D01*
Y155477D01*
Y155662D01*
Y155986D01*
X342947Y156403D01*
X342993Y156866D01*
X343039Y157421D01*
X343132Y158022D01*
X343271Y158717D01*
X343641Y160151D01*
X343872Y160892D01*
X344150Y161679D01*
X344520Y162419D01*
X344937Y163113D01*
X345400Y163807D01*
X345909Y164455D01*
X345955Y164501D01*
X346047Y164594D01*
X346232Y164779D01*
X346464Y164964D01*
X346742Y165196D01*
X347112Y165473D01*
X347528Y165797D01*
X347991Y166121D01*
X348500Y166399D01*
X349102Y166723D01*
X349703Y167001D01*
X350398Y167232D01*
X351092Y167417D01*
X351879Y167602D01*
X352665Y167695D01*
X353498Y167741D01*
X354007D01*
X354378Y167695D01*
D02*
G37*
G36*
X489696Y140545D02*
X490085Y140517D01*
X490557Y140461D01*
X491084Y140378D01*
X491640Y140267D01*
X492223Y140100D01*
X491723Y137519D01*
X491695D01*
X491584Y137546D01*
X491390Y137602D01*
X491168Y137630D01*
X490918Y137685D01*
X490640Y137713D01*
X490029Y137741D01*
X489891D01*
X489752Y137713D01*
X489585Y137685D01*
X489197Y137574D01*
X489030Y137491D01*
X488863Y137352D01*
Y137324D01*
X488808Y137269D01*
X488752Y137185D01*
X488697Y137019D01*
X488641Y136825D01*
X488586Y136575D01*
X488558Y136269D01*
X488530Y135908D01*
Y134937D01*
X491279D01*
Y132049D01*
X488530D01*
Y121000D01*
X484838D01*
Y132049D01*
X482784D01*
Y134444D01*
X481645Y131328D01*
X481618Y131355D01*
X481479Y131411D01*
X481312Y131522D01*
X481090Y131633D01*
X480812Y131744D01*
X480535Y131855D01*
X480229Y131911D01*
X479924Y131938D01*
X479813D01*
X479646Y131911D01*
X479480Y131883D01*
X479286Y131827D01*
X479063Y131744D01*
X478841Y131633D01*
X478619Y131494D01*
X478591Y131466D01*
X478536Y131411D01*
X478425Y131300D01*
X478314Y131133D01*
X478175Y130939D01*
X478036Y130661D01*
X477897Y130328D01*
X477786Y129939D01*
Y129884D01*
X477759Y129801D01*
X477731Y129717D01*
Y129579D01*
X477703Y129412D01*
X477675Y129190D01*
X477648Y128940D01*
X477620Y128662D01*
X477592Y128301D01*
X477564Y127941D01*
Y127496D01*
X477537Y127024D01*
X477509Y126497D01*
Y125914D01*
Y125275D01*
Y121000D01*
X473816D01*
Y134937D01*
X477231D01*
Y132965D01*
X477259Y132993D01*
X477370Y133160D01*
X477537Y133410D01*
X477759Y133715D01*
X477981Y134021D01*
X478258Y134326D01*
X478508Y134604D01*
X478786Y134798D01*
X478814Y134826D01*
X478897Y134881D01*
X479063Y134937D01*
X479258Y135020D01*
X479480Y135103D01*
X479757Y135187D01*
X480035Y135214D01*
X480368Y135242D01*
X480590D01*
X480840Y135214D01*
X481146Y135159D01*
X481534Y135075D01*
X481951Y134937D01*
X482367Y134770D01*
X482784Y134536D01*
Y134937D01*
X484838D01*
Y135964D01*
Y135992D01*
Y136047D01*
Y136130D01*
Y136269D01*
X484866Y136575D01*
X484893Y136963D01*
X484921Y137380D01*
X485005Y137824D01*
X485088Y138240D01*
X485199Y138601D01*
X485227Y138629D01*
X485282Y138740D01*
X485365Y138907D01*
X485504Y139101D01*
X485699Y139323D01*
X485921Y139573D01*
X486226Y139795D01*
X486559Y140017D01*
X486615Y140045D01*
X486754Y140100D01*
X486976Y140184D01*
X487253Y140295D01*
X487642Y140406D01*
X488058Y140489D01*
X488558Y140545D01*
X489113Y140572D01*
X489391D01*
X489696Y140545D01*
D02*
G37*
G36*
X186572Y-156011D02*
X187011Y-156034D01*
X187497Y-156057D01*
X188006Y-156126D01*
X188492Y-156196D01*
X188932Y-156312D01*
X188955D01*
X189001Y-156335D01*
X189071Y-156358D01*
X189163Y-156381D01*
X189441Y-156497D01*
X189765Y-156659D01*
X190135Y-156867D01*
X190552Y-157121D01*
X190945Y-157422D01*
X191338Y-157792D01*
X191361D01*
X191385Y-157839D01*
X191500Y-157978D01*
X191685Y-158209D01*
X191894Y-158510D01*
X192148Y-158880D01*
X192403Y-159320D01*
X192657Y-159829D01*
X192866Y-160384D01*
Y-160407D01*
X192889Y-160453D01*
X192912Y-160546D01*
X192958Y-160662D01*
X192981Y-160800D01*
X193027Y-160986D01*
X193074Y-161194D01*
X193143Y-161425D01*
X193190Y-161680D01*
X193236Y-161981D01*
X193282Y-162281D01*
X193305Y-162629D01*
X193375Y-163346D01*
X193398Y-164156D01*
Y-164179D01*
Y-164248D01*
Y-164341D01*
Y-164480D01*
X193375Y-164665D01*
Y-164850D01*
X193351Y-165081D01*
X193328Y-165336D01*
X193282Y-165868D01*
X193190Y-166423D01*
X193051Y-167002D01*
X192889Y-167557D01*
Y-167580D01*
X192866Y-167627D01*
X192819Y-167719D01*
X192773Y-167858D01*
X192727Y-167997D01*
X192634Y-168159D01*
X192449Y-168575D01*
X192218Y-169015D01*
X191917Y-169501D01*
X191570Y-169964D01*
X191176Y-170403D01*
X191130Y-170450D01*
X191014Y-170542D01*
X190829Y-170681D01*
X190575Y-170866D01*
X190251Y-171074D01*
X189881Y-171283D01*
X189418Y-171491D01*
X188909Y-171676D01*
X188885D01*
X188862Y-171699D01*
X188793D01*
X188724Y-171722D01*
X188469Y-171769D01*
X188145Y-171838D01*
X187752Y-171908D01*
X187266Y-171954D01*
X186687Y-171977D01*
X186063Y-172000D01*
X180000D01*
Y-155988D01*
X186387D01*
X186572Y-156011D01*
D02*
G37*
G36*
X514599Y135214D02*
X514821D01*
X515071Y135187D01*
X515349Y135159D01*
X515654Y135103D01*
X516292Y134964D01*
X516959Y134770D01*
X517625Y134492D01*
X518236Y134131D01*
X518264D01*
X518291Y134076D01*
X518375Y134021D01*
X518486Y133937D01*
X518736Y133687D01*
X519069Y133326D01*
X519430Y132854D01*
X519790Y132299D01*
X520124Y131633D01*
X520401Y130856D01*
X516764Y130189D01*
Y130245D01*
X516737Y130356D01*
X516681Y130550D01*
X516598Y130800D01*
X516459Y131050D01*
X516320Y131328D01*
X516126Y131577D01*
X515904Y131799D01*
X515876Y131827D01*
X515793Y131883D01*
X515654Y131966D01*
X515460Y132077D01*
X515210Y132188D01*
X514932Y132271D01*
X514599Y132327D01*
X514238Y132355D01*
X514183D01*
X514016Y132327D01*
X513766Y132299D01*
X513433Y132244D01*
X513100Y132105D01*
X512739Y131938D01*
X512378Y131716D01*
X512045Y131383D01*
X512017Y131328D01*
X511934Y131189D01*
X511795Y130967D01*
X511656Y130633D01*
X511490Y130189D01*
X511434Y129939D01*
X511379Y129662D01*
X511323Y129329D01*
X511268Y128996D01*
X511240Y128607D01*
Y128218D01*
Y128190D01*
Y128107D01*
Y127968D01*
X511268Y127802D01*
Y127607D01*
X511295Y127385D01*
X511351Y126830D01*
X511434Y126247D01*
X511601Y125664D01*
X511795Y125137D01*
X511934Y124915D01*
X512073Y124692D01*
X512100Y124637D01*
X512239Y124526D01*
X512406Y124387D01*
X512656Y124193D01*
X512989Y123998D01*
X513350Y123860D01*
X513794Y123749D01*
X514294Y123693D01*
X514460D01*
X514655Y123721D01*
X514904Y123776D01*
X515182Y123832D01*
X515460Y123943D01*
X515737Y124082D01*
X516015Y124276D01*
X516043Y124304D01*
X516126Y124387D01*
X516237Y124526D01*
X516404Y124748D01*
X516570Y125026D01*
X516709Y125386D01*
X516875Y125831D01*
X516987Y126330D01*
X520596Y125720D01*
Y125692D01*
X520568Y125609D01*
X520540Y125470D01*
X520485Y125303D01*
X520401Y125109D01*
X520318Y124859D01*
X520096Y124304D01*
X519818Y123693D01*
X519430Y123082D01*
X518958Y122471D01*
X518680Y122194D01*
X518402Y121944D01*
X518375D01*
X518319Y121888D01*
X518236Y121833D01*
X518125Y121750D01*
X517958Y121666D01*
X517764Y121555D01*
X517542Y121444D01*
X517264Y121333D01*
X516987Y121194D01*
X516653Y121083D01*
X516320Y120972D01*
X515932Y120889D01*
X515515Y120806D01*
X515071Y120750D01*
X514627Y120722D01*
X514127Y120695D01*
X513822D01*
X513627Y120722D01*
X513377Y120750D01*
X513072Y120806D01*
X512739Y120861D01*
X512378Y120944D01*
X511989Y121028D01*
X511601Y121167D01*
X511184Y121305D01*
X510796Y121500D01*
X510379Y121722D01*
X509991Y121972D01*
X509630Y122277D01*
X509269Y122610D01*
X509241Y122638D01*
X509185Y122694D01*
X509102Y122805D01*
X508991Y122971D01*
X508852Y123166D01*
X508686Y123388D01*
X508547Y123665D01*
X508380Y123998D01*
X508186Y124359D01*
X508047Y124748D01*
X507881Y125192D01*
X507742Y125664D01*
X507631Y126192D01*
X507547Y126719D01*
X507492Y127330D01*
X507464Y127941D01*
Y127968D01*
Y128079D01*
Y128274D01*
X507492Y128496D01*
X507520Y128801D01*
X507547Y129134D01*
X507603Y129495D01*
X507686Y129912D01*
X507908Y130772D01*
X508047Y131216D01*
X508214Y131661D01*
X508436Y132105D01*
X508686Y132521D01*
X508963Y132910D01*
X509269Y133299D01*
X509296Y133326D01*
X509352Y133382D01*
X509463Y133465D01*
X509602Y133604D01*
X509796Y133743D01*
X510018Y133909D01*
X510268Y134104D01*
X510574Y134270D01*
X510907Y134465D01*
X511268Y134631D01*
X511684Y134798D01*
X512128Y134937D01*
X512572Y135075D01*
X513100Y135159D01*
X513627Y135214D01*
X514183Y135242D01*
X514432D01*
X514599Y135214D01*
D02*
G37*
G36*
X122354Y-172000D02*
X118860D01*
X115713Y-160037D01*
X112520Y-172000D01*
X109002D01*
X105208Y-155988D01*
X108517D01*
X110923Y-167002D01*
X113839Y-155988D01*
X117726D01*
X120503Y-167187D01*
X122956Y-155988D01*
X126218D01*
X122354Y-172000D01*
D02*
G37*
G36*
X134479Y-156011D02*
X134919Y-156034D01*
X135405Y-156057D01*
X135914Y-156126D01*
X136399Y-156196D01*
X136839Y-156312D01*
X136862D01*
X136909Y-156335D01*
X136978Y-156358D01*
X137071Y-156381D01*
X137348Y-156497D01*
X137672Y-156659D01*
X138042Y-156867D01*
X138459Y-157121D01*
X138852Y-157422D01*
X139246Y-157792D01*
X139269D01*
X139292Y-157839D01*
X139408Y-157978D01*
X139593Y-158209D01*
X139801Y-158510D01*
X140056Y-158880D01*
X140310Y-159320D01*
X140565Y-159829D01*
X140773Y-160384D01*
Y-160407D01*
X140796Y-160453D01*
X140819Y-160546D01*
X140865Y-160662D01*
X140889Y-160800D01*
X140935Y-160986D01*
X140981Y-161194D01*
X141051Y-161425D01*
X141097Y-161680D01*
X141143Y-161981D01*
X141189Y-162281D01*
X141213Y-162629D01*
X141282Y-163346D01*
X141305Y-164156D01*
Y-164179D01*
Y-164248D01*
Y-164341D01*
Y-164480D01*
X141282Y-164665D01*
Y-164850D01*
X141259Y-165081D01*
X141236Y-165336D01*
X141189Y-165868D01*
X141097Y-166423D01*
X140958Y-167002D01*
X140796Y-167557D01*
Y-167580D01*
X140773Y-167627D01*
X140727Y-167719D01*
X140680Y-167858D01*
X140634Y-167997D01*
X140541Y-168159D01*
X140356Y-168575D01*
X140125Y-169015D01*
X139824Y-169501D01*
X139477Y-169964D01*
X139084Y-170403D01*
X139037Y-170450D01*
X138922Y-170542D01*
X138737Y-170681D01*
X138482Y-170866D01*
X138158Y-171074D01*
X137788Y-171283D01*
X137325Y-171491D01*
X136816Y-171676D01*
X136793D01*
X136770Y-171699D01*
X136700D01*
X136631Y-171722D01*
X136376Y-171769D01*
X136052Y-171838D01*
X135659Y-171908D01*
X135173Y-171954D01*
X134595Y-171977D01*
X133970Y-172000D01*
X127907D01*
Y-155988D01*
X134294D01*
X134479Y-156011D01*
D02*
G37*
G36*
X207143Y-158695D02*
X199391D01*
Y-162490D01*
X206078D01*
Y-165197D01*
X199391D01*
Y-172000D01*
X196151D01*
Y-155988D01*
X207143D01*
Y-158695D01*
D02*
G37*
G36*
X222553Y-164433D02*
Y-164457D01*
Y-164549D01*
Y-164711D01*
Y-164896D01*
Y-165128D01*
X222530Y-165405D01*
Y-165706D01*
Y-166007D01*
X222484Y-166678D01*
X222438Y-167372D01*
X222414Y-167673D01*
X222368Y-167974D01*
X222322Y-168251D01*
X222276Y-168506D01*
Y-168529D01*
X222253Y-168552D01*
Y-168622D01*
X222229Y-168691D01*
X222160Y-168923D01*
X222067Y-169200D01*
X221929Y-169524D01*
X221767Y-169848D01*
X221558Y-170195D01*
X221304Y-170519D01*
X221281Y-170565D01*
X221188Y-170658D01*
X221026Y-170797D01*
X220818Y-170982D01*
X220540Y-171190D01*
X220216Y-171398D01*
X219846Y-171630D01*
X219429Y-171815D01*
X219406D01*
X219383Y-171838D01*
X219314Y-171861D01*
X219221Y-171884D01*
X219106Y-171931D01*
X218967Y-171977D01*
X218782Y-172023D01*
X218596Y-172046D01*
X218157Y-172139D01*
X217625Y-172231D01*
X217023Y-172278D01*
X216352Y-172301D01*
X215982D01*
X215774Y-172278D01*
X215565D01*
X215311Y-172255D01*
X215056Y-172231D01*
X214501Y-172185D01*
X213922Y-172093D01*
X213344Y-171954D01*
X213089Y-171884D01*
X212858Y-171792D01*
X212835D01*
X212812Y-171769D01*
X212673Y-171699D01*
X212441Y-171583D01*
X212187Y-171422D01*
X211886Y-171213D01*
X211562Y-170982D01*
X211261Y-170704D01*
X210984Y-170403D01*
X210961Y-170357D01*
X210868Y-170265D01*
X210752Y-170079D01*
X210613Y-169848D01*
X210475Y-169594D01*
X210313Y-169293D01*
X210197Y-168969D01*
X210081Y-168622D01*
Y-168598D01*
X210058Y-168552D01*
Y-168483D01*
X210035Y-168367D01*
X210012Y-168228D01*
X209989Y-168043D01*
X209965Y-167835D01*
X209942Y-167603D01*
X209896Y-167326D01*
X209873Y-167025D01*
X209850Y-166701D01*
X209827Y-166331D01*
X209804Y-165938D01*
Y-165498D01*
X209780Y-165035D01*
Y-164549D01*
Y-155988D01*
X213020D01*
Y-164688D01*
Y-164711D01*
Y-164781D01*
Y-164873D01*
Y-165012D01*
Y-165197D01*
Y-165382D01*
X213043Y-165799D01*
Y-166261D01*
X213066Y-166701D01*
X213089Y-166909D01*
Y-167094D01*
X213113Y-167233D01*
X213136Y-167372D01*
Y-167418D01*
X213182Y-167534D01*
X213251Y-167719D01*
X213344Y-167951D01*
X213460Y-168205D01*
X213645Y-168460D01*
X213853Y-168737D01*
X214107Y-168969D01*
X214154Y-168992D01*
X214246Y-169061D01*
X214431Y-169154D01*
X214663Y-169246D01*
X214987Y-169362D01*
X215357Y-169455D01*
X215774Y-169524D01*
X216259Y-169547D01*
X216491D01*
X216722Y-169524D01*
X217023Y-169478D01*
X217370Y-169408D01*
X217694Y-169316D01*
X218041Y-169177D01*
X218319Y-168992D01*
X218342Y-168969D01*
X218435Y-168899D01*
X218550Y-168784D01*
X218689Y-168622D01*
X218828Y-168413D01*
X218967Y-168182D01*
X219082Y-167927D01*
X219152Y-167627D01*
Y-167580D01*
X219175Y-167465D01*
X219198Y-167256D01*
X219244Y-166979D01*
Y-166794D01*
X219268Y-166585D01*
Y-166354D01*
X219291Y-166123D01*
Y-165845D01*
X219314Y-165544D01*
Y-165220D01*
Y-164873D01*
Y-155988D01*
X222553D01*
Y-164433D01*
D02*
G37*
G36*
X408015Y144000D02*
X401860D01*
Y167232D01*
X408015D01*
Y144000D01*
D02*
G37*
G36*
X384551Y175979D02*
X385477Y175932D01*
X386403Y175886D01*
X387282Y175793D01*
X388069Y175701D01*
X388161D01*
X388392Y175655D01*
X388717Y175562D01*
X389179Y175423D01*
X389688Y175238D01*
X390244Y175007D01*
X390845Y174729D01*
X391401Y174359D01*
X391447Y174313D01*
X391632Y174174D01*
X391910Y173942D01*
X392280Y173665D01*
X392650Y173248D01*
X393067Y172785D01*
X393483Y172276D01*
X393853Y171675D01*
X393900Y171582D01*
X393992Y171397D01*
X394177Y171027D01*
X394362Y170564D01*
X394548Y170009D01*
X394733Y169407D01*
X394825Y168667D01*
X394871Y167926D01*
Y167880D01*
Y167834D01*
Y167556D01*
X394825Y167139D01*
X394733Y166584D01*
X394548Y165936D01*
X394362Y165242D01*
X394039Y164548D01*
X393622Y163807D01*
X393576Y163715D01*
X393391Y163483D01*
X393113Y163159D01*
X392789Y162743D01*
X392326Y162326D01*
X391771Y161817D01*
X391123Y161401D01*
X390382Y160984D01*
X390429D01*
X390521Y160938D01*
X390660Y160892D01*
X390845Y160846D01*
X391401Y160614D01*
X392048Y160290D01*
X392743Y159920D01*
X393530Y159411D01*
X394224Y158809D01*
X394871Y158069D01*
X394918Y157976D01*
X395103Y157698D01*
X395381Y157282D01*
X395658Y156727D01*
X395936Y155986D01*
X396214Y155199D01*
X396399Y154274D01*
X396445Y153256D01*
Y153209D01*
Y153163D01*
Y152886D01*
X396399Y152469D01*
X396306Y151914D01*
X396214Y151266D01*
X396029Y150525D01*
X395751Y149785D01*
X395427Y148998D01*
X395381Y148905D01*
X395242Y148674D01*
X395010Y148304D01*
X394686Y147841D01*
X394316Y147286D01*
X393807Y146777D01*
X393298Y146221D01*
X392650Y145712D01*
X392558Y145666D01*
X392326Y145527D01*
X391956Y145296D01*
X391447Y145064D01*
X390799Y144787D01*
X390059Y144555D01*
X389226Y144324D01*
X388300Y144185D01*
X388115D01*
X387930Y144139D01*
X387467D01*
X387143Y144093D01*
X386264D01*
X385708Y144046D01*
X384320D01*
X383533Y144000D01*
X369650D01*
Y176025D01*
X383718D01*
X384551Y175979D01*
D02*
G37*
G36*
X462439Y170610D02*
X452998D01*
Y144000D01*
X446519D01*
Y170610D01*
X437032D01*
Y176025D01*
X462439D01*
Y170610D01*
D02*
G37*
G36*
X502007Y167695D02*
X502377D01*
X502794Y167649D01*
X503256Y167602D01*
X503766Y167510D01*
X504830Y167278D01*
X505941Y166954D01*
X507051Y166492D01*
X508069Y165890D01*
X508116D01*
X508162Y165797D01*
X508301Y165705D01*
X508486Y165566D01*
X508903Y165149D01*
X509458Y164548D01*
X510060Y163761D01*
X510661Y162836D01*
X511217Y161725D01*
X511679Y160429D01*
X505617Y159318D01*
Y159411D01*
X505570Y159596D01*
X505478Y159920D01*
X505339Y160336D01*
X505108Y160753D01*
X504876Y161216D01*
X504552Y161632D01*
X504182Y162002D01*
X504136Y162049D01*
X503997Y162141D01*
X503766Y162280D01*
X503442Y162465D01*
X503025Y162650D01*
X502562Y162789D01*
X502007Y162882D01*
X501405Y162928D01*
X501313D01*
X501035Y162882D01*
X500619Y162836D01*
X500063Y162743D01*
X499508Y162512D01*
X498906Y162234D01*
X498305Y161864D01*
X497749Y161308D01*
X497703Y161216D01*
X497564Y160984D01*
X497333Y160614D01*
X497101Y160059D01*
X496824Y159318D01*
X496731Y158902D01*
X496639Y158439D01*
X496546Y157884D01*
X496454Y157328D01*
X496407Y156680D01*
Y156032D01*
Y155986D01*
Y155847D01*
Y155616D01*
X496454Y155338D01*
Y155014D01*
X496500Y154644D01*
X496592Y153719D01*
X496731Y152747D01*
X497009Y151775D01*
X497333Y150896D01*
X497564Y150525D01*
X497796Y150155D01*
X497842Y150063D01*
X498073Y149877D01*
X498351Y149646D01*
X498768Y149322D01*
X499323Y148998D01*
X499924Y148767D01*
X500665Y148582D01*
X501498Y148489D01*
X501776D01*
X502099Y148535D01*
X502516Y148628D01*
X502979Y148720D01*
X503442Y148905D01*
X503904Y149137D01*
X504367Y149461D01*
X504413Y149507D01*
X504552Y149646D01*
X504737Y149877D01*
X505015Y150248D01*
X505293Y150710D01*
X505524Y151312D01*
X505802Y152052D01*
X505987Y152886D01*
X512003Y151867D01*
Y151821D01*
X511957Y151682D01*
X511911Y151451D01*
X511818Y151173D01*
X511679Y150849D01*
X511540Y150433D01*
X511170Y149507D01*
X510707Y148489D01*
X510060Y147471D01*
X509273Y146453D01*
X508810Y145990D01*
X508347Y145574D01*
X508301D01*
X508208Y145481D01*
X508069Y145388D01*
X507884Y145250D01*
X507607Y145111D01*
X507283Y144926D01*
X506912Y144740D01*
X506450Y144555D01*
X505987Y144324D01*
X505432Y144139D01*
X504876Y143954D01*
X504228Y143815D01*
X503534Y143676D01*
X502794Y143583D01*
X502053Y143537D01*
X501220Y143491D01*
X500711D01*
X500387Y143537D01*
X499971Y143583D01*
X499462Y143676D01*
X498906Y143769D01*
X498305Y143907D01*
X497657Y144046D01*
X497009Y144278D01*
X496315Y144509D01*
X495667Y144833D01*
X494973Y145203D01*
X494325Y145620D01*
X493723Y146129D01*
X493121Y146684D01*
X493075Y146730D01*
X492983Y146823D01*
X492844Y147008D01*
X492659Y147286D01*
X492427Y147610D01*
X492150Y147980D01*
X491918Y148443D01*
X491641Y148998D01*
X491317Y149600D01*
X491085Y150248D01*
X490807Y150988D01*
X490576Y151775D01*
X490391Y152654D01*
X490252Y153533D01*
X490160Y154552D01*
X490113Y155570D01*
Y155616D01*
Y155801D01*
Y156125D01*
X490160Y156495D01*
X490206Y157004D01*
X490252Y157560D01*
X490345Y158161D01*
X490484Y158855D01*
X490854Y160290D01*
X491085Y161031D01*
X491363Y161771D01*
X491733Y162512D01*
X492150Y163206D01*
X492612Y163854D01*
X493121Y164501D01*
X493168Y164548D01*
X493260Y164640D01*
X493445Y164779D01*
X493677Y165011D01*
X494001Y165242D01*
X494371Y165520D01*
X494787Y165844D01*
X495297Y166121D01*
X495852Y166445D01*
X496454Y166723D01*
X497148Y167001D01*
X497888Y167232D01*
X498629Y167463D01*
X499508Y167602D01*
X500387Y167695D01*
X501313Y167741D01*
X501729D01*
X502007Y167695D01*
D02*
G37*
G36*
X476646D02*
X477016D01*
X477942Y167602D01*
X478914Y167510D01*
X479932Y167325D01*
X480904Y167047D01*
X481320Y166908D01*
X481737Y166723D01*
X481783D01*
X481829Y166677D01*
X482061Y166538D01*
X482431Y166353D01*
X482848Y166075D01*
X483357Y165705D01*
X483819Y165288D01*
X484236Y164779D01*
X484606Y164270D01*
X484652Y164177D01*
X484745Y163992D01*
X484884Y163576D01*
X484930Y163344D01*
X485023Y163021D01*
X485115Y162697D01*
X485162Y162280D01*
X485254Y161817D01*
X485300Y161308D01*
X485347Y160753D01*
X485393Y160151D01*
X485439Y159503D01*
Y158763D01*
X485347Y151590D01*
Y151543D01*
Y151451D01*
Y151312D01*
Y151081D01*
Y150525D01*
X485393Y149877D01*
Y149137D01*
X485485Y148397D01*
X485532Y147656D01*
X485624Y147054D01*
Y147008D01*
X485671Y146823D01*
X485763Y146499D01*
X485856Y146129D01*
X486041Y145666D01*
X486226Y145157D01*
X486457Y144602D01*
X486735Y144000D01*
X480672D01*
Y144046D01*
X480626Y144093D01*
X480580Y144278D01*
X480487Y144463D01*
X480395Y144694D01*
X480302Y145018D01*
X480210Y145388D01*
X480071Y145805D01*
Y145851D01*
X480024Y145897D01*
X479978Y146082D01*
X479886Y146314D01*
X479839Y146499D01*
X479747Y146453D01*
X479562Y146268D01*
X479238Y145990D01*
X478821Y145666D01*
X478312Y145296D01*
X477757Y144879D01*
X477109Y144555D01*
X476461Y144231D01*
X476368Y144185D01*
X476137Y144139D01*
X475767Y144000D01*
X475304Y143861D01*
X474749Y143722D01*
X474101Y143630D01*
X473360Y143537D01*
X472620Y143491D01*
X472296D01*
X472018Y143537D01*
X471741D01*
X471370Y143583D01*
X470584Y143722D01*
X469658Y143954D01*
X468732Y144278D01*
X467807Y144740D01*
X466974Y145388D01*
Y145435D01*
X466881Y145481D01*
X466650Y145759D01*
X466326Y146175D01*
X465956Y146730D01*
X465586Y147425D01*
X465262Y148258D01*
X465030Y149229D01*
X464984Y149739D01*
X464938Y150294D01*
Y150386D01*
Y150618D01*
X464984Y150988D01*
X465076Y151451D01*
X465169Y152006D01*
X465308Y152562D01*
X465539Y153163D01*
X465863Y153765D01*
X465910Y153857D01*
X466048Y154043D01*
X466233Y154320D01*
X466557Y154644D01*
X466881Y155014D01*
X467344Y155431D01*
X467853Y155801D01*
X468455Y156125D01*
X468547Y156171D01*
X468779Y156264D01*
X469149Y156403D01*
X469704Y156634D01*
X470399Y156866D01*
X471232Y157097D01*
X472250Y157328D01*
X473360Y157560D01*
X473407D01*
X473545Y157606D01*
X473777Y157652D01*
X474055Y157698D01*
X474425Y157745D01*
X474841Y157837D01*
X475767Y158069D01*
X476739Y158300D01*
X477757Y158532D01*
X478636Y158809D01*
X479053Y158948D01*
X479377Y159087D01*
Y159689D01*
Y159781D01*
Y159966D01*
X479330Y160290D01*
X479284Y160707D01*
X479145Y161123D01*
X479006Y161540D01*
X478775Y161910D01*
X478451Y162234D01*
X478405Y162280D01*
X478266Y162373D01*
X478035Y162465D01*
X477711Y162650D01*
X477248Y162789D01*
X476693Y162882D01*
X475998Y162974D01*
X475165Y163021D01*
X474888D01*
X474610Y162974D01*
X474240Y162928D01*
X473823Y162836D01*
X473360Y162743D01*
X472944Y162558D01*
X472574Y162326D01*
X472527Y162280D01*
X472435Y162188D01*
X472250Y162049D01*
X472065Y161817D01*
X471787Y161493D01*
X471555Y161077D01*
X471324Y160614D01*
X471093Y160059D01*
X465586Y161077D01*
Y161123D01*
X465632Y161216D01*
X465678Y161401D01*
X465771Y161632D01*
X465863Y161910D01*
X466002Y162234D01*
X466326Y162974D01*
X466789Y163761D01*
X467344Y164594D01*
X467992Y165381D01*
X468779Y166075D01*
X468825D01*
X468871Y166168D01*
X469010Y166214D01*
X469195Y166353D01*
X469473Y166445D01*
X469751Y166584D01*
X470121Y166769D01*
X470491Y166908D01*
X470954Y167047D01*
X471463Y167232D01*
X472018Y167371D01*
X472666Y167463D01*
X473314Y167602D01*
X474055Y167649D01*
X474795Y167741D01*
X476322D01*
X476646Y167695D01*
D02*
G37*
G36*
X338365Y144000D02*
X332210D01*
Y167232D01*
X338365D01*
Y144000D01*
D02*
G37*
G36*
X424027Y167695D02*
X424444Y167649D01*
X424953Y167556D01*
X425508Y167463D01*
X426110Y167325D01*
X426758Y167139D01*
X427406Y166908D01*
X428100Y166630D01*
X428794Y166260D01*
X429442Y165890D01*
X430090Y165427D01*
X430738Y164872D01*
X431293Y164270D01*
X431339Y164224D01*
X431432Y164131D01*
X431571Y163900D01*
X431756Y163622D01*
X431987Y163252D01*
X432219Y162836D01*
X432496Y162280D01*
X432774Y161679D01*
X433052Y160984D01*
X433329Y160198D01*
X433561Y159365D01*
X433792Y158393D01*
X433977Y157375D01*
X434116Y156264D01*
X434208Y155107D01*
Y153811D01*
X418844D01*
Y153765D01*
Y153672D01*
Y153533D01*
X418890Y153348D01*
X418937Y152886D01*
X419029Y152238D01*
X419214Y151590D01*
X419492Y150849D01*
X419816Y150155D01*
X420279Y149553D01*
X420325Y149507D01*
X420556Y149322D01*
X420834Y149091D01*
X421250Y148813D01*
X421759Y148535D01*
X422407Y148304D01*
X423102Y148119D01*
X423842Y148073D01*
X424073D01*
X424351Y148119D01*
X424675Y148165D01*
X425045Y148258D01*
X425462Y148397D01*
X425878Y148582D01*
X426249Y148859D01*
X426295Y148905D01*
X426434Y148998D01*
X426619Y149183D01*
X426804Y149461D01*
X427082Y149831D01*
X427313Y150248D01*
X427544Y150803D01*
X427776Y151405D01*
X433885Y150386D01*
Y150340D01*
X433838Y150248D01*
X433746Y150063D01*
X433653Y149831D01*
X433514Y149553D01*
X433376Y149229D01*
X432959Y148489D01*
X432450Y147656D01*
X431802Y146777D01*
X431015Y145990D01*
X430136Y145250D01*
X430090D01*
X430043Y145157D01*
X429858Y145111D01*
X429673Y144972D01*
X429442Y144833D01*
X429118Y144694D01*
X428794Y144555D01*
X428377Y144370D01*
X427452Y144046D01*
X426387Y143769D01*
X425138Y143583D01*
X423796Y143491D01*
X423518D01*
X423241Y143537D01*
X422824D01*
X422315Y143630D01*
X421713Y143722D01*
X421065Y143815D01*
X420417Y144000D01*
X419677Y144185D01*
X418937Y144463D01*
X418196Y144787D01*
X417456Y145157D01*
X416715Y145620D01*
X416021Y146129D01*
X415419Y146730D01*
X414818Y147425D01*
X414771Y147471D01*
X414725Y147563D01*
X414633Y147749D01*
X414448Y147980D01*
X414309Y148304D01*
X414123Y148674D01*
X413892Y149091D01*
X413707Y149600D01*
X413476Y150155D01*
X413290Y150757D01*
X413059Y151405D01*
X412920Y152145D01*
X412781Y152886D01*
X412643Y153672D01*
X412596Y154552D01*
X412550Y155431D01*
Y155477D01*
Y155662D01*
Y155986D01*
X412596Y156403D01*
X412643Y156866D01*
X412689Y157421D01*
X412781Y158022D01*
X412920Y158717D01*
X413290Y160151D01*
X413522Y160892D01*
X413800Y161679D01*
X414170Y162419D01*
X414586Y163113D01*
X415049Y163807D01*
X415558Y164455D01*
X415605Y164501D01*
X415697Y164594D01*
X415882Y164779D01*
X416114Y164964D01*
X416391Y165196D01*
X416761Y165473D01*
X417178Y165797D01*
X417641Y166121D01*
X418150Y166399D01*
X418751Y166723D01*
X419353Y167001D01*
X420047Y167232D01*
X420741Y167417D01*
X421528Y167602D01*
X422315Y167695D01*
X423148Y167741D01*
X423657D01*
X424027Y167695D01*
D02*
G37*
G36*
X408015Y170333D02*
X401860D01*
Y176025D01*
X408015D01*
Y170333D01*
D02*
G37*
G36*
X522832Y167232D02*
X527044D01*
Y162326D01*
X522832D01*
Y152932D01*
Y152886D01*
Y152793D01*
Y152654D01*
Y152469D01*
Y152006D01*
Y151451D01*
X522879Y150896D01*
Y150340D01*
Y149924D01*
X522925Y149739D01*
Y149646D01*
X522971Y149553D01*
X523064Y149368D01*
X523203Y149137D01*
X523480Y148859D01*
X523573Y148813D01*
X523758Y148720D01*
X524082Y148628D01*
X524498Y148582D01*
X524684D01*
X524869Y148628D01*
X525146Y148674D01*
X525517Y148720D01*
X525933Y148813D01*
X526442Y148952D01*
X526997Y149137D01*
X527553Y144370D01*
X527507D01*
X527460Y144324D01*
X527183Y144231D01*
X526720Y144093D01*
X526118Y143954D01*
X525424Y143769D01*
X524591Y143630D01*
X523665Y143537D01*
X522694Y143491D01*
X522416D01*
X522092Y143537D01*
X521675Y143583D01*
X521213Y143630D01*
X520704Y143722D01*
X520195Y143861D01*
X519686Y144046D01*
X519639Y144093D01*
X519454Y144139D01*
X519223Y144278D01*
X518945Y144417D01*
X518297Y144879D01*
X517973Y145157D01*
X517696Y145481D01*
X517649Y145527D01*
X517603Y145666D01*
X517510Y145851D01*
X517371Y146129D01*
X517233Y146453D01*
X517094Y146869D01*
X516955Y147332D01*
X516862Y147841D01*
Y147887D01*
X516816Y148073D01*
Y148350D01*
X516770Y148813D01*
X516724Y149415D01*
Y150155D01*
X516677Y150572D01*
Y151081D01*
Y151590D01*
Y152191D01*
Y162326D01*
X513854D01*
Y167232D01*
X516677D01*
Y171860D01*
X522832Y175470D01*
Y167232D01*
D02*
G37*
G36*
X338365Y170333D02*
X332210D01*
Y176025D01*
X338365D01*
Y170333D01*
D02*
G37*
G36*
X313143Y175979D02*
X314023Y175932D01*
X314994Y175886D01*
X316012Y175747D01*
X316984Y175608D01*
X317864Y175377D01*
X317910D01*
X318002Y175331D01*
X318141Y175285D01*
X318326Y175238D01*
X318882Y175007D01*
X319530Y174683D01*
X320270Y174266D01*
X321103Y173757D01*
X321890Y173156D01*
X322677Y172415D01*
X322723D01*
X322769Y172323D01*
X323001Y172045D01*
X323371Y171582D01*
X323787Y170980D01*
X324296Y170240D01*
X324805Y169361D01*
X325314Y168343D01*
X325731Y167232D01*
Y167186D01*
X325777Y167093D01*
X325824Y166908D01*
X325916Y166677D01*
X325962Y166399D01*
X326055Y166029D01*
X326147Y165612D01*
X326286Y165149D01*
X326379Y164640D01*
X326471Y164039D01*
X326564Y163437D01*
X326610Y162743D01*
X326749Y161308D01*
X326795Y159689D01*
Y159642D01*
Y159503D01*
Y159318D01*
Y159041D01*
X326749Y158670D01*
Y158300D01*
X326703Y157837D01*
X326657Y157328D01*
X326564Y156264D01*
X326379Y155153D01*
X326101Y153996D01*
X325777Y152886D01*
Y152839D01*
X325731Y152747D01*
X325639Y152562D01*
X325546Y152284D01*
X325453Y152006D01*
X325268Y151682D01*
X324898Y150849D01*
X324435Y149970D01*
X323834Y148998D01*
X323139Y148073D01*
X322353Y147193D01*
X322260Y147101D01*
X322029Y146916D01*
X321659Y146638D01*
X321149Y146268D01*
X320502Y145851D01*
X319761Y145435D01*
X318836Y145018D01*
X317817Y144648D01*
X317771D01*
X317725Y144602D01*
X317586D01*
X317447Y144555D01*
X316938Y144463D01*
X316290Y144324D01*
X315503Y144185D01*
X314532Y144093D01*
X313375Y144046D01*
X312125Y144000D01*
X300000D01*
Y176025D01*
X312773D01*
X313143Y175979D01*
D02*
G37*
G36*
X97919Y-155710D02*
X98173Y-155733D01*
X98474Y-155756D01*
X98775Y-155802D01*
X99122Y-155849D01*
X99862Y-156011D01*
X100233Y-156126D01*
X100603Y-156242D01*
X100973Y-156404D01*
X101320Y-156589D01*
X101644Y-156797D01*
X101945Y-157029D01*
X101968Y-157052D01*
X102014Y-157098D01*
X102084Y-157168D01*
X102176Y-157260D01*
X102292Y-157399D01*
X102431Y-157561D01*
X102570Y-157746D01*
X102732Y-157954D01*
X102871Y-158209D01*
X103009Y-158463D01*
X103148Y-158764D01*
X103264Y-159088D01*
X103380Y-159412D01*
X103472Y-159782D01*
X103542Y-160153D01*
X103565Y-160569D01*
X100325Y-160685D01*
Y-160662D01*
Y-160639D01*
X100279Y-160477D01*
X100233Y-160268D01*
X100140Y-160014D01*
X100024Y-159713D01*
X99862Y-159435D01*
X99654Y-159158D01*
X99423Y-158926D01*
X99400Y-158903D01*
X99307Y-158834D01*
X99145Y-158741D01*
X98914Y-158649D01*
X98636Y-158556D01*
X98289Y-158463D01*
X97872Y-158394D01*
X97387Y-158371D01*
X97155D01*
X96901Y-158394D01*
X96600Y-158440D01*
X96253Y-158510D01*
X95882Y-158625D01*
X95535Y-158764D01*
X95211Y-158973D01*
X95188Y-158996D01*
X95142Y-159042D01*
X95049Y-159111D01*
X94957Y-159227D01*
X94864Y-159366D01*
X94772Y-159551D01*
X94725Y-159736D01*
X94702Y-159967D01*
Y-159991D01*
Y-160060D01*
X94725Y-160176D01*
X94772Y-160292D01*
X94818Y-160453D01*
X94887Y-160615D01*
X95003Y-160777D01*
X95165Y-160939D01*
X95188Y-160963D01*
X95304Y-161032D01*
X95373Y-161078D01*
X95489Y-161124D01*
X95605Y-161194D01*
X95767Y-161263D01*
X95952Y-161333D01*
X96160Y-161425D01*
X96415Y-161518D01*
X96669Y-161610D01*
X96993Y-161703D01*
X97340Y-161796D01*
X97710Y-161888D01*
X98127Y-162004D01*
X98150D01*
X98243Y-162027D01*
X98358Y-162050D01*
X98520Y-162096D01*
X98705Y-162143D01*
X98937Y-162212D01*
X99191Y-162281D01*
X99446Y-162351D01*
X100001Y-162536D01*
X100580Y-162721D01*
X101135Y-162929D01*
X101366Y-163045D01*
X101598Y-163161D01*
X101621D01*
X101644Y-163184D01*
X101783Y-163277D01*
X101991Y-163415D01*
X102246Y-163600D01*
X102523Y-163832D01*
X102824Y-164109D01*
X103125Y-164433D01*
X103380Y-164804D01*
X103403Y-164850D01*
X103472Y-164989D01*
X103588Y-165197D01*
X103703Y-165498D01*
X103819Y-165868D01*
X103935Y-166308D01*
X104004Y-166794D01*
X104028Y-167349D01*
Y-167372D01*
Y-167418D01*
Y-167488D01*
Y-167580D01*
X104004Y-167696D01*
X103981Y-167858D01*
X103935Y-168182D01*
X103842Y-168598D01*
X103703Y-169038D01*
X103495Y-169478D01*
X103241Y-169941D01*
Y-169964D01*
X103195Y-169987D01*
X103102Y-170126D01*
X102917Y-170357D01*
X102685Y-170612D01*
X102385Y-170912D01*
X101991Y-171190D01*
X101575Y-171468D01*
X101066Y-171722D01*
X101042D01*
X100996Y-171745D01*
X100927Y-171769D01*
X100811Y-171815D01*
X100672Y-171861D01*
X100510Y-171908D01*
X100325Y-171954D01*
X100117Y-172000D01*
X99862Y-172069D01*
X99608Y-172116D01*
X99006Y-172208D01*
X98335Y-172278D01*
X97595Y-172301D01*
X97294D01*
X97086Y-172278D01*
X96831Y-172255D01*
X96553Y-172231D01*
X96229Y-172185D01*
X95882Y-172116D01*
X95119Y-171954D01*
X94725Y-171838D01*
X94355Y-171722D01*
X93962Y-171560D01*
X93592Y-171375D01*
X93244Y-171167D01*
X92921Y-170912D01*
X92897Y-170889D01*
X92851Y-170843D01*
X92759Y-170774D01*
X92666Y-170658D01*
X92527Y-170496D01*
X92388Y-170311D01*
X92226Y-170103D01*
X92064Y-169871D01*
X91902Y-169594D01*
X91741Y-169293D01*
X91579Y-168946D01*
X91417Y-168575D01*
X91301Y-168182D01*
X91162Y-167742D01*
X91069Y-167280D01*
X91000Y-166794D01*
X94147Y-166493D01*
Y-166516D01*
X94170Y-166562D01*
Y-166655D01*
X94193Y-166747D01*
X94286Y-167025D01*
X94402Y-167372D01*
X94540Y-167766D01*
X94749Y-168159D01*
X94980Y-168506D01*
X95281Y-168830D01*
X95327Y-168853D01*
X95443Y-168946D01*
X95628Y-169061D01*
X95906Y-169200D01*
X96253Y-169339D01*
X96646Y-169455D01*
X97109Y-169547D01*
X97641Y-169570D01*
X97895D01*
X98173Y-169524D01*
X98520Y-169478D01*
X98890Y-169408D01*
X99284Y-169293D01*
X99654Y-169131D01*
X99978Y-168923D01*
X100024Y-168899D01*
X100117Y-168807D01*
X100233Y-168668D01*
X100395Y-168483D01*
X100533Y-168251D01*
X100672Y-167974D01*
X100765Y-167696D01*
X100788Y-167372D01*
Y-167349D01*
Y-167280D01*
X100765Y-167164D01*
X100742Y-167025D01*
X100695Y-166886D01*
X100649Y-166724D01*
X100557Y-166562D01*
X100441Y-166400D01*
X100418Y-166377D01*
X100372Y-166331D01*
X100302Y-166261D01*
X100186Y-166169D01*
X100024Y-166053D01*
X99816Y-165938D01*
X99585Y-165822D01*
X99284Y-165706D01*
X99261D01*
X99168Y-165660D01*
X99006Y-165613D01*
X98890Y-165567D01*
X98752Y-165544D01*
X98590Y-165498D01*
X98405Y-165428D01*
X98196Y-165382D01*
X97965Y-165313D01*
X97687Y-165243D01*
X97387Y-165174D01*
X97063Y-165081D01*
X96692Y-164989D01*
X96669D01*
X96577Y-164966D01*
X96438Y-164919D01*
X96276Y-164873D01*
X96067Y-164804D01*
X95813Y-164734D01*
X95559Y-164642D01*
X95258Y-164549D01*
X94656Y-164318D01*
X94078Y-164040D01*
X93777Y-163901D01*
X93522Y-163739D01*
X93268Y-163577D01*
X93059Y-163415D01*
X93036Y-163392D01*
X92990Y-163346D01*
X92921Y-163277D01*
X92828Y-163184D01*
X92712Y-163045D01*
X92597Y-162883D01*
X92458Y-162721D01*
X92342Y-162513D01*
X92064Y-162027D01*
X91833Y-161472D01*
X91741Y-161171D01*
X91671Y-160870D01*
X91625Y-160523D01*
X91602Y-160176D01*
Y-160153D01*
Y-160130D01*
Y-160060D01*
Y-159967D01*
X91648Y-159736D01*
X91694Y-159435D01*
X91764Y-159088D01*
X91879Y-158695D01*
X92041Y-158278D01*
X92273Y-157885D01*
Y-157862D01*
X92296Y-157839D01*
X92411Y-157700D01*
X92550Y-157515D01*
X92782Y-157283D01*
X93059Y-157029D01*
X93406Y-156751D01*
X93800Y-156497D01*
X94263Y-156265D01*
X94286D01*
X94332Y-156242D01*
X94402Y-156219D01*
X94494Y-156173D01*
X94633Y-156126D01*
X94772Y-156080D01*
X94957Y-156034D01*
X95165Y-155964D01*
X95628Y-155872D01*
X96160Y-155779D01*
X96762Y-155710D01*
X97433Y-155687D01*
X97710D01*
X97919Y-155710D01*
D02*
G37*
G36*
X464849Y135214D02*
X465099Y135187D01*
X465404Y135131D01*
X465737Y135075D01*
X466098Y134992D01*
X466487Y134881D01*
X466876Y134742D01*
X467292Y134576D01*
X467709Y134354D01*
X468097Y134131D01*
X468486Y133854D01*
X468875Y133521D01*
X469208Y133160D01*
X469236Y133132D01*
X469291Y133077D01*
X469374Y132938D01*
X469485Y132771D01*
X469624Y132549D01*
X469763Y132299D01*
X469930Y131966D01*
X470096Y131605D01*
X470263Y131189D01*
X470429Y130717D01*
X470568Y130217D01*
X470707Y129634D01*
X470818Y129023D01*
X470901Y128357D01*
X470957Y127663D01*
Y126886D01*
X461740D01*
Y126858D01*
Y126802D01*
Y126719D01*
X461768Y126608D01*
X461795Y126330D01*
X461851Y125942D01*
X461962Y125553D01*
X462128Y125109D01*
X462323Y124692D01*
X462600Y124332D01*
X462628Y124304D01*
X462767Y124193D01*
X462934Y124054D01*
X463183Y123887D01*
X463489Y123721D01*
X463877Y123582D01*
X464294Y123471D01*
X464738Y123443D01*
X464877D01*
X465043Y123471D01*
X465238Y123499D01*
X465460Y123554D01*
X465710Y123637D01*
X465960Y123749D01*
X466182Y123915D01*
X466209Y123943D01*
X466293Y123998D01*
X466404Y124109D01*
X466515Y124276D01*
X466681Y124498D01*
X466820Y124748D01*
X466959Y125081D01*
X467098Y125442D01*
X470762Y124831D01*
Y124803D01*
X470735Y124748D01*
X470679Y124637D01*
X470624Y124498D01*
X470540Y124332D01*
X470457Y124137D01*
X470207Y123693D01*
X469902Y123193D01*
X469513Y122666D01*
X469041Y122194D01*
X468514Y121750D01*
X468486D01*
X468458Y121694D01*
X468347Y121666D01*
X468236Y121583D01*
X468097Y121500D01*
X467903Y121416D01*
X467709Y121333D01*
X467459Y121222D01*
X466903Y121028D01*
X466265Y120861D01*
X465515Y120750D01*
X464710Y120695D01*
X464544D01*
X464377Y120722D01*
X464127D01*
X463822Y120778D01*
X463461Y120833D01*
X463072Y120889D01*
X462684Y121000D01*
X462239Y121111D01*
X461795Y121278D01*
X461351Y121472D01*
X460907Y121694D01*
X460463Y121972D01*
X460046Y122277D01*
X459685Y122638D01*
X459324Y123054D01*
X459297Y123082D01*
X459269Y123138D01*
X459213Y123249D01*
X459102Y123388D01*
X459019Y123582D01*
X458908Y123804D01*
X458769Y124054D01*
X458658Y124359D01*
X458519Y124692D01*
X458408Y125053D01*
X458270Y125442D01*
X458186Y125886D01*
X458103Y126330D01*
X458020Y126802D01*
X457992Y127330D01*
X457964Y127857D01*
Y127885D01*
Y127996D01*
Y128190D01*
X457992Y128440D01*
X458020Y128718D01*
X458047Y129051D01*
X458103Y129412D01*
X458186Y129828D01*
X458408Y130689D01*
X458547Y131133D01*
X458714Y131605D01*
X458936Y132049D01*
X459186Y132466D01*
X459463Y132882D01*
X459769Y133271D01*
X459796Y133299D01*
X459852Y133354D01*
X459963Y133465D01*
X460102Y133576D01*
X460268Y133715D01*
X460490Y133882D01*
X460740Y134076D01*
X461018Y134270D01*
X461323Y134437D01*
X461684Y134631D01*
X462045Y134798D01*
X462462Y134937D01*
X462878Y135048D01*
X463350Y135159D01*
X463822Y135214D01*
X464322Y135242D01*
X464627D01*
X464849Y135214D01*
D02*
G37*
G36*
X453966Y134937D02*
X456493D01*
Y131994D01*
X453966D01*
Y126358D01*
Y126330D01*
Y126275D01*
Y126192D01*
Y126081D01*
Y125803D01*
Y125470D01*
X453994Y125137D01*
Y124803D01*
Y124554D01*
X454022Y124443D01*
Y124387D01*
X454050Y124332D01*
X454105Y124220D01*
X454188Y124082D01*
X454355Y123915D01*
X454411Y123887D01*
X454522Y123832D01*
X454716Y123776D01*
X454966Y123749D01*
X455077D01*
X455188Y123776D01*
X455354Y123804D01*
X455577Y123832D01*
X455826Y123887D01*
X456132Y123971D01*
X456465Y124082D01*
X456798Y121222D01*
X456770D01*
X456743Y121194D01*
X456576Y121139D01*
X456298Y121055D01*
X455938Y120972D01*
X455521Y120861D01*
X455021Y120778D01*
X454466Y120722D01*
X453883Y120695D01*
X453717D01*
X453522Y120722D01*
X453272Y120750D01*
X452995Y120778D01*
X452689Y120833D01*
X452384Y120917D01*
X452079Y121028D01*
X452051Y121055D01*
X451940Y121083D01*
X451801Y121167D01*
X451634Y121250D01*
X451246Y121528D01*
X451051Y121694D01*
X450885Y121888D01*
X450857Y121916D01*
X450829Y122000D01*
X450774Y122111D01*
X450690Y122277D01*
X450607Y122471D01*
X450524Y122721D01*
X450441Y122999D01*
X450385Y123304D01*
Y123332D01*
X450357Y123443D01*
Y123610D01*
X450330Y123887D01*
X450302Y124248D01*
Y124692D01*
X450274Y124942D01*
Y125248D01*
Y125553D01*
Y125914D01*
Y131994D01*
X448581D01*
Y134937D01*
X450274D01*
Y137713D01*
X453966Y139878D01*
Y134937D01*
D02*
G37*
G36*
X529035Y135214D02*
X529285Y135187D01*
X529591Y135131D01*
X529924Y135075D01*
X530285Y134992D01*
X530673Y134881D01*
X531062Y134742D01*
X531478Y134576D01*
X531895Y134354D01*
X532284Y134131D01*
X532672Y133854D01*
X533061Y133521D01*
X533394Y133160D01*
X533422Y133132D01*
X533477Y133077D01*
X533561Y132938D01*
X533672Y132771D01*
X533810Y132549D01*
X533949Y132299D01*
X534116Y131966D01*
X534282Y131605D01*
X534449Y131189D01*
X534616Y130717D01*
X534754Y130217D01*
X534893Y129634D01*
X535004Y129023D01*
X535088Y128357D01*
X535143Y127663D01*
Y126886D01*
X525926D01*
Y126858D01*
Y126802D01*
Y126719D01*
X525954Y126608D01*
X525981Y126330D01*
X526037Y125942D01*
X526148Y125553D01*
X526315Y125109D01*
X526509Y124692D01*
X526787Y124332D01*
X526814Y124304D01*
X526953Y124193D01*
X527120Y124054D01*
X527370Y123887D01*
X527675Y123721D01*
X528064Y123582D01*
X528480Y123471D01*
X528924Y123443D01*
X529063D01*
X529230Y123471D01*
X529424Y123499D01*
X529646Y123554D01*
X529896Y123637D01*
X530146Y123749D01*
X530368Y123915D01*
X530396Y123943D01*
X530479Y123998D01*
X530590Y124109D01*
X530701Y124276D01*
X530868Y124498D01*
X531007Y124748D01*
X531145Y125081D01*
X531284Y125442D01*
X534949Y124831D01*
Y124803D01*
X534921Y124748D01*
X534865Y124637D01*
X534810Y124498D01*
X534727Y124332D01*
X534643Y124137D01*
X534393Y123693D01*
X534088Y123193D01*
X533699Y122666D01*
X533227Y122194D01*
X532700Y121750D01*
X532672D01*
X532644Y121694D01*
X532533Y121666D01*
X532422Y121583D01*
X532284Y121500D01*
X532089Y121416D01*
X531895Y121333D01*
X531645Y121222D01*
X531090Y121028D01*
X530451Y120861D01*
X529702Y120750D01*
X528896Y120695D01*
X528730D01*
X528563Y120722D01*
X528313D01*
X528008Y120778D01*
X527647Y120833D01*
X527259Y120889D01*
X526870Y121000D01*
X526426Y121111D01*
X525981Y121278D01*
X525537Y121472D01*
X525093Y121694D01*
X524649Y121972D01*
X524232Y122277D01*
X523872Y122638D01*
X523511Y123054D01*
X523483Y123082D01*
X523455Y123138D01*
X523400Y123249D01*
X523289Y123388D01*
X523205Y123582D01*
X523094Y123804D01*
X522955Y124054D01*
X522844Y124359D01*
X522706Y124692D01*
X522594Y125053D01*
X522456Y125442D01*
X522372Y125886D01*
X522289Y126330D01*
X522206Y126802D01*
X522178Y127330D01*
X522150Y127857D01*
Y127885D01*
Y127996D01*
Y128190D01*
X522178Y128440D01*
X522206Y128718D01*
X522234Y129051D01*
X522289Y129412D01*
X522372Y129828D01*
X522594Y130689D01*
X522733Y131133D01*
X522900Y131605D01*
X523122Y132049D01*
X523372Y132466D01*
X523649Y132882D01*
X523955Y133271D01*
X523983Y133299D01*
X524038Y133354D01*
X524149Y133465D01*
X524288Y133576D01*
X524455Y133715D01*
X524677Y133882D01*
X524926Y134076D01*
X525204Y134270D01*
X525509Y134437D01*
X525870Y134631D01*
X526231Y134798D01*
X526648Y134937D01*
X527064Y135048D01*
X527536Y135159D01*
X528008Y135214D01*
X528508Y135242D01*
X528813D01*
X529035Y135214D01*
D02*
G37*
G36*
X341280Y140184D02*
X341835Y140156D01*
X342390Y140128D01*
X342918Y140073D01*
X343390Y140017D01*
X343445D01*
X343584Y139989D01*
X343778Y139934D01*
X344056Y139851D01*
X344361Y139740D01*
X344694Y139601D01*
X345055Y139434D01*
X345388Y139212D01*
X345416Y139184D01*
X345527Y139101D01*
X345694Y138962D01*
X345916Y138796D01*
X346138Y138546D01*
X346388Y138268D01*
X346638Y137963D01*
X346860Y137602D01*
X346888Y137546D01*
X346943Y137435D01*
X347054Y137213D01*
X347165Y136936D01*
X347276Y136602D01*
X347387Y136242D01*
X347443Y135797D01*
X347471Y135353D01*
Y135325D01*
Y135297D01*
Y135131D01*
X347443Y134881D01*
X347387Y134548D01*
X347276Y134159D01*
X347165Y133743D01*
X346971Y133326D01*
X346721Y132882D01*
X346693Y132827D01*
X346582Y132688D01*
X346416Y132494D01*
X346221Y132244D01*
X345944Y131994D01*
X345611Y131688D01*
X345222Y131439D01*
X344778Y131189D01*
X344805D01*
X344861Y131161D01*
X344944Y131133D01*
X345055Y131105D01*
X345388Y130967D01*
X345777Y130772D01*
X346194Y130550D01*
X346665Y130245D01*
X347082Y129884D01*
X347471Y129440D01*
X347498Y129384D01*
X347609Y129218D01*
X347776Y128968D01*
X347943Y128635D01*
X348109Y128190D01*
X348276Y127718D01*
X348387Y127163D01*
X348414Y126552D01*
Y126525D01*
Y126497D01*
Y126330D01*
X348387Y126081D01*
X348331Y125747D01*
X348276Y125359D01*
X348165Y124915D01*
X347998Y124470D01*
X347804Y123998D01*
X347776Y123943D01*
X347693Y123804D01*
X347554Y123582D01*
X347360Y123304D01*
X347137Y122971D01*
X346832Y122666D01*
X346527Y122333D01*
X346138Y122027D01*
X346082Y122000D01*
X345944Y121916D01*
X345722Y121777D01*
X345416Y121638D01*
X345028Y121472D01*
X344583Y121333D01*
X344084Y121194D01*
X343528Y121111D01*
X343417D01*
X343306Y121083D01*
X343029D01*
X342834Y121055D01*
X342307D01*
X341974Y121028D01*
X341141D01*
X340669Y121000D01*
X332340D01*
Y140211D01*
X340780D01*
X341280Y140184D01*
D02*
G37*
G36*
X629894Y-52075D02*
X629941Y-52144D01*
X630010Y-52214D01*
X630103Y-52330D01*
X630195Y-52445D01*
X630426Y-52769D01*
X630681Y-53209D01*
X630982Y-53718D01*
X631283Y-54296D01*
X631560Y-54991D01*
Y-55014D01*
X631584Y-55083D01*
X631630Y-55176D01*
X631676Y-55315D01*
X631722Y-55500D01*
X631792Y-55708D01*
X631861Y-55939D01*
X631931Y-56194D01*
X632069Y-56772D01*
X632185Y-57443D01*
X632278Y-58138D01*
X632301Y-58878D01*
Y-58901D01*
Y-58994D01*
Y-59133D01*
X632278Y-59295D01*
Y-59526D01*
X632254Y-59781D01*
X632208Y-60058D01*
X632162Y-60382D01*
X632046Y-61053D01*
X631861Y-61794D01*
X631607Y-62557D01*
X631445Y-62904D01*
X631259Y-63274D01*
X631236Y-63298D01*
X631213Y-63344D01*
X631144Y-63460D01*
X631051Y-63575D01*
X630959Y-63737D01*
X630820Y-63899D01*
X630658Y-64108D01*
X630473Y-64316D01*
X630056Y-64779D01*
X629524Y-65241D01*
X628923Y-65681D01*
X628228Y-66074D01*
X628205D01*
X628136Y-66121D01*
X628020Y-66167D01*
X627881Y-66213D01*
X627696Y-66283D01*
X627488Y-66375D01*
X627233Y-66445D01*
X626956Y-66537D01*
X626655Y-66630D01*
X626308Y-66699D01*
X625590Y-66861D01*
X624804Y-66954D01*
X623947Y-67000D01*
X623693D01*
X623531Y-66977D01*
X623300D01*
X623045Y-66954D01*
X622767Y-66907D01*
X622443Y-66861D01*
X621772Y-66746D01*
X621009Y-66560D01*
X620245Y-66306D01*
X619875Y-66144D01*
X619505Y-65959D01*
X619482Y-65936D01*
X619412Y-65912D01*
X619320Y-65843D01*
X619181Y-65774D01*
X619019Y-65658D01*
X618834Y-65519D01*
X618625Y-65357D01*
X618394Y-65195D01*
X618163Y-64987D01*
X617908Y-64756D01*
X617654Y-64501D01*
X617399Y-64223D01*
X617168Y-63923D01*
X616913Y-63622D01*
X616497Y-62904D01*
Y-62881D01*
X616450Y-62835D01*
X616427Y-62742D01*
X616358Y-62627D01*
X616311Y-62465D01*
X616242Y-62303D01*
X616173Y-62071D01*
X616080Y-61840D01*
X616011Y-61585D01*
X615941Y-61285D01*
X615872Y-60961D01*
X615802Y-60637D01*
X615710Y-59896D01*
X615687Y-59063D01*
Y-59040D01*
Y-58924D01*
Y-58786D01*
X615710Y-58577D01*
X615733Y-58323D01*
X615756Y-58022D01*
X615779Y-57698D01*
X615849Y-57351D01*
X615988Y-56610D01*
X616219Y-55847D01*
X616358Y-55453D01*
X616520Y-55083D01*
X616705Y-54736D01*
X616936Y-54412D01*
X616959Y-54389D01*
X616982Y-54343D01*
X617075Y-54250D01*
X617168Y-54134D01*
X617283Y-53996D01*
X617445Y-53857D01*
X617630Y-53695D01*
X617839Y-53510D01*
X618070Y-53325D01*
X618325Y-53140D01*
X618602Y-52954D01*
X618926Y-52792D01*
X619250Y-52607D01*
X619597Y-52468D01*
X619991Y-52330D01*
X620384Y-52237D01*
X620986Y-55453D01*
X620962D01*
X620939Y-55477D01*
X620801Y-55523D01*
X620592Y-55615D01*
X620315Y-55754D01*
X620014Y-55916D01*
X619713Y-56148D01*
X619412Y-56425D01*
X619134Y-56749D01*
X619111Y-56796D01*
X619019Y-56911D01*
X618903Y-57119D01*
X618787Y-57374D01*
X618649Y-57721D01*
X618556Y-58115D01*
X618464Y-58554D01*
X618440Y-59063D01*
Y-59086D01*
Y-59156D01*
Y-59271D01*
X618464Y-59410D01*
X618487Y-59595D01*
X618510Y-59804D01*
X618556Y-60035D01*
X618602Y-60290D01*
X618764Y-60822D01*
X618880Y-61099D01*
X619019Y-61377D01*
X619181Y-61655D01*
X619343Y-61933D01*
X619574Y-62187D01*
X619805Y-62442D01*
X619829Y-62465D01*
X619875Y-62488D01*
X619944Y-62557D01*
X620060Y-62627D01*
X620199Y-62719D01*
X620361Y-62835D01*
X620569Y-62951D01*
X620801Y-63043D01*
X621078Y-63159D01*
X621379Y-63274D01*
X621703Y-63390D01*
X622050Y-63483D01*
X622443Y-63552D01*
X622883Y-63622D01*
X623323Y-63645D01*
X623809Y-63668D01*
X624086D01*
X624271Y-63645D01*
X624526Y-63622D01*
X624781Y-63598D01*
X625104Y-63552D01*
X625428Y-63506D01*
X626123Y-63367D01*
X626840Y-63136D01*
X627187Y-62997D01*
X627511Y-62835D01*
X627835Y-62627D01*
X628113Y-62418D01*
X628136Y-62395D01*
X628182Y-62349D01*
X628251Y-62280D01*
X628344Y-62187D01*
X628437Y-62048D01*
X628575Y-61909D01*
X628691Y-61724D01*
X628830Y-61516D01*
X628969Y-61285D01*
X629084Y-61053D01*
X629316Y-60475D01*
X629408Y-60151D01*
X629478Y-59827D01*
X629524Y-59457D01*
X629547Y-59086D01*
Y-59063D01*
Y-59040D01*
Y-58901D01*
X629524Y-58716D01*
X629501Y-58438D01*
X629455Y-58138D01*
X629385Y-57790D01*
X629293Y-57420D01*
X629154Y-57050D01*
Y-57027D01*
X629131Y-57004D01*
X629084Y-56888D01*
X628992Y-56680D01*
X628876Y-56448D01*
X628737Y-56171D01*
X628575Y-55870D01*
X628390Y-55569D01*
X628182Y-55292D01*
X626123D01*
Y-58994D01*
X623415D01*
Y-52029D01*
X629848D01*
X629894Y-52075D01*
D02*
G37*
G36*
X632000Y-35000D02*
X616103D01*
Y-31760D01*
X629293D01*
Y-23708D01*
X632000D01*
Y-35000D01*
D02*
G37*
G36*
X668926Y139424D02*
X669019Y139405D01*
X669130Y139368D01*
X669259Y139313D01*
X669426Y139257D01*
X669797Y139109D01*
X670204Y138924D01*
X670611Y138665D01*
X671019Y138350D01*
X671204Y138165D01*
X671370Y137979D01*
Y137961D01*
X671407Y137924D01*
X671444Y137868D01*
X671500Y137794D01*
X671556Y137683D01*
X671630Y137554D01*
X671704Y137405D01*
X671778Y137220D01*
X671870Y137035D01*
X671945Y136813D01*
X672019Y136591D01*
X672074Y136331D01*
X672130Y136054D01*
X672167Y135757D01*
X672185Y135461D01*
X672204Y135128D01*
Y135109D01*
Y135035D01*
Y134924D01*
X672185Y134795D01*
X672167Y134628D01*
X672130Y134424D01*
X672093Y134202D01*
X672037Y133961D01*
X671982Y133702D01*
X671889Y133443D01*
X671796Y133165D01*
X671667Y132906D01*
X671519Y132628D01*
X671352Y132369D01*
X671148Y132128D01*
X670926Y131887D01*
X670908Y131869D01*
X670871Y131832D01*
X670796Y131776D01*
X670685Y131702D01*
X670556Y131610D01*
X670408Y131499D01*
X670222Y131406D01*
X670000Y131295D01*
X669760Y131165D01*
X669500Y131073D01*
X669204Y130962D01*
X668889Y130869D01*
X668537Y130795D01*
X668186Y130739D01*
X667778Y130702D01*
X667371Y130684D01*
X667149D01*
X667001Y130702D01*
X666797Y130721D01*
X666575Y130739D01*
X666334Y130776D01*
X666056Y130832D01*
X665482Y130980D01*
X665186Y131073D01*
X664890Y131184D01*
X664593Y131332D01*
X664316Y131499D01*
X664056Y131684D01*
X663797Y131887D01*
X663779Y131906D01*
X663742Y131943D01*
X663686Y132017D01*
X663594Y132110D01*
X663501Y132239D01*
X663390Y132387D01*
X663260Y132554D01*
X663149Y132758D01*
X663019Y132980D01*
X662908Y133221D01*
X662797Y133498D01*
X662705Y133795D01*
X662612Y134091D01*
X662557Y134443D01*
X662520Y134795D01*
X662501Y135165D01*
Y135183D01*
Y135239D01*
Y135331D01*
X662520Y135443D01*
Y135591D01*
X662538Y135757D01*
X662557Y135943D01*
X662594Y136146D01*
X662686Y136572D01*
X662816Y137016D01*
X663001Y137461D01*
X663242Y137868D01*
Y137887D01*
X663279Y137905D01*
X663316Y137961D01*
X663371Y138035D01*
X663538Y138202D01*
X663779Y138424D01*
X664093Y138665D01*
X664464Y138905D01*
X664908Y139127D01*
X665427Y139313D01*
X665871Y136887D01*
X665834D01*
X665760Y136868D01*
X665630Y136831D01*
X665464Y136776D01*
X665297Y136683D01*
X665112Y136591D01*
X664945Y136461D01*
X664797Y136313D01*
X664779Y136294D01*
X664742Y136239D01*
X664686Y136146D01*
X664612Y136017D01*
X664538Y135850D01*
X664482Y135665D01*
X664445Y135443D01*
X664427Y135202D01*
Y135183D01*
Y135165D01*
X664445Y135054D01*
X664464Y134887D01*
X664501Y134665D01*
X664593Y134443D01*
X664705Y134202D01*
X664853Y133961D01*
X665075Y133739D01*
X665112Y133721D01*
X665204Y133665D01*
X665352Y133573D01*
X665575Y133480D01*
X665871Y133369D01*
X666038Y133332D01*
X666223Y133295D01*
X666445Y133258D01*
X666667Y133221D01*
X666926Y133202D01*
X667352D01*
X667463Y133221D01*
X667593D01*
X667741Y133239D01*
X668111Y133276D01*
X668500Y133332D01*
X668889Y133443D01*
X669241Y133573D01*
X669389Y133665D01*
X669537Y133758D01*
X669574Y133776D01*
X669648Y133869D01*
X669741Y133980D01*
X669871Y134146D01*
X670000Y134369D01*
X670093Y134609D01*
X670167Y134906D01*
X670204Y135239D01*
Y135276D01*
Y135350D01*
X670185Y135480D01*
X670148Y135646D01*
X670111Y135831D01*
X670037Y136017D01*
X669945Y136202D01*
X669815Y136387D01*
X669797Y136405D01*
X669741Y136461D01*
X669648Y136535D01*
X669500Y136646D01*
X669315Y136757D01*
X669074Y136850D01*
X668778Y136961D01*
X668445Y137035D01*
X668852Y139442D01*
X668871D01*
X668926Y139424D01*
D02*
G37*
G36*
X672000Y125388D02*
Y122592D01*
X659186Y118000D01*
Y120796D01*
X668667Y124055D01*
X659186Y127184D01*
Y129943D01*
X672000Y125388D01*
D02*
G37*
G36*
X632000Y3557D02*
X624989D01*
Y-2761D01*
X632000D01*
Y-6000D01*
X615988D01*
Y-2761D01*
X622281D01*
Y3557D01*
X615988D01*
Y6796D01*
X632000D01*
Y3557D01*
D02*
G37*
G36*
X672000Y157144D02*
X666778D01*
X666463Y157126D01*
X666149Y157107D01*
X665816Y157070D01*
X665538Y157033D01*
X665427Y157015D01*
X665334Y156977D01*
X665315D01*
X665260Y156940D01*
X665186Y156903D01*
X665075Y156848D01*
X664853Y156681D01*
X664742Y156589D01*
X664649Y156459D01*
X664630Y156440D01*
X664612Y156403D01*
X664575Y156329D01*
X664519Y156218D01*
X664464Y156089D01*
X664427Y155959D01*
X664408Y155792D01*
X664390Y155607D01*
Y155589D01*
Y155496D01*
X664408Y155385D01*
X664427Y155237D01*
X664482Y155052D01*
X664538Y154867D01*
X664630Y154663D01*
X664742Y154459D01*
X664760Y154441D01*
X664797Y154385D01*
X664890Y154292D01*
X664982Y154181D01*
X665130Y154070D01*
X665278Y153959D01*
X665482Y153848D01*
X665686Y153774D01*
X665704D01*
X665797Y153737D01*
X665945Y153719D01*
X666167Y153681D01*
X666297Y153663D01*
X666463Y153644D01*
X666630Y153626D01*
X666834D01*
X667038Y153607D01*
X667278Y153589D01*
X672000D01*
Y151126D01*
X662705D01*
Y153404D01*
X664075D01*
X664056Y153422D01*
X664001Y153459D01*
X663927Y153533D01*
X663834Y153626D01*
X663705Y153737D01*
X663575Y153885D01*
X663427Y154052D01*
X663279Y154237D01*
X663149Y154441D01*
X663001Y154681D01*
X662871Y154922D01*
X662742Y155200D01*
X662649Y155496D01*
X662575Y155792D01*
X662520Y156126D01*
X662501Y156459D01*
Y156477D01*
Y156496D01*
Y156589D01*
X662520Y156755D01*
X662538Y156959D01*
X662575Y157181D01*
X662631Y157422D01*
X662705Y157681D01*
X662797Y157940D01*
X662816Y157977D01*
X662853Y158051D01*
X662908Y158181D01*
X663001Y158329D01*
X663112Y158496D01*
X663242Y158662D01*
X663390Y158829D01*
X663556Y158977D01*
X663575Y158996D01*
X663631Y159033D01*
X663723Y159088D01*
X663853Y159162D01*
X664001Y159255D01*
X664186Y159329D01*
X664371Y159403D01*
X664593Y159459D01*
X664612D01*
X664705Y159477D01*
X664834Y159514D01*
X665019Y159533D01*
X665241Y159570D01*
X665538Y159588D01*
X665853Y159607D01*
X672000D01*
Y157144D01*
D02*
G37*
G36*
Y146830D02*
X671982D01*
X671963Y146812D01*
X671889Y146793D01*
X671815Y146756D01*
X671722Y146719D01*
X671593Y146682D01*
X671444Y146645D01*
X671278Y146590D01*
X671259D01*
X671241Y146571D01*
X671167Y146553D01*
X671074Y146516D01*
X671000Y146497D01*
X671019Y146460D01*
X671093Y146386D01*
X671204Y146256D01*
X671333Y146090D01*
X671481Y145886D01*
X671648Y145664D01*
X671778Y145405D01*
X671907Y145145D01*
X671926Y145108D01*
X671945Y145016D01*
X672000Y144868D01*
X672056Y144682D01*
X672111Y144460D01*
X672148Y144201D01*
X672185Y143905D01*
X672204Y143609D01*
Y143590D01*
Y143553D01*
Y143479D01*
X672185Y143368D01*
Y143257D01*
X672167Y143109D01*
X672111Y142794D01*
X672019Y142423D01*
X671889Y142053D01*
X671704Y141683D01*
X671444Y141349D01*
X671426D01*
X671407Y141312D01*
X671296Y141220D01*
X671130Y141090D01*
X670908Y140942D01*
X670630Y140794D01*
X670296Y140664D01*
X669908Y140572D01*
X669704Y140553D01*
X669482Y140535D01*
X669352D01*
X669204Y140553D01*
X669019Y140590D01*
X668797Y140627D01*
X668574Y140683D01*
X668334Y140775D01*
X668093Y140905D01*
X668056Y140924D01*
X667982Y140979D01*
X667871Y141053D01*
X667741Y141183D01*
X667593Y141312D01*
X667426Y141498D01*
X667278Y141701D01*
X667149Y141942D01*
X667130Y141979D01*
X667093Y142072D01*
X667038Y142220D01*
X666945Y142442D01*
X666852Y142720D01*
X666760Y143053D01*
X666667Y143460D01*
X666575Y143905D01*
Y143923D01*
X666556Y143979D01*
X666538Y144071D01*
X666519Y144183D01*
X666501Y144331D01*
X666463Y144497D01*
X666371Y144868D01*
X666278Y145256D01*
X666186Y145664D01*
X666075Y146016D01*
X666019Y146182D01*
X665964Y146312D01*
X665612D01*
X665482Y146293D01*
X665315Y146275D01*
X665149Y146219D01*
X664982Y146164D01*
X664834Y146071D01*
X664705Y145941D01*
X664686Y145923D01*
X664649Y145868D01*
X664612Y145775D01*
X664538Y145645D01*
X664482Y145460D01*
X664445Y145238D01*
X664408Y144960D01*
X664390Y144627D01*
Y144590D01*
Y144516D01*
X664408Y144405D01*
X664427Y144256D01*
X664464Y144090D01*
X664501Y143905D01*
X664575Y143738D01*
X664667Y143590D01*
X664686Y143571D01*
X664723Y143534D01*
X664779Y143460D01*
X664871Y143386D01*
X665001Y143275D01*
X665167Y143183D01*
X665352Y143090D01*
X665575Y142997D01*
X665167Y140794D01*
X665149D01*
X665112Y140812D01*
X665038Y140831D01*
X664945Y140868D01*
X664834Y140905D01*
X664705Y140961D01*
X664408Y141090D01*
X664093Y141275D01*
X663760Y141498D01*
X663445Y141757D01*
X663168Y142072D01*
Y142090D01*
X663131Y142109D01*
X663112Y142164D01*
X663056Y142238D01*
X663019Y142349D01*
X662964Y142460D01*
X662890Y142609D01*
X662834Y142757D01*
X662779Y142942D01*
X662705Y143146D01*
X662649Y143368D01*
X662612Y143627D01*
X662557Y143886D01*
X662538Y144183D01*
X662501Y144479D01*
Y144812D01*
Y144831D01*
Y144886D01*
Y144979D01*
Y145090D01*
X662520Y145219D01*
Y145367D01*
X662557Y145738D01*
X662594Y146127D01*
X662668Y146534D01*
X662779Y146923D01*
X662834Y147090D01*
X662908Y147256D01*
Y147275D01*
X662927Y147293D01*
X662982Y147386D01*
X663056Y147534D01*
X663168Y147701D01*
X663316Y147904D01*
X663482Y148090D01*
X663686Y148256D01*
X663890Y148404D01*
X663927Y148423D01*
X664001Y148460D01*
X664167Y148515D01*
X664260Y148534D01*
X664390Y148571D01*
X664519Y148608D01*
X664686Y148626D01*
X664871Y148664D01*
X665075Y148682D01*
X665297Y148701D01*
X665538Y148719D01*
X665797Y148737D01*
X666093D01*
X668963Y148701D01*
X669389D01*
X669648Y148719D01*
X669945D01*
X670241Y148756D01*
X670537Y148775D01*
X670778Y148812D01*
X670796D01*
X670871Y148830D01*
X671000Y148867D01*
X671148Y148904D01*
X671333Y148978D01*
X671537Y149052D01*
X671759Y149145D01*
X672000Y149256D01*
Y146830D01*
D02*
G37*
G36*
X397332Y121000D02*
X393139D01*
X391474Y125359D01*
X383756D01*
X382173Y121000D01*
X378064D01*
X385505Y140211D01*
X389614D01*
X397332Y121000D01*
D02*
G37*
G36*
X310325Y130078D02*
Y130050D01*
Y129939D01*
Y129745D01*
Y129523D01*
Y129245D01*
X310297Y128912D01*
Y128551D01*
Y128190D01*
X310241Y127385D01*
X310186Y126552D01*
X310158Y126192D01*
X310103Y125831D01*
X310047Y125498D01*
X309992Y125192D01*
Y125164D01*
X309964Y125137D01*
Y125053D01*
X309936Y124970D01*
X309853Y124692D01*
X309742Y124359D01*
X309575Y123971D01*
X309381Y123582D01*
X309131Y123166D01*
X308826Y122777D01*
X308798Y122721D01*
X308687Y122610D01*
X308492Y122444D01*
X308243Y122221D01*
X307909Y121972D01*
X307521Y121722D01*
X307077Y121444D01*
X306577Y121222D01*
X306549D01*
X306521Y121194D01*
X306438Y121167D01*
X306327Y121139D01*
X306188Y121083D01*
X306022Y121028D01*
X305800Y120972D01*
X305577Y120944D01*
X305050Y120833D01*
X304411Y120722D01*
X303690Y120667D01*
X302885Y120639D01*
X302440D01*
X302190Y120667D01*
X301940D01*
X301635Y120695D01*
X301330Y120722D01*
X300664Y120778D01*
X299969Y120889D01*
X299275Y121055D01*
X298970Y121139D01*
X298692Y121250D01*
X298665D01*
X298637Y121278D01*
X298470Y121361D01*
X298193Y121500D01*
X297887Y121694D01*
X297526Y121944D01*
X297138Y122221D01*
X296777Y122555D01*
X296444Y122916D01*
X296416Y122971D01*
X296305Y123082D01*
X296166Y123304D01*
X295999Y123582D01*
X295833Y123887D01*
X295639Y124248D01*
X295500Y124637D01*
X295361Y125053D01*
Y125081D01*
X295333Y125137D01*
Y125220D01*
X295305Y125359D01*
X295278Y125525D01*
X295250Y125747D01*
X295222Y125997D01*
X295194Y126275D01*
X295139Y126608D01*
X295111Y126969D01*
X295083Y127358D01*
X295056Y127802D01*
X295028Y128274D01*
Y128801D01*
X295000Y129356D01*
Y129939D01*
Y140211D01*
X298887D01*
Y129773D01*
Y129745D01*
Y129662D01*
Y129551D01*
Y129384D01*
Y129162D01*
Y128940D01*
X298915Y128440D01*
Y127885D01*
X298942Y127358D01*
X298970Y127108D01*
Y126886D01*
X298998Y126719D01*
X299025Y126552D01*
Y126497D01*
X299081Y126358D01*
X299164Y126136D01*
X299275Y125858D01*
X299414Y125553D01*
X299636Y125248D01*
X299886Y124915D01*
X300191Y124637D01*
X300247Y124609D01*
X300358Y124526D01*
X300580Y124415D01*
X300858Y124304D01*
X301246Y124165D01*
X301691Y124054D01*
X302190Y123971D01*
X302773Y123943D01*
X303051D01*
X303329Y123971D01*
X303690Y124026D01*
X304106Y124109D01*
X304495Y124220D01*
X304911Y124387D01*
X305244Y124609D01*
X305272Y124637D01*
X305383Y124720D01*
X305522Y124859D01*
X305688Y125053D01*
X305855Y125303D01*
X306022Y125581D01*
X306160Y125886D01*
X306244Y126247D01*
Y126303D01*
X306271Y126441D01*
X306299Y126691D01*
X306355Y127024D01*
Y127247D01*
X306383Y127496D01*
Y127774D01*
X306410Y128052D01*
Y128385D01*
X306438Y128746D01*
Y129134D01*
Y129551D01*
Y140211D01*
X310325D01*
Y130078D01*
D02*
G37*
G36*
X358492Y126136D02*
X351246D01*
Y129828D01*
X358492D01*
Y126136D01*
D02*
G37*
G36*
X629894Y36925D02*
X629941Y36855D01*
X630010Y36786D01*
X630103Y36670D01*
X630195Y36555D01*
X630426Y36231D01*
X630681Y35791D01*
X630982Y35282D01*
X631283Y34704D01*
X631560Y34009D01*
Y33986D01*
X631584Y33917D01*
X631630Y33824D01*
X631676Y33685D01*
X631722Y33500D01*
X631792Y33292D01*
X631861Y33061D01*
X631931Y32806D01*
X632069Y32228D01*
X632185Y31557D01*
X632278Y30862D01*
X632301Y30122D01*
Y30099D01*
Y30006D01*
Y29867D01*
X632278Y29705D01*
Y29474D01*
X632254Y29220D01*
X632208Y28942D01*
X632162Y28618D01*
X632046Y27947D01*
X631861Y27206D01*
X631607Y26443D01*
X631445Y26096D01*
X631259Y25726D01*
X631236Y25702D01*
X631213Y25656D01*
X631144Y25540D01*
X631051Y25425D01*
X630959Y25263D01*
X630820Y25101D01*
X630658Y24892D01*
X630473Y24684D01*
X630056Y24221D01*
X629524Y23759D01*
X628923Y23319D01*
X628228Y22926D01*
X628205D01*
X628136Y22879D01*
X628020Y22833D01*
X627881Y22787D01*
X627696Y22717D01*
X627488Y22625D01*
X627233Y22555D01*
X626956Y22463D01*
X626655Y22370D01*
X626308Y22301D01*
X625590Y22139D01*
X624804Y22046D01*
X623947Y22000D01*
X623693D01*
X623531Y22023D01*
X623300D01*
X623045Y22046D01*
X622767Y22093D01*
X622443Y22139D01*
X621772Y22255D01*
X621009Y22440D01*
X620245Y22694D01*
X619875Y22856D01*
X619505Y23041D01*
X619482Y23064D01*
X619412Y23088D01*
X619320Y23157D01*
X619181Y23226D01*
X619019Y23342D01*
X618834Y23481D01*
X618625Y23643D01*
X618394Y23805D01*
X618163Y24013D01*
X617908Y24244D01*
X617654Y24499D01*
X617399Y24777D01*
X617168Y25078D01*
X616913Y25378D01*
X616497Y26096D01*
Y26119D01*
X616450Y26165D01*
X616427Y26258D01*
X616358Y26373D01*
X616311Y26535D01*
X616242Y26697D01*
X616173Y26929D01*
X616080Y27160D01*
X616011Y27415D01*
X615941Y27715D01*
X615872Y28039D01*
X615802Y28363D01*
X615710Y29104D01*
X615687Y29937D01*
Y29960D01*
Y30076D01*
Y30215D01*
X615710Y30423D01*
X615733Y30677D01*
X615756Y30978D01*
X615779Y31302D01*
X615849Y31649D01*
X615988Y32390D01*
X616219Y33153D01*
X616358Y33547D01*
X616520Y33917D01*
X616705Y34264D01*
X616936Y34588D01*
X616959Y34611D01*
X616982Y34657D01*
X617075Y34750D01*
X617168Y34866D01*
X617283Y35004D01*
X617445Y35143D01*
X617630Y35305D01*
X617839Y35490D01*
X618070Y35675D01*
X618325Y35861D01*
X618602Y36046D01*
X618926Y36208D01*
X619250Y36393D01*
X619597Y36532D01*
X619991Y36670D01*
X620384Y36763D01*
X620986Y33547D01*
X620962D01*
X620939Y33523D01*
X620801Y33477D01*
X620592Y33385D01*
X620315Y33246D01*
X620014Y33084D01*
X619713Y32852D01*
X619412Y32575D01*
X619134Y32251D01*
X619111Y32204D01*
X619019Y32089D01*
X618903Y31881D01*
X618787Y31626D01*
X618649Y31279D01*
X618556Y30886D01*
X618464Y30446D01*
X618440Y29937D01*
Y29914D01*
Y29844D01*
Y29729D01*
X618464Y29590D01*
X618487Y29405D01*
X618510Y29196D01*
X618556Y28965D01*
X618602Y28710D01*
X618764Y28178D01*
X618880Y27901D01*
X619019Y27623D01*
X619181Y27345D01*
X619343Y27067D01*
X619574Y26813D01*
X619805Y26558D01*
X619829Y26535D01*
X619875Y26512D01*
X619944Y26443D01*
X620060Y26373D01*
X620199Y26281D01*
X620361Y26165D01*
X620569Y26049D01*
X620801Y25957D01*
X621078Y25841D01*
X621379Y25726D01*
X621703Y25610D01*
X622050Y25517D01*
X622443Y25448D01*
X622883Y25378D01*
X623323Y25355D01*
X623809Y25332D01*
X624086D01*
X624271Y25355D01*
X624526Y25378D01*
X624781Y25401D01*
X625104Y25448D01*
X625428Y25494D01*
X626123Y25633D01*
X626840Y25864D01*
X627187Y26003D01*
X627511Y26165D01*
X627835Y26373D01*
X628113Y26582D01*
X628136Y26605D01*
X628182Y26651D01*
X628251Y26720D01*
X628344Y26813D01*
X628437Y26952D01*
X628575Y27091D01*
X628691Y27276D01*
X628830Y27484D01*
X628969Y27715D01*
X629084Y27947D01*
X629316Y28525D01*
X629408Y28849D01*
X629478Y29173D01*
X629524Y29543D01*
X629547Y29914D01*
Y29937D01*
Y29960D01*
Y30099D01*
X629524Y30284D01*
X629501Y30562D01*
X629455Y30862D01*
X629385Y31209D01*
X629293Y31580D01*
X629154Y31950D01*
Y31973D01*
X629131Y31996D01*
X629084Y32112D01*
X628992Y32320D01*
X628876Y32552D01*
X628737Y32829D01*
X628575Y33130D01*
X628390Y33431D01*
X628182Y33709D01*
X626123D01*
Y30006D01*
X623415D01*
Y36971D01*
X629848D01*
X629894Y36925D01*
D02*
G37*
G36*
X625544Y61988D02*
X629686D01*
Y59188D01*
X625544D01*
Y55000D01*
X622675D01*
Y59188D01*
X618533D01*
Y61988D01*
X622675D01*
Y66199D01*
X625544D01*
Y61988D01*
D02*
G37*
G36*
X430008Y121000D02*
X426121D01*
Y140211D01*
X430008D01*
Y121000D01*
D02*
G37*
G36*
X414683D02*
X410796D01*
X402995Y133660D01*
Y121000D01*
X399414D01*
Y140211D01*
X403162D01*
X411101Y127274D01*
Y140211D01*
X414683D01*
Y121000D01*
D02*
G37*
G36*
X499385Y135214D02*
X499607D01*
X500163Y135159D01*
X500746Y135103D01*
X501356Y134992D01*
X501939Y134826D01*
X502189Y134742D01*
X502439Y134631D01*
X502467D01*
X502495Y134604D01*
X502634Y134520D01*
X502856Y134409D01*
X503105Y134243D01*
X503411Y134021D01*
X503689Y133771D01*
X503938Y133465D01*
X504160Y133160D01*
X504188Y133104D01*
X504244Y132993D01*
X504327Y132743D01*
X504355Y132605D01*
X504410Y132410D01*
X504466Y132216D01*
X504494Y131966D01*
X504549Y131688D01*
X504577Y131383D01*
X504605Y131050D01*
X504632Y130689D01*
X504660Y130300D01*
Y129856D01*
X504605Y125553D01*
Y125525D01*
Y125470D01*
Y125386D01*
Y125248D01*
Y124915D01*
X504632Y124526D01*
Y124082D01*
X504688Y123637D01*
X504716Y123193D01*
X504771Y122832D01*
Y122805D01*
X504799Y122694D01*
X504855Y122499D01*
X504910Y122277D01*
X505021Y122000D01*
X505132Y121694D01*
X505271Y121361D01*
X505438Y121000D01*
X501801D01*
Y121028D01*
X501773Y121055D01*
X501745Y121167D01*
X501690Y121278D01*
X501634Y121416D01*
X501578Y121611D01*
X501523Y121833D01*
X501440Y122083D01*
Y122111D01*
X501412Y122138D01*
X501384Y122249D01*
X501329Y122388D01*
X501301Y122499D01*
X501245Y122471D01*
X501134Y122360D01*
X500940Y122194D01*
X500690Y122000D01*
X500385Y121777D01*
X500052Y121528D01*
X499663Y121333D01*
X499274Y121139D01*
X499219Y121111D01*
X499080Y121083D01*
X498858Y121000D01*
X498580Y120917D01*
X498247Y120833D01*
X497858Y120778D01*
X497414Y120722D01*
X496970Y120695D01*
X496776D01*
X496609Y120722D01*
X496442D01*
X496220Y120750D01*
X495748Y120833D01*
X495193Y120972D01*
X494638Y121167D01*
X494083Y121444D01*
X493583Y121833D01*
Y121861D01*
X493527Y121888D01*
X493389Y122055D01*
X493194Y122305D01*
X492972Y122638D01*
X492750Y123054D01*
X492556Y123554D01*
X492417Y124137D01*
X492389Y124443D01*
X492361Y124776D01*
Y124831D01*
Y124970D01*
X492389Y125192D01*
X492445Y125470D01*
X492500Y125803D01*
X492584Y126136D01*
X492722Y126497D01*
X492917Y126858D01*
X492944Y126913D01*
X493028Y127024D01*
X493139Y127191D01*
X493333Y127385D01*
X493527Y127607D01*
X493805Y127857D01*
X494110Y128079D01*
X494471Y128274D01*
X494527Y128301D01*
X494666Y128357D01*
X494888Y128440D01*
X495221Y128579D01*
X495637Y128718D01*
X496137Y128857D01*
X496748Y128996D01*
X497414Y129134D01*
X497442D01*
X497525Y129162D01*
X497664Y129190D01*
X497831Y129218D01*
X498053Y129245D01*
X498303Y129301D01*
X498858Y129440D01*
X499441Y129579D01*
X500052Y129717D01*
X500579Y129884D01*
X500829Y129967D01*
X501023Y130050D01*
Y130411D01*
Y130467D01*
Y130578D01*
X500995Y130772D01*
X500968Y131022D01*
X500885Y131272D01*
X500801Y131522D01*
X500662Y131744D01*
X500468Y131938D01*
X500440Y131966D01*
X500357Y132022D01*
X500218Y132077D01*
X500024Y132188D01*
X499746Y132271D01*
X499413Y132327D01*
X498997Y132382D01*
X498497Y132410D01*
X498330D01*
X498164Y132382D01*
X497942Y132355D01*
X497692Y132299D01*
X497414Y132244D01*
X497164Y132133D01*
X496942Y131994D01*
X496914Y131966D01*
X496859Y131911D01*
X496748Y131827D01*
X496637Y131688D01*
X496470Y131494D01*
X496331Y131244D01*
X496193Y130967D01*
X496054Y130633D01*
X492750Y131244D01*
Y131272D01*
X492778Y131328D01*
X492806Y131439D01*
X492861Y131577D01*
X492917Y131744D01*
X493000Y131938D01*
X493194Y132382D01*
X493472Y132854D01*
X493805Y133354D01*
X494194Y133826D01*
X494666Y134243D01*
X494693D01*
X494721Y134298D01*
X494804Y134326D01*
X494916Y134409D01*
X495082Y134465D01*
X495249Y134548D01*
X495471Y134659D01*
X495693Y134742D01*
X495971Y134826D01*
X496276Y134937D01*
X496609Y135020D01*
X496998Y135075D01*
X497386Y135159D01*
X497831Y135187D01*
X498275Y135242D01*
X499191D01*
X499385Y135214D01*
D02*
G37*
%LPC*%
G36*
X407155Y-72590D02*
X407100D01*
X406933Y-72618D01*
X406683Y-72645D01*
X406405Y-72729D01*
X406045Y-72840D01*
X405684Y-73034D01*
X405323Y-73284D01*
X404962Y-73645D01*
X404934Y-73700D01*
X404823Y-73839D01*
X404684Y-74089D01*
X404545Y-74422D01*
X404379Y-74866D01*
X404240Y-75394D01*
X404129Y-76032D01*
X404101Y-76754D01*
Y-76782D01*
Y-76837D01*
Y-76976D01*
Y-77115D01*
X404129Y-77309D01*
Y-77504D01*
X404184Y-77976D01*
X404240Y-78503D01*
X404351Y-79058D01*
X404518Y-79558D01*
X404601Y-79780D01*
X404712Y-79974D01*
Y-80002D01*
X404767Y-80030D01*
X404879Y-80197D01*
X405073Y-80419D01*
X405350Y-80668D01*
X405712Y-80946D01*
X406128Y-81168D01*
X406628Y-81335D01*
X406905Y-81363D01*
X407183Y-81390D01*
X407238D01*
X407405Y-81363D01*
X407627Y-81335D01*
X407932Y-81252D01*
X408266Y-81140D01*
X408627Y-80946D01*
X408987Y-80696D01*
X409348Y-80335D01*
X409376Y-80280D01*
X409487Y-80141D01*
X409626Y-79891D01*
X409793Y-79530D01*
X409959Y-79086D01*
X410098Y-78531D01*
X410209Y-77865D01*
X410237Y-77115D01*
Y-77087D01*
Y-77004D01*
Y-76893D01*
Y-76726D01*
X410209Y-76532D01*
X410181Y-76282D01*
X410126Y-75782D01*
X410015Y-75199D01*
X409876Y-74644D01*
X409654Y-74089D01*
X409515Y-73867D01*
X409348Y-73645D01*
X409320Y-73589D01*
X409182Y-73478D01*
X409015Y-73312D01*
X408765Y-73117D01*
X408432Y-72923D01*
X408071Y-72756D01*
X407627Y-72645D01*
X407155Y-72590D01*
D02*
G37*
G36*
X382884Y-165590D02*
X382690D01*
X382468Y-165645D01*
X382190Y-165701D01*
X381885Y-165812D01*
X381552Y-165951D01*
X381219Y-166173D01*
X380913Y-166478D01*
X380886Y-166506D01*
X380802Y-166645D01*
X380663Y-166839D01*
X380525Y-167117D01*
X380358Y-167450D01*
X380247Y-167866D01*
X380164Y-168338D01*
X380136Y-168866D01*
X385633D01*
Y-168838D01*
Y-168782D01*
Y-168727D01*
X385605Y-168616D01*
X385577Y-168310D01*
X385522Y-167977D01*
X385411Y-167589D01*
X385272Y-167172D01*
X385050Y-166784D01*
X384800Y-166450D01*
X384772Y-166423D01*
X384661Y-166312D01*
X384495Y-166173D01*
X384273Y-166006D01*
X383995Y-165867D01*
X383662Y-165728D01*
X383301Y-165618D01*
X382884Y-165590D01*
D02*
G37*
G36*
X431364Y-72756D02*
X431225D01*
X431114Y-72784D01*
X430864Y-72812D01*
X430531Y-72895D01*
X430142Y-73034D01*
X429726Y-73228D01*
X429309Y-73506D01*
X428921Y-73867D01*
X428893Y-73922D01*
X428782Y-74061D01*
X428615Y-74339D01*
X428449Y-74672D01*
X428254Y-75116D01*
X428116Y-75671D01*
X428004Y-76310D01*
X427949Y-77032D01*
Y-77059D01*
Y-77115D01*
Y-77226D01*
X427977Y-77365D01*
Y-77559D01*
X428004Y-77754D01*
X428060Y-78198D01*
X428199Y-78725D01*
X428365Y-79253D01*
X428587Y-79780D01*
X428921Y-80224D01*
X428976Y-80280D01*
X429087Y-80391D01*
X429309Y-80557D01*
X429615Y-80752D01*
X429948Y-80974D01*
X430364Y-81140D01*
X430836Y-81252D01*
X431364Y-81307D01*
X431502D01*
X431614Y-81279D01*
X431863Y-81252D01*
X432197Y-81168D01*
X432585Y-81030D01*
X433002Y-80863D01*
X433390Y-80585D01*
X433779Y-80224D01*
X433835Y-80169D01*
X433946Y-80030D01*
X434084Y-79752D01*
X434279Y-79419D01*
X434473Y-78947D01*
X434612Y-78420D01*
X434723Y-77754D01*
X434779Y-77032D01*
Y-77004D01*
Y-76948D01*
Y-76837D01*
X434751Y-76699D01*
Y-76532D01*
X434723Y-76310D01*
X434667Y-75866D01*
X434529Y-75366D01*
X434362Y-74839D01*
X434112Y-74311D01*
X433779Y-73867D01*
X433723Y-73811D01*
X433613Y-73700D01*
X433390Y-73506D01*
X433113Y-73312D01*
X432752Y-73117D01*
X432363Y-72923D01*
X431891Y-72812D01*
X431364Y-72756D01*
D02*
G37*
G36*
X391719Y-72590D02*
X391525D01*
X391303Y-72645D01*
X391025Y-72701D01*
X390720Y-72812D01*
X390387Y-72951D01*
X390054Y-73173D01*
X389748Y-73478D01*
X389720Y-73506D01*
X389637Y-73645D01*
X389498Y-73839D01*
X389360Y-74117D01*
X389193Y-74450D01*
X389082Y-74866D01*
X388999Y-75338D01*
X388971Y-75866D01*
X394468D01*
Y-75838D01*
Y-75782D01*
Y-75727D01*
X394440Y-75616D01*
X394412Y-75310D01*
X394357Y-74977D01*
X394246Y-74589D01*
X394107Y-74172D01*
X393885Y-73783D01*
X393635Y-73450D01*
X393607Y-73423D01*
X393496Y-73312D01*
X393330Y-73173D01*
X393107Y-73006D01*
X392830Y-72867D01*
X392497Y-72729D01*
X392136Y-72618D01*
X391719Y-72590D01*
D02*
G37*
G36*
X344746Y-67981D02*
X340887D01*
Y-72423D01*
X344607D01*
X345079Y-72395D01*
X345939D01*
X346106Y-72368D01*
X346273D01*
X346384Y-72340D01*
X346550Y-72312D01*
X346800Y-72229D01*
X347050Y-72146D01*
X347300Y-72035D01*
X347550Y-71896D01*
X347772Y-71701D01*
X347799Y-71674D01*
X347855Y-71590D01*
X347966Y-71479D01*
X348077Y-71285D01*
X348160Y-71063D01*
X348271Y-70813D01*
X348327Y-70508D01*
X348355Y-70174D01*
Y-70147D01*
Y-70036D01*
X348327Y-69869D01*
X348299Y-69647D01*
X348244Y-69425D01*
X348133Y-69203D01*
X348022Y-68953D01*
X347855Y-68731D01*
X347827Y-68703D01*
X347772Y-68647D01*
X347633Y-68537D01*
X347494Y-68425D01*
X347272Y-68314D01*
X347022Y-68203D01*
X346717Y-68120D01*
X346384Y-68064D01*
X346356D01*
X346245Y-68037D01*
X345939D01*
X345773Y-68009D01*
X345051D01*
X344746Y-67981D01*
D02*
G37*
G36*
X344912Y-75616D02*
X340887D01*
Y-80752D01*
X345162D01*
X345578Y-80724D01*
X346023D01*
X346467Y-80696D01*
X346828Y-80668D01*
X346994D01*
X347105Y-80641D01*
X347133D01*
X347244Y-80613D01*
X347411Y-80557D01*
X347605Y-80502D01*
X347827Y-80391D01*
X348077Y-80252D01*
X348299Y-80085D01*
X348521Y-79891D01*
X348549Y-79863D01*
X348605Y-79780D01*
X348688Y-79641D01*
X348799Y-79447D01*
X348910Y-79225D01*
X348993Y-78947D01*
X349049Y-78614D01*
X349077Y-78253D01*
Y-78225D01*
Y-78114D01*
X349049Y-77948D01*
X349021Y-77754D01*
X348965Y-77504D01*
X348882Y-77282D01*
X348771Y-77032D01*
X348632Y-76782D01*
X348605Y-76754D01*
X348549Y-76671D01*
X348466Y-76560D01*
X348327Y-76449D01*
X348160Y-76282D01*
X347938Y-76143D01*
X347688Y-76005D01*
X347411Y-75893D01*
X347383D01*
X347244Y-75838D01*
X347022Y-75810D01*
X346883Y-75782D01*
X346689Y-75755D01*
X346495Y-75727D01*
X346245Y-75699D01*
X345967Y-75671D01*
X345634D01*
X345301Y-75644D01*
X344912Y-75616D01*
D02*
G37*
G36*
X364013Y-77337D02*
X363985D01*
X363874Y-77393D01*
X363707Y-77420D01*
X363457Y-77504D01*
X363152Y-77587D01*
X362736Y-77698D01*
X362291Y-77809D01*
X361736Y-77920D01*
X361681D01*
X361597Y-77948D01*
X361486Y-77976D01*
X361236Y-78031D01*
X360903Y-78114D01*
X360570Y-78198D01*
X360237Y-78309D01*
X359959Y-78448D01*
X359737Y-78559D01*
X359710Y-78586D01*
X359626Y-78642D01*
X359515Y-78753D01*
X359404Y-78892D01*
X359265Y-79086D01*
X359154Y-79308D01*
X359071Y-79558D01*
X359043Y-79836D01*
Y-79863D01*
Y-79974D01*
X359071Y-80113D01*
X359127Y-80280D01*
X359182Y-80502D01*
X359265Y-80724D01*
X359404Y-80946D01*
X359598Y-81168D01*
X359626Y-81196D01*
X359710Y-81252D01*
X359821Y-81335D01*
X360015Y-81446D01*
X360209Y-81557D01*
X360459Y-81640D01*
X360765Y-81696D01*
X361070Y-81723D01*
X361236D01*
X361431Y-81696D01*
X361681Y-81640D01*
X361986Y-81557D01*
X362291Y-81446D01*
X362652Y-81307D01*
X362985Y-81085D01*
X363013Y-81057D01*
X363097Y-81002D01*
X363208Y-80891D01*
X363346Y-80752D01*
X363485Y-80557D01*
X363624Y-80363D01*
X363763Y-80113D01*
X363846Y-79863D01*
Y-79836D01*
X363874Y-79780D01*
X363902Y-79641D01*
X363929Y-79475D01*
X363957Y-79225D01*
X363985Y-78920D01*
X364013Y-78531D01*
Y-78087D01*
Y-77337D01*
D02*
G37*
G36*
X355178Y-170337D02*
X355150D01*
X355039Y-170393D01*
X354872Y-170420D01*
X354623Y-170504D01*
X354317Y-170587D01*
X353901Y-170698D01*
X353456Y-170809D01*
X352901Y-170920D01*
X352846D01*
X352762Y-170948D01*
X352651Y-170976D01*
X352402Y-171031D01*
X352068Y-171114D01*
X351735Y-171198D01*
X351402Y-171309D01*
X351124Y-171448D01*
X350902Y-171559D01*
X350875Y-171586D01*
X350791Y-171642D01*
X350680Y-171753D01*
X350569Y-171892D01*
X350430Y-172086D01*
X350319Y-172308D01*
X350236Y-172558D01*
X350208Y-172836D01*
Y-172863D01*
Y-172974D01*
X350236Y-173113D01*
X350292Y-173280D01*
X350347Y-173502D01*
X350430Y-173724D01*
X350569Y-173946D01*
X350764Y-174168D01*
X350791Y-174196D01*
X350875Y-174251D01*
X350986Y-174335D01*
X351180Y-174446D01*
X351374Y-174557D01*
X351624Y-174640D01*
X351930Y-174696D01*
X352235Y-174723D01*
X352402D01*
X352596Y-174696D01*
X352846Y-174640D01*
X353151Y-174557D01*
X353456Y-174446D01*
X353817Y-174307D01*
X354151Y-174085D01*
X354178Y-174057D01*
X354262Y-174002D01*
X354373Y-173891D01*
X354511Y-173752D01*
X354650Y-173557D01*
X354789Y-173363D01*
X354928Y-173113D01*
X355011Y-172863D01*
Y-172836D01*
X355039Y-172780D01*
X355067Y-172641D01*
X355094Y-172475D01*
X355122Y-172225D01*
X355150Y-171919D01*
X355178Y-171531D01*
Y-171087D01*
Y-170337D01*
D02*
G37*
G36*
X438603Y-162258D02*
X435994Y-169393D01*
X441296D01*
X438603Y-162258D01*
D02*
G37*
G36*
X493905Y-170337D02*
X493878D01*
X493767Y-170393D01*
X493600Y-170420D01*
X493350Y-170504D01*
X493045Y-170587D01*
X492629Y-170698D01*
X492184Y-170809D01*
X491629Y-170920D01*
X491573D01*
X491490Y-170948D01*
X491379Y-170976D01*
X491129Y-171031D01*
X490796Y-171114D01*
X490463Y-171198D01*
X490130Y-171309D01*
X489852Y-171448D01*
X489630Y-171559D01*
X489602Y-171586D01*
X489519Y-171642D01*
X489408Y-171753D01*
X489297Y-171892D01*
X489158Y-172086D01*
X489047Y-172308D01*
X488964Y-172558D01*
X488936Y-172836D01*
Y-172863D01*
Y-172974D01*
X488964Y-173113D01*
X489019Y-173280D01*
X489075Y-173502D01*
X489158Y-173724D01*
X489297Y-173946D01*
X489491Y-174168D01*
X489519Y-174196D01*
X489602Y-174251D01*
X489713Y-174335D01*
X489908Y-174446D01*
X490102Y-174557D01*
X490352Y-174640D01*
X490657Y-174696D01*
X490963Y-174723D01*
X491129D01*
X491324Y-174696D01*
X491573Y-174640D01*
X491879Y-174557D01*
X492184Y-174446D01*
X492545Y-174307D01*
X492878Y-174085D01*
X492906Y-174057D01*
X492989Y-174002D01*
X493100Y-173891D01*
X493239Y-173752D01*
X493378Y-173557D01*
X493517Y-173363D01*
X493656Y-173113D01*
X493739Y-172863D01*
Y-172836D01*
X493767Y-172780D01*
X493795Y-172641D01*
X493822Y-172475D01*
X493850Y-172225D01*
X493878Y-171919D01*
X493905Y-171531D01*
Y-171087D01*
Y-170337D01*
D02*
G37*
G36*
X700063Y-151149D02*
X699989D01*
X699896Y-151168D01*
X699804Y-151186D01*
X699674Y-151223D01*
X699545Y-151279D01*
X699397Y-151353D01*
X699267Y-151446D01*
X699248Y-151464D01*
X699211Y-151501D01*
X699156Y-151575D01*
X699082Y-151668D01*
X698989Y-151816D01*
X698915Y-151982D01*
X698823Y-152205D01*
X698748Y-152464D01*
Y-152483D01*
X698730Y-152501D01*
Y-152575D01*
X698711Y-152649D01*
X698693Y-152760D01*
X698674Y-152890D01*
X698656Y-153038D01*
X698637Y-153223D01*
X698600Y-153445D01*
X698582Y-153667D01*
X698563Y-153945D01*
X698545Y-154223D01*
X698526Y-154556D01*
Y-154890D01*
X698508Y-155279D01*
Y-155686D01*
Y-155704D01*
Y-155778D01*
Y-155908D01*
Y-156056D01*
Y-156241D01*
X698526Y-156445D01*
Y-156686D01*
X698545Y-156926D01*
X698563Y-157445D01*
X698600Y-157963D01*
X698619Y-158204D01*
X698656Y-158426D01*
X698693Y-158630D01*
X698730Y-158815D01*
X698748Y-158852D01*
X698767Y-158945D01*
X698823Y-159093D01*
X698878Y-159260D01*
X698971Y-159445D01*
X699063Y-159630D01*
X699174Y-159796D01*
X699286Y-159926D01*
X699304Y-159945D01*
X699341Y-159963D01*
X699415Y-160019D01*
X699508Y-160056D01*
X699619Y-160111D01*
X699748Y-160167D01*
X699896Y-160185D01*
X700063Y-160204D01*
X700137D01*
X700230Y-160185D01*
X700322Y-160167D01*
X700452Y-160130D01*
X700582Y-160093D01*
X700711Y-160019D01*
X700841Y-159926D01*
X700859Y-159908D01*
X700896Y-159871D01*
X700971Y-159796D01*
X701044Y-159685D01*
X701119Y-159556D01*
X701211Y-159371D01*
X701304Y-159167D01*
X701378Y-158908D01*
Y-158889D01*
X701396Y-158871D01*
Y-158797D01*
X701415Y-158723D01*
X701433Y-158611D01*
X701452Y-158482D01*
X701489Y-158334D01*
X701507Y-158149D01*
X701526Y-157945D01*
X701563Y-157704D01*
X701581Y-157445D01*
X701600Y-157149D01*
X701619Y-156834D01*
Y-156482D01*
X701637Y-156093D01*
Y-155686D01*
Y-155667D01*
Y-155593D01*
Y-155464D01*
Y-155316D01*
Y-155130D01*
X701619Y-154927D01*
Y-154686D01*
X701600Y-154445D01*
X701581Y-153927D01*
X701544Y-153427D01*
X701507Y-153186D01*
X701470Y-152945D01*
X701433Y-152742D01*
X701396Y-152575D01*
Y-152556D01*
X701378Y-152538D01*
X701359Y-152445D01*
X701304Y-152297D01*
X701248Y-152112D01*
X701156Y-151927D01*
X701063Y-151742D01*
X700952Y-151575D01*
X700841Y-151446D01*
X700822Y-151427D01*
X700785Y-151390D01*
X700711Y-151353D01*
X700619Y-151297D01*
X700508Y-151242D01*
X700378Y-151186D01*
X700230Y-151168D01*
X700063Y-151149D01*
D02*
G37*
G36*
X635959D02*
X635811D01*
X635700Y-151168D01*
X635551Y-151186D01*
X635403Y-151205D01*
X635033Y-151279D01*
X634626Y-151427D01*
X634403Y-151501D01*
X634181Y-151612D01*
X633977Y-151742D01*
X633755Y-151890D01*
X633551Y-152057D01*
X633366Y-152260D01*
X633348Y-152279D01*
X633329Y-152316D01*
X633274Y-152371D01*
X633218Y-152464D01*
X633144Y-152594D01*
X633070Y-152723D01*
X632977Y-152890D01*
X632885Y-153094D01*
X632792Y-153316D01*
X632700Y-153556D01*
X632626Y-153834D01*
X632552Y-154130D01*
X632496Y-154464D01*
X632440Y-154816D01*
X632422Y-155186D01*
X632403Y-155593D01*
Y-155612D01*
Y-155686D01*
Y-155797D01*
X632422Y-155945D01*
X632440Y-156130D01*
X632459Y-156352D01*
X632496Y-156575D01*
X632533Y-156834D01*
X632644Y-157371D01*
X632829Y-157908D01*
X632940Y-158186D01*
X633070Y-158445D01*
X633237Y-158686D01*
X633403Y-158908D01*
X633422Y-158926D01*
X633459Y-158963D01*
X633515Y-159019D01*
X633589Y-159074D01*
X633681Y-159167D01*
X633811Y-159260D01*
X633940Y-159371D01*
X634107Y-159463D01*
X634459Y-159685D01*
X634903Y-159852D01*
X635144Y-159926D01*
X635403Y-159982D01*
X635681Y-160019D01*
X635959Y-160037D01*
X636107D01*
X636218Y-160019D01*
X636348Y-160000D01*
X636496Y-159982D01*
X636847Y-159889D01*
X637255Y-159760D01*
X637458Y-159667D01*
X637681Y-159574D01*
X637884Y-159445D01*
X638107Y-159297D01*
X638310Y-159130D01*
X638495Y-158926D01*
X638514Y-158908D01*
X638532Y-158871D01*
X638588Y-158815D01*
X638644Y-158723D01*
X638736Y-158593D01*
X638810Y-158445D01*
X638903Y-158278D01*
X638995Y-158075D01*
X639088Y-157852D01*
X639181Y-157612D01*
X639273Y-157334D01*
X639347Y-157019D01*
X639403Y-156704D01*
X639458Y-156352D01*
X639477Y-155964D01*
X639495Y-155556D01*
Y-155538D01*
Y-155464D01*
Y-155352D01*
X639477Y-155186D01*
X639458Y-155001D01*
X639440Y-154797D01*
X639421Y-154556D01*
X639366Y-154316D01*
X639255Y-153779D01*
X639088Y-153223D01*
X638977Y-152945D01*
X638847Y-152705D01*
X638681Y-152464D01*
X638514Y-152242D01*
X638495Y-152223D01*
X638477Y-152186D01*
X638421Y-152149D01*
X638347Y-152075D01*
X638236Y-151982D01*
X638125Y-151890D01*
X637995Y-151797D01*
X637829Y-151686D01*
X637662Y-151594D01*
X637458Y-151501D01*
X637033Y-151316D01*
X636792Y-151242D01*
X636533Y-151205D01*
X636255Y-151168D01*
X635959Y-151149D01*
D02*
G37*
G36*
X70073Y96817D02*
Y93280D01*
X74832Y95076D01*
X70073Y96817D01*
D02*
G37*
G36*
Y72949D02*
Y69412D01*
X74832Y71208D01*
X70073Y72949D01*
D02*
G37*
G36*
X75647Y110408D02*
X67166D01*
Y108500D01*
Y108482D01*
Y108445D01*
Y108389D01*
Y108315D01*
Y108130D01*
X67185Y107889D01*
Y107630D01*
X67222Y107371D01*
X67241Y107130D01*
X67277Y106927D01*
Y106889D01*
X67315Y106816D01*
X67352Y106704D01*
X67407Y106556D01*
X67481Y106390D01*
X67574Y106223D01*
X67685Y106056D01*
X67814Y105890D01*
X67833Y105871D01*
X67889Y105816D01*
X67981Y105742D01*
X68111Y105649D01*
X68277Y105556D01*
X68481Y105427D01*
X68740Y105334D01*
X69037Y105223D01*
X69055D01*
X69074Y105204D01*
X69129D01*
X69203Y105186D01*
X69277Y105149D01*
X69388Y105130D01*
X69666Y105075D01*
X69999Y105038D01*
X70388Y104982D01*
X70870Y104964D01*
X71388Y104945D01*
X71759D01*
X71907Y104964D01*
X72221Y104982D01*
X72592Y105019D01*
X72981Y105056D01*
X73333Y105130D01*
X73666Y105223D01*
X73684D01*
X73703Y105241D01*
X73795Y105279D01*
X73944Y105334D01*
X74129Y105408D01*
X74314Y105519D01*
X74517Y105649D01*
X74721Y105797D01*
X74906Y105964D01*
X74925Y105982D01*
X74980Y106038D01*
X75054Y106149D01*
X75147Y106278D01*
X75258Y106464D01*
X75351Y106667D01*
X75443Y106889D01*
X75517Y107149D01*
Y107167D01*
X75536Y107260D01*
X75554Y107408D01*
X75592Y107612D01*
Y107741D01*
X75610Y107908D01*
Y108075D01*
X75628Y108260D01*
Y108482D01*
X75647Y108723D01*
Y108982D01*
Y109260D01*
Y110408D01*
D02*
G37*
G36*
X70073Y-95830D02*
Y-99367D01*
X74832Y-97571D01*
X70073Y-95830D01*
D02*
G37*
G36*
X711988Y-130353D02*
X709025D01*
Y-133612D01*
X711543D01*
X711914Y-133593D01*
X712302Y-133575D01*
X712691Y-133556D01*
X712858Y-133538D01*
X713006Y-133519D01*
X713154Y-133482D01*
X713247Y-133464D01*
X713265D01*
X713321Y-133427D01*
X713413Y-133390D01*
X713506Y-133334D01*
X713747Y-133167D01*
X713858Y-133056D01*
X713969Y-132927D01*
X713988Y-132908D01*
X714006Y-132853D01*
X714062Y-132779D01*
X714117Y-132668D01*
X714154Y-132519D01*
X714210Y-132353D01*
X714228Y-132168D01*
X714247Y-131964D01*
Y-131927D01*
Y-131853D01*
X714228Y-131742D01*
X714210Y-131594D01*
X714154Y-131427D01*
X714099Y-131260D01*
X714006Y-131075D01*
X713895Y-130927D01*
X713876Y-130908D01*
X713839Y-130853D01*
X713747Y-130797D01*
X713636Y-130705D01*
X713506Y-130612D01*
X713339Y-130538D01*
X713136Y-130464D01*
X712914Y-130408D01*
X712895D01*
X712840Y-130390D01*
X712728D01*
X712562Y-130372D01*
X712154D01*
X711988Y-130353D01*
D02*
G37*
G36*
X700063Y-130149D02*
X699989D01*
X699896Y-130168D01*
X699804Y-130186D01*
X699674Y-130223D01*
X699545Y-130279D01*
X699397Y-130353D01*
X699267Y-130445D01*
X699248Y-130464D01*
X699211Y-130501D01*
X699156Y-130575D01*
X699082Y-130668D01*
X698989Y-130816D01*
X698915Y-130983D01*
X698822Y-131205D01*
X698748Y-131464D01*
Y-131482D01*
X698730Y-131501D01*
Y-131575D01*
X698711Y-131649D01*
X698693Y-131760D01*
X698674Y-131890D01*
X698656Y-132038D01*
X698637Y-132223D01*
X698600Y-132445D01*
X698582Y-132668D01*
X698563Y-132945D01*
X698545Y-133223D01*
X698526Y-133556D01*
Y-133890D01*
X698508Y-134278D01*
Y-134686D01*
Y-134704D01*
Y-134778D01*
Y-134908D01*
Y-135056D01*
Y-135241D01*
X698526Y-135445D01*
Y-135686D01*
X698545Y-135926D01*
X698563Y-136445D01*
X698600Y-136963D01*
X698619Y-137204D01*
X698656Y-137426D01*
X698693Y-137630D01*
X698730Y-137815D01*
X698748Y-137852D01*
X698767Y-137945D01*
X698822Y-138093D01*
X698878Y-138259D01*
X698971Y-138445D01*
X699063Y-138630D01*
X699174Y-138797D01*
X699285Y-138926D01*
X699304Y-138945D01*
X699341Y-138963D01*
X699415Y-139019D01*
X699508Y-139056D01*
X699619Y-139111D01*
X699748Y-139167D01*
X699896Y-139185D01*
X700063Y-139204D01*
X700137D01*
X700230Y-139185D01*
X700322Y-139167D01*
X700452Y-139130D01*
X700582Y-139093D01*
X700711Y-139019D01*
X700841Y-138926D01*
X700859Y-138908D01*
X700896Y-138871D01*
X700970Y-138797D01*
X701044Y-138685D01*
X701118Y-138556D01*
X701211Y-138371D01*
X701304Y-138167D01*
X701378Y-137908D01*
Y-137889D01*
X701396Y-137871D01*
Y-137797D01*
X701415Y-137723D01*
X701433Y-137612D01*
X701452Y-137482D01*
X701489Y-137334D01*
X701507Y-137149D01*
X701526Y-136945D01*
X701563Y-136704D01*
X701581Y-136445D01*
X701600Y-136149D01*
X701618Y-135834D01*
Y-135482D01*
X701637Y-135093D01*
Y-134686D01*
Y-134667D01*
Y-134593D01*
Y-134464D01*
Y-134316D01*
Y-134130D01*
X701618Y-133927D01*
Y-133686D01*
X701600Y-133445D01*
X701581Y-132927D01*
X701544Y-132427D01*
X701507Y-132186D01*
X701470Y-131945D01*
X701433Y-131742D01*
X701396Y-131575D01*
Y-131557D01*
X701378Y-131538D01*
X701359Y-131445D01*
X701304Y-131297D01*
X701248Y-131112D01*
X701155Y-130927D01*
X701063Y-130742D01*
X700952Y-130575D01*
X700841Y-130445D01*
X700822Y-130427D01*
X700785Y-130390D01*
X700711Y-130353D01*
X700619Y-130297D01*
X700508Y-130242D01*
X700378Y-130186D01*
X700230Y-130168D01*
X700063Y-130149D01*
D02*
G37*
G36*
X634959D02*
X634811D01*
X634700Y-130168D01*
X634551Y-130186D01*
X634403Y-130205D01*
X634033Y-130279D01*
X633625Y-130427D01*
X633403Y-130501D01*
X633181Y-130612D01*
X632977Y-130742D01*
X632755Y-130890D01*
X632551Y-131057D01*
X632366Y-131260D01*
X632348Y-131279D01*
X632329Y-131316D01*
X632274Y-131371D01*
X632218Y-131464D01*
X632144Y-131594D01*
X632070Y-131723D01*
X631978Y-131890D01*
X631885Y-132093D01*
X631792Y-132316D01*
X631700Y-132556D01*
X631626Y-132834D01*
X631552Y-133130D01*
X631496Y-133464D01*
X631441Y-133816D01*
X631422Y-134186D01*
X631404Y-134593D01*
Y-134612D01*
Y-134686D01*
Y-134797D01*
X631422Y-134945D01*
X631441Y-135130D01*
X631459Y-135352D01*
X631496Y-135575D01*
X631533Y-135834D01*
X631644Y-136371D01*
X631829Y-136908D01*
X631940Y-137186D01*
X632070Y-137445D01*
X632237Y-137685D01*
X632403Y-137908D01*
X632422Y-137926D01*
X632459Y-137963D01*
X632514Y-138019D01*
X632589Y-138074D01*
X632681Y-138167D01*
X632811Y-138259D01*
X632940Y-138371D01*
X633107Y-138463D01*
X633459Y-138685D01*
X633903Y-138852D01*
X634144Y-138926D01*
X634403Y-138982D01*
X634681Y-139019D01*
X634959Y-139037D01*
X635107D01*
X635218Y-139019D01*
X635348Y-139000D01*
X635496Y-138982D01*
X635848Y-138889D01*
X636255Y-138759D01*
X636459Y-138667D01*
X636681Y-138574D01*
X636884Y-138445D01*
X637107Y-138297D01*
X637310Y-138130D01*
X637495Y-137926D01*
X637514Y-137908D01*
X637533Y-137871D01*
X637588Y-137815D01*
X637644Y-137723D01*
X637736Y-137593D01*
X637810Y-137445D01*
X637903Y-137278D01*
X637995Y-137074D01*
X638088Y-136852D01*
X638181Y-136612D01*
X638273Y-136334D01*
X638347Y-136019D01*
X638403Y-135704D01*
X638458Y-135352D01*
X638477Y-134964D01*
X638495Y-134556D01*
Y-134538D01*
Y-134464D01*
Y-134353D01*
X638477Y-134186D01*
X638458Y-134001D01*
X638440Y-133797D01*
X638421Y-133556D01*
X638366Y-133316D01*
X638255Y-132779D01*
X638088Y-132223D01*
X637977Y-131945D01*
X637847Y-131705D01*
X637681Y-131464D01*
X637514Y-131242D01*
X637495Y-131223D01*
X637477Y-131186D01*
X637421Y-131149D01*
X637347Y-131075D01*
X637236Y-130983D01*
X637125Y-130890D01*
X636996Y-130797D01*
X636829Y-130686D01*
X636662Y-130594D01*
X636459Y-130501D01*
X636033Y-130316D01*
X635792Y-130242D01*
X635533Y-130205D01*
X635255Y-130168D01*
X634959Y-130149D01*
D02*
G37*
G36*
X353868Y163021D02*
X353545D01*
X353174Y162928D01*
X352712Y162836D01*
X352202Y162650D01*
X351647Y162419D01*
X351092Y162049D01*
X350583Y161540D01*
X350536Y161493D01*
X350398Y161262D01*
X350166Y160938D01*
X349935Y160475D01*
X349657Y159920D01*
X349472Y159226D01*
X349333Y158439D01*
X349287Y157560D01*
X358450D01*
Y157606D01*
Y157698D01*
Y157791D01*
X358404Y157976D01*
X358358Y158485D01*
X358265Y159041D01*
X358080Y159689D01*
X357849Y160383D01*
X357478Y161031D01*
X357062Y161586D01*
X357015Y161632D01*
X356830Y161817D01*
X356553Y162049D01*
X356183Y162326D01*
X355720Y162558D01*
X355164Y162789D01*
X354563Y162974D01*
X353868Y163021D01*
D02*
G37*
G36*
X185345Y-158695D02*
X183239D01*
Y-169293D01*
X186086D01*
X186387Y-169270D01*
X186710D01*
X187034Y-169223D01*
X187335Y-169200D01*
X187590Y-169154D01*
X187636D01*
X187729Y-169108D01*
X187867Y-169061D01*
X188053Y-168992D01*
X188261Y-168899D01*
X188469Y-168784D01*
X188677Y-168645D01*
X188885Y-168483D01*
X188909Y-168460D01*
X188978Y-168390D01*
X189071Y-168275D01*
X189186Y-168113D01*
X189302Y-167904D01*
X189464Y-167650D01*
X189580Y-167326D01*
X189718Y-166956D01*
Y-166933D01*
X189742Y-166909D01*
Y-166840D01*
X189765Y-166747D01*
X189811Y-166655D01*
X189834Y-166516D01*
X189904Y-166169D01*
X189950Y-165752D01*
X190019Y-165266D01*
X190042Y-164665D01*
X190066Y-164017D01*
Y-163994D01*
Y-163924D01*
Y-163832D01*
Y-163716D01*
Y-163554D01*
X190042Y-163369D01*
X190019Y-162976D01*
X189973Y-162513D01*
X189927Y-162027D01*
X189834Y-161587D01*
X189718Y-161171D01*
Y-161148D01*
X189695Y-161124D01*
X189649Y-161009D01*
X189580Y-160824D01*
X189487Y-160592D01*
X189348Y-160361D01*
X189186Y-160106D01*
X189001Y-159852D01*
X188793Y-159620D01*
X188770Y-159597D01*
X188700Y-159528D01*
X188562Y-159435D01*
X188400Y-159320D01*
X188168Y-159181D01*
X187914Y-159065D01*
X187636Y-158949D01*
X187312Y-158857D01*
X187289D01*
X187173Y-158834D01*
X186988Y-158811D01*
X186734Y-158764D01*
X186572D01*
X186363Y-158741D01*
X186155D01*
X185924Y-158718D01*
X185646D01*
X185345Y-158695D01*
D02*
G37*
G36*
X133252D02*
X131147D01*
Y-169293D01*
X133993D01*
X134294Y-169270D01*
X134618D01*
X134942Y-169223D01*
X135243Y-169200D01*
X135497Y-169154D01*
X135543D01*
X135636Y-169108D01*
X135775Y-169061D01*
X135960Y-168992D01*
X136168Y-168899D01*
X136376Y-168784D01*
X136585Y-168645D01*
X136793Y-168483D01*
X136816Y-168460D01*
X136885Y-168390D01*
X136978Y-168275D01*
X137094Y-168113D01*
X137209Y-167904D01*
X137371Y-167650D01*
X137487Y-167326D01*
X137626Y-166956D01*
Y-166933D01*
X137649Y-166909D01*
Y-166840D01*
X137672Y-166747D01*
X137718Y-166655D01*
X137742Y-166516D01*
X137811Y-166169D01*
X137857Y-165752D01*
X137927Y-165266D01*
X137950Y-164665D01*
X137973Y-164017D01*
Y-163994D01*
Y-163924D01*
Y-163832D01*
Y-163716D01*
Y-163554D01*
X137950Y-163369D01*
X137927Y-162976D01*
X137880Y-162513D01*
X137834Y-162027D01*
X137742Y-161587D01*
X137626Y-161171D01*
Y-161148D01*
X137603Y-161124D01*
X137556Y-161009D01*
X137487Y-160824D01*
X137395Y-160592D01*
X137256Y-160361D01*
X137094Y-160106D01*
X136909Y-159852D01*
X136700Y-159620D01*
X136677Y-159597D01*
X136608Y-159528D01*
X136469Y-159435D01*
X136307Y-159320D01*
X136075Y-159181D01*
X135821Y-159065D01*
X135543Y-158949D01*
X135219Y-158857D01*
X135196D01*
X135081Y-158834D01*
X134895Y-158811D01*
X134641Y-158764D01*
X134479D01*
X134271Y-158741D01*
X134062D01*
X133831Y-158718D01*
X133553D01*
X133252Y-158695D01*
D02*
G37*
G36*
X382561Y170703D02*
X376129D01*
Y163298D01*
X382330D01*
X383117Y163344D01*
X384551D01*
X384829Y163391D01*
X385107D01*
X385292Y163437D01*
X385569Y163483D01*
X385986Y163622D01*
X386403Y163761D01*
X386819Y163946D01*
X387235Y164177D01*
X387606Y164501D01*
X387652Y164548D01*
X387745Y164687D01*
X387930Y164872D01*
X388115Y165196D01*
X388254Y165566D01*
X388439Y165982D01*
X388531Y166492D01*
X388578Y167047D01*
Y167093D01*
Y167278D01*
X388531Y167556D01*
X388485Y167926D01*
X388392Y168296D01*
X388207Y168667D01*
X388022Y169083D01*
X387745Y169453D01*
X387698Y169500D01*
X387606Y169592D01*
X387374Y169777D01*
X387143Y169962D01*
X386773Y170147D01*
X386356Y170333D01*
X385847Y170471D01*
X385292Y170564D01*
X385246D01*
X385060Y170610D01*
X384551D01*
X384274Y170657D01*
X383070D01*
X382561Y170703D01*
D02*
G37*
G36*
X382839Y157976D02*
X376129D01*
Y149415D01*
X383256D01*
X383950Y149461D01*
X384690D01*
X385431Y149507D01*
X386032Y149553D01*
X386310D01*
X386495Y149600D01*
X386541D01*
X386726Y149646D01*
X387004Y149739D01*
X387328Y149831D01*
X387698Y150016D01*
X388115Y150248D01*
X388485Y150525D01*
X388855Y150849D01*
X388902Y150896D01*
X388994Y151034D01*
X389133Y151266D01*
X389318Y151590D01*
X389503Y151960D01*
X389642Y152423D01*
X389735Y152978D01*
X389781Y153580D01*
Y153626D01*
Y153811D01*
X389735Y154089D01*
X389688Y154413D01*
X389596Y154829D01*
X389457Y155199D01*
X389272Y155616D01*
X389040Y156032D01*
X388994Y156079D01*
X388902Y156218D01*
X388763Y156403D01*
X388531Y156588D01*
X388254Y156866D01*
X387883Y157097D01*
X387467Y157328D01*
X387004Y157513D01*
X386958D01*
X386726Y157606D01*
X386356Y157652D01*
X386125Y157698D01*
X385801Y157745D01*
X385477Y157791D01*
X385060Y157837D01*
X384598Y157884D01*
X384042D01*
X383487Y157930D01*
X382839Y157976D01*
D02*
G37*
G36*
X479377Y155107D02*
X479330D01*
X479145Y155014D01*
X478868Y154968D01*
X478451Y154829D01*
X477942Y154690D01*
X477248Y154505D01*
X476507Y154320D01*
X475582Y154135D01*
X475489D01*
X475350Y154089D01*
X475165Y154043D01*
X474749Y153950D01*
X474193Y153811D01*
X473638Y153672D01*
X473083Y153487D01*
X472620Y153256D01*
X472250Y153071D01*
X472203Y153024D01*
X472065Y152932D01*
X471880Y152747D01*
X471694Y152515D01*
X471463Y152191D01*
X471278Y151821D01*
X471139Y151405D01*
X471093Y150942D01*
Y150896D01*
Y150710D01*
X471139Y150479D01*
X471232Y150201D01*
X471324Y149831D01*
X471463Y149461D01*
X471694Y149091D01*
X472018Y148720D01*
X472065Y148674D01*
X472203Y148582D01*
X472388Y148443D01*
X472713Y148258D01*
X473036Y148073D01*
X473453Y147934D01*
X473962Y147841D01*
X474471Y147795D01*
X474749D01*
X475073Y147841D01*
X475489Y147934D01*
X475998Y148073D01*
X476507Y148258D01*
X477109Y148489D01*
X477664Y148859D01*
X477711Y148905D01*
X477849Y148998D01*
X478035Y149183D01*
X478266Y149415D01*
X478497Y149739D01*
X478729Y150063D01*
X478960Y150479D01*
X479099Y150896D01*
Y150942D01*
X479145Y151034D01*
X479192Y151266D01*
X479238Y151543D01*
X479284Y151960D01*
X479330Y152469D01*
X479377Y153117D01*
Y153857D01*
Y155107D01*
D02*
G37*
G36*
X423518Y163021D02*
X423194D01*
X422824Y162928D01*
X422361Y162836D01*
X421852Y162650D01*
X421297Y162419D01*
X420741Y162049D01*
X420232Y161540D01*
X420186Y161493D01*
X420047Y161262D01*
X419816Y160938D01*
X419584Y160475D01*
X419307Y159920D01*
X419122Y159226D01*
X418983Y158439D01*
X418937Y157560D01*
X428100D01*
Y157606D01*
Y157698D01*
Y157791D01*
X428053Y157976D01*
X428007Y158485D01*
X427915Y159041D01*
X427729Y159689D01*
X427498Y160383D01*
X427128Y161031D01*
X426711Y161586D01*
X426665Y161632D01*
X426480Y161817D01*
X426202Y162049D01*
X425832Y162326D01*
X425369Y162558D01*
X424814Y162789D01*
X424212Y162974D01*
X423518Y163021D01*
D02*
G37*
G36*
X310690Y170610D02*
X306479D01*
Y149415D01*
X312171D01*
X312773Y149461D01*
X313421D01*
X314069Y149553D01*
X314670Y149600D01*
X315180Y149692D01*
X315272D01*
X315457Y149785D01*
X315735Y149877D01*
X316105Y150016D01*
X316521Y150201D01*
X316938Y150433D01*
X317355Y150710D01*
X317771Y151034D01*
X317817Y151081D01*
X317956Y151220D01*
X318141Y151451D01*
X318373Y151775D01*
X318604Y152191D01*
X318928Y152700D01*
X319159Y153348D01*
X319437Y154089D01*
Y154135D01*
X319483Y154181D01*
Y154320D01*
X319530Y154505D01*
X319622Y154690D01*
X319669Y154968D01*
X319807Y155662D01*
X319900Y156495D01*
X320039Y157467D01*
X320085Y158670D01*
X320131Y159966D01*
Y160012D01*
Y160151D01*
Y160336D01*
Y160568D01*
Y160892D01*
X320085Y161262D01*
X320039Y162049D01*
X319946Y162974D01*
X319854Y163946D01*
X319669Y164825D01*
X319437Y165658D01*
Y165705D01*
X319391Y165751D01*
X319298Y165982D01*
X319159Y166353D01*
X318974Y166815D01*
X318697Y167278D01*
X318373Y167787D01*
X318002Y168296D01*
X317586Y168759D01*
X317540Y168805D01*
X317401Y168944D01*
X317123Y169129D01*
X316799Y169361D01*
X316336Y169638D01*
X315827Y169870D01*
X315272Y170101D01*
X314624Y170286D01*
X314578D01*
X314346Y170333D01*
X313976Y170379D01*
X313467Y170471D01*
X313143D01*
X312727Y170518D01*
X312310D01*
X311847Y170564D01*
X311292D01*
X310690Y170610D01*
D02*
G37*
G36*
X464544Y132410D02*
X464349D01*
X464127Y132355D01*
X463850Y132299D01*
X463544Y132188D01*
X463211Y132049D01*
X462878Y131827D01*
X462573Y131522D01*
X462545Y131494D01*
X462462Y131355D01*
X462323Y131161D01*
X462184Y130883D01*
X462017Y130550D01*
X461906Y130134D01*
X461823Y129662D01*
X461795Y129134D01*
X467292D01*
Y129162D01*
Y129218D01*
Y129273D01*
X467264Y129384D01*
X467237Y129690D01*
X467181Y130023D01*
X467070Y130411D01*
X466931Y130828D01*
X466709Y131216D01*
X466459Y131550D01*
X466432Y131577D01*
X466320Y131688D01*
X466154Y131827D01*
X465932Y131994D01*
X465654Y132133D01*
X465321Y132271D01*
X464960Y132382D01*
X464544Y132410D01*
D02*
G37*
G36*
X528730D02*
X528536D01*
X528313Y132355D01*
X528036Y132299D01*
X527730Y132188D01*
X527397Y132049D01*
X527064Y131827D01*
X526759Y131522D01*
X526731Y131494D01*
X526648Y131355D01*
X526509Y131161D01*
X526370Y130883D01*
X526204Y130550D01*
X526092Y130134D01*
X526009Y129662D01*
X525981Y129134D01*
X531478D01*
Y129162D01*
Y129218D01*
Y129273D01*
X531451Y129384D01*
X531423Y129690D01*
X531367Y130023D01*
X531256Y130411D01*
X531118Y130828D01*
X530895Y131216D01*
X530645Y131550D01*
X530618Y131577D01*
X530507Y131688D01*
X530340Y131827D01*
X530118Y131994D01*
X529840Y132133D01*
X529507Y132271D01*
X529146Y132382D01*
X528730Y132410D01*
D02*
G37*
G36*
X340252Y129384D02*
X336227D01*
Y124248D01*
X340502D01*
X340919Y124276D01*
X341363D01*
X341807Y124304D01*
X342168Y124332D01*
X342335D01*
X342446Y124359D01*
X342473D01*
X342584Y124387D01*
X342751Y124443D01*
X342945Y124498D01*
X343167Y124609D01*
X343417Y124748D01*
X343639Y124915D01*
X343862Y125109D01*
X343889Y125137D01*
X343945Y125220D01*
X344028Y125359D01*
X344139Y125553D01*
X344250Y125775D01*
X344333Y126053D01*
X344389Y126386D01*
X344417Y126747D01*
Y126775D01*
Y126886D01*
X344389Y127052D01*
X344361Y127247D01*
X344306Y127496D01*
X344222Y127718D01*
X344111Y127968D01*
X343973Y128218D01*
X343945Y128246D01*
X343889Y128329D01*
X343806Y128440D01*
X343667Y128551D01*
X343501Y128718D01*
X343279Y128857D01*
X343029Y128996D01*
X342751Y129107D01*
X342723D01*
X342584Y129162D01*
X342362Y129190D01*
X342224Y129218D01*
X342029Y129245D01*
X341835Y129273D01*
X341585Y129301D01*
X341307Y129329D01*
X340974D01*
X340641Y129356D01*
X340252Y129384D01*
D02*
G37*
G36*
X340086Y137019D02*
X336227D01*
Y132577D01*
X339947D01*
X340419Y132605D01*
X341280D01*
X341446Y132632D01*
X341613D01*
X341724Y132660D01*
X341890Y132688D01*
X342140Y132771D01*
X342390Y132854D01*
X342640Y132965D01*
X342890Y133104D01*
X343112Y133299D01*
X343140Y133326D01*
X343195Y133410D01*
X343306Y133521D01*
X343417Y133715D01*
X343501Y133937D01*
X343612Y134187D01*
X343667Y134492D01*
X343695Y134826D01*
Y134853D01*
Y134964D01*
X343667Y135131D01*
X343639Y135353D01*
X343584Y135575D01*
X343473Y135797D01*
X343362Y136047D01*
X343195Y136269D01*
X343167Y136297D01*
X343112Y136353D01*
X342973Y136464D01*
X342834Y136575D01*
X342612Y136686D01*
X342362Y136797D01*
X342057Y136880D01*
X341724Y136936D01*
X341696D01*
X341585Y136963D01*
X341280D01*
X341113Y136991D01*
X340391D01*
X340086Y137019D01*
D02*
G37*
G36*
X668352Y146312D02*
X667556D01*
Y146293D01*
X667593Y146219D01*
X667612Y146108D01*
X667667Y145941D01*
X667723Y145738D01*
X667797Y145460D01*
X667871Y145164D01*
X667945Y144794D01*
Y144775D01*
Y144756D01*
X667963Y144701D01*
X667982Y144627D01*
X668019Y144460D01*
X668074Y144238D01*
X668130Y144016D01*
X668204Y143794D01*
X668297Y143609D01*
X668371Y143460D01*
X668389Y143442D01*
X668426Y143386D01*
X668500Y143312D01*
X668593Y143238D01*
X668723Y143146D01*
X668871Y143071D01*
X669037Y143016D01*
X669222Y142997D01*
X669315D01*
X669408Y143016D01*
X669519Y143053D01*
X669667Y143090D01*
X669815Y143146D01*
X669963Y143238D01*
X670111Y143368D01*
X670130Y143386D01*
X670167Y143442D01*
X670222Y143516D01*
X670296Y143645D01*
X670370Y143775D01*
X670426Y143942D01*
X670463Y144145D01*
X670482Y144349D01*
Y144386D01*
Y144460D01*
X670463Y144590D01*
X670426Y144756D01*
X670370Y144960D01*
X670296Y145164D01*
X670204Y145405D01*
X670056Y145627D01*
X670037Y145645D01*
X670000Y145701D01*
X669926Y145775D01*
X669834Y145868D01*
X669704Y145960D01*
X669574Y146053D01*
X669408Y146145D01*
X669241Y146201D01*
X669222D01*
X669185Y146219D01*
X669093Y146238D01*
X668982Y146256D01*
X668815Y146275D01*
X668612Y146293D01*
X668352Y146312D01*
D02*
G37*
G36*
X387531Y135742D02*
X384922Y128607D01*
X390224D01*
X387531Y135742D01*
D02*
G37*
G36*
X501023Y127663D02*
X500995D01*
X500885Y127607D01*
X500718Y127580D01*
X500468Y127496D01*
X500163Y127413D01*
X499746Y127302D01*
X499302Y127191D01*
X498747Y127080D01*
X498691D01*
X498608Y127052D01*
X498497Y127024D01*
X498247Y126969D01*
X497914Y126886D01*
X497581Y126802D01*
X497248Y126691D01*
X496970Y126552D01*
X496748Y126441D01*
X496720Y126414D01*
X496637Y126358D01*
X496526Y126247D01*
X496415Y126108D01*
X496276Y125914D01*
X496165Y125692D01*
X496082Y125442D01*
X496054Y125164D01*
Y125137D01*
Y125026D01*
X496082Y124887D01*
X496137Y124720D01*
X496193Y124498D01*
X496276Y124276D01*
X496415Y124054D01*
X496609Y123832D01*
X496637Y123804D01*
X496720Y123749D01*
X496831Y123665D01*
X497025Y123554D01*
X497220Y123443D01*
X497470Y123360D01*
X497775Y123304D01*
X498080Y123277D01*
X498247D01*
X498441Y123304D01*
X498691Y123360D01*
X498997Y123443D01*
X499302Y123554D01*
X499663Y123693D01*
X499996Y123915D01*
X500024Y123943D01*
X500107Y123998D01*
X500218Y124109D01*
X500357Y124248D01*
X500496Y124443D01*
X500635Y124637D01*
X500773Y124887D01*
X500857Y125137D01*
Y125164D01*
X500885Y125220D01*
X500912Y125359D01*
X500940Y125525D01*
X500968Y125775D01*
X500995Y126081D01*
X501023Y126469D01*
Y126913D01*
Y127663D01*
D02*
G37*
%LPD*%
D38*
X395000Y62700D02*
G03*
X405000Y62700I5000J0D01*
G01*
X609000Y93250D02*
X652700D01*
X609000Y-90000D02*
Y93250D01*
Y-93250D02*
X652700D01*
X609000D02*
Y-90000D01*
Y-45000D02*
X652000D01*
X609000Y-15000D02*
X652000D01*
X609000Y15000D02*
X652000D01*
X609000Y45000D02*
X652000D01*
X609000Y75000D02*
X652000D01*
X609000Y-75000D02*
X652000D01*
X365000Y-62700D02*
X435000D01*
Y62700D01*
X365000Y-62700D02*
Y62700D01*
X405000D02*
X435000D01*
X365000D02*
X395000D01*
X82100Y-14828D02*
X89172Y-21899D01*
X94828Y-2101D02*
X101899Y-9172D01*
X592000Y-125000D02*
X720000D01*
Y-165000D02*
Y-125000D01*
X592000Y-165000D02*
X720000D01*
X592000D02*
Y-125000D01*
Y-145000D02*
X720000D01*
X590000Y-110000D02*
X638000D01*
X653000Y-125000D01*
X590000Y-110000D02*
X590000D01*
X595000Y-115000D01*
X590000Y-110000D02*
Y-110000D01*
X595000Y-105000D01*
D42*
X581900Y-101800D02*
G03*
X581900Y-108150I0J-3175D01*
G01*
X117343Y-58556D02*
X121939Y-53960D01*
X133960Y-41939D02*
X138556Y-37343D01*
X111333Y-52546D02*
X117343Y-58556D01*
X132546Y-31333D02*
X138556Y-37343D01*
X101000Y92000D02*
X109000D01*
X101500Y88500D02*
X105000Y92000D01*
X108500Y88500D01*
X131000Y92000D02*
X139000D01*
X131500Y88500D02*
X135000Y92000D01*
X138500Y88500D01*
X200000Y40022D02*
X235815Y4207D01*
X159978Y0D02*
X200000Y40022D01*
X159978Y0D02*
X200000Y-40022D01*
X235815Y-4207D01*
Y4207D01*
X26000Y35000D02*
X42000D01*
Y33000D02*
Y35000D01*
Y-35000D02*
Y-33000D01*
X26000Y-35000D02*
X42000D01*
X-2000D02*
Y35000D01*
X175000Y-137000D02*
Y-113000D01*
X225000Y-137000D02*
Y-113000D01*
X208000Y-101000D02*
X215000D01*
X208000Y-149000D02*
X215000D01*
X185000Y-101000D02*
X192000D01*
X185000Y-149000D02*
X192000D01*
X532100Y-75000D02*
X581900D01*
X532100Y-135000D02*
X581900D01*
Y-108200D01*
Y-101800D02*
Y-75000D01*
X532100Y-135000D02*
Y-75000D01*
X551000Y3000D02*
X583000D01*
X551000Y-33000D02*
X583000D01*
X541000Y-21500D02*
Y-8500D01*
X593000Y-21500D02*
Y-8500D01*
X181000Y106000D02*
X219000D01*
X181000Y174000D02*
X219000D01*
D48*
X647764Y73000D02*
G03*
X647764Y73000I-1414J0D01*
G01*
D49*
X43706Y-80747D02*
G03*
X43706Y-99253I3794J-9252D01*
G01*
Y99253D02*
G03*
X43706Y80747I3794J-9252D01*
G01*
X693294Y125747D02*
G03*
X693294Y144253I-3794J9252D01*
G01*
D50*
X175000Y175750D02*
G03*
X175000Y175750I-1000J0D01*
G01*
X652700Y-93250D02*
X689800D01*
X652700D02*
Y-68600D01*
X721600Y-93250D02*
X751700D01*
Y93250D01*
X652700Y68600D02*
Y93250D01*
X689800D01*
X721600D02*
X751700D01*
X85250Y-108490D02*
X148750D01*
X85250Y-141510D02*
Y-108490D01*
Y-141510D02*
X148750D01*
Y-108490D01*
D51*
X261747Y54575D02*
X264575Y51747D01*
X279425Y72253D02*
X282253Y69425D01*
M02*
