G04 Layer_Color=8388736*
%FSLAX44Y44*%
%MOMM*%
G71*
G01*
G75*
G04:AMPARAMS|DCode=54|XSize=0.8382mm|YSize=0.7032mm|CornerRadius=0mm|HoleSize=0mm|Usage=FLASHONLY|Rotation=225.000|XOffset=0mm|YOffset=0mm|HoleType=Round|Shape=Rectangle|*
%AMROTATEDRECTD54*
4,1,4,0.0477,0.5450,0.5450,0.0477,-0.0477,-0.5450,-0.5450,-0.0477,0.0477,0.5450,0.0*
%
%ADD54ROTATEDRECTD54*%

G04:AMPARAMS|DCode=55|XSize=0.8382mm|YSize=0.7032mm|CornerRadius=0mm|HoleSize=0mm|Usage=FLASHONLY|Rotation=315.000|XOffset=0mm|YOffset=0mm|HoleType=Round|Shape=Rectangle|*
%AMROTATEDRECTD55*
4,1,4,-0.5450,0.0477,-0.0477,0.5450,0.5450,-0.0477,0.0477,-0.5450,-0.5450,0.0477,0.0*
%
%ADD55ROTATEDRECTD55*%

%ADD56R,0.7032X0.8382*%
%ADD57R,1.2032X1.3032*%
%ADD58R,1.3032X1.2032*%
%ADD59R,1.3032X1.6032*%
%ADD60P,1.7016X4X270.0*%
%ADD61R,1.7032X1.3032*%
G04:AMPARAMS|DCode=62|XSize=0.5232mm|YSize=1.2032mm|CornerRadius=0mm|HoleSize=0mm|Usage=FLASHONLY|Rotation=315.000|XOffset=0mm|YOffset=0mm|HoleType=Round|Shape=Rectangle|*
%AMROTATEDRECTD62*
4,1,4,-0.6104,-0.2404,0.2404,0.6104,0.6104,0.2404,-0.2404,-0.6104,-0.6104,-0.2404,0.0*
%
%ADD62ROTATEDRECTD62*%

G04:AMPARAMS|DCode=63|XSize=0.5232mm|YSize=1.2032mm|CornerRadius=0mm|HoleSize=0mm|Usage=FLASHONLY|Rotation=225.000|XOffset=0mm|YOffset=0mm|HoleType=Round|Shape=Rectangle|*
%AMROTATEDRECTD63*
4,1,4,-0.2404,0.6104,0.6104,-0.2404,0.2404,-0.6104,-0.6104,0.2404,-0.2404,0.6104,0.0*
%
%ADD63ROTATEDRECTD63*%

G04:AMPARAMS|DCode=64|XSize=1.8532mm|YSize=0.8032mm|CornerRadius=0.1616mm|HoleSize=0mm|Usage=FLASHONLY|Rotation=0.000|XOffset=0mm|YOffset=0mm|HoleType=Round|Shape=RoundedRectangle|*
%AMROUNDEDRECTD64*
21,1,1.8532,0.4800,0,0,0.0*
21,1,1.5300,0.8032,0,0,0.0*
1,1,0.3232,0.7650,-0.2400*
1,1,0.3232,-0.7650,-0.2400*
1,1,0.3232,-0.7650,0.2400*
1,1,0.3232,0.7650,0.2400*
%
%ADD64ROUNDEDRECTD64*%
%ADD65R,2.1032X1.9532*%
%ADD66R,1.6032X0.6032*%
%ADD67R,1.6532X1.3532*%
%ADD68R,1.2032X0.6532*%
%ADD69R,1.6032X0.8032*%
%ADD70R,3.1232X1.4732*%
%ADD71O,1.3032X2.2032*%
%ADD72R,1.3032X2.2032*%
%ADD73C,0.9932*%
%ADD74R,1.7032X1.0532*%
G04:AMPARAMS|DCode=75|XSize=0.8032mm|YSize=1.3032mm|CornerRadius=0mm|HoleSize=0mm|Usage=FLASHONLY|Rotation=45.000|XOffset=0mm|YOffset=0mm|HoleType=Round|Shape=Rectangle|*
%AMROTATEDRECTD75*
4,1,4,0.1768,-0.7447,-0.7447,0.1768,-0.1768,0.7447,0.7447,-0.1768,0.1768,-0.7447,0.0*
%
%ADD75ROTATEDRECTD75*%

%ADD76R,1.2032X1.7032*%
%ADD77R,1.1032X1.2032*%
%ADD78R,1.3032X2.0032*%
%ADD79R,1.8032X3.7032*%
%ADD80R,1.8032X1.2032*%
G04:AMPARAMS|DCode=81|XSize=1.6032mm|YSize=1.4032mm|CornerRadius=0mm|HoleSize=0mm|Usage=FLASHONLY|Rotation=135.000|XOffset=0mm|YOffset=0mm|HoleType=Round|Shape=Rectangle|*
%AMROTATEDRECTD81*
4,1,4,1.0629,-0.0707,0.0707,-1.0629,-1.0629,0.0707,-0.0707,1.0629,1.0629,-0.0707,0.0*
%
%ADD81ROTATEDRECTD81*%

%ADD82C,0.2032*%
G04:AMPARAMS|DCode=83|XSize=2.1032mm|YSize=1.2532mm|CornerRadius=0.3641mm|HoleSize=0mm|Usage=FLASHONLY|Rotation=0.000|XOffset=0mm|YOffset=0mm|HoleType=Round|Shape=RoundedRectangle|*
%AMROUNDEDRECTD83*
21,1,2.1032,0.5250,0,0,0.0*
21,1,1.3750,1.2532,0,0,0.0*
1,1,0.7282,0.6875,-0.2625*
1,1,0.7282,-0.6875,-0.2625*
1,1,0.7282,-0.6875,0.2625*
1,1,0.7282,0.6875,0.2625*
%
%ADD83ROUNDEDRECTD83*%
%ADD84C,3.7032*%
%ADD85C,1.1032*%
G36*
X596291Y143000D02*
X591366D01*
Y147925D01*
X596291D01*
Y143000D01*
D02*
G37*
G36*
X579330Y168738D02*
X579626Y168701D01*
X579996Y168627D01*
X580367Y168553D01*
X580811Y168442D01*
X581292Y168294D01*
X581737Y168109D01*
X582218Y167923D01*
X582700Y167664D01*
X583181Y167331D01*
X583663Y166998D01*
X584107Y166590D01*
X584514Y166109D01*
X584552Y166072D01*
X584626Y165961D01*
X584737Y165775D01*
X584922Y165516D01*
X585107Y165146D01*
X585329Y164701D01*
X585551Y164220D01*
X585774Y163591D01*
X585996Y162924D01*
X586255Y162146D01*
X586440Y161294D01*
X586625Y160331D01*
X586810Y159295D01*
X586922Y158184D01*
X586996Y156961D01*
X587033Y155628D01*
Y155591D01*
Y155554D01*
Y155443D01*
Y155295D01*
Y154925D01*
X586996Y154443D01*
X586959Y153851D01*
X586885Y153147D01*
X586810Y152406D01*
X586736Y151592D01*
X586588Y150740D01*
X586403Y149851D01*
X586218Y148999D01*
X585959Y148148D01*
X585700Y147296D01*
X585329Y146518D01*
X584959Y145778D01*
X584514Y145148D01*
X584477Y145111D01*
X584403Y145037D01*
X584292Y144889D01*
X584144Y144741D01*
X583922Y144555D01*
X583663Y144333D01*
X583329Y144074D01*
X582996Y143852D01*
X582589Y143593D01*
X582181Y143333D01*
X581700Y143111D01*
X581181Y142926D01*
X580626Y142778D01*
X579996Y142630D01*
X579367Y142556D01*
X578700Y142519D01*
X578552D01*
X578330Y142556D01*
X578071D01*
X577774Y142593D01*
X577404Y142667D01*
X576997Y142741D01*
X576552Y142889D01*
X576071Y143037D01*
X575589Y143222D01*
X575071Y143444D01*
X574590Y143741D01*
X574071Y144037D01*
X573590Y144444D01*
X573108Y144852D01*
X572664Y145370D01*
X572627Y145407D01*
X572553Y145518D01*
X572442Y145703D01*
X572331Y145926D01*
X572145Y146259D01*
X571960Y146666D01*
X571738Y147185D01*
X571553Y147740D01*
X571331Y148407D01*
X571108Y149148D01*
X570923Y149999D01*
X570775Y150925D01*
X570627Y151962D01*
X570516Y153110D01*
X570442Y154332D01*
X570405Y155665D01*
Y155702D01*
Y155739D01*
Y155850D01*
Y155999D01*
Y156369D01*
X570442Y156850D01*
X570479Y157443D01*
X570553Y158147D01*
X570627Y158887D01*
X570701Y159702D01*
X570849Y160554D01*
X570997Y161406D01*
X571219Y162294D01*
X571442Y163146D01*
X571738Y163961D01*
X572071Y164739D01*
X572442Y165479D01*
X572886Y166109D01*
X572923Y166146D01*
X572997Y166220D01*
X573108Y166368D01*
X573293Y166516D01*
X573479Y166738D01*
X573738Y166961D01*
X574071Y167183D01*
X574404Y167442D01*
X574812Y167701D01*
X575219Y167923D01*
X575700Y168146D01*
X576219Y168368D01*
X576774Y168516D01*
X577404Y168664D01*
X578034Y168738D01*
X578700Y168775D01*
X579071D01*
X579330Y168738D01*
D02*
G37*
G36*
X609364D02*
X609697Y168701D01*
X610067Y168664D01*
X610475Y168590D01*
X610919Y168516D01*
X611882Y168257D01*
X612845Y167886D01*
X613363Y167664D01*
X613808Y167405D01*
X614289Y167072D01*
X614697Y166701D01*
X614734Y166664D01*
X614808Y166627D01*
X614882Y166479D01*
X615030Y166331D01*
X615215Y166146D01*
X615400Y165886D01*
X615585Y165627D01*
X615807Y165294D01*
X616178Y164553D01*
X616548Y163702D01*
X616696Y163220D01*
X616770Y162702D01*
X616844Y162146D01*
X616881Y161591D01*
Y161517D01*
Y161294D01*
X616844Y160961D01*
X616807Y160554D01*
X616733Y160035D01*
X616622Y159480D01*
X616474Y158887D01*
X616252Y158295D01*
X616215Y158221D01*
X616141Y158035D01*
X615993Y157702D01*
X615770Y157295D01*
X615511Y156813D01*
X615178Y156258D01*
X614771Y155665D01*
X614289Y155036D01*
X614252Y154999D01*
X614104Y154814D01*
X613882Y154554D01*
X613549Y154184D01*
X613104Y153740D01*
X612549Y153147D01*
X611882Y152517D01*
X611067Y151740D01*
X611030Y151703D01*
X610956Y151666D01*
X610845Y151555D01*
X610697Y151406D01*
X610289Y151036D01*
X609808Y150592D01*
X609327Y150110D01*
X608845Y149629D01*
X608401Y149222D01*
X608253Y149036D01*
X608105Y148888D01*
X608068Y148851D01*
X607994Y148777D01*
X607882Y148629D01*
X607734Y148444D01*
X607401Y148036D01*
X607105Y147555D01*
X616881D01*
Y143000D01*
X599661D01*
Y143037D01*
Y143111D01*
X599698Y143259D01*
X599735Y143444D01*
X599772Y143667D01*
X599809Y143926D01*
X599957Y144592D01*
X600179Y145333D01*
X600476Y146148D01*
X600846Y147037D01*
X601328Y147888D01*
Y147925D01*
X601402Y147999D01*
X601476Y148148D01*
X601624Y148296D01*
X601772Y148555D01*
X601994Y148814D01*
X602253Y149148D01*
X602550Y149518D01*
X602883Y149962D01*
X603290Y150407D01*
X603735Y150925D01*
X604253Y151481D01*
X604809Y152036D01*
X605438Y152666D01*
X606105Y153332D01*
X606845Y154036D01*
X606883Y154073D01*
X606994Y154184D01*
X607142Y154332D01*
X607364Y154554D01*
X607660Y154777D01*
X607956Y155073D01*
X608623Y155739D01*
X609290Y156443D01*
X609956Y157147D01*
X610252Y157443D01*
X610549Y157776D01*
X610771Y158035D01*
X610919Y158258D01*
X610956Y158332D01*
X611067Y158517D01*
X611252Y158813D01*
X611438Y159221D01*
X611623Y159665D01*
X611808Y160183D01*
X611919Y160702D01*
X611956Y161257D01*
Y161294D01*
Y161331D01*
Y161517D01*
X611919Y161850D01*
X611845Y162220D01*
X611734Y162628D01*
X611586Y163035D01*
X611363Y163442D01*
X611067Y163813D01*
X611030Y163850D01*
X610919Y163961D01*
X610697Y164109D01*
X610438Y164257D01*
X610067Y164405D01*
X609660Y164553D01*
X609179Y164664D01*
X608623Y164701D01*
X608364D01*
X608068Y164664D01*
X607734Y164590D01*
X607327Y164479D01*
X606920Y164294D01*
X606512Y164072D01*
X606142Y163776D01*
X606105Y163739D01*
X605994Y163591D01*
X605845Y163368D01*
X605697Y163035D01*
X605512Y162628D01*
X605364Y162072D01*
X605216Y161443D01*
X605142Y160702D01*
X600253Y161183D01*
Y161220D01*
X600291Y161369D01*
Y161554D01*
X600365Y161850D01*
X600402Y162183D01*
X600513Y162554D01*
X600624Y162961D01*
X600735Y163442D01*
X601105Y164368D01*
X601550Y165331D01*
X601846Y165812D01*
X602179Y166257D01*
X602550Y166627D01*
X602957Y166998D01*
X602994Y167034D01*
X603068Y167072D01*
X603179Y167146D01*
X603364Y167294D01*
X603587Y167405D01*
X603883Y167553D01*
X604179Y167738D01*
X604549Y167886D01*
X604957Y168071D01*
X605401Y168220D01*
X606364Y168516D01*
X607512Y168701D01*
X608105Y168738D01*
X608734Y168775D01*
X609104D01*
X609364Y168738D01*
D02*
G37*
G36*
X559776Y143000D02*
X554184D01*
X545000Y168627D01*
X550592D01*
X557110Y149666D01*
X563368Y168627D01*
X568886D01*
X559776Y143000D01*
D02*
G37*
%LPC*%
G36*
X578700Y164701D02*
X578552D01*
X578367Y164664D01*
X578182Y164627D01*
X577923Y164553D01*
X577663Y164442D01*
X577367Y164294D01*
X577108Y164109D01*
X577071Y164072D01*
X576997Y163998D01*
X576886Y163850D01*
X576738Y163664D01*
X576552Y163368D01*
X576404Y163035D01*
X576219Y162591D01*
X576071Y162072D01*
Y162035D01*
X576034Y161998D01*
Y161850D01*
X575997Y161702D01*
X575960Y161480D01*
X575923Y161220D01*
X575886Y160924D01*
X575849Y160554D01*
X575775Y160109D01*
X575738Y159665D01*
X575700Y159109D01*
X575663Y158554D01*
X575626Y157887D01*
Y157221D01*
X575589Y156443D01*
Y155628D01*
Y155591D01*
Y155443D01*
Y155184D01*
Y154888D01*
Y154517D01*
X575626Y154110D01*
Y153629D01*
X575663Y153147D01*
X575700Y152110D01*
X575775Y151073D01*
X575812Y150592D01*
X575886Y150147D01*
X575960Y149740D01*
X576034Y149370D01*
X576071Y149296D01*
X576108Y149110D01*
X576219Y148814D01*
X576330Y148481D01*
X576515Y148111D01*
X576700Y147740D01*
X576923Y147407D01*
X577145Y147148D01*
X577182Y147111D01*
X577256Y147074D01*
X577404Y146962D01*
X577589Y146889D01*
X577811Y146777D01*
X578071Y146666D01*
X578367Y146629D01*
X578700Y146592D01*
X578848D01*
X579034Y146629D01*
X579219Y146666D01*
X579478Y146740D01*
X579737Y146814D01*
X579996Y146962D01*
X580256Y147148D01*
X580293Y147185D01*
X580367Y147259D01*
X580515Y147407D01*
X580663Y147629D01*
X580811Y147888D01*
X580996Y148259D01*
X581181Y148666D01*
X581330Y149185D01*
Y149222D01*
X581367Y149259D01*
Y149407D01*
X581404Y149555D01*
X581441Y149777D01*
X581478Y150036D01*
X581552Y150333D01*
X581589Y150703D01*
X581626Y151110D01*
X581700Y151592D01*
X581737Y152110D01*
X581774Y152703D01*
X581811Y153332D01*
Y154036D01*
X581848Y154814D01*
Y155628D01*
Y155665D01*
Y155814D01*
Y156073D01*
Y156369D01*
Y156739D01*
X581811Y157147D01*
Y157628D01*
X581774Y158110D01*
X581737Y159146D01*
X581663Y160146D01*
X581589Y160628D01*
X581515Y161109D01*
X581441Y161517D01*
X581367Y161850D01*
Y161887D01*
X581330Y161924D01*
X581292Y162109D01*
X581181Y162405D01*
X581070Y162776D01*
X580885Y163146D01*
X580700Y163516D01*
X580478Y163850D01*
X580256Y164109D01*
X580219Y164146D01*
X580145Y164220D01*
X579996Y164294D01*
X579811Y164405D01*
X579589Y164516D01*
X579330Y164627D01*
X579034Y164664D01*
X578700Y164701D01*
D02*
G37*
%LPD*%
D54*
X230464Y52536D02*
D03*
X237535Y45465D02*
D03*
X256465Y27536D02*
D03*
X263535Y20464D02*
D03*
X172465Y-56465D02*
D03*
X179536Y-63535D02*
D03*
X140464Y54535D02*
D03*
X147535Y47464D02*
D03*
X148464Y62536D02*
D03*
X155535Y55465D02*
D03*
X132465Y46536D02*
D03*
X139536Y39464D02*
D03*
X156465Y70535D02*
D03*
X163535Y63464D02*
D03*
D55*
X143535Y27536D02*
D03*
X136465Y20464D02*
D03*
X256465Y-27536D02*
D03*
X263535Y-20464D02*
D03*
X256535Y83535D02*
D03*
X249464Y76465D02*
D03*
X287465Y39464D02*
D03*
X294536Y46536D02*
D03*
D56*
X195000Y64000D02*
D03*
X205000D02*
D03*
Y75000D02*
D03*
X195000D02*
D03*
X251000Y-107000D02*
D03*
X241000D02*
D03*
X665000Y112000D02*
D03*
X655000D02*
D03*
D57*
X330000Y-21500D02*
D03*
Y-4500D02*
D03*
X310000Y-21500D02*
D03*
Y-4500D02*
D03*
Y-55500D02*
D03*
Y-38500D02*
D03*
X330000Y-55500D02*
D03*
Y-38500D02*
D03*
X470000Y59500D02*
D03*
Y42500D02*
D03*
X486000Y59500D02*
D03*
Y42500D02*
D03*
Y-58500D02*
D03*
Y-41500D02*
D03*
X522000Y11500D02*
D03*
Y-5500D02*
D03*
Y-41500D02*
D03*
Y-24500D02*
D03*
X470000Y-58500D02*
D03*
Y-41500D02*
D03*
X55000Y26500D02*
D03*
Y43500D02*
D03*
Y-43500D02*
D03*
Y-26500D02*
D03*
X504000Y11500D02*
D03*
Y-5500D02*
D03*
Y-41500D02*
D03*
Y-24500D02*
D03*
D58*
X521500Y29000D02*
D03*
X504500D02*
D03*
X504500Y97000D02*
D03*
X521500D02*
D03*
X521500Y-59000D02*
D03*
X504500D02*
D03*
X88500Y43000D02*
D03*
X71500D02*
D03*
X504500Y59000D02*
D03*
X521500D02*
D03*
X521500Y113000D02*
D03*
X504500D02*
D03*
X521500Y81000D02*
D03*
X504500D02*
D03*
X469500D02*
D03*
X486500D02*
D03*
D59*
X143750Y125000D02*
D03*
X126250D02*
D03*
X143750Y155000D02*
D03*
X126250D02*
D03*
X256250Y125000D02*
D03*
X273750D02*
D03*
X256250Y155000D02*
D03*
X273750D02*
D03*
X565750Y-175000D02*
D03*
X548250D02*
D03*
D60*
X130425Y-50425D02*
D03*
X108858Y-42293D02*
D03*
X122293Y-28858D02*
D03*
D61*
X105000Y79500D02*
D03*
Y100500D02*
D03*
X135000Y79500D02*
D03*
Y100500D02*
D03*
D62*
X249568Y10677D02*
D03*
X246033Y14213D02*
D03*
X242497Y17748D02*
D03*
X238962Y21284D02*
D03*
X235426Y24820D02*
D03*
X231891Y28355D02*
D03*
X228355Y31890D02*
D03*
X224820Y35426D02*
D03*
X221284Y38962D02*
D03*
X217748Y42497D02*
D03*
X214213Y46033D02*
D03*
X210677Y49568D02*
D03*
X150432Y-10677D02*
D03*
X153967Y-14213D02*
D03*
X157503Y-17748D02*
D03*
X161038Y-21284D02*
D03*
X164574Y-24820D02*
D03*
X168109Y-28355D02*
D03*
X171645Y-31890D02*
D03*
X175180Y-35426D02*
D03*
X178716Y-38962D02*
D03*
X182252Y-42497D02*
D03*
X185787Y-46033D02*
D03*
X189323Y-49568D02*
D03*
D63*
Y49568D02*
D03*
X185787Y46033D02*
D03*
X182252Y42497D02*
D03*
X178716Y38962D02*
D03*
X175180Y35426D02*
D03*
X171645Y31890D02*
D03*
X168109Y28355D02*
D03*
X164574Y24820D02*
D03*
X161038Y21284D02*
D03*
X157503Y17748D02*
D03*
X153967Y14213D02*
D03*
X150432Y10677D02*
D03*
X210677Y-49568D02*
D03*
X214213Y-46033D02*
D03*
X217748Y-42497D02*
D03*
X221284Y-38962D02*
D03*
X224820Y-35426D02*
D03*
X228355Y-31890D02*
D03*
X231891Y-28355D02*
D03*
X235426Y-24820D02*
D03*
X238962Y-21284D02*
D03*
X242497Y-17748D02*
D03*
X246033Y-14213D02*
D03*
X249568Y-10677D02*
D03*
D64*
X448750Y57150D02*
D03*
Y-57150D02*
D03*
X351250D02*
D03*
Y-44450D02*
D03*
Y19050D02*
D03*
Y31750D02*
D03*
Y44450D02*
D03*
Y57150D02*
D03*
Y-31750D02*
D03*
Y-19050D02*
D03*
Y-6350D02*
D03*
Y6350D02*
D03*
X448750D02*
D03*
Y19050D02*
D03*
Y31750D02*
D03*
Y44450D02*
D03*
Y-44450D02*
D03*
Y-31750D02*
D03*
Y-19050D02*
D03*
Y-6350D02*
D03*
D65*
X12500Y-11250D02*
D03*
Y11250D02*
D03*
D66*
X39000Y0D02*
D03*
Y6500D02*
D03*
Y13000D02*
D03*
Y-6500D02*
D03*
Y-13000D02*
D03*
D67*
X34800Y23500D02*
D03*
Y-23500D02*
D03*
D68*
X200000Y-149500D02*
D03*
Y-100500D02*
D03*
D69*
X224000Y-143500D02*
D03*
Y-106500D02*
D03*
X176000D02*
D03*
Y-143500D02*
D03*
D70*
X651000Y-60000D02*
D03*
Y-30000D02*
D03*
Y0D02*
D03*
Y60000D02*
D03*
Y30000D02*
D03*
D71*
X544300Y-149000D02*
D03*
X569700D02*
D03*
X544300Y-61000D02*
D03*
D72*
X569700D02*
D03*
D73*
X104300Y-131350D02*
D03*
X103500Y-118650D02*
D03*
X117000Y-131350D02*
D03*
Y-118650D02*
D03*
X129700Y-131350D02*
D03*
Y-118650D02*
D03*
D74*
X592500Y-2500D02*
D03*
X541500D02*
D03*
Y-27500D02*
D03*
X592500D02*
D03*
D75*
X85990Y1081D02*
D03*
X78918Y-5990D02*
D03*
X105082Y-18010D02*
D03*
X98010Y-25082D02*
D03*
D76*
X50000Y-107500D02*
D03*
Y-72500D02*
D03*
Y72500D02*
D03*
Y107500D02*
D03*
X687000Y152500D02*
D03*
Y117500D02*
D03*
D77*
X55500Y-90000D02*
D03*
Y90000D02*
D03*
X681500Y135000D02*
D03*
D78*
X386500Y90000D02*
D03*
X413500D02*
D03*
D79*
X230000Y140000D02*
D03*
D80*
X170000Y117000D02*
D03*
Y140000D02*
D03*
Y163000D02*
D03*
D81*
X273768Y48211D02*
D03*
X285789Y60232D02*
D03*
X258211Y63768D02*
D03*
X270232Y75789D02*
D03*
D82*
X396000Y-120000D02*
D03*
D83*
X12500Y-35750D02*
D03*
Y35750D02*
D03*
D84*
X705700Y-81500D02*
D03*
Y81500D02*
D03*
D85*
X91600Y-114840D02*
D03*
Y-135160D02*
D03*
X142400Y-125000D02*
D03*
M02*
