G04 Layer_Physical_Order=2*
G04 Layer_Color=36540*
%FSLAX44Y44*%
%MOMM*%
G71*
G01*
G75*
G04:AMPARAMS|DCode=44|XSize=1.9mm|YSize=1.05mm|CornerRadius=0.2625mm|HoleSize=0mm|Usage=FLASHONLY|Rotation=0.000|XOffset=0mm|YOffset=0mm|HoleType=Round|Shape=RoundedRectangle|*
%AMROUNDEDRECTD44*
21,1,1.9000,0.5250,0,0,0.0*
21,1,1.3750,1.0500,0,0,0.0*
1,1,0.5250,0.6875,-0.2625*
1,1,0.5250,-0.6875,-0.2625*
1,1,0.5250,-0.6875,0.2625*
1,1,0.5250,0.6875,0.2625*
%
%ADD44ROUNDEDRECTD44*%
%ADD45C,3.5000*%
%ADD47C,0.6000*%
G36*
X337941Y205000D02*
X337931D01*
X338206Y202912D01*
X339012Y200965D01*
X340294Y199294D01*
X341965Y198012D01*
X343912Y197206D01*
X346000Y196931D01*
Y196941D01*
X350000D01*
Y185000D01*
X355000Y180000D01*
X370000D01*
Y-85000D01*
X370000D01*
X360000Y-95000D01*
Y-145000D01*
X370000Y-155000D01*
Y-180000D01*
X355000D01*
X350000Y-185000D01*
X350000Y-196941D01*
X346000D01*
Y-196931D01*
X343912Y-197206D01*
X341965Y-198012D01*
X340294Y-199294D01*
X339012Y-200965D01*
X338206Y-202912D01*
X337931Y-205000D01*
X337941D01*
Y-207441D01*
X294059D01*
Y-190000D01*
X294069D01*
X293794Y-187912D01*
X292988Y-185965D01*
X291706Y-184294D01*
X290035Y-183012D01*
X288088Y-182206D01*
X286000Y-181931D01*
Y-181941D01*
X286000Y-181941D01*
X14059D01*
Y-174000D01*
X14059Y-174000D01*
X14069D01*
X13794Y-171912D01*
X12988Y-169965D01*
X11706Y-168294D01*
X10035Y-167012D01*
X8088Y-166206D01*
X6000Y-165931D01*
Y-165941D01*
X6000Y-165941D01*
X3059D01*
Y-124059D01*
X6000D01*
Y-124069D01*
X8088Y-123794D01*
X10035Y-122988D01*
X11706Y-121706D01*
X12988Y-120035D01*
X13794Y-118088D01*
X14069Y-116000D01*
X14059D01*
Y-113059D01*
X30000D01*
Y-113069D01*
X32088Y-112794D01*
X34035Y-111988D01*
X35706Y-110706D01*
X36988Y-109035D01*
X37794Y-107088D01*
X38069Y-105000D01*
X38059D01*
Y-90000D01*
Y-75000D01*
X38069D01*
X37794Y-72912D01*
X36988Y-70965D01*
X35706Y-69294D01*
X34035Y-68012D01*
X32088Y-67206D01*
X30000Y-66931D01*
Y-66941D01*
X14059D01*
Y-50000D01*
X14069D01*
X13794Y-47912D01*
X12988Y-45965D01*
X11706Y-44294D01*
X10035Y-43012D01*
X8088Y-42206D01*
X6000Y-41931D01*
Y-41941D01*
X3000D01*
Y-41910D01*
X2269Y-41764D01*
X1650Y-41350D01*
X1236Y-40731D01*
X1090Y-40000D01*
X1059D01*
Y40000D01*
X1090D01*
X1236Y40731D01*
X1650Y41350D01*
X2269Y41764D01*
X3000Y41910D01*
Y41941D01*
X6000D01*
Y41931D01*
X8088Y42206D01*
X10035Y43012D01*
X11706Y44294D01*
X12988Y45965D01*
X13794Y47912D01*
X14069Y50000D01*
X14059D01*
Y66941D01*
X30000D01*
Y66931D01*
X32088Y67206D01*
X34035Y68012D01*
X35706Y69294D01*
X36988Y70965D01*
X37794Y72912D01*
X38069Y75000D01*
X38059D01*
Y90000D01*
Y105000D01*
X38069D01*
X37794Y107088D01*
X36988Y109035D01*
X35706Y110706D01*
X34035Y111988D01*
X32088Y112794D01*
X30000Y113069D01*
Y113059D01*
X14059D01*
Y116000D01*
X14069D01*
X13794Y118088D01*
X12988Y120035D01*
X11706Y121706D01*
X10035Y122988D01*
X8088Y123794D01*
X6000Y124069D01*
Y124059D01*
X6000Y124059D01*
X3059D01*
Y165941D01*
X6000D01*
X6000Y165941D01*
Y165931D01*
X8088Y166206D01*
X10035Y167012D01*
X11706Y168294D01*
X12988Y169965D01*
X13794Y171912D01*
X14069Y174000D01*
X14059D01*
X14059Y174000D01*
Y181941D01*
X286000D01*
Y181931D01*
X288088Y182206D01*
X290035Y183012D01*
X291706Y184294D01*
X292988Y185965D01*
X293794Y187912D01*
X294069Y190000D01*
X294059D01*
Y207441D01*
X337941D01*
Y205000D01*
D02*
G37*
G36*
X637941Y190000D02*
X637931D01*
X638206Y187912D01*
X639012Y185965D01*
X640294Y184294D01*
X641965Y183012D01*
X643912Y182206D01*
X646000Y181931D01*
Y181941D01*
X697941D01*
Y175000D01*
X697931D01*
X698206Y172912D01*
X699012Y170965D01*
X700294Y169294D01*
X701965Y168012D01*
X703912Y167206D01*
X706000Y166931D01*
Y166941D01*
X722941D01*
Y158059D01*
X707000D01*
Y158069D01*
X704912Y157794D01*
X702965Y156988D01*
X701294Y155706D01*
X700012Y154035D01*
X699206Y152088D01*
X698931Y150000D01*
X698941D01*
Y135000D01*
Y120000D01*
X698931D01*
X699206Y117912D01*
X700012Y115965D01*
X701294Y114294D01*
X702965Y113012D01*
X704912Y112206D01*
X707000Y111931D01*
Y111941D01*
X722941D01*
Y-166941D01*
X706000D01*
X706000Y-166941D01*
Y-166931D01*
X703912Y-167206D01*
X701965Y-168012D01*
X700294Y-169294D01*
X699012Y-170965D01*
X698206Y-172912D01*
X697931Y-175000D01*
X697941D01*
Y-181941D01*
X646000D01*
X646000Y-181941D01*
Y-181931D01*
X643912Y-182206D01*
X641965Y-183012D01*
X640294Y-184294D01*
X639012Y-185965D01*
X638206Y-187912D01*
X637931Y-190000D01*
X637941D01*
Y-207441D01*
X594059D01*
Y-205000D01*
X594059Y-205000D01*
X594069D01*
X593794Y-202912D01*
X592988Y-200965D01*
X591706Y-199294D01*
X590034Y-198012D01*
X588088Y-197206D01*
X586000Y-196931D01*
Y-196941D01*
X450000D01*
Y-185000D01*
X445000Y-180000D01*
X375000Y-180000D01*
Y-155000D01*
X425000D01*
X435000Y-145000D01*
Y-120000D01*
Y-95000D01*
X425000Y-85000D01*
X375000D01*
Y180000D01*
X445000D01*
X450000Y185000D01*
Y196941D01*
X586000D01*
Y196931D01*
X588088Y197206D01*
X590034Y198012D01*
X591706Y199294D01*
X592988Y200965D01*
X593794Y202912D01*
X594069Y205000D01*
X594059D01*
X594059Y205000D01*
Y207441D01*
X637941D01*
Y190000D01*
D02*
G37*
%LPC*%
G36*
X185000Y-63392D02*
X182854Y-63819D01*
X181035Y-65035D01*
X179819Y-66854D01*
X179392Y-69000D01*
X179819Y-71146D01*
X181035Y-72965D01*
X182854Y-74181D01*
X185000Y-74608D01*
X187146Y-74181D01*
X188965Y-72965D01*
X190181Y-71146D01*
X190608Y-69000D01*
X190181Y-66854D01*
X188965Y-65035D01*
X187146Y-63819D01*
X185000Y-63392D01*
D02*
G37*
G36*
X200000Y-19392D02*
X197854Y-19819D01*
X196035Y-21035D01*
X194819Y-22854D01*
X194392Y-25000D01*
X194819Y-27146D01*
X196035Y-28965D01*
X196633Y-29365D01*
Y-30635D01*
X196035Y-31035D01*
X194819Y-32854D01*
X194392Y-35000D01*
X194819Y-37146D01*
X196035Y-38965D01*
X197854Y-40181D01*
X200000Y-40608D01*
X202146Y-40181D01*
X203965Y-38965D01*
X205181Y-37146D01*
X205608Y-35000D01*
X205181Y-32854D01*
X203965Y-31035D01*
X203367Y-30635D01*
Y-29365D01*
X203965Y-28965D01*
X205181Y-27146D01*
X205608Y-25000D01*
X205181Y-22854D01*
X203965Y-21035D01*
X202146Y-19819D01*
X200000Y-19392D01*
D02*
G37*
G36*
X269000Y-9392D02*
X266854Y-9819D01*
X265035Y-11035D01*
X263819Y-12854D01*
X263392Y-15000D01*
X263819Y-17146D01*
X265035Y-18965D01*
X266854Y-20181D01*
X269000Y-20608D01*
X271146Y-20181D01*
X272965Y-18965D01*
X274181Y-17146D01*
X274608Y-15000D01*
X274181Y-12854D01*
X272965Y-11035D01*
X271146Y-9819D01*
X269000Y-9392D01*
D02*
G37*
G36*
X233000Y608D02*
X230854Y181D01*
X229035Y-1035D01*
X227819Y-2854D01*
X227392Y-5000D01*
X227515Y-5617D01*
X226617Y-6515D01*
X226000Y-6392D01*
X223854Y-6819D01*
X222035Y-8035D01*
X220819Y-9854D01*
X220392Y-12000D01*
X220819Y-14146D01*
X222035Y-15965D01*
X223854Y-17181D01*
X226000Y-17608D01*
X228146Y-17181D01*
X229965Y-15965D01*
X231181Y-14146D01*
X231608Y-12000D01*
X231485Y-11383D01*
X232383Y-10485D01*
X233000Y-10608D01*
X235146Y-10181D01*
X236965Y-8965D01*
X238181Y-7146D01*
X238608Y-5000D01*
X238181Y-2854D01*
X236965Y-1035D01*
X235146Y181D01*
X233000Y608D01*
D02*
G37*
G36*
X300000Y-32392D02*
X297854Y-32819D01*
X296035Y-34035D01*
X295965D01*
X294146Y-32819D01*
X292000Y-32392D01*
X289854Y-32819D01*
X288035Y-34035D01*
X286819Y-35854D01*
X286392Y-38000D01*
X286819Y-40146D01*
X288035Y-41965D01*
X289854Y-43181D01*
X292000Y-43608D01*
X294146Y-43181D01*
X295965Y-41965D01*
X296035D01*
X297854Y-43181D01*
X300000Y-43608D01*
X302146Y-43181D01*
X303965Y-41965D01*
X305181Y-40146D01*
X305608Y-38000D01*
X305181Y-35854D01*
X303965Y-34035D01*
X302146Y-32819D01*
X300000Y-32392D01*
D02*
G37*
G36*
X91600Y-127620D02*
X89649Y-127877D01*
X87830Y-128631D01*
X86269Y-129829D01*
X85071Y-131390D01*
X84317Y-133209D01*
X84060Y-135160D01*
X84317Y-137111D01*
X85071Y-138930D01*
X86269Y-140491D01*
X87830Y-141689D01*
X89649Y-142443D01*
X91600Y-142699D01*
X93551Y-142443D01*
X95370Y-141689D01*
X96931Y-140491D01*
X98129Y-138930D01*
X98883Y-137111D01*
X99139Y-135160D01*
X98883Y-133209D01*
X98129Y-131390D01*
X96931Y-129829D01*
X95370Y-128631D01*
X93551Y-127877D01*
X91600Y-127620D01*
D02*
G37*
G36*
X240000Y-121392D02*
X237854Y-121819D01*
X236035Y-123035D01*
X234819Y-124854D01*
X234392Y-127000D01*
X234819Y-129146D01*
X235361Y-129957D01*
X236013Y-131000D01*
X235361Y-132043D01*
X234819Y-132854D01*
X234392Y-135000D01*
X234819Y-137146D01*
X236035Y-138965D01*
X237854Y-140181D01*
X240000Y-140608D01*
X242146Y-140181D01*
X243965Y-138965D01*
X245181Y-137146D01*
X245608Y-135000D01*
X245181Y-132854D01*
X244639Y-132043D01*
X243987Y-131000D01*
X244639Y-129957D01*
X245181Y-129146D01*
X245608Y-127000D01*
X245181Y-124854D01*
X243965Y-123035D01*
X242146Y-121819D01*
X240000Y-121392D01*
D02*
G37*
G36*
X117000Y-144392D02*
X114854Y-144819D01*
X113035Y-146035D01*
X111819Y-147854D01*
X111392Y-150000D01*
X111819Y-152146D01*
X113035Y-153965D01*
X114854Y-155181D01*
X117000Y-155608D01*
X119146Y-155181D01*
X120965Y-153965D01*
X122181Y-152146D01*
X122608Y-150000D01*
X122181Y-147854D01*
X120965Y-146035D01*
X119146Y-144819D01*
X117000Y-144392D01*
D02*
G37*
G36*
X130000D02*
X127854Y-144819D01*
X126035Y-146035D01*
X124819Y-147854D01*
X124392Y-150000D01*
X124819Y-152146D01*
X126035Y-153965D01*
X127854Y-155181D01*
X130000Y-155608D01*
X132146Y-155181D01*
X133965Y-153965D01*
X135181Y-152146D01*
X135608Y-150000D01*
X135181Y-147854D01*
X133965Y-146035D01*
X132146Y-144819D01*
X130000Y-144392D01*
D02*
G37*
G36*
X142400Y-117460D02*
X140449Y-117717D01*
X138630Y-118471D01*
X137069Y-119669D01*
X135871Y-121230D01*
X135117Y-123049D01*
X134860Y-125000D01*
X135117Y-126951D01*
X135871Y-128770D01*
X137069Y-130331D01*
X138630Y-131529D01*
X140449Y-132283D01*
X142400Y-132540D01*
X144351Y-132283D01*
X146170Y-131529D01*
X147731Y-130331D01*
X148929Y-128770D01*
X149683Y-126951D01*
X149939Y-125000D01*
X149683Y-123049D01*
X148929Y-121230D01*
X147731Y-119669D01*
X146170Y-118471D01*
X144351Y-117717D01*
X142400Y-117460D01*
D02*
G37*
G36*
X130000Y-94232D02*
X127854Y-94659D01*
X126035Y-95875D01*
X124819Y-97694D01*
X124392Y-99840D01*
X124819Y-101986D01*
X126035Y-103805D01*
X127854Y-105021D01*
X130000Y-105448D01*
X132146Y-105021D01*
X133965Y-103805D01*
X135181Y-101986D01*
X135608Y-99840D01*
X135181Y-97694D01*
X133965Y-95875D01*
X132146Y-94659D01*
X130000Y-94232D01*
D02*
G37*
G36*
X61000Y-66392D02*
X58854Y-66819D01*
X57035Y-68035D01*
X55819Y-69854D01*
X55392Y-72000D01*
X55819Y-74146D01*
X57035Y-75965D01*
X58854Y-77181D01*
X61000Y-77608D01*
X63146Y-77181D01*
X64965Y-75965D01*
X66181Y-74146D01*
X66608Y-72000D01*
X66181Y-69854D01*
X64965Y-68035D01*
X63146Y-66819D01*
X61000Y-66392D01*
D02*
G37*
G36*
X91600Y-107301D02*
X89649Y-107557D01*
X87830Y-108311D01*
X86269Y-109509D01*
X85071Y-111070D01*
X84317Y-112889D01*
X84060Y-114840D01*
X84317Y-116791D01*
X85071Y-118610D01*
X86269Y-120171D01*
X87830Y-121369D01*
X89649Y-122123D01*
X91600Y-122380D01*
X93551Y-122123D01*
X95370Y-121369D01*
X96931Y-120171D01*
X98129Y-118610D01*
X98883Y-116791D01*
X99139Y-114840D01*
X98883Y-112889D01*
X98129Y-111070D01*
X96931Y-109509D01*
X95370Y-108311D01*
X93551Y-107557D01*
X91600Y-107301D01*
D02*
G37*
G36*
X117000Y-94392D02*
X114854Y-94819D01*
X113035Y-96035D01*
X111819Y-97854D01*
X111392Y-100000D01*
X111819Y-102146D01*
X113035Y-103965D01*
X114854Y-105181D01*
X117000Y-105608D01*
X119146Y-105181D01*
X120965Y-103965D01*
X122181Y-102146D01*
X122608Y-100000D01*
X122181Y-97854D01*
X120965Y-96035D01*
X119146Y-94819D01*
X117000Y-94392D01*
D02*
G37*
G36*
X300000Y608D02*
X297854Y181D01*
X296035Y-1035D01*
X295965D01*
X294146Y181D01*
X292000Y608D01*
X289854Y181D01*
X288035Y-1035D01*
X286819Y-2854D01*
X286392Y-5000D01*
X286819Y-7146D01*
X288035Y-8965D01*
X289854Y-10181D01*
X292000Y-10608D01*
X294146Y-10181D01*
X295965Y-8965D01*
X296035D01*
X297854Y-10181D01*
X300000Y-10608D01*
X302146Y-10181D01*
X303965Y-8965D01*
X305181Y-7146D01*
X305608Y-5000D01*
X305181Y-2854D01*
X303965Y-1035D01*
X302146Y181D01*
X300000Y608D01*
D02*
G37*
G36*
X125000Y73608D02*
X122854Y73181D01*
X121035Y71965D01*
X120635Y71367D01*
X119365D01*
X118965Y71965D01*
X117146Y73181D01*
X115000Y73608D01*
X112854Y73181D01*
X111035Y71965D01*
X109819Y70146D01*
X109392Y68000D01*
X109819Y65854D01*
X111035Y64035D01*
X112854Y62819D01*
X115000Y62392D01*
X117146Y62819D01*
X118965Y64035D01*
X119365Y64633D01*
X120635D01*
X121035Y64035D01*
X122854Y62819D01*
X125000Y62392D01*
X127146Y62819D01*
X128965Y64035D01*
X130181Y65854D01*
X130608Y68000D01*
X130181Y70146D01*
X128965Y71965D01*
X127146Y73181D01*
X125000Y73608D01*
D02*
G37*
G36*
X188000Y80608D02*
X185854Y80181D01*
X184035Y78965D01*
X182819Y77146D01*
X182392Y75000D01*
X182819Y72854D01*
X184035Y71035D01*
X185854Y69819D01*
X188000Y69392D01*
X190146Y69819D01*
X191965Y71035D01*
X193181Y72854D01*
X193608Y75000D01*
X193181Y77146D01*
X191965Y78965D01*
X190146Y80181D01*
X188000Y80608D01*
D02*
G37*
G36*
X213000D02*
X210854Y80181D01*
X209035Y78965D01*
X207819Y77146D01*
X207392Y75000D01*
X207819Y72854D01*
X209035Y71035D01*
X210854Y69819D01*
X213000Y69392D01*
X215146Y69819D01*
X216965Y71035D01*
X218181Y72854D01*
X218608Y75000D01*
X218181Y77146D01*
X216965Y78965D01*
X215146Y80181D01*
X213000Y80608D01*
D02*
G37*
G36*
X243000Y161608D02*
X240854Y161181D01*
X239035Y159965D01*
X237819Y158146D01*
X237392Y156000D01*
X237819Y153854D01*
X239035Y152035D01*
Y151965D01*
X237819Y150146D01*
X237392Y148000D01*
X237819Y145854D01*
X238361Y145043D01*
X239013Y144000D01*
X238361Y142957D01*
X237819Y142146D01*
X237392Y140000D01*
X237819Y137854D01*
X238361Y137043D01*
X239013Y136000D01*
X238361Y134957D01*
X237819Y134146D01*
X237392Y132000D01*
X237819Y129854D01*
X239035Y128035D01*
Y127965D01*
X237819Y126146D01*
X237392Y124000D01*
X237819Y121854D01*
X239035Y120035D01*
X240854Y118819D01*
X243000Y118392D01*
X245146Y118819D01*
X246965Y120035D01*
X248181Y121854D01*
X248608Y124000D01*
X248181Y126146D01*
X246965Y127965D01*
Y128035D01*
X248181Y129854D01*
X248608Y132000D01*
X248262Y133741D01*
X248368Y133935D01*
X249065Y134632D01*
X249259Y134739D01*
X251000Y134392D01*
X253146Y134819D01*
X254649Y135823D01*
X255500Y135953D01*
X256351Y135823D01*
X257854Y134819D01*
X260000Y134392D01*
X262146Y134819D01*
X263965Y136035D01*
X265181Y137854D01*
X265608Y140000D01*
X265181Y142146D01*
X263965Y143965D01*
X262146Y145181D01*
X260000Y145608D01*
X257854Y145181D01*
X256351Y144177D01*
X255500Y144047D01*
X254649Y144177D01*
X253146Y145181D01*
X251000Y145608D01*
X249259Y145261D01*
X249065Y145368D01*
X248368Y146065D01*
X248262Y146259D01*
X248608Y148000D01*
X248181Y150146D01*
X246965Y151965D01*
Y152035D01*
X248181Y153854D01*
X248608Y156000D01*
X248181Y158146D01*
X246965Y159965D01*
X245146Y161181D01*
X243000Y161608D01*
D02*
G37*
G36*
X144000Y145608D02*
X141854Y145181D01*
X140351Y144177D01*
X139500Y144047D01*
X138649Y144177D01*
X137146Y145181D01*
X135000Y145608D01*
X132854Y145181D01*
X131035Y143965D01*
X129819Y142146D01*
X129392Y140000D01*
X129819Y137854D01*
X131035Y136035D01*
X132854Y134819D01*
X135000Y134392D01*
X137146Y134819D01*
X138649Y135823D01*
X139500Y135953D01*
X140351Y135823D01*
X141854Y134819D01*
X144000Y134392D01*
X146146Y134819D01*
X147965Y136035D01*
X149181Y137854D01*
X149608Y140000D01*
X149181Y142146D01*
X147965Y143965D01*
X146146Y145181D01*
X144000Y145608D01*
D02*
G37*
G36*
X50000Y125608D02*
X47854Y125181D01*
X46035Y123965D01*
X44819Y122146D01*
X44392Y120000D01*
X44819Y117854D01*
X46035Y116035D01*
X47854Y114819D01*
X50000Y114392D01*
X52146Y114819D01*
X53965Y116035D01*
X55181Y117854D01*
X55608Y120000D01*
X55181Y122146D01*
X53965Y123965D01*
X52146Y125181D01*
X50000Y125608D01*
D02*
G37*
G36*
X217000Y161608D02*
X214854Y161181D01*
X213035Y159965D01*
X211819Y158146D01*
X211392Y156000D01*
X211819Y153854D01*
X212361Y153043D01*
X213013Y152000D01*
X212361Y150957D01*
X211819Y150146D01*
X211392Y148000D01*
X211819Y145854D01*
X212361Y145043D01*
X213013Y144000D01*
X212361Y142957D01*
X211819Y142146D01*
X211392Y140000D01*
X211819Y137854D01*
X212361Y137043D01*
X213013Y136000D01*
X212361Y134957D01*
X211819Y134146D01*
X211392Y132000D01*
X211819Y129854D01*
X213035Y128035D01*
Y127965D01*
X211819Y126146D01*
X211392Y124000D01*
X211819Y121854D01*
X213035Y120035D01*
X214854Y118819D01*
X217000Y118392D01*
X219146Y118819D01*
X220965Y120035D01*
X222181Y121854D01*
X222608Y124000D01*
X222181Y126146D01*
X220965Y127965D01*
Y128035D01*
X222181Y129854D01*
X222608Y132000D01*
X222181Y134146D01*
X221639Y134957D01*
X220987Y136000D01*
X221639Y137043D01*
X222181Y137854D01*
X222608Y140000D01*
X222181Y142146D01*
X221639Y142957D01*
X220987Y144000D01*
X221639Y145043D01*
X222181Y145854D01*
X222608Y148000D01*
X222181Y150146D01*
X221639Y150957D01*
X220987Y152000D01*
X221639Y153043D01*
X222181Y153854D01*
X222608Y156000D01*
X222181Y158146D01*
X220965Y159965D01*
X219146Y161181D01*
X217000Y161608D01*
D02*
G37*
G36*
X269000Y20608D02*
X266854Y20181D01*
X265035Y18965D01*
X263819Y17146D01*
X263392Y15000D01*
X263819Y12854D01*
X265035Y11035D01*
X266854Y9819D01*
X269000Y9392D01*
X271146Y9819D01*
X272965Y11035D01*
X274181Y12854D01*
X274608Y15000D01*
X274181Y17146D01*
X272965Y18965D01*
X271146Y20181D01*
X269000Y20608D01*
D02*
G37*
G36*
X216000Y25608D02*
X213854Y25181D01*
X212035Y23965D01*
X210819Y22146D01*
X210392Y20000D01*
X210819Y17854D01*
X212035Y16035D01*
X213854Y14819D01*
X216000Y14392D01*
X218146Y14819D01*
X219965Y16035D01*
X221181Y17854D01*
X221608Y20000D01*
X221181Y22146D01*
X219965Y23965D01*
X218146Y25181D01*
X216000Y25608D01*
D02*
G37*
G36*
X290000Y22608D02*
X287854Y22181D01*
X286035Y20965D01*
X284819Y19146D01*
X284392Y17000D01*
X284819Y14854D01*
X286035Y13035D01*
Y11965D01*
X284819Y10146D01*
X284392Y8000D01*
X284819Y5854D01*
X286035Y4035D01*
X287854Y2819D01*
X290000Y2392D01*
X292146Y2819D01*
X293965Y4035D01*
X295181Y5854D01*
X295608Y8000D01*
X295181Y10146D01*
X293965Y11965D01*
Y13035D01*
X295181Y14854D01*
X295608Y17000D01*
X295181Y19146D01*
X293965Y20965D01*
X292146Y22181D01*
X290000Y22608D01*
D02*
G37*
G36*
X131000Y20608D02*
X128854Y20181D01*
X127035Y18965D01*
X125819Y17146D01*
X125392Y15000D01*
X125819Y12854D01*
X127035Y11035D01*
X128854Y9819D01*
X131000Y9392D01*
X133146Y9819D01*
X134965Y11035D01*
X136181Y12854D01*
X136608Y15000D01*
X136181Y17146D01*
X134965Y18965D01*
X133146Y20181D01*
X131000Y20608D01*
D02*
G37*
G36*
X169000Y63608D02*
X166854Y63181D01*
X165035Y61965D01*
X163819Y60146D01*
X163392Y58000D01*
X163819Y55854D01*
X165035Y54035D01*
X166854Y52819D01*
X169000Y52392D01*
X171146Y52819D01*
X172965Y54035D01*
X174181Y55854D01*
X174608Y58000D01*
X174181Y60146D01*
X172965Y61965D01*
X171146Y63181D01*
X169000Y63608D01*
D02*
G37*
G36*
X225000D02*
X222854Y63181D01*
X221035Y61965D01*
X219819Y60146D01*
X219392Y58000D01*
X219819Y55854D01*
X221035Y54035D01*
X222854Y52819D01*
X225000Y52392D01*
X227146Y52819D01*
X228965Y54035D01*
X230181Y55854D01*
X230608Y58000D01*
X230181Y60146D01*
X228965Y61965D01*
X227146Y63181D01*
X225000Y63608D01*
D02*
G37*
G36*
X461000Y-38392D02*
X458854Y-38819D01*
X457035Y-40035D01*
X455819Y-41854D01*
X455392Y-44000D01*
X455819Y-46146D01*
X457035Y-47965D01*
X458854Y-49181D01*
X461000Y-49608D01*
X463146Y-49181D01*
X464965Y-47965D01*
X466181Y-46146D01*
X466608Y-44000D01*
X466181Y-41854D01*
X464965Y-40035D01*
X463146Y-38819D01*
X461000Y-38392D01*
D02*
G37*
G36*
X575000Y15000D02*
X570000Y10000D01*
Y-40000D01*
X575000Y-45000D01*
X614000Y-45000D01*
X675000Y-45000D01*
X680000Y-40000D01*
Y10000D01*
X675000Y15000D01*
X575000Y15000D01*
D02*
G37*
G36*
X504000Y-44392D02*
X501854Y-44819D01*
X500035Y-46035D01*
X498819Y-47854D01*
X498392Y-50000D01*
X498819Y-52146D01*
X500035Y-53965D01*
X501854Y-55181D01*
X504000Y-55608D01*
X506146Y-55181D01*
X507965Y-53965D01*
X509181Y-52146D01*
X509608Y-50000D01*
X509181Y-47854D01*
X507965Y-46035D01*
X506146Y-44819D01*
X504000Y-44392D01*
D02*
G37*
G36*
X462000Y-13392D02*
X459854Y-13819D01*
X458035Y-15035D01*
X456819Y-16854D01*
X456392Y-19000D01*
X456819Y-21146D01*
X458035Y-22965D01*
X459854Y-24181D01*
X462000Y-24608D01*
X464146Y-24181D01*
X465965Y-22965D01*
X467181Y-21146D01*
X467608Y-19000D01*
X467181Y-16854D01*
X465965Y-15035D01*
X464146Y-13819D01*
X462000Y-13392D01*
D02*
G37*
G36*
X459000Y86608D02*
X456854Y86181D01*
X455035Y84965D01*
X453819Y83146D01*
X453392Y81000D01*
X453819Y78854D01*
X455035Y77035D01*
X456854Y75819D01*
X459000Y75392D01*
X461146Y75819D01*
X462965Y77035D01*
X464181Y78854D01*
X464608Y81000D01*
X464181Y83146D01*
X462965Y84965D01*
X461146Y86181D01*
X459000Y86608D01*
D02*
G37*
G36*
X493000Y118608D02*
X490854Y118181D01*
X489035Y116965D01*
X487819Y115146D01*
X487392Y113000D01*
X487819Y110854D01*
X489035Y109035D01*
X490854Y107819D01*
X493000Y107392D01*
X495146Y107819D01*
X496965Y109035D01*
X498181Y110854D01*
X498608Y113000D01*
X498181Y115146D01*
X496965Y116965D01*
X495146Y118181D01*
X493000Y118608D01*
D02*
G37*
G36*
X504500Y26108D02*
X502354Y25681D01*
X500535Y24465D01*
X499319Y22646D01*
X498892Y20500D01*
X499319Y18354D01*
X500535Y16535D01*
X502354Y15319D01*
X504500Y14892D01*
X506646Y15319D01*
X508465Y16535D01*
X509681Y18354D01*
X510108Y20500D01*
X509681Y22646D01*
X508465Y24465D01*
X506646Y25681D01*
X504500Y26108D01*
D02*
G37*
G36*
X465000Y35608D02*
X462854Y35181D01*
X461035Y33965D01*
X459819Y32146D01*
X459392Y30000D01*
X459819Y27854D01*
X461035Y26035D01*
X462854Y24819D01*
X465000Y24392D01*
X467146Y24819D01*
X468965Y26035D01*
X470181Y27854D01*
X470608Y30000D01*
X470181Y32146D01*
X468965Y33965D01*
X467146Y35181D01*
X465000Y35608D01*
D02*
G37*
G36*
X461000Y49608D02*
X458854Y49181D01*
X457035Y47965D01*
X455819Y46146D01*
X455392Y44000D01*
X455819Y41854D01*
X457035Y40035D01*
X458854Y38819D01*
X461000Y38392D01*
X463146Y38819D01*
X464965Y40035D01*
X466181Y41854D01*
X466608Y44000D01*
X466181Y46146D01*
X464965Y47965D01*
X463146Y49181D01*
X461000Y49608D01*
D02*
G37*
%LPD*%
D44*
X12500Y-35750D02*
D03*
Y35750D02*
D03*
D45*
X705700Y-81500D02*
D03*
Y81500D02*
D03*
D47*
X557000Y-162000D02*
D03*
Y-189000D02*
D03*
X582000Y-59000D02*
D03*
X557000D02*
D03*
X88000Y33000D02*
D03*
Y53000D02*
D03*
X65000Y-54000D02*
D03*
Y-43000D02*
D03*
X92000Y8000D02*
D03*
X67000Y14000D02*
D03*
Y-7000D02*
D03*
X118000Y-18000D02*
D03*
X97000Y-38000D02*
D03*
X92000Y-12000D02*
D03*
X138000Y-30000D02*
D03*
X110000Y-57000D02*
D03*
X137000D02*
D03*
X124000Y-44000D02*
D03*
X320000Y24000D02*
D03*
X337000Y57000D02*
D03*
Y32000D02*
D03*
X166000Y-63000D02*
D03*
X188000Y64000D02*
D03*
X278000Y83000D02*
D03*
X262000Y33000D02*
D03*
Y89000D02*
D03*
X282000Y34000D02*
D03*
X251000Y-33000D02*
D03*
X300000Y-56000D02*
D03*
X320000D02*
D03*
X300000Y-22000D02*
D03*
X320000D02*
D03*
X493000Y-28000D02*
D03*
X485000Y25000D02*
D03*
X505000Y70000D02*
D03*
X486000Y92000D02*
D03*
X440000Y-90000D02*
D03*
X435000Y-60000D02*
D03*
Y-40000D02*
D03*
Y-20000D02*
D03*
X435000Y0D02*
D03*
X435000Y20000D02*
D03*
Y40000D02*
D03*
Y60000D02*
D03*
Y80000D02*
D03*
Y100000D02*
D03*
Y120000D02*
D03*
Y140000D02*
D03*
Y160000D02*
D03*
Y175000D02*
D03*
X445000Y-160000D02*
D03*
X440000Y-175000D02*
D03*
X360000D02*
D03*
Y-160000D02*
D03*
X365000Y175000D02*
D03*
Y160000D02*
D03*
Y140000D02*
D03*
Y120000D02*
D03*
Y100000D02*
D03*
Y80000D02*
D03*
Y60000D02*
D03*
Y40000D02*
D03*
Y20000D02*
D03*
X365000Y0D02*
D03*
X365000Y-20000D02*
D03*
Y-40000D02*
D03*
Y-60000D02*
D03*
X355000Y-90000D02*
D03*
X462000Y6000D02*
D03*
X470000Y-69000D02*
D03*
X486000D02*
D03*
X532000Y-59000D02*
D03*
Y-42000D02*
D03*
X550000Y-15000D02*
D03*
X532000Y12000D02*
D03*
Y29000D02*
D03*
X486000Y70000D02*
D03*
X43000Y-43000D02*
D03*
Y-54000D02*
D03*
X103000Y-100000D02*
D03*
X175000Y152000D02*
D03*
X165000D02*
D03*
X155000D02*
D03*
X165000Y176000D02*
D03*
X175000Y175750D02*
D03*
X155000Y176000D02*
D03*
X115000Y150000D02*
D03*
Y160000D02*
D03*
Y130000D02*
D03*
Y120000D02*
D03*
X285000D02*
D03*
Y130000D02*
D03*
X285000Y157000D02*
D03*
Y148000D02*
D03*
X300000Y24000D02*
D03*
X292000Y71000D02*
D03*
X160000Y4000D02*
D03*
X233000Y11000D02*
D03*
X216000Y-29000D02*
D03*
X231000Y-46000D02*
D03*
X147000Y-69000D02*
D03*
X155000Y-35000D02*
D03*
X90000Y100000D02*
D03*
X150000D02*
D03*
X131000Y32000D02*
D03*
X103000Y-150000D02*
D03*
X20000Y177000D02*
D03*
X270000D02*
D03*
X295000Y181000D02*
D03*
X300000Y204000D02*
D03*
X333000D02*
D03*
Y-204000D02*
D03*
X300000D02*
D03*
X295000Y-181000D02*
D03*
X270000Y-177000D02*
D03*
X125000D02*
D03*
X90000D02*
D03*
X55000D02*
D03*
X20000D02*
D03*
X160000D02*
D03*
X55000Y177000D02*
D03*
X195000Y-177000D02*
D03*
X90000Y177000D02*
D03*
X230000Y-177000D02*
D03*
X125000Y177000D02*
D03*
X455000Y-192000D02*
D03*
X490000D02*
D03*
X525000D02*
D03*
X615000Y-203000D02*
D03*
X655000Y-177000D02*
D03*
X690000D02*
D03*
X717000Y-162000D02*
D03*
Y-125000D02*
D03*
Y162000D02*
D03*
X690000Y177000D02*
D03*
X655000D02*
D03*
X615000Y203000D02*
D03*
X525000Y192000D02*
D03*
X490000D02*
D03*
X455000D02*
D03*
X557000Y189000D02*
D03*
Y162000D02*
D03*
X10000Y130000D02*
D03*
Y160000D02*
D03*
Y-130000D02*
D03*
Y-160000D02*
D03*
M02*
