G04 Layer_Physical_Order=3*
G04 Layer_Color=16440176*
%FSLAX44Y44*%
%MOMM*%
G71*
G01*
G75*
%ADD38C,0.2500*%
%ADD39C,0.6000*%
%ADD40C,0.4000*%
G04:AMPARAMS|DCode=44|XSize=1.9mm|YSize=1.05mm|CornerRadius=0.2625mm|HoleSize=0mm|Usage=FLASHONLY|Rotation=0.000|XOffset=0mm|YOffset=0mm|HoleType=Round|Shape=RoundedRectangle|*
%AMROUNDEDRECTD44*
21,1,1.9000,0.5250,0,0,0.0*
21,1,1.3750,1.0500,0,0,0.0*
1,1,0.5250,0.6875,-0.2625*
1,1,0.5250,-0.6875,-0.2625*
1,1,0.5250,-0.6875,0.2625*
1,1,0.5250,0.6875,0.2625*
%
%ADD44ROUNDEDRECTD44*%
%ADD45C,3.5000*%
%ADD47C,0.6000*%
G36*
X337941Y205000D02*
X337931D01*
X338206Y202912D01*
X339012Y200965D01*
X340294Y199294D01*
X341965Y198012D01*
X343912Y197206D01*
X346000Y196931D01*
Y196941D01*
X350000D01*
Y185000D01*
X355000Y180000D01*
X425000D01*
Y-85000D01*
X370000D01*
X360000Y-95000D01*
Y-145000D01*
X370000Y-155000D01*
X425000D01*
Y-180000D01*
X355000Y-180000D01*
X350000Y-185000D01*
X350000Y-196941D01*
X346000D01*
Y-196931D01*
X343912Y-197206D01*
X341965Y-198012D01*
X340294Y-199294D01*
X339012Y-200965D01*
X338206Y-202912D01*
X337931Y-205000D01*
X337941D01*
Y-207441D01*
X294059D01*
Y-190000D01*
X294069D01*
X293794Y-187912D01*
X292988Y-185965D01*
X291706Y-184294D01*
X290035Y-183012D01*
X288088Y-182206D01*
X286000Y-181931D01*
Y-181941D01*
X286000Y-181941D01*
X14059D01*
Y-174000D01*
X14059Y-174000D01*
X14069D01*
X13794Y-171912D01*
X12988Y-169965D01*
X11706Y-168294D01*
X10035Y-167012D01*
X8088Y-166206D01*
X6000Y-165931D01*
Y-165941D01*
X6000Y-165941D01*
X3059D01*
Y-124059D01*
X6000D01*
Y-124069D01*
X8088Y-123794D01*
X10035Y-122988D01*
X11706Y-121706D01*
X12988Y-120035D01*
X13794Y-118088D01*
X14069Y-116000D01*
X14059D01*
Y-113059D01*
X30000D01*
Y-113069D01*
X32088Y-112794D01*
X34035Y-111988D01*
X35706Y-110706D01*
X36988Y-109035D01*
X37794Y-107088D01*
X38069Y-105000D01*
X38059D01*
Y-90000D01*
Y-75000D01*
X38069D01*
X37794Y-72912D01*
X36988Y-70965D01*
X35706Y-69294D01*
X34035Y-68012D01*
X32088Y-67206D01*
X30000Y-66931D01*
Y-66941D01*
X14059D01*
Y-50000D01*
X14069D01*
X13794Y-47912D01*
X12988Y-45965D01*
X11706Y-44294D01*
X10035Y-43012D01*
X8088Y-42206D01*
X6000Y-41931D01*
Y-41941D01*
X3000D01*
Y-41910D01*
X2269Y-41764D01*
X1650Y-41350D01*
X1236Y-40731D01*
X1090Y-40000D01*
X1059D01*
Y40000D01*
X1090D01*
X1236Y40731D01*
X1650Y41350D01*
X2269Y41764D01*
X3000Y41910D01*
Y41941D01*
X6000D01*
Y41931D01*
X8088Y42206D01*
X10035Y43012D01*
X11706Y44294D01*
X12988Y45965D01*
X13794Y47912D01*
X14069Y50000D01*
X14059D01*
Y66941D01*
X30000D01*
Y66931D01*
X32088Y67206D01*
X34035Y68012D01*
X35706Y69294D01*
X36988Y70965D01*
X37794Y72912D01*
X38069Y75000D01*
X38059D01*
Y90000D01*
Y105000D01*
X38069D01*
X37794Y107088D01*
X36988Y109035D01*
X35706Y110706D01*
X34035Y111988D01*
X32088Y112794D01*
X30000Y113069D01*
Y113059D01*
X14059D01*
Y116000D01*
X14069D01*
X13794Y118088D01*
X12988Y120035D01*
X11706Y121706D01*
X10035Y122988D01*
X8088Y123794D01*
X6000Y124069D01*
Y124059D01*
X6000Y124059D01*
X3059D01*
Y165941D01*
X6000D01*
X6000Y165941D01*
Y165931D01*
X8088Y166206D01*
X10035Y167012D01*
X11706Y168294D01*
X12988Y169965D01*
X13794Y171912D01*
X14069Y174000D01*
X14059D01*
X14059Y174000D01*
Y181941D01*
X286000D01*
Y181931D01*
X288088Y182206D01*
X290035Y183012D01*
X291706Y184294D01*
X292988Y185965D01*
X293794Y187912D01*
X294069Y190000D01*
X294059D01*
Y207441D01*
X337941D01*
Y205000D01*
D02*
G37*
G36*
X637941Y190000D02*
X637931D01*
X638206Y187912D01*
X639012Y185965D01*
X640294Y184294D01*
X641965Y183012D01*
X643912Y182206D01*
X646000Y181931D01*
Y181941D01*
X697941D01*
Y175000D01*
X697931D01*
X698206Y172912D01*
X699012Y170965D01*
X700294Y169294D01*
X701965Y168012D01*
X703912Y167206D01*
X706000Y166931D01*
Y166941D01*
X722941D01*
Y158059D01*
X707000D01*
Y158069D01*
X704912Y157794D01*
X702965Y156988D01*
X701294Y155706D01*
X700012Y154035D01*
X699206Y152088D01*
X698931Y150000D01*
X698941D01*
Y135000D01*
Y120000D01*
X698931D01*
X699206Y117912D01*
X700012Y115965D01*
X701294Y114294D01*
X702965Y113012D01*
X704912Y112206D01*
X707000Y111931D01*
Y111941D01*
X722941D01*
Y-166941D01*
X706000D01*
X706000Y-166941D01*
Y-166931D01*
X703912Y-167206D01*
X701965Y-168012D01*
X700294Y-169294D01*
X699012Y-170965D01*
X698206Y-172912D01*
X697931Y-175000D01*
X697941D01*
Y-181941D01*
X646000D01*
X646000Y-181941D01*
Y-181931D01*
X643912Y-182206D01*
X641965Y-183012D01*
X640294Y-184294D01*
X639012Y-185965D01*
X638206Y-187912D01*
X637931Y-190000D01*
X637941D01*
Y-207441D01*
X594059D01*
Y-205000D01*
X594059Y-205000D01*
X594069D01*
X593794Y-202912D01*
X592988Y-200965D01*
X591706Y-199294D01*
X590034Y-198012D01*
X588088Y-197206D01*
X586000Y-196931D01*
Y-196941D01*
X450000D01*
Y-185000D01*
X445000Y-180000D01*
X430000D01*
Y-150000D01*
X435000Y-145000D01*
Y-120000D01*
Y-95000D01*
X430000Y-90000D01*
Y180000D01*
X445000D01*
X450000Y185000D01*
Y196941D01*
X586000D01*
Y196931D01*
X588088Y197206D01*
X590034Y198012D01*
X591706Y199294D01*
X592988Y200965D01*
X593794Y202912D01*
X594069Y205000D01*
X594059D01*
X594059Y205000D01*
Y207441D01*
X637941D01*
Y190000D01*
D02*
G37*
%LPC*%
G36*
X141273Y172549D02*
X70000D01*
X69025Y172355D01*
X68198Y171802D01*
X63198Y166802D01*
X62645Y165975D01*
X62451Y165000D01*
Y71823D01*
X54584D01*
X53823Y72584D01*
Y115940D01*
X53965Y116035D01*
X55181Y117854D01*
X55608Y120000D01*
X55181Y122146D01*
X53965Y123965D01*
X52146Y125181D01*
X50000Y125608D01*
X47854Y125181D01*
X46035Y123965D01*
X44819Y122146D01*
X44392Y120000D01*
X44819Y117854D01*
X46035Y116035D01*
X46177Y115940D01*
Y71000D01*
X46468Y69537D01*
X47296Y68296D01*
X49786Y65807D01*
X50001Y64689D01*
X49736Y64143D01*
X47296Y61704D01*
X46468Y60463D01*
X46177Y59000D01*
Y-69000D01*
X46468Y-70463D01*
X47296Y-71704D01*
X50296Y-74704D01*
X51537Y-75532D01*
X53000Y-75823D01*
X56940D01*
X57035Y-75965D01*
X58854Y-77181D01*
X61000Y-77608D01*
X61469Y-77514D01*
X62451Y-78320D01*
Y-165000D01*
X62645Y-165975D01*
X63198Y-166802D01*
X68198Y-171802D01*
X69025Y-172355D01*
X70000Y-172549D01*
X310000D01*
X310975Y-172355D01*
X311802Y-171802D01*
X316802Y-166802D01*
X317355Y-165975D01*
X317549Y-165000D01*
Y-58417D01*
X317500Y-58170D01*
Y-57919D01*
X317404Y-57687D01*
X317355Y-57441D01*
X317245Y-57277D01*
X316991Y-56000D01*
X317245Y-54723D01*
X317355Y-54559D01*
X317404Y-54313D01*
X317500Y-54081D01*
Y-53830D01*
X317549Y-53583D01*
Y-39727D01*
X317355Y-38751D01*
X316802Y-37924D01*
X315975Y-37372D01*
X315784Y-36740D01*
X316181Y-36146D01*
X316608Y-34000D01*
Y162000D01*
X316181Y164146D01*
X314965Y165965D01*
X310965Y169965D01*
X309146Y171181D01*
X307000Y171608D01*
X147000D01*
X144854Y171181D01*
X144260Y170784D01*
X143628Y170975D01*
X143076Y171802D01*
X142249Y172355D01*
X141273Y172549D01*
D02*
G37*
%LPD*%
G36*
X62451Y20211D02*
X62476Y20087D01*
X62463Y19961D01*
X62572Y19603D01*
X62645Y19235D01*
X62715Y19130D01*
X62752Y19009D01*
X62990Y18720D01*
X63198Y18408D01*
X63303Y18338D01*
X63383Y18240D01*
X64365Y17435D01*
X64476Y17375D01*
X64566Y17286D01*
X64911Y17143D01*
X65242Y16966D01*
X65368Y16954D01*
X65484Y16905D01*
X65859D01*
X66232Y16868D01*
X66353Y16905D01*
X66479D01*
X67000Y17009D01*
X68151Y16780D01*
X69128Y16128D01*
X69780Y15151D01*
X70009Y14000D01*
X69780Y12849D01*
X69127Y11872D01*
X68151Y11220D01*
X67000Y10991D01*
X66479Y11095D01*
X66353D01*
X66232Y11132D01*
X65859Y11095D01*
X65484D01*
X65368Y11046D01*
X65242Y11034D01*
X64911Y10857D01*
X64566Y10714D01*
X64476Y10625D01*
X64365Y10565D01*
X63383Y9760D01*
X63303Y9662D01*
X63198Y9592D01*
X62990Y9280D01*
X62752Y8991D01*
X62715Y8870D01*
X62645Y8765D01*
X62572Y8397D01*
X62463Y8039D01*
X62476Y7913D01*
X62451Y7789D01*
Y-789D01*
X62476Y-913D01*
X62463Y-1039D01*
X62572Y-1397D01*
X62645Y-1765D01*
X62715Y-1870D01*
X62752Y-1991D01*
X62990Y-2280D01*
X63198Y-2591D01*
X63303Y-2662D01*
X63383Y-2760D01*
X64365Y-3565D01*
X64476Y-3625D01*
X64566Y-3714D01*
X64911Y-3857D01*
X65242Y-4034D01*
X65368Y-4046D01*
X65484Y-4095D01*
X65859D01*
X66232Y-4132D01*
X66353Y-4095D01*
X66479D01*
X67000Y-3991D01*
X68151Y-4220D01*
X69128Y-4873D01*
X69780Y-5849D01*
X70009Y-7000D01*
X69780Y-8152D01*
X69127Y-9128D01*
X68151Y-9780D01*
X67000Y-10009D01*
X66479Y-9905D01*
X66353D01*
X66232Y-9869D01*
X65859Y-9905D01*
X65484D01*
X65368Y-9954D01*
X65242Y-9966D01*
X64911Y-10143D01*
X64566Y-10286D01*
X64476Y-10375D01*
X64365Y-10435D01*
X63383Y-11241D01*
X63303Y-11338D01*
X63198Y-11408D01*
X62990Y-11720D01*
X62752Y-12009D01*
X62715Y-12130D01*
X62645Y-12235D01*
X62572Y-12603D01*
X62463Y-12961D01*
X62476Y-13087D01*
X62451Y-13211D01*
Y-37392D01*
X62500Y-37639D01*
Y-37889D01*
X62596Y-38121D01*
X62645Y-38368D01*
X62785Y-38577D01*
X62881Y-38808D01*
X63058Y-38986D01*
X63198Y-39195D01*
X63406Y-39334D01*
X63584Y-39512D01*
X63816Y-39608D01*
X64025Y-39747D01*
X64271Y-39796D01*
X64503Y-39892D01*
X66151Y-40220D01*
X67128Y-40872D01*
X67780Y-41849D01*
X68009Y-43000D01*
X67780Y-44151D01*
X67128Y-45128D01*
X66374Y-45631D01*
X66196Y-45809D01*
X65987Y-45948D01*
X65848Y-46157D01*
X65670Y-46335D01*
X65574Y-46567D01*
X65435Y-46775D01*
X65386Y-47022D01*
X65290Y-47254D01*
Y-47505D01*
X65241Y-47751D01*
Y-49249D01*
X65290Y-49495D01*
Y-49746D01*
X65386Y-49978D01*
X65435Y-50225D01*
X65574Y-50433D01*
X65670Y-50665D01*
X65848Y-50843D01*
X65987Y-51052D01*
X66196Y-51191D01*
X66374Y-51368D01*
X67128Y-51872D01*
X67780Y-52849D01*
X68009Y-54000D01*
X67780Y-55152D01*
X67128Y-56128D01*
X66151Y-56780D01*
X64503Y-57108D01*
X64271Y-57204D01*
X64025Y-57253D01*
X63816Y-57392D01*
X63584Y-57488D01*
X63406Y-57666D01*
X63198Y-57805D01*
X63058Y-58014D01*
X62881Y-58192D01*
X62785Y-58424D01*
X62645Y-58632D01*
X62596Y-58878D01*
X62500Y-59110D01*
Y-59362D01*
X62451Y-59608D01*
Y-65680D01*
X61469Y-66486D01*
X61000Y-66392D01*
X58854Y-66819D01*
X57035Y-68035D01*
X56940Y-68177D01*
X54584D01*
X53823Y-67416D01*
Y57416D01*
X54334Y57927D01*
X62451D01*
Y20211D01*
D02*
G37*
G36*
X141799Y168730D02*
X140035Y166965D01*
X138819Y165146D01*
X138392Y163000D01*
Y145608D01*
X135000D01*
X132854Y145181D01*
X131035Y143965D01*
X129819Y142146D01*
X129392Y140000D01*
X129819Y137854D01*
X131035Y136035D01*
X132854Y134819D01*
X135000Y134392D01*
X144000D01*
X146146Y134819D01*
X147965Y136035D01*
X149181Y137854D01*
X149608Y140000D01*
Y147884D01*
X150878Y148270D01*
X151035Y148035D01*
X152854Y146819D01*
X155000Y146392D01*
X157146Y146819D01*
X158965Y148035D01*
X159365Y148633D01*
X160635D01*
X161035Y148035D01*
X162854Y146819D01*
X165000Y146392D01*
X167146Y146819D01*
X168965Y148035D01*
X169365Y148633D01*
X170635D01*
X171035Y148035D01*
X172854Y146819D01*
X175000Y146392D01*
X177146Y146819D01*
X178965Y148035D01*
X180181Y149854D01*
X180608Y152000D01*
X180181Y154146D01*
X178965Y155965D01*
X177146Y157181D01*
X175000Y157608D01*
X172854Y157181D01*
X171035Y155965D01*
X170635Y155367D01*
X169365D01*
X168965Y155965D01*
X167146Y157181D01*
X165000Y157608D01*
X162854Y157181D01*
X161035Y155965D01*
X160635Y155367D01*
X159365D01*
X158965Y155965D01*
X157146Y157181D01*
X155000Y157608D01*
X152854Y157181D01*
X151035Y155965D01*
X150878Y155730D01*
X149608Y156116D01*
Y160392D01*
X279305D01*
X279904Y159272D01*
X279819Y159146D01*
X279392Y157000D01*
X279819Y154854D01*
X281035Y153035D01*
Y151965D01*
X279819Y150146D01*
X279392Y148000D01*
X279819Y145854D01*
X281035Y144035D01*
X282854Y142819D01*
X285000Y142392D01*
X287146Y142819D01*
X288965Y144035D01*
X290181Y145854D01*
X290608Y148000D01*
X290181Y150146D01*
X288965Y151965D01*
Y153035D01*
X290181Y154854D01*
X290608Y157000D01*
X290181Y159146D01*
X290096Y159272D01*
X290695Y160392D01*
X304677D01*
X305392Y159677D01*
Y28116D01*
X304122Y27730D01*
X303965Y27965D01*
X302146Y29181D01*
X300000Y29608D01*
X297854Y29181D01*
X296035Y27965D01*
X294819Y26146D01*
X294392Y24000D01*
X294819Y21854D01*
X294877Y21767D01*
X293965Y20965D01*
X292146Y22181D01*
X290000Y22608D01*
X287854Y22181D01*
X286041Y20969D01*
X284421D01*
X282958Y20678D01*
X281718Y19850D01*
X279296Y17428D01*
X278468Y16188D01*
X278177Y14725D01*
Y9584D01*
X274416Y5823D01*
X237333D01*
X237123Y6516D01*
X237005Y7093D01*
X238181Y8854D01*
X238608Y11000D01*
X238181Y13146D01*
X236965Y14965D01*
X235146Y16181D01*
X233000Y16608D01*
X230854Y16181D01*
X229035Y14965D01*
X227819Y13146D01*
X227392Y11000D01*
X227819Y8854D01*
X229035Y7035D01*
X229081Y7004D01*
X228662Y5756D01*
X227537Y5532D01*
X226296Y4704D01*
X223296Y1704D01*
X222468Y463D01*
X222177Y-1000D01*
Y-7940D01*
X222035Y-8035D01*
X220819Y-9854D01*
X220392Y-12000D01*
X220819Y-14146D01*
X222035Y-15965D01*
X223854Y-17181D01*
X226000Y-17608D01*
X228146Y-17181D01*
X229965Y-15965D01*
X231181Y-14146D01*
X231608Y-12000D01*
X231485Y-11383D01*
X232383Y-10485D01*
X233000Y-10608D01*
X235146Y-10181D01*
X236965Y-8965D01*
X238181Y-7146D01*
X238245Y-6823D01*
X279000D01*
X280463Y-6532D01*
X281704Y-5704D01*
X289833Y2426D01*
X290000Y2392D01*
X292146Y2819D01*
X293965Y4035D01*
X295181Y5854D01*
X295608Y8000D01*
X295181Y10146D01*
X293965Y11965D01*
Y13035D01*
X295181Y14854D01*
X295608Y17000D01*
X295181Y19146D01*
X295123Y19233D01*
X296035Y20035D01*
X297854Y18819D01*
X300000Y18392D01*
X302146Y18819D01*
X303965Y20035D01*
X304122Y20270D01*
X305392Y19884D01*
Y-17884D01*
X304122Y-18270D01*
X303965Y-18035D01*
X302146Y-16819D01*
X300000Y-16392D01*
X297854Y-16819D01*
X296035Y-18035D01*
X294819Y-19854D01*
X294392Y-22000D01*
X294819Y-24146D01*
X296035Y-25965D01*
X297854Y-27181D01*
X300000Y-27608D01*
X302146Y-27181D01*
X303965Y-25965D01*
X304122Y-25730D01*
X305392Y-26116D01*
Y-31677D01*
X304677Y-32392D01*
X292000D01*
X289854Y-32819D01*
X288035Y-34035D01*
X286819Y-35854D01*
X286392Y-38000D01*
X286819Y-40146D01*
X288035Y-41965D01*
X289854Y-43181D01*
X292000Y-43608D01*
X307000D01*
X309146Y-43181D01*
X310965Y-41965D01*
X313730Y-39200D01*
X315000Y-39727D01*
Y-53583D01*
X314819Y-53854D01*
X314392Y-56000D01*
X314819Y-58146D01*
X315000Y-58417D01*
Y-165000D01*
X310000Y-170000D01*
X70000D01*
X65000Y-165000D01*
Y-75913D01*
X66181Y-74146D01*
X66608Y-72000D01*
X66181Y-69854D01*
X65000Y-68087D01*
Y-59608D01*
X67146Y-59181D01*
X68965Y-57965D01*
X70181Y-56146D01*
X70608Y-54000D01*
X70181Y-51854D01*
X68965Y-50035D01*
X67790Y-49249D01*
Y-47751D01*
X68965Y-46965D01*
X70181Y-45146D01*
X70608Y-43000D01*
X70181Y-40854D01*
X68965Y-39035D01*
X67146Y-37819D01*
X65000Y-37392D01*
Y-13211D01*
X65982Y-12405D01*
X67000Y-12608D01*
X69146Y-12181D01*
X70965Y-10965D01*
X72181Y-9146D01*
X72608Y-7000D01*
X72181Y-4854D01*
X70965Y-3035D01*
X69146Y-1819D01*
X67000Y-1392D01*
X65982Y-1595D01*
X65000Y-789D01*
Y7789D01*
X65982Y8595D01*
X67000Y8392D01*
X69146Y8819D01*
X70965Y10035D01*
X72181Y11854D01*
X72608Y14000D01*
X72181Y16146D01*
X70965Y17965D01*
X69146Y19181D01*
X67000Y19608D01*
X65982Y19405D01*
X65000Y20211D01*
Y57927D01*
X83362D01*
X83828Y56657D01*
X82819Y55146D01*
X82392Y53000D01*
X82819Y50854D01*
X84035Y49035D01*
X85854Y47819D01*
X88000Y47392D01*
X90146Y47819D01*
X91965Y49035D01*
X93181Y50854D01*
X93608Y53000D01*
X93181Y55146D01*
X92171Y56657D01*
X92639Y57927D01*
X122000D01*
X123463Y58218D01*
X124704Y59046D01*
X127704Y62046D01*
X128532Y63287D01*
X128638Y63816D01*
X128965Y64035D01*
X130181Y65854D01*
X130608Y68000D01*
X130181Y70146D01*
X128965Y71965D01*
X127146Y73181D01*
X125000Y73608D01*
X122854Y73181D01*
X121035Y71965D01*
X120635Y71367D01*
X119365D01*
X118965Y71965D01*
X117146Y73181D01*
X115000Y73608D01*
X112854Y73181D01*
X111035Y71965D01*
X110940Y71823D01*
X65000D01*
Y165000D01*
X70000Y170000D01*
X141273D01*
X141799Y168730D01*
D02*
G37*
%LPC*%
G36*
X124000Y-38392D02*
X121854Y-38819D01*
X120035Y-40035D01*
X118819Y-41854D01*
X118392Y-44000D01*
X118819Y-46146D01*
X120035Y-47965D01*
X121854Y-49181D01*
X124000Y-49608D01*
X126146Y-49181D01*
X127965Y-47965D01*
X129181Y-46146D01*
X129608Y-44000D01*
X129181Y-41854D01*
X127965Y-40035D01*
X126146Y-38819D01*
X124000Y-38392D01*
D02*
G37*
G36*
X285000Y135608D02*
X282854Y135181D01*
X281035Y133965D01*
X279819Y132146D01*
X279392Y130000D01*
X279819Y127854D01*
X281035Y126035D01*
X281633Y125635D01*
Y124365D01*
X281035Y123965D01*
X279819Y122146D01*
X279392Y120000D01*
X279819Y117854D01*
X281035Y116035D01*
X282854Y114819D01*
X285000Y114392D01*
X287146Y114819D01*
X288965Y116035D01*
X290181Y117854D01*
X290608Y120000D01*
X290181Y122146D01*
X288965Y123965D01*
X288367Y124365D01*
Y125635D01*
X288965Y126035D01*
X290181Y127854D01*
X290608Y130000D01*
X290181Y132146D01*
X288965Y133965D01*
X287146Y135181D01*
X285000Y135608D01*
D02*
G37*
G36*
X115000Y165608D02*
X112854Y165181D01*
X111035Y163965D01*
X109819Y162146D01*
X109392Y160000D01*
X109819Y157854D01*
X111035Y156035D01*
X111633Y155635D01*
Y154365D01*
X111035Y153965D01*
X109819Y152146D01*
X109392Y150000D01*
X109819Y147854D01*
X111035Y146035D01*
X112854Y144819D01*
X115000Y144392D01*
X117146Y144819D01*
X118965Y146035D01*
X120181Y147854D01*
X120608Y150000D01*
X120181Y152146D01*
X118965Y153965D01*
X118367Y154365D01*
Y155635D01*
X118965Y156035D01*
X120181Y157854D01*
X120608Y160000D01*
X120181Y162146D01*
X118965Y163965D01*
X117146Y165181D01*
X115000Y165608D01*
D02*
G37*
G36*
X231000Y-40392D02*
X228854Y-40819D01*
X227035Y-42035D01*
X225819Y-43854D01*
X225392Y-46000D01*
X225819Y-48146D01*
X227035Y-49965D01*
X228854Y-51181D01*
X231000Y-51608D01*
X233146Y-51181D01*
X234965Y-49965D01*
X236181Y-48146D01*
X236608Y-46000D01*
X236181Y-43854D01*
X234965Y-42035D01*
X233146Y-40819D01*
X231000Y-40392D01*
D02*
G37*
G36*
X138000Y-24392D02*
X135854Y-24819D01*
X134035Y-26035D01*
X132819Y-27854D01*
X132392Y-30000D01*
X132819Y-32146D01*
X134035Y-33965D01*
X135854Y-35181D01*
X138000Y-35608D01*
X140146Y-35181D01*
X141965Y-33965D01*
X143181Y-32146D01*
X143608Y-30000D01*
X143181Y-27854D01*
X141965Y-26035D01*
X140146Y-24819D01*
X138000Y-24392D01*
D02*
G37*
G36*
X200000Y-19392D02*
X197854Y-19819D01*
X196035Y-21035D01*
X194819Y-22854D01*
X194392Y-25000D01*
X194819Y-27146D01*
X196035Y-28965D01*
X196633Y-29365D01*
Y-30635D01*
X196035Y-31035D01*
X194819Y-32854D01*
X194392Y-35000D01*
X194819Y-37146D01*
X196035Y-38965D01*
X196177Y-39060D01*
Y-136177D01*
X120000D01*
X118537Y-136468D01*
X117296Y-137296D01*
X114296Y-140296D01*
X113468Y-141537D01*
X113177Y-143000D01*
Y-145940D01*
X113035Y-146035D01*
X111819Y-147854D01*
X111392Y-150000D01*
X111819Y-152146D01*
X113035Y-153965D01*
X114854Y-155181D01*
X117000Y-155608D01*
X119146Y-155181D01*
X120965Y-153965D01*
X122181Y-152146D01*
X122608Y-150000D01*
X122181Y-147854D01*
X120965Y-146035D01*
X120823Y-145940D01*
Y-144584D01*
X121584Y-143823D01*
X127058D01*
X127444Y-145093D01*
X126035Y-146035D01*
X124819Y-147854D01*
X124392Y-150000D01*
X124819Y-152146D01*
X126035Y-153965D01*
X127854Y-155181D01*
X130000Y-155608D01*
X132146Y-155181D01*
X133965Y-153965D01*
X134060Y-153823D01*
X205000D01*
X206463Y-153532D01*
X207704Y-152704D01*
X210704Y-149704D01*
X211532Y-148463D01*
X211823Y-147000D01*
Y-34351D01*
X213093Y-33673D01*
X213854Y-34181D01*
X216000Y-34608D01*
X218146Y-34181D01*
X219965Y-32965D01*
X221181Y-31146D01*
X221608Y-29000D01*
X221181Y-26854D01*
X219965Y-25035D01*
X218146Y-23819D01*
X216000Y-23392D01*
X213854Y-23819D01*
X212035Y-25035D01*
X211930Y-25191D01*
X210481Y-25074D01*
X207704Y-22296D01*
X206463Y-21468D01*
X205000Y-21177D01*
X204060D01*
X203965Y-21035D01*
X202146Y-19819D01*
X200000Y-19392D01*
D02*
G37*
G36*
X97000Y-32392D02*
X94854Y-32819D01*
X93035Y-34035D01*
X91819Y-35854D01*
X91392Y-38000D01*
X91819Y-40146D01*
X93035Y-41965D01*
X94854Y-43181D01*
X97000Y-43608D01*
X99146Y-43181D01*
X100965Y-41965D01*
X102181Y-40146D01*
X102608Y-38000D01*
X102181Y-35854D01*
X100965Y-34035D01*
X99146Y-32819D01*
X97000Y-32392D01*
D02*
G37*
G36*
X251000Y-27392D02*
X248854Y-27819D01*
X247035Y-29035D01*
X245819Y-30854D01*
X245392Y-33000D01*
X245819Y-35146D01*
X247035Y-36965D01*
X248854Y-38181D01*
X251000Y-38608D01*
X253146Y-38181D01*
X254965Y-36965D01*
X256181Y-35146D01*
X256608Y-33000D01*
X256181Y-30854D01*
X254965Y-29035D01*
X253146Y-27819D01*
X251000Y-27392D01*
D02*
G37*
G36*
X142400Y-117460D02*
X140449Y-117717D01*
X138630Y-118471D01*
X137069Y-119669D01*
X135871Y-121230D01*
X135117Y-123049D01*
X134860Y-125000D01*
X135117Y-126951D01*
X135871Y-128770D01*
X137069Y-130331D01*
X138630Y-131529D01*
X140449Y-132283D01*
X142400Y-132540D01*
X144351Y-132283D01*
X146170Y-131529D01*
X147731Y-130331D01*
X148929Y-128770D01*
X149683Y-126951D01*
X149939Y-125000D01*
X149683Y-123049D01*
X148929Y-121230D01*
X147731Y-119669D01*
X146170Y-118471D01*
X144351Y-117717D01*
X142400Y-117460D01*
D02*
G37*
G36*
X91600Y-107301D02*
X89649Y-107557D01*
X87830Y-108311D01*
X86269Y-109509D01*
X85071Y-111070D01*
X84317Y-112889D01*
X84060Y-114840D01*
X84317Y-116791D01*
X85071Y-118610D01*
X86269Y-120171D01*
X87830Y-121369D01*
X89649Y-122123D01*
X91600Y-122380D01*
X93551Y-122123D01*
X95370Y-121369D01*
X96931Y-120171D01*
X98129Y-118610D01*
X98883Y-116791D01*
X99139Y-114840D01*
X98883Y-112889D01*
X98129Y-111070D01*
X96931Y-109509D01*
X95370Y-108311D01*
X93551Y-107557D01*
X91600Y-107301D01*
D02*
G37*
G36*
X103000Y-144392D02*
X100854Y-144819D01*
X99035Y-146035D01*
X97819Y-147854D01*
X97392Y-150000D01*
X97819Y-152146D01*
X99035Y-153965D01*
X100854Y-155181D01*
X103000Y-155608D01*
X105146Y-155181D01*
X106965Y-153965D01*
X108181Y-152146D01*
X108608Y-150000D01*
X108181Y-147854D01*
X106965Y-146035D01*
X105146Y-144819D01*
X103000Y-144392D01*
D02*
G37*
G36*
X91600Y-127620D02*
X89649Y-127877D01*
X87830Y-128631D01*
X86269Y-129829D01*
X85071Y-131390D01*
X84317Y-133209D01*
X84060Y-135160D01*
X84317Y-137111D01*
X85071Y-138930D01*
X86269Y-140491D01*
X87830Y-141689D01*
X89649Y-142443D01*
X91600Y-142699D01*
X93551Y-142443D01*
X95370Y-141689D01*
X96931Y-140491D01*
X98129Y-138930D01*
X98883Y-137111D01*
X99139Y-135160D01*
X98883Y-133209D01*
X98129Y-131390D01*
X96931Y-129829D01*
X95370Y-128631D01*
X93551Y-127877D01*
X91600Y-127620D01*
D02*
G37*
G36*
X110000Y-51392D02*
X107854Y-51819D01*
X106035Y-53035D01*
X104819Y-54854D01*
X104392Y-57000D01*
X104819Y-59146D01*
X106035Y-60965D01*
X107854Y-62181D01*
X110000Y-62608D01*
X112146Y-62181D01*
X113965Y-60965D01*
X115181Y-59146D01*
X115608Y-57000D01*
X115181Y-54854D01*
X113965Y-53035D01*
X112146Y-51819D01*
X110000Y-51392D01*
D02*
G37*
G36*
X300000Y-50392D02*
X297854Y-50819D01*
X296035Y-52035D01*
X294819Y-53854D01*
X294392Y-56000D01*
X294819Y-58146D01*
X296035Y-59965D01*
X297854Y-61181D01*
X300000Y-61608D01*
X302146Y-61181D01*
X303965Y-59965D01*
X305181Y-58146D01*
X305608Y-56000D01*
X305181Y-53854D01*
X303965Y-52035D01*
X302146Y-50819D01*
X300000Y-50392D01*
D02*
G37*
G36*
X103000Y-94392D02*
X100854Y-94819D01*
X99035Y-96035D01*
X97819Y-97854D01*
X97392Y-100000D01*
X97819Y-102146D01*
X99035Y-103965D01*
X100854Y-105181D01*
X103000Y-105608D01*
X105146Y-105181D01*
X106965Y-103965D01*
X108181Y-102146D01*
X108608Y-100000D01*
X108181Y-97854D01*
X106965Y-96035D01*
X105146Y-94819D01*
X103000Y-94392D01*
D02*
G37*
G36*
X166000Y-57392D02*
X163854Y-57819D01*
X162035Y-59035D01*
X160819Y-60854D01*
X160392Y-63000D01*
X160819Y-65146D01*
X162035Y-66965D01*
X163854Y-68181D01*
X166000Y-68608D01*
X168146Y-68181D01*
X169965Y-66965D01*
X171181Y-65146D01*
X171608Y-63000D01*
X171181Y-60854D01*
X169965Y-59035D01*
X168146Y-57819D01*
X166000Y-57392D01*
D02*
G37*
G36*
X188000Y69608D02*
X185854Y69181D01*
X184035Y67965D01*
X182819Y66146D01*
X182392Y64000D01*
X182819Y61854D01*
X184035Y60035D01*
X185854Y58819D01*
X188000Y58392D01*
X190146Y58819D01*
X191965Y60035D01*
X193181Y61854D01*
X193608Y64000D01*
X193181Y66146D01*
X191965Y67965D01*
X190146Y69181D01*
X188000Y69608D01*
D02*
G37*
G36*
X292000Y76608D02*
X289854Y76181D01*
X288035Y74965D01*
X286819Y73146D01*
X286392Y71000D01*
X286819Y68854D01*
X288035Y67035D01*
X289854Y65819D01*
X292000Y65392D01*
X294146Y65819D01*
X295965Y67035D01*
X297181Y68854D01*
X297608Y71000D01*
X297181Y73146D01*
X295965Y74965D01*
X294146Y76181D01*
X292000Y76608D01*
D02*
G37*
G36*
X282000Y39608D02*
X279854Y39181D01*
X278035Y37965D01*
X276819Y36146D01*
X276392Y34000D01*
X276819Y31854D01*
X278035Y30035D01*
X279854Y28819D01*
X282000Y28392D01*
X284146Y28819D01*
X285965Y30035D01*
X287181Y31854D01*
X287608Y34000D01*
X287181Y36146D01*
X285965Y37965D01*
X284146Y39181D01*
X282000Y39608D01*
D02*
G37*
G36*
X150000Y105608D02*
X147854Y105181D01*
X146035Y103965D01*
X144819Y102146D01*
X144392Y100000D01*
X144819Y97854D01*
X146035Y96035D01*
X147854Y94819D01*
X150000Y94392D01*
X152146Y94819D01*
X153965Y96035D01*
X155181Y97854D01*
X155608Y100000D01*
X155181Y102146D01*
X153965Y103965D01*
X152146Y105181D01*
X150000Y105608D01*
D02*
G37*
G36*
X278000Y88608D02*
X275854Y88181D01*
X274035Y86965D01*
X272819Y85146D01*
X272392Y83000D01*
X272819Y80854D01*
X274035Y79035D01*
X275854Y77819D01*
X278000Y77392D01*
X280146Y77819D01*
X281965Y79035D01*
X283181Y80854D01*
X283608Y83000D01*
X283181Y85146D01*
X281965Y86965D01*
X280146Y88181D01*
X278000Y88608D01*
D02*
G37*
G36*
X262000Y94608D02*
X259854Y94181D01*
X258035Y92965D01*
X256819Y91146D01*
X256392Y89000D01*
X256819Y86854D01*
X258035Y85035D01*
X259854Y83819D01*
X262000Y83392D01*
X264146Y83819D01*
X265965Y85035D01*
X267181Y86854D01*
X267608Y89000D01*
X267181Y91146D01*
X265965Y92965D01*
X264146Y94181D01*
X262000Y94608D01*
D02*
G37*
G36*
X213000Y80608D02*
X210854Y80181D01*
X209035Y78965D01*
X208940Y78823D01*
X207000D01*
X205537Y78532D01*
X204296Y77704D01*
X202296Y75704D01*
X201468Y74463D01*
X201177Y73000D01*
Y31000D01*
X201468Y29537D01*
X202296Y28296D01*
X210425Y20167D01*
X210392Y20000D01*
X210425Y19833D01*
X166296Y-24296D01*
X165468Y-25537D01*
X165177Y-27000D01*
Y-34416D01*
X160221Y-39372D01*
X159235Y-38562D01*
X159382Y-38342D01*
X160181Y-37146D01*
X160608Y-35000D01*
X160181Y-32854D01*
X158965Y-31035D01*
X157146Y-29819D01*
X155000Y-29392D01*
X152854Y-29819D01*
X151035Y-31035D01*
X149819Y-32854D01*
X149392Y-35000D01*
X149819Y-37146D01*
X151035Y-38965D01*
X152854Y-40181D01*
X155000Y-40608D01*
X157146Y-40181D01*
X158342Y-39382D01*
X158562Y-39235D01*
X159372Y-40221D01*
X143558Y-56035D01*
X142343Y-55666D01*
X142181Y-54854D01*
X140965Y-53035D01*
X139146Y-51819D01*
X137000Y-51392D01*
X134854Y-51819D01*
X133035Y-53035D01*
X131819Y-54854D01*
X131392Y-57000D01*
X131819Y-59146D01*
X133035Y-60965D01*
X134854Y-62181D01*
X135666Y-62342D01*
X136035Y-63558D01*
X114296Y-85296D01*
X113468Y-86537D01*
X113177Y-88000D01*
Y-95940D01*
X113035Y-96035D01*
X111819Y-97854D01*
X111392Y-100000D01*
X111819Y-102146D01*
X113035Y-103965D01*
X114854Y-105181D01*
X117000Y-105608D01*
X119146Y-105181D01*
X120965Y-103965D01*
X122181Y-102146D01*
X122608Y-100000D01*
X122181Y-97854D01*
X120965Y-96035D01*
X120823Y-95940D01*
Y-89584D01*
X140442Y-69965D01*
X141658Y-70334D01*
X141819Y-71146D01*
X143035Y-72965D01*
X144854Y-74181D01*
X147000Y-74608D01*
X149146Y-74181D01*
X150965Y-72965D01*
X152181Y-71146D01*
X152608Y-69000D01*
X152181Y-66854D01*
X150965Y-65035D01*
X149146Y-63819D01*
X148334Y-63657D01*
X147965Y-62442D01*
X171704Y-38704D01*
X172532Y-37463D01*
X172823Y-36000D01*
Y-28584D01*
X215833Y14425D01*
X216000Y14392D01*
X218146Y14819D01*
X219965Y16035D01*
X221181Y17854D01*
X221608Y20000D01*
X221181Y22146D01*
X219965Y23965D01*
X218146Y25181D01*
X216000Y25608D01*
X215833Y25575D01*
X208823Y32584D01*
Y69648D01*
X210093Y70327D01*
X210854Y69819D01*
X213000Y69392D01*
X215146Y69819D01*
X216965Y71035D01*
X218181Y72854D01*
X218608Y75000D01*
X218181Y77146D01*
X216965Y78965D01*
X215146Y80181D01*
X213000Y80608D01*
D02*
G37*
G36*
X90000Y105608D02*
X87854Y105181D01*
X86035Y103965D01*
X84819Y102146D01*
X84392Y100000D01*
X84819Y97854D01*
X86035Y96035D01*
X87854Y94819D01*
X90000Y94392D01*
X92146Y94819D01*
X93965Y96035D01*
X95181Y97854D01*
X95608Y100000D01*
X95181Y102146D01*
X93965Y103965D01*
X92146Y105181D01*
X90000Y105608D01*
D02*
G37*
G36*
X160000Y9608D02*
X157854Y9181D01*
X156035Y7965D01*
X154819Y6146D01*
X154392Y4000D01*
X154819Y1854D01*
X156035Y35D01*
X157854Y-1181D01*
X160000Y-1608D01*
X162146Y-1181D01*
X163965Y35D01*
X165181Y1854D01*
X165608Y4000D01*
X165181Y6146D01*
X163965Y7965D01*
X162146Y9181D01*
X160000Y9608D01*
D02*
G37*
G36*
X92000Y13608D02*
X89854Y13181D01*
X88035Y11965D01*
X86819Y10146D01*
X86392Y8000D01*
X86819Y5854D01*
X88035Y4035D01*
X89854Y2819D01*
X92000Y2392D01*
X94146Y2819D01*
X95965Y4035D01*
X97181Y5854D01*
X97608Y8000D01*
X97181Y10146D01*
X95965Y11965D01*
X94146Y13181D01*
X92000Y13608D01*
D02*
G37*
G36*
X118000Y-12392D02*
X115854Y-12819D01*
X114035Y-14035D01*
X112819Y-15854D01*
X112392Y-18000D01*
X112819Y-20146D01*
X114035Y-21965D01*
X115854Y-23181D01*
X118000Y-23608D01*
X120146Y-23181D01*
X121965Y-21965D01*
X123181Y-20146D01*
X123608Y-18000D01*
X123181Y-15854D01*
X121965Y-14035D01*
X120146Y-12819D01*
X118000Y-12392D01*
D02*
G37*
G36*
X92000Y-6392D02*
X89854Y-6819D01*
X88035Y-8035D01*
X86819Y-9854D01*
X86392Y-12000D01*
X86819Y-14146D01*
X88035Y-15965D01*
X89854Y-17181D01*
X92000Y-17608D01*
X94146Y-17181D01*
X95965Y-15965D01*
X97181Y-14146D01*
X97608Y-12000D01*
X97181Y-9854D01*
X95965Y-8035D01*
X94146Y-6819D01*
X92000Y-6392D01*
D02*
G37*
G36*
X88000Y38608D02*
X85854Y38181D01*
X84035Y36965D01*
X82819Y35146D01*
X82392Y33000D01*
X82819Y30854D01*
X84035Y29035D01*
X85854Y27819D01*
X88000Y27392D01*
X90146Y27819D01*
X91965Y29035D01*
X93181Y30854D01*
X93608Y33000D01*
X93181Y35146D01*
X91965Y36965D01*
X90146Y38181D01*
X88000Y38608D01*
D02*
G37*
G36*
X262000D02*
X259854Y38181D01*
X258035Y36965D01*
X256819Y35146D01*
X256392Y33000D01*
X256819Y30854D01*
X258035Y29035D01*
X259854Y27819D01*
X262000Y27392D01*
X264146Y27819D01*
X265965Y29035D01*
X267181Y30854D01*
X267608Y33000D01*
X267181Y35146D01*
X265965Y36965D01*
X264146Y38181D01*
X262000Y38608D01*
D02*
G37*
G36*
X115000Y135608D02*
X112854Y135181D01*
X111035Y133965D01*
X109819Y132146D01*
X109392Y130000D01*
X109819Y127854D01*
X111035Y126035D01*
X111633Y125635D01*
Y124365D01*
X111035Y123965D01*
X109819Y122146D01*
X109392Y120000D01*
X109819Y117854D01*
X111035Y116035D01*
X112854Y114819D01*
X115000Y114392D01*
X117146Y114819D01*
X118965Y116035D01*
X120181Y117854D01*
X120608Y120000D01*
X120181Y122146D01*
X118965Y123965D01*
X118367Y124365D01*
Y125635D01*
X118965Y126035D01*
X120181Y127854D01*
X120608Y130000D01*
X120181Y132146D01*
X118965Y133965D01*
X117146Y135181D01*
X115000Y135608D01*
D02*
G37*
G36*
X131000Y37608D02*
X128854Y37181D01*
X127035Y35965D01*
X125819Y34146D01*
X125392Y32000D01*
X125819Y29854D01*
X127035Y28035D01*
X128854Y26819D01*
X131000Y26392D01*
X133146Y26819D01*
X134965Y28035D01*
X136181Y29854D01*
X136608Y32000D01*
X136181Y34146D01*
X134965Y35965D01*
X133146Y37181D01*
X131000Y37608D01*
D02*
G37*
G36*
X493000Y118608D02*
X490854Y118181D01*
X489035Y116965D01*
X488940Y116823D01*
X448000D01*
X446537Y116532D01*
X445296Y115704D01*
X440296Y110704D01*
X439468Y109463D01*
X439177Y108000D01*
Y-14000D01*
X439468Y-15463D01*
X440296Y-16704D01*
X445296Y-21704D01*
X446537Y-22532D01*
X448000Y-22823D01*
X457940D01*
X458035Y-22965D01*
X459854Y-24181D01*
X462000Y-24608D01*
X464146Y-24181D01*
X465965Y-22965D01*
X467181Y-21146D01*
X467608Y-19000D01*
X467181Y-16854D01*
X465965Y-15035D01*
X464146Y-13819D01*
X462000Y-13392D01*
X459854Y-13819D01*
X458035Y-15035D01*
X457940Y-15177D01*
X449584D01*
X446823Y-12416D01*
Y27973D01*
X448093Y28499D01*
X449296Y27296D01*
X450537Y26468D01*
X452000Y26177D01*
X460940D01*
X461035Y26035D01*
X462854Y24819D01*
X465000Y24392D01*
X467146Y24819D01*
X468965Y26035D01*
X469142Y26299D01*
X470412Y25914D01*
Y-38100D01*
X469100Y-39412D01*
X464033D01*
X463146Y-38819D01*
X461000Y-38392D01*
X458854Y-38819D01*
X457035Y-40035D01*
X455819Y-41854D01*
X455392Y-44000D01*
X455819Y-46146D01*
X457035Y-47965D01*
X458854Y-49181D01*
X461000Y-49608D01*
X463146Y-49181D01*
X464033Y-48588D01*
X471000D01*
X472756Y-48239D01*
X474244Y-47244D01*
X478244Y-43244D01*
X479239Y-41756D01*
X479588Y-40000D01*
Y41000D01*
X479239Y42756D01*
X478244Y44244D01*
X475244Y47244D01*
X473756Y48239D01*
X472000Y48588D01*
X464033D01*
X463146Y49181D01*
X461000Y49608D01*
X458854Y49181D01*
X457035Y47965D01*
X455819Y46146D01*
X455392Y44000D01*
X455819Y41854D01*
X457035Y40035D01*
X458854Y38819D01*
X461000Y38392D01*
X463146Y38819D01*
X464033Y39412D01*
X470099D01*
X470412Y39100D01*
Y34086D01*
X469142Y33701D01*
X468965Y33965D01*
X467146Y35181D01*
X465000Y35608D01*
X462854Y35181D01*
X461035Y33965D01*
X460940Y33823D01*
X453823D01*
Y76736D01*
X455093Y76996D01*
X456854Y75819D01*
X459000Y75392D01*
X461146Y75819D01*
X462965Y77035D01*
X464181Y78854D01*
X464608Y81000D01*
X464181Y83146D01*
X462965Y84965D01*
X461146Y86181D01*
X459000Y86608D01*
X456854Y86181D01*
X455035Y84965D01*
X454940Y84823D01*
X452000D01*
X450537Y84532D01*
X449296Y83704D01*
X448093Y82501D01*
X446823Y83027D01*
Y106416D01*
X449584Y109177D01*
X488940D01*
X489035Y109035D01*
X490854Y107819D01*
X493000Y107392D01*
X495146Y107819D01*
X496965Y109035D01*
X498181Y110854D01*
X498608Y113000D01*
X498181Y115146D01*
X496965Y116965D01*
X495146Y118181D01*
X493000Y118608D01*
D02*
G37*
G36*
X504500Y26108D02*
X502354Y25681D01*
X500535Y24465D01*
X499319Y22646D01*
X498892Y20500D01*
X499319Y18354D01*
X500177Y17071D01*
Y-45940D01*
X500035Y-46035D01*
X498819Y-47854D01*
X498392Y-50000D01*
X498819Y-52146D01*
X500035Y-53965D01*
X501854Y-55181D01*
X504000Y-55608D01*
X506146Y-55181D01*
X507965Y-53965D01*
X509181Y-52146D01*
X509608Y-50000D01*
X509181Y-47854D01*
X507965Y-46035D01*
X507823Y-45940D01*
Y16106D01*
X508465Y16535D01*
X509681Y18354D01*
X510108Y20500D01*
X509681Y22646D01*
X508465Y24465D01*
X506646Y25681D01*
X504500Y26108D01*
D02*
G37*
G36*
X575000Y15000D02*
X570000Y10000D01*
Y-40000D01*
X575000Y-45000D01*
X614000Y-45000D01*
X675000Y-45000D01*
X680000Y-40000D01*
Y10000D01*
X675000Y15000D01*
X575000Y15000D01*
D02*
G37*
%LPD*%
D38*
X207000Y75000D02*
X213000D01*
X205000Y73000D02*
X207000Y75000D01*
X205000Y31000D02*
Y73000D01*
Y31000D02*
X216000Y20000D01*
X279000Y-3000D02*
X290000Y8000D01*
X235000Y-3000D02*
X279000D01*
X233000Y-5000D02*
X235000Y-3000D01*
X289854Y17146D02*
X290000Y17000D01*
X284421Y17146D02*
X289854D01*
X282000Y14725D02*
X284421Y17146D01*
X282000Y8000D02*
Y14725D01*
X276000Y2000D02*
X282000Y8000D01*
X229000Y2000D02*
X276000D01*
X226000Y-1000D02*
X229000Y2000D01*
X226000Y-12000D02*
Y-1000D01*
X452000Y81000D02*
X459000D01*
X450000Y79000D02*
X452000Y81000D01*
X450000Y32000D02*
Y79000D01*
Y32000D02*
X452000Y30000D01*
X465000D01*
X443000Y108000D02*
X448000Y113000D01*
X443000Y-14000D02*
Y108000D01*
Y-14000D02*
X448000Y-19000D01*
Y113000D02*
X493000D01*
X448000Y-19000D02*
X462000D01*
X504000Y20000D02*
X504500Y20500D01*
X504000Y-50000D02*
Y20000D01*
X53000Y68000D02*
X115000D01*
X50000Y71000D02*
X53000Y68000D01*
X50000Y71000D02*
Y120000D01*
X125000Y64750D02*
Y68000D01*
X122000Y61750D02*
X125000Y64750D01*
X52750Y61750D02*
X122000D01*
X50000Y59000D02*
X52750Y61750D01*
X50000Y-69000D02*
Y59000D01*
Y-69000D02*
X53000Y-72000D01*
X61000D01*
X200000Y-138000D02*
Y-35000D01*
X198000Y-140000D02*
X200000Y-138000D01*
X120000Y-140000D02*
X198000D01*
X117000Y-143000D02*
X120000Y-140000D01*
X117000Y-150000D02*
Y-143000D01*
X200000Y-25000D02*
X205000D01*
X208000Y-28000D01*
X130000Y-150000D02*
X205000D01*
X208000Y-147000D01*
Y-28000D01*
X117000Y-88000D02*
X169000Y-36000D01*
Y-27000D01*
X216000Y20000D01*
X117000Y-100000D02*
Y-88000D01*
D39*
X307000Y-38000D02*
X311000Y-34000D01*
Y162000D01*
X307000Y166000D02*
X311000Y162000D01*
X147000Y166000D02*
X307000D01*
X144000Y163000D02*
X147000Y166000D01*
X144000Y140000D02*
Y163000D01*
X135000Y140000D02*
X144000D01*
X292000Y-38000D02*
X300000D01*
X307000D01*
D40*
X461000Y44000D02*
X472000D01*
X475000Y41000D01*
Y-40000D02*
Y41000D01*
X471000Y-44000D02*
X475000Y-40000D01*
X461000Y-44000D02*
X471000D01*
D44*
X12500Y-35750D02*
D03*
Y35750D02*
D03*
D45*
X705700Y-81500D02*
D03*
Y81500D02*
D03*
D47*
X225000Y58000D02*
D03*
X213000Y75000D02*
D03*
X557000Y-162000D02*
D03*
Y-189000D02*
D03*
X582000Y-59000D02*
D03*
X557000D02*
D03*
X65000Y-54000D02*
D03*
Y-43000D02*
D03*
X67000Y14000D02*
D03*
Y-7000D02*
D03*
X240000Y-135000D02*
D03*
Y-127000D02*
D03*
X320000Y24000D02*
D03*
X337000Y57000D02*
D03*
Y32000D02*
D03*
X233000Y-5000D02*
D03*
X226000Y-12000D02*
D03*
X290000Y8000D02*
D03*
Y17000D02*
D03*
X188000Y75000D02*
D03*
X269000Y15000D02*
D03*
X185000Y-69000D02*
D03*
X131000Y15000D02*
D03*
X169000Y58000D02*
D03*
X269000Y-15000D02*
D03*
X320000Y-56000D02*
D03*
Y-22000D02*
D03*
X300000Y-38000D02*
D03*
X292000D02*
D03*
X300000Y-5000D02*
D03*
X292000D02*
D03*
X493000Y113000D02*
D03*
X462000Y-19000D02*
D03*
X504000Y-50000D02*
D03*
X504500Y20500D02*
D03*
X493000Y-28000D02*
D03*
X485000Y25000D02*
D03*
X505000Y70000D02*
D03*
X486000Y92000D02*
D03*
X440000Y-90000D02*
D03*
X435000Y-60000D02*
D03*
Y-40000D02*
D03*
Y-20000D02*
D03*
X435000Y0D02*
D03*
X435000Y20000D02*
D03*
Y40000D02*
D03*
Y60000D02*
D03*
Y80000D02*
D03*
Y100000D02*
D03*
Y120000D02*
D03*
Y140000D02*
D03*
Y160000D02*
D03*
Y175000D02*
D03*
X445000Y-160000D02*
D03*
X440000Y-175000D02*
D03*
X360000D02*
D03*
Y-160000D02*
D03*
X365000Y175000D02*
D03*
Y160000D02*
D03*
Y140000D02*
D03*
Y120000D02*
D03*
Y100000D02*
D03*
Y80000D02*
D03*
Y60000D02*
D03*
Y40000D02*
D03*
Y20000D02*
D03*
X365000Y0D02*
D03*
X365000Y-20000D02*
D03*
Y-40000D02*
D03*
Y-60000D02*
D03*
X355000Y-90000D02*
D03*
X462000Y6000D02*
D03*
X470000Y-69000D02*
D03*
X486000D02*
D03*
X532000Y-59000D02*
D03*
Y-42000D02*
D03*
X550000Y-15000D02*
D03*
X532000Y12000D02*
D03*
Y29000D02*
D03*
X486000Y70000D02*
D03*
X465000Y30000D02*
D03*
X461000Y44000D02*
D03*
X459000Y81000D02*
D03*
X461000Y-44000D02*
D03*
X260000Y140000D02*
D03*
X251000D02*
D03*
X135000D02*
D03*
X144000D02*
D03*
X61000Y-72000D02*
D03*
X50000Y120000D02*
D03*
X125000Y68000D02*
D03*
X115000D02*
D03*
X43000Y-43000D02*
D03*
Y-54000D02*
D03*
X117000Y-100000D02*
D03*
X130000Y-99840D02*
D03*
Y-150000D02*
D03*
X117000D02*
D03*
X165000Y176000D02*
D03*
X175000Y175750D02*
D03*
X155000Y176000D02*
D03*
X200000Y-25000D02*
D03*
X216000Y20000D02*
D03*
X200000Y-35000D02*
D03*
X20000Y177000D02*
D03*
X270000D02*
D03*
X295000Y181000D02*
D03*
X300000Y204000D02*
D03*
X333000D02*
D03*
Y-204000D02*
D03*
X300000D02*
D03*
X295000Y-181000D02*
D03*
X270000Y-177000D02*
D03*
X125000D02*
D03*
X90000D02*
D03*
X55000D02*
D03*
X20000D02*
D03*
X160000D02*
D03*
X55000Y177000D02*
D03*
X195000Y-177000D02*
D03*
X90000Y177000D02*
D03*
X230000Y-177000D02*
D03*
X125000Y177000D02*
D03*
X455000Y-192000D02*
D03*
X490000D02*
D03*
X525000D02*
D03*
X615000Y-203000D02*
D03*
X655000Y-177000D02*
D03*
X690000D02*
D03*
X717000Y-162000D02*
D03*
Y-125000D02*
D03*
Y162000D02*
D03*
X690000Y177000D02*
D03*
X655000D02*
D03*
X615000Y203000D02*
D03*
X525000Y192000D02*
D03*
X490000D02*
D03*
X455000D02*
D03*
X557000Y189000D02*
D03*
Y162000D02*
D03*
X10000Y130000D02*
D03*
Y160000D02*
D03*
Y-130000D02*
D03*
Y-160000D02*
D03*
X243000Y140000D02*
D03*
Y156000D02*
D03*
Y124000D02*
D03*
Y132000D02*
D03*
Y148000D02*
D03*
X217000Y132000D02*
D03*
Y148000D02*
D03*
Y156000D02*
D03*
Y124000D02*
D03*
Y140000D02*
D03*
M02*
