M48
;Layer_Color=9474304
;FILE_FORMAT=4:4
METRIC,LZ
;TYPE=PLATED
T1F00S00C0.3000
T3F00S00C2.3500
;TYPE=NON_PLATED
T4F00S00C0.9950
T5F00S00C5.2000
%
T01
X0002Y-00177
X0001Y-0016
Y-0013
X00055Y-00177
X0009
X00125
X0013Y-0015
X00117
X00103
Y-001
X00117
X0013Y-0009984
X00147Y-00069
X00166Y-00063
X00185Y-00069
X0024Y-00127
Y-00135
X0023Y-00177
X00195
X0016
X0027
X00295Y-00181
X003Y-00204
X00333
X00061Y-00072
X00355Y-0009
X00365Y-0006
X00435
X0044Y-0009
X0047Y-00069
X00486
X0049Y-00192
X00455
X0044Y-00175
X00445Y-0016
X0036
Y-00175
X00525Y-00192
X00557Y-00189
Y-00162
X00615Y-00203
X00655Y-00177
X0069
X00717Y-00162
Y-00125
X00582Y-00059
X00557
X00532
Y-00042
X00504Y-0005
X00493Y-00028
X00462Y-00019
Y00006
X00465Y0003
X00461Y00044
X00435Y0004
Y0002
X00435Y0
X00435Y-0002
Y-0004
X00461Y-00044
X00485Y00025
X005045Y000205
X00532Y00029
Y00012
X0055Y-00015
X00505Y0007
X00486
Y00092
X00493Y00113
X00435Y0012
Y001
Y0008
Y0006
X00459Y00081
X00435Y0014
Y0016
Y00175
X00455Y00192
X0049
X00525
X00557Y00189
Y00162
X00615Y00203
X00655Y00177
X0069
X00717Y00162
X00365Y0016
Y00175
Y0014
Y0012
Y001
Y0008
Y0006
Y0004
Y0002
X00365Y0
X00365Y-0002
Y-0004
X0032Y-00056
X003
Y-00038
X00292
X003Y-00022
Y-00005
X00292
X0029Y00008
Y00017
X003Y00024
X0032
X00337Y00032
Y00057
X00292Y00071
X00278Y00083
X00262Y00089
X0026Y0014
X00251
X00243
Y00132
Y00124
Y00148
Y00156
X00217Y00156
Y00148
Y0014
Y00132
Y00124
X00213Y00075
X00188
Y00064
X00169Y00058
X00125Y00068
X00115
X00088Y00053
Y00033
X00092Y00008
Y-00012
X00067Y-00007
Y00014
X00065Y-00043
Y-00054
X00043
Y-00043
X00097Y-00038
X0011Y-00057
X00137
X00124Y-00044
X00138Y-0003
X00155Y-00035
X0016Y00004
X00131Y00015
Y00032
X00118Y-00018
X002Y-00025
Y-00035
X00216Y-00029
X00226Y-00012
X00233Y-00005
Y00011
X00216Y0002
X00225Y00058
X00262Y00033
X00282Y00034
X00269Y00015
Y-00015
X00251Y-00033
X00231Y-00046
X0032Y-00022
X00285Y0012
Y0013
X00285Y00148
Y00157
X00295Y00181
X003Y00204
X00333
X0027Y00177
X00175Y0017575
X00165Y00176
X00155
Y00152
X00165
X00175
X00144Y0014
X00135
X00115Y0015
Y0016
X00125Y00177
X0009
X00055
X0002
X0001Y0016
Y0013
X0005Y0012
X0009Y001
X00115Y0012
Y0013
X0015Y001
T03
X007057Y-000815
Y000815
T04
X000916Y-0013516
Y-0011484
X001424Y-00125
T05
X00396Y-0012
M30
